<svg id="Camada_1" data-name="Camada 1" xmlns="http://www.w3.org/2000/svg" xmlns:xlink="http://www.w3.org/1999/xlink" viewBox="0 0 342.11 242.54"><defs><style>.cls-1{stroke:#fff;fill:url(#Gradiente_sem_nome_357);}.cls-1,.cls-10,.cls-2,.cls-3,.cls-4,.cls-5,.cls-6,.cls-7{stroke-miterlimit:10;}.cls-2{fill:#c9c9c9;}.cls-10,.cls-2,.cls-3,.cls-4,.cls-5,.cls-9{stroke:#263238;}.cls-3{fill:#fff;}.cls-4,.cls-6,.cls-7{fill:none;}.cls-5,.cls-8,.cls-9{fill:#263238;}.cls-6,.cls-7{stroke:#92e3a9;}.cls-6{stroke-width:5px;}.cls-9{stroke-linecap:round;stroke-linejoin:round;}.cls-10,.cls-11{fill:#92e3a9;}</style><linearGradient id="Gradiente_sem_nome_357" x1="76.79" y1="240.45" x2="417.89" y2="240.45" gradientUnits="userSpaceOnUse"><stop offset="0" stop-color="#53b3be"/><stop offset="1" stop-color="#3650d3"/></linearGradient></defs><g id="freepik--Certification--inject-2"><path class="cls-1" d="M417.89,128.9V351.08a10.14,10.14,0,0,1-10.14,10.14H86.93a10.14,10.14,0,0,1-10.14-10.14V128.9A9.21,9.21,0,0,1,86,119.68H408.67a9.21,9.21,0,0,1,9.22,9.22Z" transform="translate(-76.29 -119.18)"/><path class="cls-2" d="M417.89,128.9v19.17H76.79V128.9A9.21,9.21,0,0,1,86,119.68H408.67A9.21,9.21,0,0,1,417.89,128.9Z" transform="translate(-76.29 -119.18)"/><path class="cls-3" d="M296.63,144.36h-182a3.1,3.1,0,0,1-3.09-3.1h0a3.1,3.1,0,0,1,3.09-3.1h182a3.09,3.09,0,0,1,3.09,3.1h0A3.09,3.09,0,0,1,296.63,144.36Z" transform="translate(-76.29 -119.18)"/><line class="cls-4" x1="324.32" y1="19.6" x2="336.08" y2="19.6"/><line class="cls-4" x1="324.32" y1="22.08" x2="336.08" y2="22.08"/><line class="cls-4" x1="324.32" y1="24.56" x2="336.08" y2="24.56"/><path class="cls-5" d="M417.89,128.9v5.53H76.79V128.9A9.21,9.21,0,0,1,86,119.68H408.67A9.21,9.21,0,0,1,417.89,128.9Z" transform="translate(-76.29 -119.18)"/><path class="cls-3" d="M383.91,127.36a2.82,2.82,0,1,0-2.87,2.76h.06a2.76,2.76,0,0,0,2.81-2.72Z" transform="translate(-76.29 -119.18)"/><path class="cls-3" d="M395.56,127.36a2.81,2.81,0,1,0-2.85,2.76h0a2.76,2.76,0,0,0,2.81-2.72Z" transform="translate(-76.29 -119.18)"/><path class="cls-3" d="M407.22,127.36a2.81,2.81,0,1,0-2.86,2.76h.05a2.77,2.77,0,0,0,2.81-2.72Z" transform="translate(-76.29 -119.18)"/><rect class="cls-3" x="19.81" y="38.36" width="303.41" height="189.88"/><rect class="cls-6" x="27.55" y="46.23" width="287.93" height="174.13"/><rect class="cls-7" x="34.91" y="54.94" width="273.22" height="156.72"/><path class="cls-8" d="M202.11,192.45v1.62h-1.9v-1.72c0-1.61-.63-2.58-2.09-2.58s-2.09.92-2.09,2.58v9.46c0,1.6.66,2.58,2.09,2.58s2.09-1,2.09-2.58v-2.33h1.9v2.19c0,2.71-1.28,4.5-4.05,4.5s-4-1.79-4-4.5v-9.22c0-2.71,1.29-4.5,4-4.5S202.11,189.73,202.11,192.45Z" transform="translate(-76.29 -119.18)"/><path class="cls-8" d="M210.29,196.05v1.79h-4.38v6.36h5.37V206h-7.37V188.12h7.37V190h-5.37v6.12Z" transform="translate(-76.29 -119.18)"/><path class="cls-8" d="M217.11,188.12c2.81,0,4,1.44,4,4.09v1.46c0,2-.69,3.2-2.22,3.69,1.63.49,2.25,1.84,2.25,3.73v2.77a4.49,4.49,0,0,0,.36,2.14h-2a4.55,4.55,0,0,1-.33-2.16V201c0-2-.92-2.67-2.61-2.67h-1.41V206h-2V188.12Zm-.52,8.43c1.59,0,2.54-.5,2.54-2.45v-1.71c0-1.61-.59-2.45-2.07-2.45h-1.95v6.61Z" transform="translate(-76.29 -119.18)"/><path class="cls-8" d="M225.8,206V189.94h-3.3v-1.85h8.59v1.85H227.8V206Z" transform="translate(-76.29 -119.18)"/><path class="cls-8" d="M234.46,188.12V206h-2V188.12Z" transform="translate(-76.29 -119.18)"/><path class="cls-8" d="M242.62,196.45v1.85H238.5V206h-2V188.12h7.11V190H238.5v6.52Z" transform="translate(-76.29 -119.18)"/><path class="cls-8" d="M247.19,188.12V206h-2V188.12Z" transform="translate(-76.29 -119.18)"/><path class="cls-8" d="M257.13,192.45v1.62h-1.92v-1.72c0-1.61-.63-2.58-2.09-2.58s-2.1.92-2.1,2.58v9.46c0,1.6.66,2.58,2.1,2.58s2.09-1,2.09-2.58v-2.33h1.89v2.19c0,2.71-1.27,4.5-4,4.5s-4-1.79-4-4.5v-9.22c0-2.71,1.27-4.5,4-4.5S257.13,189.73,257.13,192.45Z" transform="translate(-76.29 -119.18)"/><path class="cls-8" d="M261,202.41l-.7,3.6h-1.84l3.42-17.89h2.89L268.17,206h-2l-.69-3.6Zm.25-1.72h4l-2-10.32Z" transform="translate(-76.29 -119.18)"/><path class="cls-8" d="M272.34,206V189.94H269v-1.85h8.59v1.85h-3.3V206Z" transform="translate(-76.29 -119.18)"/><path class="cls-8" d="M281,188.12V206h-2V188.12Z" transform="translate(-76.29 -119.18)"/><path class="cls-8" d="M282.87,192.45c0-2.76,1.36-4.5,4.08-4.5s4.13,1.76,4.13,4.5v9.22c0,2.71-1.36,4.5-4.13,4.5s-4.08-1.73-4.08-4.5Zm2,9.36c0,1.63.7,2.58,2.12,2.58s2.13-.92,2.13-2.58v-9.47c0-1.61-.67-2.58-2.13-2.58s-2.12.92-2.12,2.58Z" transform="translate(-76.29 -119.18)"/><path class="cls-8" d="M294.75,206H293V188.12h2.53L299.68,201V188.12h1.77V206h-2.08l-4.61-14.46Z" transform="translate(-76.29 -119.18)"/><line class="cls-4" x1="104.48" y1="96.81" x2="241.73" y2="96.81"/><line class="cls-4" x1="289.65" y1="114.32" x2="299.14" y2="114.32"/><line class="cls-4" x1="208.4" y1="114.32" x2="284.63" y2="114.32"/><line class="cls-4" x1="164.27" y1="114.32" x2="204.05" y2="114.32"/><line class="cls-4" x1="105.08" y1="114.32" x2="160.25" y2="114.32"/><line class="cls-4" x1="69.3" y1="114.32" x2="99.39" y2="114.32"/><line class="cls-4" x1="47.07" y1="114.32" x2="64.96" y2="114.32"/><line class="cls-4" x1="161.25" y1="122.72" x2="299.14" y2="122.72"/><line class="cls-4" x1="54.26" y1="122.72" x2="156.91" y2="122.72"/><line class="cls-4" x1="47.07" y1="122.72" x2="50.25" y2="122.72"/><line class="cls-4" x1="288.64" y1="131.12" x2="299.14" y2="131.12"/><line class="cls-4" x1="232.14" y1="131.12" x2="283.63" y2="131.12"/><line class="cls-4" x1="154.23" y1="131.12" x2="228.13" y2="131.12"/><line class="cls-4" x1="142.86" y1="131.12" x2="149.89" y2="131.12"/><line class="cls-4" x1="47.07" y1="131.12" x2="136.84" y2="131.12"/><line class="cls-4" x1="257.21" y1="139.52" x2="299.14" y2="139.52"/><line class="cls-4" x1="107.42" y1="139.52" x2="253.2" y2="139.52"/><line class="cls-4" x1="94.05" y1="139.52" x2="102.08" y2="139.52"/><line class="cls-4" x1="47.07" y1="139.52" x2="89.7" y2="139.52"/><line class="cls-4" x1="272.93" y1="147.92" x2="299.14" y2="147.92"/><line class="cls-4" x1="160.92" y1="147.92" x2="267.59" y2="147.92"/><line class="cls-4" x1="118.12" y1="147.92" x2="155.91" y2="147.92"/><line class="cls-4" x1="58.27" y1="147.92" x2="113.1" y2="147.92"/><line class="cls-4" x1="47.07" y1="147.92" x2="54.93" y2="147.92"/><polygon class="cls-9" points="57.25 184.93 65.9 207.4 70.09 197.24 80.25 201.38 70.32 180.28 57.25 184.93"/><polygon class="cls-9" points="54.16 180.04 43.7 201.72 53.97 197.84 57.91 208.08 66.5 186.4 54.16 180.04"/><path class="cls-10" d="M156.51,293.76c0-.82,1.78-1.76,1.67-2.55s-2.08-1.21-2.31-2,1.21-2.18.87-2.91-2.34-.56-2.76-1.24.54-2.44,0-3.05-2.41.12-3-.41-.14-2.48-.83-2.92-2.26.79-3,.45-.84-2.34-1.62-2.57-1.95,1.4-2.77,1.29-1.46-2-2.28-2-1.5,1.9-2.29,2-2-1.51-2.77-1.29-.92,2.24-1.63,2.57-2.32-.92-3-.45-.23,2.39-.83,2.93-2.49-.2-3,.4.45,2.36,0,3.05-2.44.5-2.76,1.24,1.1,2.13.87,2.91-2.19,1.18-2.31,2,1.67,1.73,1.67,2.55-1.78,1.75-1.67,2.55,2.08,1.2,2.31,2-1.22,2.17-.87,2.9,2.34.57,2.76,1.25-.55,2.43,0,3,2.4-.12,3,.41.14,2.48.83,2.93,2.26-.8,3-.46.85,2.35,1.63,2.58,2-1.41,2.77-1.29,1.46,2,2.29,2,1.49-1.89,2.28-2,2,1.51,2.77,1.29.92-2.24,1.63-2.58,2.32.93,3,.46.23-2.4.83-2.93,2.49.2,3-.41-.45-2.36,0-3,2.44-.51,2.76-1.25-1.1-2.13-.87-2.91,2.19-1.16,2.31-2S156.51,294.58,156.51,293.76Z" transform="translate(-76.29 -119.18)"/><circle class="cls-9" cx="64.18" cy="174.58" r="11.12"/><polygon class="cls-11" points="64.18 166.94 65.89 172.22 71.44 172.22 66.95 175.48 68.67 180.76 64.18 177.5 59.69 180.76 61.4 175.48 56.91 172.22 62.46 172.22 64.18 166.94"/><line class="cls-4" x1="93.31" y1="169.26" x2="135.72" y2="169.26"/><line class="cls-4" x1="93.31" y1="179.39" x2="135.72" y2="179.39"/><circle class="cls-7" cx="275.44" cy="177.54" r="15.76"/><circle class="cls-11" cx="275.44" cy="177.57" r="10.69"/></g></svg>