<svg id="Camada_1" data-name="Camada 1" xmlns="http://www.w3.org/2000/svg" viewBox="0 0 900.05 157.1"><defs><style>.cls-1{fill:#1e1e1e;}</style></defs><path class="cls-1" d="M70.86,295.4h0l.44.11Z" transform="translate(713.86 -142.9)"/><path class="cls-1" d="M83.79,243.21a29.4,29.4,0,0,1-28.87,27.6q-26.73.33-53.47-.05c-9.26-.15-16.63-4.63-22.35-11.84-.48-.61-.93-1.25-1.4-1.87a1.47,1.47,0,0,0-.34-.19c-.35.43-.74.87-1.09,1.35-6.11,8.23-14.25,12.61-24.53,12.65q-25.11.12-50.21,0c-15.28-.06-27.41-9.95-30.1-24.48a32.21,32.21,0,0,1-.43-5.81q0-47.54,0-95.05v-2.48H-27v8.38H-69.41v89.3H-77.9v-89h-42.62v88.24c0,13.31,9.12,22.44,22.45,22.46,16.11,0,32.23-.18,48.34.06,13.42.2,22.5-9.68,22.88-20.44a4.37,4.37,0,0,1,.24-.81h8.15c.19,1.33.3,2.64.57,3.91,2.2,10.21,10.46,17.16,21,17.24,16.66.15,33.33.2,50,.05,11.64-.1,20.5-7.14,22-17.91.82-5.89.33-12,.23-17.95,0-.88-1-1.86-1.74-2.6q-18.91-19.05-37.9-38c-3.3-3.3-6.67-6.52-10.2-10l6.37-5.86c.6.57,1.39,1.29,2.13,2q24.27,24.28,48.47,48.62a5.72,5.72,0,0,1,1.55,3.59C84,230.6,84.17,236.93,83.79,243.21Z" transform="translate(713.86 -142.9)"/><path class="cls-1" d="M186.18,226c0,.68-.09,1.37-.14,2.31H135.16v42.41h-51v-8.25h42.36V173H135v46.46h42.66V217q0-21.72,0-43.44c0-12.72-9.14-22-21.89-22q-25.23-.09-50.45,0a21.32,21.32,0,0,0-21.23,19.36c-.06.6-.2,1.2-.32,1.87H75.61c-.21-1.38-.35-2.76-.65-4.1a21.16,21.16,0,0,0-20.81-17.11q-25.11-.18-50.22-.06c-11.16.06-20,6.94-21.77,17.36-.77,4.47-.1,9.17-.53,13.73-.37,4,1.06,6.74,3.9,9.53,14.83,14.56,29.45,29.34,44.14,44,.6.6,1.15,1.24,1.82,2L25,244.36a14.12,14.12,0,0,0-1.64-2.47Q-1,217.5-25.35,193.13a4.27,4.27,0,0,1-1.4-2.49c0-7-.35-14,.23-21,1.19-14.37,14.39-26.5,28.75-26.62,17.6-.15,35.19-.18,52.79,0,9.52.11,17.17,4.42,23,11.93.52.67,1,1.37,1.69,2.3A30.1,30.1,0,0,1,97,144.15a27.78,27.78,0,0,1,7.34-1.12q25.94-.15,51.85,0a29.74,29.74,0,0,1,29.52,24.62,28.12,28.12,0,0,1,.42,5.11Q186.21,199.35,186.18,226Z" transform="translate(713.86 -142.9)"/><path class="cls-1" d="M44.24,280.37v6.48c-5.27-2.63-8.82-.58-9.12,5a12.38,12.38,0,0,0,.12,2.79c.89,5.07,4.65,6.58,8.39,3.92l4.22,1.18V280.37ZM44,295.28c-.18.47-.68,1.16-1,1.15-1.08,0-2.42,0-3.17-.55-1.38-1.09-1.37-5,0-6.27.69-.62,2.49-1.05,3-.63,1,.84,1.44,2.34,1.91,3.2A23.18,23.18,0,0,1,44,295.28Z" transform="translate(713.86 -142.9)"/><path class="cls-1" d="M-114.5,295c-.19,2.52-2.23,3.92-4.72,4.54-5.74,1.45-9.56-1.3-9.72-7.14-.09-3.56,0-7.12,0-10.81h3.82c0,3.85-.06,7.57,0,11.29.05,2.51,1.07,3.58,3.25,3.72,2.36.16,3.74-1.06,3.8-3.64.08-3.73,0-7.46,0-11.36h3.65C-114.4,286.06-114.17,290.55-114.5,295Z" transform="translate(713.86 -142.9)"/><path class="cls-1" d="M-21.44,280.47v5.92c-1.65-.25-3.25-.83-4.76-.65-3.11.37-4.89,3.92-4.37,8.11.7,5.69,4.3,7.46,8.62,4.77l4.15,1.18V280.47Zm-1.17,15.83c-.71.47-2.42.15-3.25-.44-1.27-.91-1.31-5.22,0-6.25.76-.62,2.61-1,3.17-.54,1,.82,1.3,2.37,2,3.74C-21.43,294.17-21.71,295.7-22.61,296.3Z" transform="translate(713.86 -142.9)"/><path class="cls-1" d="M8.63,280.45V287c-2.28-1.48-4.45-2.11-6.66-.56-2.66,1.84-3.34,8-1.3,11.18,1.71,2.64,4.27,2.82,7.51,1l4,1.25V280.45ZM8,295.87c-.7.57-2.39,1-2.85.6-1-.91-1.59-2.37-2.57-4,1-1.44,1.69-2.85,2.78-3.69.45-.34,2.13.28,2.75.93C9.34,291,9.26,294.86,8,295.87Z" transform="translate(713.86 -142.9)"/><path class="cls-1" d="M133.22,286.85c-.12-3-1.67-4.86-4.68-5.15-2.51-.25-5.07-.05-7.63-.05V299.4h3.59v-6c1.78-.24,3.18-.31,4.53-.64A5.45,5.45,0,0,0,133.22,286.85ZM129,288.27c-.71,1.89-2.51,1.7-4.7,1.53a34.42,34.42,0,0,1,1-5,5.3,5.3,0,0,1,3.11.63A3.17,3.17,0,0,1,129,288.27Z" transform="translate(713.86 -142.9)"/><path class="cls-1" d="M82.34,295.52a4.54,4.54,0,0,1-4,3.93,15,15,0,0,1-4.38.18c-3.32-.44-3.48-.77-3-4.22h0c.59.15,1.18.33,1.77.5a12.73,12.73,0,0,0,3,.58c1,0,2-.77,3-1.2a11,11,0,0,0-1.73-2.66,27.51,27.51,0,0,0-3.26-1.79A5,5,0,0,1,71.1,285a4.55,4.55,0,0,1,4.54-3.7,47.61,47.61,0,0,1,7,.7c-.71,1.59-1.08,2.42-1.46,3.25a15.18,15.18,0,0,0-3.71-.75c-.9,0-1.77.81-2.66,1.25a8.7,8.7,0,0,0,1.49,2.33,26.93,26.93,0,0,0,3.47,1.9A4.89,4.89,0,0,1,82.34,295.52Z" transform="translate(713.86 -142.9)"/><path class="cls-1" d="M96.09,289.37a4.43,4.43,0,0,0-2.15-3c-2.87-1.43-5.79-1-8.7.55l1.18,2.17c5.51-1.06,5.71-1,5.93,1.88-.84.06-1.68.1-2.52.19a21.46,21.46,0,0,0-2.53.39c-2.42.59-3.64,2.28-3.36,4.56a3.81,3.81,0,0,0,4.49,3.67,20.48,20.48,0,0,0,4.17-1.26L96.19,300C96.19,296,96.37,292.67,96.09,289.37ZM89.57,297c-.66-.15-1.71-1.25-1.6-1.67.61-2.33,2.57-1.83,4.46-1.85C92.28,296.07,91.25,297.35,89.57,297Z" transform="translate(713.86 -142.9)"/><path class="cls-1" d="M105.31,285.52c-4.09.05-6.63,2.76-6.62,7.09s2.62,7.23,6.77,7.22,6.64-2.77,6.66-7.08S109.4,285.48,105.31,285.52Zm2,10.44a2.54,2.54,0,0,1-4.23-.66,11.69,11.69,0,0,1-.3-4.34,2.43,2.43,0,0,1,2.67-2.37c1.73.05,2.44,1.13,2.64,2.69.06.46.08.93.17,2A8.83,8.83,0,0,1,107.29,296Z" transform="translate(713.86 -142.9)"/><path class="cls-1" d="M147,289.53a4.91,4.91,0,0,0-2.43-3.32,8.75,8.75,0,0,0-8.19.62c.84,2.36.84,2.36,3,1.79,2.74-.71,3.56-.25,3.91,2.35-.84,0-1.68.07-2.51.16a21.4,21.4,0,0,0-2.76.43,3.91,3.91,0,0,0-3.13,4.71,3.69,3.69,0,0,0,4.16,3.48,21.48,21.48,0,0,0,4.44-1.21l3.58,1.45C147.15,296,147.37,292.74,147,289.53ZM140.59,297c-.67-.14-1.77-1.23-1.67-1.63.6-2.3,2.56-1.89,4.47-1.93C143.28,296,142.28,297.33,140.59,297Z" transform="translate(713.86 -142.9)"/><path class="cls-1" d="M-67.57,285.53c-4.26-.31-7.06,2.48-7.11,7.08,0,5.45,3.91,8.25,9.79,6.92,2.41-.55,2.54-.79,1.79-3.28-5.46,1.47-6.89,1-7.61-2.6h8.52C-61.6,288.59-63.52,285.82-67.57,285.53Zm-3,5.4a2.29,2.29,0,0,1,2.27-2.61c1.58-.09,2.54.81,2.71,2.61Z" transform="translate(713.86 -142.9)"/><path class="cls-1" d="M22.31,285.56c-4-.55-7,2-7.35,6.23-.48,5.85,3.31,9,9.36,7.85,2.09-.39,3.06-1.2,2.21-3.38-5.83,1.35-6.94,1-7.68-2.6h8.49C28.11,289,26.25,286.1,22.31,285.56Zm1.45,5.37H19l-.4-.65c.93-.67,1.84-1.84,2.78-1.86s1.92,1.1,2.87,1.72C24.11,290.41,23.93,290.67,23.76,290.93Z" transform="translate(713.86 -142.9)"/><path class="cls-1" d="M179.27,285.54c-4,0-6.64,2.77-6.69,7.06s2.67,7.21,6.8,7.21,6.59-2.66,6.64-7.06S183.46,285.55,179.27,285.54Zm.29,11.21c-2,.15-3.06-1.27-3.08-4.95a7.84,7.84,0,0,1,.94-2.33,2.51,2.51,0,0,1,4.24.55,6.38,6.38,0,0,1,.51,2C182.48,294.72,181.4,296.62,179.56,296.75Z" transform="translate(713.86 -142.9)"/><path class="cls-1" d="M57.85,285.57c-4.15-.5-7.08,2.09-7.34,6.49-.34,5.77,3.64,8.8,9.65,7.54,2.09-.44,2.76-1.33,2-3.32-6,1.31-7,1-7.74-2.63h8.49C63.65,288.84,61.82,286.05,57.85,285.57ZM54.68,291l-.45-.62c.89-.68,1.71-1.78,2.69-1.95,1.55-.27,2.48.8,2.68,2.57Z" transform="translate(713.86 -142.9)"/><path class="cls-1" d="M163,286v13.75l-3.44-.93c0-.18.08-.36.13-.54a22.77,22.77,0,0,1-2.48,1.22c-3.68,1.28-6.6-.7-6.7-4.57-.08-2.94,0-5.87,0-9h3.74c0,2.58,0,5.11,0,7.64,0,1.55.12,3.12,2.15,3.22s2.85-1.39,2.93-3.17c.11-2.47,0-4.95,0-7.59Z" transform="translate(713.86 -142.9)"/><path class="cls-1" d="M-3,291c0-3.61-1.42-5.23-5-5.36a36.43,36.43,0,0,0-6.16.8l1.31,2.65c5.53-1.07,5.72-1,5.93,1.9-.84,0-1.68.07-2.51.17a19.36,19.36,0,0,0-2.76.44,3.93,3.93,0,0,0-3.11,4.54,3.66,3.66,0,0,0,3.82,3.61,25.32,25.32,0,0,0,5-1.16L-3,300C-3,296.54-2.94,293.76-3,291Zm-6.64,6c-.67-.13-1.76-1.24-1.65-1.62.6-2.26,2.49-2,4.39-1.9C-6.93,296.08-7.89,297.34-9.61,297Z" transform="translate(713.86 -142.9)"/><path class="cls-1" d="M-98.13,299.33h-3.69c0-2.47,0-4.94,0-7.41,0-1.6-.13-3.31-2.34-3.31-2,0-2.68,1.4-2.73,3.12-.08,2.47,0,4.95,0,7.7h-3.63V285.6l3.88,1.08a16,16,0,0,1,3.22-1.09,4.33,4.33,0,0,1,5.27,4.23C-98,292.91-98.13,296-98.13,299.33Z" transform="translate(713.86 -142.9)"/><path class="cls-1" d="M-39.31,296.1a6,6,0,0,1-2.87,3.18c-1.39.6-3.18.42-4.79.4-2.13,0-3.15-1-2.34-3.43a28.1,28.1,0,0,0,4.18.72c.7,0,1.43-.59,2.15-.92a7.63,7.63,0,0,0-1.42-1.6c-1-.62-2.1-1-3.13-1.54a3.59,3.59,0,0,1-2.07-3.83,3.17,3.17,0,0,1,2.93-3.14c2.32-.19,4.67,0,7.59,0l-1.26,3-5.26-.59c-.1.28-.21.56-.31.85a10.13,10.13,0,0,0,1.54,1.33c1,.57,2.12.94,3.15,1.5C-39.61,292.91-38.7,294.46-39.31,296.1Z" transform="translate(713.86 -142.9)"/><path class="cls-1" d="M-75.31,286.08c-1.63,4.24-3.16,8.46-4.92,12.59-.24.55-1.68.81-2.55.8a2.56,2.56,0,0,1-2-1.07c-1.65-4-3.12-8.1-4.73-12.37,3.74-.44,3.75-.45,4.87,2.77.39,1.1.75,2.2,1.11,3.31s.66,2.06,1.08,3.38c.82-2.46,1.53-4.63,2.27-6.79C-79,285.49-79,285.49-75.31,286.08Z" transform="translate(713.86 -142.9)"/><rect class="cls-1" x="880.37" y="137.52" width="3.44" height="19.01"/><path class="cls-1" d="M-50.9,285v3.74c-4.63,1-5,1.38-5,6,0,1.45,0,2.92,0,4.63h-3.62V286c1.49-.23,3-.85,3.17,1.42Z" transform="translate(713.86 -142.9)"/><rect class="cls-1" x="619.32" y="142.98" width="3.36" height="13.5"/><rect class="cls-1" x="677.16" y="143.09" width="3.42" height="13.43"/><path class="cls-1" d="M95.81,280.28c-.68,3.7-2.2,4.58-5.2,3.22-1.11-.5-2.09-1-3.09.25-.26.34-1.08.26-1.71.39.54-3.69,2.08-4.61,5.09-3.2,1.18.56,2.21,1.17,3.2-.34C94.31,280.28,95.16,280.38,95.81,280.28Z" transform="translate(713.86 -142.9)"/><path class="cls-1" d="M-90.51,281.73v.89c-.82.45-1.67,1.28-2.46,1.23s-1.24-1.13-1.86-1.76c.72-.6,1.38-1.58,2.16-1.68S-91.23,281.25-90.51,281.73Z" transform="translate(713.86 -142.9)"/><path class="cls-1" d="M-33.09,282c0,.74-.92,1.52-1.82,2.84-1-1.24-2.11-2-2-2.55A2.91,2.91,0,0,1-35,280.42C-34.41,280.32-33.11,281.41-33.09,282Z" transform="translate(713.86 -142.9)"/><path class="cls-1" d="M-569.11,185a35.13,35.13,0,0,0-6.73,1.72c-8,3.31-13.14,9.39-15.15,18-.47,2-.49,3-.66,15.62-.09,8.1-.26,13.74-.4,14.16-2,5.78-6.33,9.51-12,10.27-1.56.19-11.73.23-39.39.19l-37.29-.1-2.12-.61a21.53,21.53,0,0,1-10-5.83A21.38,21.38,0,0,1-699.29,223a21.36,21.36,0,0,1,6.49-15.62,22,22,0,0,1,9.94-5.78l1.88-.55,28.23-.07c28.11-.09,28.25-.07,29.55.4a7.72,7.72,0,0,1,4.06,4.28,7.24,7.24,0,0,1-3.54,8.54l-1,.52-30.72.07-30.76,0v14.63h29.93c17.53,0,30.7-.1,31.86-.24a21.51,21.51,0,0,0,18.1-27.61,21.62,21.62,0,0,0-18.27-15.13c-2.9-.3-54.35-.28-57.39,0A36.67,36.67,0,0,0-708.61,204a36.91,36.91,0,0,0-4.3,27.47,36.87,36.87,0,0,0,26.74,27c4.46,1.11,3.64,1.09,44.72,1.09,36.58,0,38.94,0,40.83-.43a29,29,0,0,0,19.17-13,30.76,30.76,0,0,0,4-9.92c.21-.8.35-5.45.47-14.51.1-8,.29-13.76.43-14.42a11.88,11.88,0,0,1,2.92-4.86,13.83,13.83,0,0,1,2.91-1.89,6.93,6.93,0,0,1,4.24-.9,8.4,8.4,0,0,1,4.06.69,8.2,8.2,0,0,1,3.33,2.36c.92.92,9.49,12.11,19.28,25.08s18.2,24.08,18.91,24.86a24.75,24.75,0,0,0,13,7.78,27.71,27.71,0,0,0,10.43.15,25.07,25.07,0,0,0,19.64-19c.47-1.91.49-2.92.64-19.35l.14-17.34.75-1.18a5.5,5.5,0,0,1,3.31-2.51c1.39-.33,92.06-.28,94,.05a11.51,11.51,0,0,1,9.37,9.49c.47,2.78.47,21.85,0,24.64a11.88,11.88,0,0,1-9.46,9.44c-2.79.45-62.35.42-64.48,0a7.65,7.65,0,0,1-5.95-6,7.69,7.69,0,0,1,5.83-8.9c1.09-.26,7-.33,30.8-.33h29.43V214.82l-30.84.1-30.87.07-2.13.61a21.43,21.43,0,0,0-10.4,6,21.31,21.31,0,0,0-6.52,15.72A21.21,21.21,0,0,0-457.72,253,21.81,21.81,0,0,0-447,259l2,.55h33.4c31.46,0,33.51,0,35.35-.43a26.76,26.76,0,0,0,14.14-7.79,26.64,26.64,0,0,0,6.84-13.26c.38-1.7.42-3.18.42-15.1,0-14.54,0-14.59-1.53-19.14a26.54,26.54,0,0,0-16.28-16.1c-4.46-1.44-.29-1.34-53.58-1.34h-48.49l-2.22.66q-10.83,3.26-14.14,14.32l-.59,2-.16,17.35c-.1,10.9-.26,17.67-.4,18.21a11,11,0,0,1-8.24,7.25A10.49,10.49,0,0,1-509,243.9c-.81-.71-7.56-9.47-19.57-25.4-13.21-17.53-18.9-24.87-20.36-26.36a24.19,24.19,0,0,0-13.46-6.94A29.77,29.77,0,0,0-569.11,185Z" transform="translate(713.86 -142.9)"/><path class="cls-1" d="M-316.12,186.46a27,27,0,0,0-16.36,7.9,25.9,25.9,0,0,0-6.2,10c-1.42,4.13-1.4,3.52-1.4,30.47v24.64h14.4v-23.2c0-26,0-25.63,1.6-28.86a11.58,11.58,0,0,1,8.48-6.21c2.22-.33,63-.35,64.45,0a7.36,7.36,0,0,1,4,2.88,7,7,0,0,1-2.62,10.15l-1,.54-30.37.07-30.4,0v14.63h29.57c17.3,0,30.37-.1,31.51-.24a21.64,21.64,0,0,0,18.36-15.69,15.91,15.91,0,0,0,.63-5.55,17.52,17.52,0,0,0-.49-5.33c-2.1-7.84-7.62-13.36-15.74-15.74-1.63-.5-2-.5-34.58-.55C-300.36,186.38-315.6,186.41-316.12,186.46Z" transform="translate(713.86 -142.9)"/></svg>