<svg id="Camada_1" data-name="Camada 1" xmlns="http://www.w3.org/2000/svg" viewBox="0 0 851.27 185.96"><defs><style>.cls-1{fill:#1e1e1e;}</style></defs><path d="M617.8,315.22c-4.53-.39-8.54-1-12.56-1-4.65,0-8.27,2.69-8.61,7.13-.29,3.73.42,8.41,2.57,11.24,3.36,4.38,8.62,3.78,13.38.93.2,4.19.2,4.19-10,6V343h11.33c1.28-1.9,3.55-3.73,3.67-5.69C618.05,329.88,617.8,322.41,617.8,315.22Zm-10.92,16.29a6.55,6.55,0,0,1-6.08-6.88c.3-3.53,1.88-6.29,5.93-6.34,4.26-.07,5.93,2.61,6.29,5.84C613.05,328.54,610.34,331.54,606.88,331.51Z" transform="translate(175.64 -157.04)"/><path d="M665.3,273.2c.84,1,1.51,2.28,2.57,3,2.49,1.58,5.17,2.87,7.77,4.27v5.14c-5.29,5.22-10,5.44-16.33.59.78-1.05,1.58-2.08,1.9-2.52l8.95,1.37c.2-.71.39-1.42.59-2.13a45.22,45.22,0,0,0-5-2.53c-3.73-1.37-6.68-3.37-5.48-7.81s4.88-4.94,8.65-4.43c2.3.31,4.49,1.36,6.73,2.07v1c-1.78,2-3.56,3.05-6.33,1.29C668.47,272,666.67,272.93,665.3,273.2Z" transform="translate(175.64 -157.04)"/><path d="M360,206.44c-1.12,6.85-1.44,13.95-3.49,20.5-2.22,7.13-8.08,11.63-15.61,12.42-5.87.61-12.19,1-17.71-.56-5.21-1.47-9.63-5.62-14.82-8.86-6.37,9.49-16.9,11.9-28.83,10.78-15.36-1.43-23.07-9-24.53-24.43-.31-3.22-.24-6.47-.25-9.73,0-5.74,0-5.74,5.37-9.24,4.13,1.87,6.39,4.82,5.61,9.58a8.82,8.82,0,0,0,0,1.54c.05,14.34,5.09,20.43,17,20.55,13.88.13,21.27-7,21.34-21,0-4.68.07-8.91,5.6-10.81,4.17,1.85,5.72,4.83,5.17,9.12a23.11,23.11,0,0,0,.3,5.1c1.37,13.71,8.78,19.21,22.44,16.63,5.82-1.1,9.61-5.2,10.78-12.17a35,35,0,0,0,.61-9.17c-.42-4.66,1.07-7.94,5.45-9.77C358.84,198.6,360.82,201.68,360,206.44Z" transform="translate(175.64 -157.04)"/><path d="M235.28,201.54c-1.91,4.72-5.35,6.24-10.45,6-9.38-.39-18.79-.12-29-.12,0,5.77-.37,11.17.1,16.51.51,5.51-1.4,9.21-6.62,11.58-4.19-2.08-6.65-4.85-6.5-10.47q.67-23.81,0-47.64c-.15-5.61,1.7-9,6.6-11.2,4.66,2.36,7.13,5.64,6.56,11.34s-.14,11.51-.14,17.92c10.05,0,19.6.32,29.12-.12C230.18,195.1,233.37,197,235.28,201.54Z" transform="translate(175.64 -157.04)"/><path d="M356.74,182.19c-2.71,4.68-6.36,6.34-11.82,6.25q-36.74-.48-73.48,0c-5.36.06-9.3-1.15-11.76-6.08,2.56-5.39,6.54-6.73,12.13-6.65q36.75.47,73.49,0C351,175.59,354.11,178,356.74,182.19Z" transform="translate(175.64 -157.04)"/><path d="M356.59,332.83c-4,2.32-7.75,3.66-12.87,1.1-12.81-6.41-26-12.15-39-18.17-6.61-3-6.61-3-8.69-11,4.15-2.15,8.07-3,12.74-.58,7.24,3.73,14.82,6.83,23.14,10.61,0-7.51.37-14-.12-20.44-.37-5,1.58-8.08,5.83-10.14,4.7,1.94,6.38,5.31,6.07,10.41-.44,7,.1,14-.2,21-.15,3.61.88,5.83,4.44,6.8C353,323.8,356,327.08,356.59,332.83Z" transform="translate(175.64 -157.04)"/><path d="M356.53,260.59c-.22,5.13-2.78,8.28-8,10.59Q320,283.81,291.82,297.42c-5.28,2.53-9.89,3.27-14.87-.58.9-5.68,4.12-8.73,9.32-11q28.31-12.62,56.16-26.24C347.65,257,351.92,256.38,356.53,260.59Z" transform="translate(175.64 -157.04)"/><path d="M254.39,314.74c-3.27,9.95-10.51,15.92-20.14,18.85-13.41,4.1-26.7,3.65-39.38-3-7.54-3.95-7.54-4.13-6.47-12.91,3.95-1.65,7.32-1.41,11.24,1.27,9.27,6.32,19.66,6.49,30.05,3.23,6-1.86,9.95-6.08,12.12-12.25,1.24-3.53,3.85-6.58,5.85-9.82C256.58,305.54,257,306.71,254.39,314.74Z" transform="translate(175.64 -157.04)"/><path d="M249.24,292.64c-4.31-2-6.68-4.85-7.65-9.53-1.66-8.08-8.7-12.95-18.78-13.83-9.07-.8-17.61.26-25.33,6-2.06,1.53-5.66,1-8.84,1.51-1.46-9.93-1.65-10.32,6-14.1,15.92-7.89,32-7.63,47.65.81,8,4.34,12.1,11.75,13.47,20.7C256.58,289.47,251.59,290,249.24,292.64Z" transform="translate(175.64 -157.04)"/><path d="M429.44,318.79c-5.86-3.11-5.81,2.6-8.54,5-3.07-3.78-6.17-7.32-8.87-11.17-.62-.9-.27-3.05.43-4.1a3.71,3.71,0,0,1,3.47-1.12c1.12.49,1.87,2.05,2.49,3.29.32.64.05,1.59.05,2.27,3.5,1.67,5.07.05,4.48-2.89-.44-2.23-1.9-5.52-3.58-6-3-.85-7-.88-9.49.61-1.92,1.17-2.49,5.12-2.9,7.93-.22,1.56,1.09,3.36,1.65,4.89-5.14,6-6,10.91-2.84,14.83,3.55,4.35,9.24,4.27,15.4.44l9,2.51c.44-.41.86-.83,1.29-1.26C423.37,329.63,425.88,324.12,429.44,318.79ZM410.57,330c-2.95-2.7-1.67-5.83,1.5-8.95,2.06,2.44,4.08,4.81,6.23,7.34C416.2,331.2,413.29,332.42,410.57,330Z" transform="translate(175.64 -157.04)"/><path d="M239.22,232.77c-2,4.91-5.56,6.69-10.9,6.24s-10.94-.07-16.39-.11c-3.55,0-8.43-3.57-7.58-5.84,1.2-3.21,2.73-6.43,7.53-6.05a108.69,108.69,0,0,0,17.4,0C234.28,226.58,237.39,228.4,239.22,232.77Z" transform="translate(175.64 -157.04)"/><path d="M239.22,170.59c-2.1,4.61-5.6,6.31-10.66,5.83a76,76,0,0,0-12.8,0c-4.92.4-8.68-.94-11.11-5.77,2.06-4.71,5.28-6.73,10.46-6.2a68.1,68.1,0,0,0,13.84,0C234.17,163.91,237.32,166,239.22,170.59Z" transform="translate(175.64 -157.04)"/><path d="M607.58,211.82v11.81a36.73,36.73,0,0,0-4.83-1.59c-4-.7-7.56.24-10,3.61a11.18,11.18,0,0,0-.85,12.51,9.64,9.64,0,0,0,9.26,5.3,50.88,50.88,0,0,0,9-.64c.91-.17,2.12-2,2.15-3.07.17-8.35,0-16.69.14-25.05C612.46,211.16,610.83,210.73,607.58,211.82Zm-6.07,27.44c-4.12-.29-6.14-2.85-6-6.83.08-3.7,2-6.14,5.89-6.41,3.55-.24,6.33,2.71,6.38,6.53S604.93,239.52,601.51,239.26Z" transform="translate(175.64 -157.04)"/><path d="M409.76,223.55c0-2.7,0-5.22,0-7.73-.05-4.48-.07-4.48-4.63-3.92V242c4.07.54,7.38,1.07,10.68,1.41a10.12,10.12,0,0,0,10.92-8.65C428.37,225,421.07,219.89,409.76,223.55Zm6,15.74c-4-.39-5.88-3-6-6.45.12-4.34,2.87-7.14,6.45-6.82,3.91.37,5.57,3,5.73,6.58S419.08,239.62,415.76,239.29Z" transform="translate(175.64 -157.04)"/><path d="M622.89,234.09H638c.19-7.2-2.76-11.32-8.18-12.12-6.16-.91-10.79,2.19-12.19,8.14a10.62,10.62,0,0,0,6.73,12.71c5.3,1.92,10.52-.2,13.29-6.15a45.82,45.82,0,0,0-6.56,1.69C627,240.11,624.8,239.23,622.89,234.09Zm4.59-7.78c1.81,0,3.63,1.58,5.44,2.48-.2.5-.42,1-.63,1.52h-8.85c-.23-.41-.47-.81-.72-1.22C624.31,228.09,625.9,226.31,627.48,226.31Z" transform="translate(175.64 -157.04)"/><path d="M471.6,284.59c-4.14,1.68-6.58.51-7.63-4.39H478.8c.1-7.14-2.74-11.24-8.13-12.11-5.68-.91-10.62,2-12.09,7.09-1.64,5.7.64,11.22,5.54,13.42,5.36,2.4,10.66.65,14.75-6A63.74,63.74,0,0,0,471.6,284.59Zm1.83-8.56H463.7C467,270.84,469.87,270.81,473.43,276Z" transform="translate(175.64 -157.04)"/><path d="M465.68,326.47h15.39c.29-7.44-2.64-11.51-8.17-12.27-6-.8-10.83,2.32-12.08,7.75-1.41,6.05,1.74,11.76,7.35,13.34,5.36,1.49,10.24-.78,12.63-6.7-2.61.83-4.66,1.29-6.54,2.09C470.11,332.44,467.51,331.17,465.68,326.47ZM476,322.25h-9.87C469.24,316.9,472.53,316.83,476,322.25Z" transform="translate(175.64 -157.04)"/><path d="M409.59,188.05h14.8c.3-7.19-2.66-11.39-8.32-12.22-5.44-.78-10.29,2-11.8,6.78-1.8,5.76.58,11.58,5.64,13.82,5.39,2.37,10.65.56,14.39-5.89a70.69,70.69,0,0,0-7.15,1.94C413.08,194.05,410.64,192.8,409.59,188.05Zm-.61-5.22c1.81-1,3.63-2.63,5.46-2.68,1.64,0,3.3,1.75,5,2.71-.21.45-.43.89-.65,1.33h-9.19C409.39,183.73,409.18,183.27,409,182.83Z" transform="translate(175.64 -157.04)"/><path d="M492.38,232.82c0-4,.17-8.19-4.31-10.07s-8.61-1.25-12.54,2.54c1.34,1,2.92,1.75,4.26,1.46,3.22-.64,6.35-1.9,7.76,3.39-2.63.22-4.93.37-7.24.59-3.47.36-5.81,2.06-6.05,5.73-.26,3.9,1.88,6.48,5.53,6.73,4.11.29,8.3-.44,12.59-.74C492.38,239,492.4,235.89,492.38,232.82Zm-10.27,6.56c-1.07-.17-1.88-1.88-2.82-2.88l8-3.48C487.29,238.33,485.33,239.89,482.11,239.38Z" transform="translate(175.64 -157.04)"/><path d="M652.5,324.88c0-3.73.52-7.92-3.83-9.76s-8.92-1.55-12.85,2.59a7.28,7.28,0,0,0,4.75,1.07c3.1-.54,6.11-1.48,7.17,3.56-2.45.13-4.6.15-6.72.44-4,.54-6.93,2.35-6.47,7s3.57,6,7.59,5.86c3.29-.13,6.54-.74,10.36-1.22C652.5,331.27,652.53,328.07,652.5,324.88Zm-10,6.76c-1-.13-1.88-1.83-2.82-2.81l7.85-3.42C647.63,330.58,645.62,332.05,642.45,331.64Z" transform="translate(175.64 -157.04)"/><path d="M521.33,176.51c-4.34-1.63-8.56-1.17-12.22,2.88a7.36,7.36,0,0,0,4.83,1c3.12-.56,6.12-1.37,6.71,3.8-2.42.15-4.57.22-6.73.42-3.66.36-6.08,2-6.11,6.07,0,4.27,2.47,6.39,6.27,6.54s7.52-.56,11.56-.91c0-3.63-.07-7,0-10.39C525.76,182,525.71,178.12,521.33,176.51Zm-5.88,16.71c-1-.15-1.75-1.68-2.61-2.57l7.61-3.85C520.77,192.53,518.6,193.71,515.45,193.22Z" transform="translate(175.64 -157.04)"/><path d="M575,228.89c0-4.14-2.44-6.58-6.25-6.78-3.39-.19-6.85.76-10.28,1.2,0,.88-.06,1.78-.1,2.66,1.58.24,3.21.83,4.73.61,3-.42,6.12-1.73,7.14,3.8-2.66.13-4.66.2-6.68.35-3.71.26-6.19,1.85-6.32,5.94-.16,4.27,2.35,6.47,6.2,6.66s7.58-.53,11.56-.85C575,237.75,575,233.31,575,228.89Zm-9.66,10.51c-1.1-.12-2-1.75-3-2.68l7.49-3.7C570.2,238.38,568.27,239.75,565.32,239.4Z" transform="translate(175.64 -157.04)"/><path d="M582.12,274.93c-.1-4-2.54-6.53-6.36-6.72-3.37-.17-6.8.78-10.32,1.24.8,3.93,1.88,4.78,4.83,3.42,2.76-1.27,6-1.83,7.12,3.36-2.66.17-4.7.19-6.71.44-4.09.53-6.68,2.51-6.28,7.07s3.73,5.9,7.6,5.78a94.43,94.43,0,0,0,10.14-1.32C582.14,283.72,582.24,279.33,582.12,274.93Zm-10.43,10.49c-.9-.19-1.49-1.87-2.22-2.85,2.34-1,4.68-2,7.77-3.25C577.07,285,574.8,286.1,571.69,285.42Z" transform="translate(175.64 -157.04)"/><path d="M650.72,268.89a11.83,11.83,0,0,0-12.41,1.59c.42,3.28,1.81,3.55,4.56,2.36s6-1.66,7.2,3.37c-2.81.19-5,.16-7.2.51-3.78.63-6.46,2.65-6.07,6.83.43,4.39,3.56,6.12,7.55,6a99,99,0,0,0,10.56-1.42c0-3.05,0-6.1,0-9.15C654.94,275,655.21,270.79,650.72,268.89Zm-6.24,16.58c-1-.2-1.73-2-2.59-3l8.05-3.13C649.72,284.71,647.63,286.1,644.48,285.47Z" transform="translate(175.64 -157.04)"/><path d="M580.78,314.12A10.5,10.5,0,0,0,570.27,325a11,11,0,0,0,22-.5C592.12,318.27,587.27,313.93,580.78,314.12Zm.61,17.34c-3.27.3-6.32-3.09-6.34-6.63,0-3.7,2.83-6.75,6.32-6.54,3.85.23,5.82,2.56,5.92,6.28C587.42,328.58,585.37,331.07,581.39,331.46Z" transform="translate(175.64 -157.04)"/><path d="M544.33,314.12c-6.35,0-10.69,4.15-10.79,10.37-.12,6.51,4.2,11.05,10.61,11.15a10.56,10.56,0,0,0,11.15-10.73C555.35,318.52,550.88,314.12,544.33,314.12Zm.14,17.35c-3.39.28-6.42-3.05-6.2-6.74s1.88-6.26,5.91-6.43c3.63-.17,6.19,2.7,6.12,7.92C550.2,328.78,548.3,331.15,544.47,331.47Z" transform="translate(175.64 -157.04)"/><path d="M421.41,277.47c0-8.17-5.78-11.82-13.55-8.73-3.08,1.24-3.76,2.73-1.1,5.08,6.81-2.69,8.14-2.42,9.65,2.36-2.26.17-4.43.22-6.56.51-4.12.54-6.84,2.69-6.34,7.08s3.73,6,7.74,5.77c3.29-.17,6.55-.88,10.17-1.39C421.42,284.6,421.44,281,421.41,277.47Zm-10.14,8c-1-.19-1.8-1.94-2.7-3l7.87-3.32C416.47,284.6,414.41,286,411.27,285.49Z" transform="translate(175.64 -157.04)"/><path d="M481.89,175.69c-6.36.06-11.07,4.78-10.92,11a11,11,0,0,0,22-.18C493,180.27,488.28,175.64,481.89,175.69Zm.27,17.43c-3.43.32-6.21-2.71-6.21-6.54,0-4,2-6.26,5.46-6.65,4.07,0,7,3.14,6.73,6.73S486,192.76,482.16,193.12Z" transform="translate(175.64 -157.04)"/><path d="M517.25,232.5v10.07h-4.73c-.09-1-.22-1.78-.24-2.58,0-2.9,0-5.8,0-8.7s-.78-5.74-4-4.93a8.07,8.07,0,0,0-5,5.07c-.84,3.36-.22,7.08-.22,10.64l-1.65,1.41c-1.07-1.2-2.93-2.35-3-3.63a117.72,117.72,0,0,1,0-14.79,3.9,3.9,0,0,1,2.45-2.77c2.31-.47,4.77-.06,7.12-.39,5.41-.71,8.9,2,9.29,7.55C517.28,230.46,517.25,231.48,517.25,232.5Z" transform="translate(175.64 -157.04)"/><path d="M528.52,334.47c-3.63,1.21-4.78-.06-4.63-3.27.14-2.73.51-5.61-.2-8.13-.51-1.8-3.09-4.61-4-4.34-2,.57-4.49,2.47-5.13,4.39-.88,2.61-.36,5.73-.22,8.63.17,3.37-1.53,3.5-4.26,2.84V315.1c4-.34,7.77-.85,11.56-.92,4.06-.08,6.55,2.24,6.8,6.17C528.76,325.08,528.52,329.85,528.52,334.47Z" transform="translate(175.64 -157.04)"/><path d="M444,192.05c-1,4.51-4.68,5.71-8.77,5.17-2.42-.32-4.74-1.51-7.39-2.39,1.15-3.07,2-4.71,5.22-2.88,1.56.9,3.82.58,5.75.81l.56-1.91a24,24,0,0,0-4.36-2.53c-4.1-1.37-7.46-3.23-6.12-8.34.92-3.49,5.9-5.27,10.49-3.86a31.12,31.12,0,0,1,4.19,2c-1.64,7.22-7.58-1.56-10.19,4.09,1.68.83,3.34,1.79,5.11,2.49C442,186,445,187.78,444,192.05Z" transform="translate(175.64 -157.04)"/><path d="M498.38,284.21c-.8,4-3.95,5.62-7.63,5.31-2.9-.25-5.68-1.53-9.1-2.53,1.46-1.93,2.25-3,2.54-3.37l9,1.44c.15-.69.3-1.39.44-2.1-3.31-4-14.68-2.58-9.24-12.46,2.07-3.76,8.25-3.35,13.41.17-1.34,7-8-2.37-10,3.78a60.83,60.83,0,0,0,5.49,2.65C496.69,278.35,499.18,280.32,498.38,284.21Z" transform="translate(175.64 -157.04)"/><path d="M505.91,329.54c-5.85,6.95-13,7.68-17.72,3.22-4.18-3.95-4.23-11.64-.08-15.68,4.71-4.57,11.78-4,17.76,2.8-2.93-.2-4.91.19-6.34-.53-3.2-1.59-6.49-1.89-8,1.29a10.66,10.66,0,0,0-.05,8.33c1.49,3.1,4.78,3.11,8,1.39C500.89,329.61,502.84,329.88,505.91,329.54Z" transform="translate(175.64 -157.04)"/><path d="M548.57,238c1.32-.71,3.21-.46,4.83-.63-4.74,7.12-11.61,7.63-16.37,2.88a11,11,0,0,1,.15-15.57c4.7-4.46,12-3.72,17.68,3.15a51.94,51.94,0,0,0-6.59-.75c-2.65.12-6.78-.22-7.55,1.14a10.67,10.67,0,0,0-.2,8.68C542,240,545.42,239.77,548.57,238Z" transform="translate(175.64 -157.04)"/><path d="M455.9,331.54c.53.87.46,3.12-.15,3.49-3.26,2-8-.73-8.24-4.57-.17-2.55.25-5.16-.15-7.66-.24-1.6-1.61-3-2.26-4.56-.39-1-.89-2.43-.45-3.11,2.71-4.34,2.79-4.29,3.15-8.37,4.27-.32,4.27-.32,4.63,6.19l4.54,4-4.46,2.34v11.25C453.78,330.86,455.46,330.83,455.9,331.54Z" transform="translate(175.64 -157.04)"/><path d="M527.2,284.3c1.44-.75,3.39-.53,6.4-.9-5.61,7-12.78,7.83-17.62,3.29-4.16-3.92-4.21-11.66-.11-15.75,4.56-4.54,11.94-3.9,17.75,2.83-2.88-.17-4.86.26-6.25-.45-3.17-1.67-6.46-2-8.07,1.13a10.87,10.87,0,0,0-.14,8.36C520.64,285.93,523.93,286,527.2,284.3Z" transform="translate(175.64 -157.04)"/><path d="M454.24,182.05a6.56,6.56,0,0,0,.05,8.93c2.17,2.58,4.83,2.72,7.85,1.11a8.39,8.39,0,0,1,5.1-.5c-1.86,5-5.68,6.09-10.08,5.65a10.07,10.07,0,0,1-9.17-8.93c-.77-5.07,1.42-9.45,5.71-11.53,4.74-2.31,9.64-1.15,13.74,3.25,0,.56-.06,1.14-.1,1.72-1.76-.26-3.73-.12-5.27-.85C459.05,179.47,456.36,179.37,454.24,182.05Z" transform="translate(175.64 -157.04)"/><path d="M454.92,288.52c-8.7,1.39-9.61.47-9.95-7.27-.14-3.26,2.24-7.6-2.87-9.56-.32-.14-.34-2.21-.17-2.26,4.89-1.49,2.28-6,3.53-8.83,4.15-.3,4.15-.3,4.68,7.07,1,.24,2.68.19,3,.83a6.25,6.25,0,0,1,.08,3.63c-6,.74-2.68,5.3-3.23,8.07-.5,2.42-.67,5.37,3.52,5.15C453.9,285.35,454.41,287.32,454.92,288.52Z" transform="translate(175.64 -157.04)"/><path d="M599.22,286.91a2.5,2.5,0,0,1-1.05,2c-3.51,2-8.42-.67-8.71-4.73-.19-2.54.22-5.15-.15-7.66-.22-1.49-1.5-2.79-2.17-4.24a8.4,8.4,0,0,1-.83-2.54c3.83-1.83,2.83-5.41,3.47-8.46.15-.71,2.44-.95,4.49-1.66v7.29l4.66,3.48c-1.28,1-2.56,1.95-4.34,3.3v10.77a15.68,15.68,0,0,1,3.21.79A2.63,2.63,0,0,1,599.22,286.91Z" transform="translate(175.64 -157.04)"/><path d="M469.16,239.18c.61.74,1.17,1.52,1.76,2.28-.71.53-1.37,1.34-2.15,1.51-4.66,1-7.11-.91-7.22-5.69a65.24,65.24,0,0,0-.11-7.14c-.2-1.37-1.35-2.59-1.91-3.95a27,27,0,0,1-1-3.32c4.88-1.22,2.1-5.61,3.61-8.78,7-.76,2.73,5.13,3.86,6.39l4.92,3.58c-1.19.81-3.14,1.42-3.39,2.45a34.55,34.55,0,0,0-1,9.34C466.53,237,468.24,238.06,469.16,239.18Z" transform="translate(175.64 -157.04)"/><path d="M635.06,267.6c-2.75,7.43-4.84,13.65-7.38,19.67-1.17,2.72-6.18,2.22-7.3-.7-2.24-5.83-4.19-11.78-6.53-18.46,9.92.81,6,10.22,10.56,13.9C628.48,278.5,625.65,269.5,635.06,267.6Z" transform="translate(175.64 -157.04)"/><path d="M502.65,165.44v30.9c-3.17,1-4.91.66-4.83-3.22q.26-12.23,0-24.44C497.74,165.12,499.4,164.71,502.65,165.44Z" transform="translate(175.64 -157.04)"/><path d="M564.93,331.75c0,1.28-1.86,2.52-2.86,3.78-.48-.31-.94-.62-1.39-.94V303.71l1.27-1c1,1.2,2.95,2.37,3,3.59C565.18,314.78,565.2,323.27,564.93,331.75Z" transform="translate(175.64 -157.04)"/><path d="M444.44,222.73c-1.15,1.53-1.9,3.55-2.93,3.72-4.14.64-4.75,3.28-4.68,6.66.05,2-.12,4.1.05,6.13.27,3.38-1.24,4.31-4.64,3.36V222.73Z" transform="translate(175.64 -157.04)"/><path d="M440,268.26c-1.27,1.92-2,4.16-3,4.33-3.86.59-4.55,3.06-4.61,6.18s0,6.38,0,9.73H427.8V268.94Z" transform="translate(175.64 -157.04)"/><path d="M549.88,268.91c-.93,1.39-1.68,3.56-2.61,3.66-4.26.41-4.82,3.37-5,6.49s-.06,6.07-.06,9.1l-1.39,1c-1-1-2.91-2-3-3.05-.29-5.76-.13-11.54-.13-17.22Z" transform="translate(175.64 -157.04)"/><path d="M528.93,240c-.07,1.22-1.9,2.36-2.9,3.53l-1.77-.85a106.15,106.15,0,0,0-.1-11c-.2-2-1.49-3.85-2.35-5.73-.95-2-1.21-3.7,1.79-3.82,1.53-.06,3,0,5.46,0C529.06,228.53,529.23,234.29,528.93,240Z" transform="translate(175.64 -157.04)"/><path d="M453.82,240.43c-.07,1.09-2.21,2-3.38,3-.42-.35-.84-.69-1.25-1a110.93,110.93,0,0,0-.12-11.1c-.17-1.82-1.85-3.46-2.14-5.29-.17-1.19.61-3.27,1.55-3.71,1.37-.65,3.25-.16,5.49-.16C454,228.6,454.14,234.53,453.82,240.43Z" transform="translate(175.64 -157.04)"/><path d="M609.46,286.64c-.05.95-2.15,1.78-3.31,2.68L604.83,288a104.63,104.63,0,0,0-.1-10.63c-.19-1.81-1.78-3.46-2.15-5.29-.22-1.11.39-3.23,1.17-3.54,1.46-.58,3.32-.17,5.86-.17C609.61,274.59,609.77,280.62,609.46,286.64Z" transform="translate(175.64 -157.04)"/><path d="M559.2,267.76v20.59c-3,1-4.61.39-4.44-3.07.13-2.9,0-5.81,0-8.71a7.78,7.78,0,0,0-.29-3,36.41,36.41,0,0,0-2.49-4.17C554.17,268.87,556.37,268.38,559.2,267.76Z" transform="translate(175.64 -157.04)"/><path d="M629.68,332.41c0,1.06-2.15,2-3.3,3-.44-.3-.88-.63-1.31-.95,0-3.71.24-7.46-.1-11.14-.17-1.78-1.78-3.4-2.14-5.2-.22-1.12.41-3.2,1.17-3.51,1.48-.56,3.33-.15,5.85-.15C629.85,320.9,630,326.66,629.68,332.41Z" transform="translate(175.64 -157.04)"/><path d="M491.28,217.34l-1.38,2-6.3-2.74c-1.51.73-3.65,1.74-5.8,2.76l-1.42-2c2.49-2,5-5.67,7.46-5.67S488.8,215.29,491.28,217.34Z" transform="translate(175.64 -157.04)"/><path d="M530.86,214.92c-2,1.56-3.26,3.25-4.37,3.17s-3.19-1.83-3.19-2.85a4.41,4.41,0,0,1,2.9-3.24C527.3,211.82,528.69,213.48,530.86,214.92Z" transform="translate(175.64 -157.04)"/><path d="M454.24,214.92c0,1.15-1.8,3.12-2.85,3.14s-3-1.68-3.2-2.84,1.44-2.54,2.81-4.71C452.58,212.53,454.27,213.75,454.24,214.92Z" transform="translate(175.64 -157.04)"/><path d="M630.14,307.2c-.08,1.19-1.86,3.09-2.93,3.12s-3-1.75-3.14-2.92,1.46-2.51,2.87-4.66C628.51,304.81,630.21,306.06,630.14,307.2Z" transform="translate(175.64 -157.04)"/><path d="M560,261.53c.2.87-1.73,2.22-3.31,4.07-1.41-2-3-3.29-2.91-4.39s1.94-2.2,3-3.29C557.88,259.11,559.62,260.16,560,261.53Z" transform="translate(175.64 -157.04)"/><path d="M610,261.26c-.15,1.17-2,2.95-3.13,2.92s-2.89-1.93-3-3.1,1.62-2.41,3.18-4.44C608.53,258.77,610.14,260.13,610,261.26Z" transform="translate(175.64 -157.04)"/><path class="cls-1" d="M-36.69,157A55.23,55.23,0,0,0-91.87,212.7a55.28,55.28,0,0,0,55.32,54.7,55.27,55.27,0,0,0,55.07-55.77A55.23,55.23,0,0,0-36.69,157Zm-.51,19.14a35.25,35.25,0,0,1,31,17,24,24,0,0,0-15.1-8.37,23.21,23.21,0,0,0-16.77,3.88,23.43,23.43,0,0,0-9.48,13,23.69,23.69,0,0,0,.73,15.89c-.09.09-.1.13-.13.14a.12.12,0,0,1-.1,0c-.2-.18-.42-.35-.61-.54L-68.82,196A35.56,35.56,0,0,1-37.2,176.18Zm22,65A35.29,35.29,0,0,1-36,248.25c-14.89.31-26.27-8.4-31.11-17a24,24,0,0,0,17,8.58,23.05,23.05,0,0,0,14-3.54,23.51,23.51,0,0,0,10.17-13,23.87,23.87,0,0,0-.63-16.52c.76.39,21.1,20.63,22,21.83A35.76,35.76,0,0,1-15.18,241.16Z" transform="translate(175.64 -157.04)"/><path class="cls-1" d="M102.14,308.59c-1.07-9.26-5.75-16.13-14.12-20.22a27.53,27.53,0,0,0-22.1-1.06,24.36,24.36,0,0,0-14.78,14,27.5,27.5,0,0,0-1.69,14.08,24,24,0,0,0,6.9,14.4,26.32,26.32,0,0,0,19.37,7.89,24.36,24.36,0,0,0,6.31-.66c8.19-2,14.29-6.61,17.93-14.28A25.8,25.8,0,0,0,102.14,308.59Zm-18.6,7a8.29,8.29,0,0,1-15.88-.81,12.55,12.55,0,0,1,0-6.09,8.28,8.28,0,0,1,16.26.44c.14.83.2,1.68.29,2.53A12.7,12.7,0,0,1,83.54,315.56Z" transform="translate(175.64 -157.04)"/><path class="cls-1" d="M36.11,316.22c.51-.12.85-.19,1.18-.28s.73-.17,1.08-.29a10.61,10.61,0,0,0,6.71-7.48,18,18,0,0,0,.49-7.2,14.33,14.33,0,0,0-9.84-12.69,26.47,26.47,0,0,0-9.24-1.56c-7.45-.05-14.9,0-22.35,0-.29,0-.59.05-.91.07v49.57H20.66v-7.94c0-1.34,0-2.67,0-4s0-2.62,0-3.92l.24-.05q4.23,8,8.45,15.93c3.06.21,19.05.11,19.87-.15C44.88,329.59,40.54,323,36.11,316.22Zm-7.43-10.66a4.09,4.09,0,0,1-3.9,3.59,36.43,36.43,0,0,1-4.06,0V299.5a18.72,18.72,0,0,1,4.8.23,3.93,3.93,0,0,1,3.07,3.2A8,8,0,0,1,28.68,305.56Z" transform="translate(175.64 -157.04)"/><path class="cls-1" d="M-49,331.32l-3.32-5.05c-1.08-1.66-2.17-3.31-3.26-5s-2.22-3.31-3.29-5.07L-58,316c.23-.06.47-.08.69-.15,4-1.16,6.33-4,7.44-7.89a17.93,17.93,0,0,0,.48-6.61c-.58-6.37-3.81-10.75-9.79-13a26.42,26.42,0,0,0-9.35-1.59c-7.44-.05-14.9,0-22.35,0-.29,0-.58.05-.86.06v49.58h17.38V320.49l.25-.08c.17.31.36.61.51.93,2.48,4.67,5,9.34,7.42,14a1.63,1.63,0,0,0,1.7,1.06c5.88,0,11.76,0,17.64,0h1.22Zm-17.25-26.24a4.21,4.21,0,0,1-3.62,4,25,25,0,0,1-4.44.17V299.5a22.46,22.46,0,0,1,4.43.13C-66.89,300.25-66,302.6-66.22,305.08Z" transform="translate(175.64 -157.04)"/><path class="cls-1" d="M-1.56,299.41c-1.15-5.9-4.71-9.61-10.42-11.33a35.15,35.15,0,0,0-10-1.36c-7,0-13.94,0-20.91,0-.34,0-.68,0-1.05.05v49.56c1.47.2,16.91.13,17.74-.08V321.77c.46,0,.83,0,1.19,0,2.32,0,4.66,0,7-.07a25.86,25.86,0,0,0,8.21-1.56,12.42,12.42,0,0,0,8-8.81A25.74,25.74,0,0,0-1.56,299.41Zm-16.7,6.8A3.27,3.27,0,0,1-20,308.14a5.56,5.56,0,0,1-1.84.58c-1.38.08-2.77,0-4.29,0v-8.19c1.85,0,3.65-.28,5.39.36A4,4,0,0,1-18.26,306.21Z" transform="translate(175.64 -157.04)"/><path class="cls-1" d="M-138.39,330.21A19.49,19.49,0,0,1-149.66,337a33.47,33.47,0,0,1-17.58-1.1,44.11,44.11,0,0,1-7.6-3.3l-.8-.47,5.65-13.79c.37.22.66.38.93.56a32.94,32.94,0,0,0,6.48,3.5,13.31,13.31,0,0,0,6,1,4,4,0,0,0,2.18-.8,1.92,1.92,0,0,0,0-3.22,7.92,7.92,0,0,0-2.37-1.16c-1.43-.44-2.91-.73-4.37-1.06a18.75,18.75,0,0,1-5.44-2.06c-4.81-2.85-6.66-7.2-6.37-12.62a16.48,16.48,0,0,1,1.57-6.43,17.83,17.83,0,0,1,10.66-9.15,27.31,27.31,0,0,1,11.35-1.18,34.54,34.54,0,0,1,13.05,3.93c.27.14.52.31.84.5-1.78,4.29-3.55,8.53-5.36,12.86-.35-.21-.63-.38-.9-.56a18.74,18.74,0,0,0-6.79-3,9.17,9.17,0,0,0-4.07-.12,4.38,4.38,0,0,0-1.5.6,1.69,1.69,0,0,0-.09,3,7.67,7.67,0,0,0,2.25,1.17c2.07.62,4.15,1.14,6.24,1.65a15.92,15.92,0,0,1,5.18,2.14,12.51,12.51,0,0,1,5.79,10.19A17.09,17.09,0,0,1-138.39,330.21Z" transform="translate(175.64 -157.04)"/><path class="cls-1" d="M-97.1,323v13.4h-33.46c0-.43-.1-.86-.1-1.29q0-12.45,0-24.9V286.77h33.14v13.35c-2.58.08-5.16,0-7.74,0s-5.18,0-7.74,0a17.12,17.12,0,0,0,0,4.87h13.92a112,112,0,0,1,.07,12.59c-.37,0-.76.07-1.15.07h-12.93V323c2.69,0,5.34,0,8,0Z" transform="translate(175.64 -157.04)"/></svg>