<svg id="Camada_1" data-name="Camada 1" xmlns="http://www.w3.org/2000/svg" viewBox="0 0 175.96 215.98"><defs><style>.cls-1{fill:#e0e0e0;}.cls-2{fill:#37474f;}.cls-3{fill:#263238;}.cls-4,.cls-9{fill:#455a64;}.cls-5{opacity:0.15;}.cls-6{fill:#27debf;}.cls-15,.cls-7{fill:#625aff;}.cls-8{fill:#f0f0f0;}.cls-9{opacity:0.8;}.cls-10{fill:#ebebeb;}.cls-11{fill:#3213cf;}.cls-12{fill:#3310aa;}.cls-13{fill:#300881;}.cls-14{fill:#fafafa;}.cls-15{opacity:0.52;}.cls-16,.cls-17{opacity:0.3;}</style></defs><path id="Shadow" class="cls-1" d="M323.91,268.6l-26.08-15.09a5.28,5.28,0,0,0-4.8,0L160.52,330c-1.32.76-1.32,2,0,2.77l26.09,15.09a5.28,5.28,0,0,0,4.8,0l49.65-28.67,7.63,4.44a16.2,16.2,0,0,0,14.64,0l22.76-13c4-2.33,4-6.11,0-8.45l-7.63-4.43,45.45-26.35C325.24,270.6,325.24,269.36,323.91,268.6Z" transform="translate(-159.53 -132.46)"/><g id="Device"><g id="Monitor"><path class="cls-2" d="M263.33,321.44l19.61-11.34c2-1.16,3-2.69,3-4.22s0-2.73,0-2.73l-18.45-10.47a4.29,4.29,0,0,1-1.95-3.38V265.13l-34.24,19.79v24.17a4.31,4.31,0,0,0,1.95,3.38l15.41,9A16.18,16.18,0,0,0,263.33,321.44Z" transform="translate(-159.53 -132.46)"/><path class="cls-3" d="M239.56,313.37v2.71l-6.28-3.61a4.32,4.32,0,0,1-1.95-3.38V284.92l6.53-3.76c.13,1.65.28,3.36.41,5l-4.57,2.65v18.88a4.29,4.29,0,0,0,2,3.38Z" transform="translate(-159.53 -132.46)"/><path class="cls-4" d="M233.7,307.73a4.31,4.31,0,0,0,2,3.38l13,7.6a16.17,16.17,0,0,0,14.64,0L283,307.38c4-2.33,4-6.11,0-8.45l-13.06-7.61a4.31,4.31,0,0,1-1.95-3.38V269.05L233.7,288.84Z" transform="translate(-159.53 -132.46)"/><path class="cls-5" d="M273.87,293.62h0l-4-2.3a4.31,4.31,0,0,1-1.95-3.38V269.05L233.7,288.84v18.89a4.31,4.31,0,0,0,2,3.38l3.91,2.25Z" transform="translate(-159.53 -132.46)"/><path class="cls-2" d="M286,303.15v2.73c0,1.53-1,3.05-3,4.23l-19.6,11.33a14.73,14.73,0,0,1-7,1.73v-2.71a14.74,14.74,0,0,0,7-1.74l19.6-11.34C285,306.22,286,304.69,286,303.15Z" transform="translate(-159.53 -132.46)"/><path class="cls-4" d="M178.72,333.8a5.24,5.24,0,0,0,4.72-.08l132.43-76.46a5.39,5.39,0,0,0,2.44-4.22V137.12a4.59,4.59,0,0,0-7-4.05L178.87,209.53a5.39,5.39,0,0,0-2.44,4.22V329.67A5.21,5.21,0,0,0,178.72,333.8Z" transform="translate(-159.53 -132.46)"/><path class="cls-2" d="M183.44,333.71l132.43-76.45a5.39,5.39,0,0,0,2.44-4.23V137.12c0-1.55-1.09-2.19-2.44-1.41L183.45,212.17a5.39,5.39,0,0,0-2.44,4.22V332.3C181,333.86,182.1,334.49,183.44,333.71Z" transform="translate(-159.53 -132.46)"/><path class="cls-6" d="M185.58,317V217.91a3.22,3.22,0,0,1,1.47-2.53l125.22-72.3c.81-.47,1.46-.09,1.46.85V243a3.22,3.22,0,0,1-1.47,2.53L187,317.84C186.24,318.3,185.58,317.93,185.58,317Z" transform="translate(-159.53 -132.46)"/><path class="cls-7" d="M185.58,317V217.91a3.22,3.22,0,0,1,1.47-2.53l125.22-72.3c.81-.47,1.46-.09,1.46.85V243a3.22,3.22,0,0,1-1.47,2.53L187,317.84C186.24,318.3,185.58,317.93,185.58,317Z" transform="translate(-159.53 -132.46)"/><path class="cls-6" d="M249.41,290.8a1.44,1.44,0,0,1-.74-.2,1.87,1.87,0,0,1-.81-1.72,5.28,5.28,0,0,1,2.43-4.2h0a1.67,1.67,0,0,1,2.71,1.56,5.28,5.28,0,0,1-2.43,4.2A2.29,2.29,0,0,1,249.41,290.8Zm2-5.92a1.87,1.87,0,0,0-.88.28h0a4.73,4.73,0,0,0-2.15,3.72,1.13,1.13,0,0,0,1.87,1.08,4.73,4.73,0,0,0,2.15-3.72,1.36,1.36,0,0,0-.53-1.24A.88.88,0,0,0,251.45,284.88Z" transform="translate(-159.53 -132.46)"/></g></g><g id="Window"><path class="cls-8" d="M335.48,161.73l-129,74.37v95a1.64,1.64,0,0,0,2.46,1.43l2.3-1.33L333.08,261a5.3,5.3,0,0,0,2.4-4.16Z" transform="translate(-159.53 -132.46)"/><path class="cls-1" d="M334.93,162.68v94.18a4.75,4.75,0,0,1-2.13,3.68L211,330.77l-2.3,1.33a1,1,0,0,1-.54.15,1.09,1.09,0,0,1-1.09-1.1V236.42l127.86-73.74m.55-1-129,74.37v95a1.64,1.64,0,0,0,2.46,1.43l2.3-1.33L333.08,261a5.3,5.3,0,0,0,2.4-4.16V161.73Z" transform="translate(-159.53 -132.46)"/><polygon class="cls-9" points="172.9 27.5 43.92 101.86 46.99 103.63 175.96 29.26 172.9 27.5"/><path class="cls-10" d="M207.38,332.6a1.66,1.66,0,0,1-.86-1.45v-95l-3.06-1.77v94.53a2.16,2.16,0,0,0,0,.35,2.55,2.55,0,0,0,1.25,1.86l2.53,1.46.13.07Z" transform="translate(-159.53 -132.46)"/><path class="cls-6" d="M203.45,234.37V228a2.67,2.67,0,0,1,1.19-2.09l126.59-73a2.64,2.64,0,0,1,2.4,0l.65.38a2.64,2.64,0,0,1,1.2,2.08v6.42l-129,74.37Z" transform="translate(-159.53 -132.46)"/><path class="cls-11" d="M203.45,234.37V228a2.67,2.67,0,0,1,1.19-2.09l126.59-73a2.64,2.64,0,0,1,2.4,0l.65.38a2.64,2.64,0,0,1,1.2,2.08v6.42l-129,74.37Z" transform="translate(-159.53 -132.46)"/><path class="cls-6" d="M206.51,229.73a2.68,2.68,0,0,1,1.2-2.09l126.58-73c.66-.38,1.19-.07,1.19.69v6.42l-129,74.37Z" transform="translate(-159.53 -132.46)"/><path class="cls-12" d="M206.51,229.73a2.68,2.68,0,0,1,1.2-2.09l126.58-73c.66-.38,1.19-.07,1.19.69v6.42l-129,74.37Z" transform="translate(-159.53 -132.46)"/><path class="cls-6" d="M206.86,228.54a2.55,2.55,0,0,0-.35,1.19v6.41l-3.06-1.77V228a2.43,2.43,0,0,1,.35-1.18Z" transform="translate(-159.53 -132.46)"/><path class="cls-13" d="M206.86,228.54a2.55,2.55,0,0,0-.35,1.19v6.41l-3.06-1.77V228a2.43,2.43,0,0,1,.35-1.18Z" transform="translate(-159.53 -132.46)"/><path class="cls-14" d="M329.86,161.48c0,.72.5,1,1.12.65a2.5,2.5,0,0,0,1.13-1.95c0-.71-.51-1-1.13-.65A2.5,2.5,0,0,0,329.86,161.48Z" transform="translate(-159.53 -132.46)"/><path class="cls-14" d="M325.35,164.08c0,.72.51,1,1.13.65a2.5,2.5,0,0,0,1.13-1.95c0-.71-.51-1-1.13-.65A2.51,2.51,0,0,0,325.35,164.08Z" transform="translate(-159.53 -132.46)"/><path class="cls-14" d="M320.85,166.68c0,.72.51,1,1.13.65a2.49,2.49,0,0,0,1.12-2c0-.72-.5-1-1.12-.65A2.5,2.5,0,0,0,320.85,166.68Z" transform="translate(-159.53 -132.46)"/><path class="cls-14" d="M206.51,236.14v95a1.64,1.64,0,0,0,2.46,1.43l2.3-1.33L239.46,315V217.14l-33,19Z" transform="translate(-159.53 -132.46)"/><polygon class="cls-14" points="82.19 86.28 82.19 178.56 173.25 125.99 173.25 33.7 82.19 86.28"/><path class="cls-6" d="M231.92,228.29l-21,12.15a1.54,1.54,0,0,0-.7,1.22v2.18c0,.45.31.64.7.41l21-12.14a1.61,1.61,0,0,0,.71-1.22V228.7C232.63,228.25,232.31,228.07,231.92,228.29Z" transform="translate(-159.53 -132.46)"/><path class="cls-15" d="M231.92,228.29l-21,12.15a1.54,1.54,0,0,0-.7,1.22v2.18c0,.45.31.64.7.41l21-12.14a1.61,1.61,0,0,0,.71-1.22V228.7C232.63,228.25,232.31,228.07,231.92,228.29Z" transform="translate(-159.53 -132.46)"/><path class="cls-4" d="M236.6,229.16l-.62-.6a2.77,2.77,0,0,0,.2-1,1.18,1.18,0,0,0-.46-1.06.74.74,0,0,0-.76,0,2.5,2.5,0,0,0-1,2,1.18,1.18,0,0,0,.46,1.06.66.66,0,0,0,.33.09.9.9,0,0,0,.43-.12,1.77,1.77,0,0,0,.55-.57l.5.49a.23.23,0,0,0,.17.07.25.25,0,0,0,.18-.08A.24.24,0,0,0,236.6,229.16Zm-1.64,0a.26.26,0,0,1-.27,0c-.1-.06-.21-.26-.21-.64a2,2,0,0,1,.73-1.59.32.32,0,0,1,.17-.06l.09,0c.1.06.22.26.22.64A2,2,0,0,1,235,229.16Z" transform="translate(-159.53 -132.46)"/><path class="cls-4" d="M210.71,250.67l-.47.28s-.05,0-.05,0v-1.28a.12.12,0,0,1,.05-.1l.47-.27s0,0,0,0v1.28A.11.11,0,0,1,210.71,250.67Z" transform="translate(-159.53 -132.46)"/><path class="cls-4" d="M211.42,250.26l-.48.28s-.05,0-.05,0v-1.28a.13.13,0,0,1,.05-.09l.48-.28s.05,0,.05,0v1.28A.11.11,0,0,1,211.42,250.26Z" transform="translate(-159.53 -132.46)"/><path class="cls-4" d="M212.12,249.86l-.47.27s-.05,0-.05,0v-1.28a.11.11,0,0,1,.05-.09l.47-.27s0,0,0,0v1.28A.12.12,0,0,1,212.12,249.86Z" transform="translate(-159.53 -132.46)"/><path class="cls-4" d="M210.71,252.32l-.47.27s-.05,0-.05,0v-1.27a.12.12,0,0,1,.05-.1l.47-.27s0,0,0,0v1.27A.12.12,0,0,1,210.71,252.32Z" transform="translate(-159.53 -132.46)"/><path class="cls-4" d="M211.42,251.91l-.48.27s-.05,0-.05,0v-1.27a.16.16,0,0,1,.05-.1l.48-.27s.05,0,.05,0v1.27A.16.16,0,0,1,211.42,251.91Z" transform="translate(-159.53 -132.46)"/><path class="cls-4" d="M212.12,251.5l-.47.28s-.05,0-.05,0v-1.28a.12.12,0,0,1,.05-.1l.47-.27s0,0,0,0v1.28A.11.11,0,0,1,212.12,251.5Z" transform="translate(-159.53 -132.46)"/><path class="cls-4" d="M210.78,256.67l-.58-.36s0-.06,0-.1l.58-1c0-.05.07-.05.07,0v1.38C210.85,256.63,210.81,256.68,210.78,256.67Z" transform="translate(-159.53 -132.46)"/><path class="cls-4" d="M210.54,255.89l.76-.45v.37l-.76.44c-.06,0-.12,0-.12-.11A.32.32,0,0,1,210.54,255.89Z" transform="translate(-159.53 -132.46)"/><polygon class="cls-4" points="51.92 122.9 52.18 122.75 52.18 123.11 51.92 123.26 51.92 122.9"/><path class="cls-4" d="M212.41,255v1.33a.28.28,0,0,1-.12.25c-.06,0-.12,0-.12-.11v-1.15l-.32.18v-.36l.44-.26C212.36,254.84,212.41,254.89,212.41,255Z" transform="translate(-159.53 -132.46)"/><path class="cls-4" d="M211,259.66a2.51,2.51,0,0,0-.8,2.16c.09.7.5.67.55,1,0,0,0,.05.05,0l.52-.3a.11.11,0,0,0,0-.09,6.18,6.18,0,0,0,.59-2C212,259.69,211.53,259.3,211,259.66Z" transform="translate(-159.53 -132.46)"/><path class="cls-4" d="M211.32,263.39l-.5.29s-.06,0-.06-.05v-.46a.16.16,0,0,1,.06-.12l.5-.29s.06,0,.06.05v.46A.17.17,0,0,1,211.32,263.39Z" transform="translate(-159.53 -132.46)"/><path class="cls-4" d="M211.13,248.88a3,3,0,0,0-.9,1.91,2,2,0,0,0,.13,1.05l-.17.87c0,.07,0,.11.07.07l.5-.55a.76.76,0,0,0,.73-.22,3.06,3.06,0,0,0,.91-1.91C212.51,248.88,211.88,248.27,211.13,248.88Zm.18,2.86c-.46.27-.84-.1-.84-.81a2.2,2.2,0,0,1,.84-1.77c.46-.27.84.09.84.8A2.23,2.23,0,0,1,211.31,251.74Z" transform="translate(-159.53 -132.46)"/><path class="cls-4" d="M211.13,265.7a3,3,0,0,0-.9,1.91,2,2,0,0,0,.13,1.05l-.17.87c0,.07,0,.11.07.07l.5-.55a.81.81,0,0,0,.73-.22,3.06,3.06,0,0,0,.91-1.91C212.51,265.7,211.88,265.09,211.13,265.7Zm.18,2.86c-.46.26-.84-.1-.84-.81a2.2,2.2,0,0,1,.84-1.77c.46-.27.84.09.84.8A2.24,2.24,0,0,1,211.31,268.56Z" transform="translate(-159.53 -132.46)"/><path class="cls-4" d="M211.84,271.86a1.18,1.18,0,0,1-.44.94c-.25.14-.45-.05-.45-.43a1.15,1.15,0,0,1,.45-.93C211.64,271.3,211.84,271.49,211.84,271.86Z" transform="translate(-159.53 -132.46)"/><path class="cls-4" d="M212.6,272a.77.77,0,0,1-.29.62c-.17.1-.3,0-.3-.28a.78.78,0,0,1,.3-.63C212.47,271.62,212.6,271.75,212.6,272Z" transform="translate(-159.53 -132.46)"/><path class="cls-4" d="M211.92,274.55l-1,.6v-1.32a.9.9,0,0,1,.38-.72l.29-.17c.21-.12.38,0,.38.29Z" transform="translate(-159.53 -132.46)"/><path class="cls-4" d="M212.35,272.77l-.29.17v1.52l.55-.31V273C212.61,272.78,212.49,272.69,212.35,272.77Z" transform="translate(-159.53 -132.46)"/><path class="cls-4" d="M210.19,273.39c0,.25.14.37.3.28a.77.77,0,0,0,.29-.62c0-.26-.13-.38-.29-.29A.81.81,0,0,0,210.19,273.39Z" transform="translate(-159.53 -132.46)"/><path class="cls-4" d="M210.44,273.88l.29-.17v1.52l-.54.32v-1.19A.6.6,0,0,1,210.44,273.88Z" transform="translate(-159.53 -132.46)"/><path class="cls-1" d="M215.3,247.68l12.31-7.1c.33-.19.6-.06.6.3a1.29,1.29,0,0,1-.6,1L215.3,249c-.33.19-.6.06-.6-.3A1.29,1.29,0,0,1,215.3,247.68Z" transform="translate(-159.53 -132.46)"/><path class="cls-1" d="M215.3,253.48l12.31-7.11c.33-.19.6-.06.6.3a1.29,1.29,0,0,1-.6,1l-12.31,7.11c-.33.19-.6.05-.6-.31A1.28,1.28,0,0,1,215.3,253.48Z" transform="translate(-159.53 -132.46)"/><path class="cls-1" d="M215.3,259.27l12.31-7.11c.33-.19.6,0,.6.31a1.28,1.28,0,0,1-.6,1l-12.31,7.11c-.33.19-.6.05-.6-.31A1.29,1.29,0,0,1,215.3,259.27Z" transform="translate(-159.53 -132.46)"/><path class="cls-1" d="M215.3,265.06l12.31-7.1c.33-.2.6-.06.6.3a1.31,1.31,0,0,1-.6,1l-12.31,7.1c-.33.19-.6.06-.6-.3A1.29,1.29,0,0,1,215.3,265.06Z" transform="translate(-159.53 -132.46)"/><path class="cls-1" d="M215.3,270.85l12.31-7.1c.33-.19.6-.06.6.3a1.29,1.29,0,0,1-.6,1l-12.31,7.1c-.33.2-.6.06-.6-.3A1.31,1.31,0,0,1,215.3,270.85Z" transform="translate(-159.53 -132.46)"/><path class="cls-4" d="M217.55,275.58l12.31-7.1c.33-.19.6-.06.6.3a1.29,1.29,0,0,1-.6,1l-12.31,7.1c-.33.2-.6.06-.6-.3A1.31,1.31,0,0,1,217.55,275.58Z" transform="translate(-159.53 -132.46)"/><path class="cls-1" d="M217.55,279.5l12.31-7.11c.33-.19.6-.05.6.31a1.29,1.29,0,0,1-.6,1l-12.31,7.11c-.33.19-.6.05-.6-.31A1.29,1.29,0,0,1,217.55,279.5Z" transform="translate(-159.53 -132.46)"/><path class="cls-1" d="M217.55,283.41l12.31-7.1c.33-.2.6-.06.6.3a1.31,1.31,0,0,1-.6,1l-12.31,7.1c-.33.19-.6.06-.6-.3A1.29,1.29,0,0,1,217.55,283.41Z" transform="translate(-159.53 -132.46)"/><path class="cls-1" d="M220,285.9l12.3-7.11c.34-.19.6-.05.6.31a1.25,1.25,0,0,1-.6,1L220,287.2c-.33.19-.6.05-.6-.3A1.29,1.29,0,0,1,220,285.9Z" transform="translate(-159.53 -132.46)"/><path class="cls-4" d="M217.07,289.27l1-1.77c0-.07,0-.15,0-.18l-1-.61s-.12.07-.12.16v2.37C217,289.34,217,289.35,217.07,289.27Z" transform="translate(-159.53 -132.46)"/><path class="cls-1" d="M220,289.8l12.3-7.11c.34-.19.6-.05.6.31a1.25,1.25,0,0,1-.6,1L220,291.1c-.33.19-.6,0-.6-.31A1.29,1.29,0,0,1,220,289.8Z" transform="translate(-159.53 -132.46)"/><path class="cls-4" d="M217.07,293.17l1-1.77c0-.07,0-.15,0-.18l-1-.61s-.12.07-.12.16v2.37C217,293.24,217,293.25,217.07,293.17Z" transform="translate(-159.53 -132.46)"/><path class="cls-1" d="M220,293.7l12.3-7.11c.34-.19.6,0,.6.31a1.26,1.26,0,0,1-.6,1L220,295c-.33.19-.6.05-.6-.31A1.29,1.29,0,0,1,220,293.7Z" transform="translate(-159.53 -132.46)"/><path class="cls-4" d="M217.07,297.07l1-1.77c0-.07,0-.15,0-.18l-1-.61s-.12.07-.12.16V297C217,297.14,217,297.15,217.07,297.07Z" transform="translate(-159.53 -132.46)"/><path class="cls-1" d="M220,297.6l12.3-7.11c.34-.19.6-.05.6.31a1.26,1.26,0,0,1-.6,1L220,298.9c-.33.19-.6.05-.6-.31A1.29,1.29,0,0,1,220,297.6Z" transform="translate(-159.53 -132.46)"/><path class="cls-4" d="M217.07,301l1-1.76c0-.07,0-.15,0-.18l-1-.61s-.12.07-.12.16v2.37C217,301,217,301.05,217.07,301Z" transform="translate(-159.53 -132.46)"/><path class="cls-1" d="M220,301.5l12.3-7.11c.34-.19.6-.05.6.31a1.26,1.26,0,0,1-.6,1L220,302.8c-.33.19-.6.05-.6-.31A1.28,1.28,0,0,1,220,301.5Z" transform="translate(-159.53 -132.46)"/><path class="cls-4" d="M217.07,304.86l1-1.76c0-.07,0-.15,0-.18l-1-.61s-.12.07-.12.16v2.37C217,304.94,217,305,217.07,304.86Z" transform="translate(-159.53 -132.46)"/><path class="cls-1" d="M220,305.4l12.3-7.11c.34-.19.6-.05.6.31a1.26,1.26,0,0,1-.6,1L220,306.7c-.33.19-.6.05-.6-.31A1.28,1.28,0,0,1,220,305.4Z" transform="translate(-159.53 -132.46)"/><path class="cls-4" d="M217.07,308.76l1-1.76c0-.07,0-.16,0-.18l-1-.61s-.12.07-.12.16v2.37C217,308.84,217,308.85,217.07,308.76Z" transform="translate(-159.53 -132.46)"/><path class="cls-1" d="M220,309.3l12.3-7.11c.34-.19.6-.05.6.3a1.27,1.27,0,0,1-.6,1L220,310.6c-.33.19-.6,0-.6-.31A1.28,1.28,0,0,1,220,309.3Z" transform="translate(-159.53 -132.46)"/><path class="cls-4" d="M217.07,312.66l1-1.76c0-.07,0-.16,0-.18l-1-.61s-.12.07-.12.16v2.37C217,312.74,217,312.75,217.07,312.66Z" transform="translate(-159.53 -132.46)"/><path class="cls-1" d="M220,313.2l12.3-7.11c.34-.19.6,0,.6.3a1.27,1.27,0,0,1-.6,1L220,314.5c-.33.19-.6.05-.6-.31A1.28,1.28,0,0,1,220,313.2Z" transform="translate(-159.53 -132.46)"/><path class="cls-4" d="M217.07,316.56l1-1.76c0-.07,0-.16,0-.18l-1-.61s-.12.07-.12.16v2.37C217,316.64,217,316.65,217.07,316.56Z" transform="translate(-159.53 -132.46)"/><path class="cls-8" d="M244.57,231.4,285,208.05a1.33,1.33,0,0,0,.6-1V196.7c0-.39-.27-.54-.6-.35L244.57,219.7a1.31,1.31,0,0,0-.6,1v10.31C244,231.44,244.23,231.59,244.57,231.4Z" transform="translate(-159.53 -132.46)"/><path class="cls-4" d="M248.09,224.12v0l.26-1.11-.36.21a0,0,0,0,1,0,0s0,0,0,0v-.24s0,0,0,0l.58-.34h0v.21s0,0,0,.11l-.27,1.11s0,0,0,0l0,0-.18.1h0S248.09,224.14,248.09,224.12Z" transform="translate(-159.53 -132.46)"/><path class="cls-4" d="M249.07,222.26a.32.32,0,0,1,.16,0,.14.14,0,0,1,.11,0,.35.35,0,0,1,.07.12,1.1,1.1,0,0,1,0,.18c0,.06,0,.11,0,.17s0,.12,0,.17a1.49,1.49,0,0,1,0,.21,1.18,1.18,0,0,1-.07.2.67.67,0,0,1-.11.18.42.42,0,0,1-.16.13.26.26,0,0,1-.15,0,.13.13,0,0,1-.11,0,.24.24,0,0,1-.07-.12,1.1,1.1,0,0,1,0-.18,1,1,0,0,1,0-.17.91.91,0,0,1,0-.17,1.49,1.49,0,0,1,0-.21.68.68,0,0,1,.07-.2.42.42,0,0,1,.11-.18A.47.47,0,0,1,249.07,222.26Zm.14.76v-.32a.22.22,0,0,1,0-.08.17.17,0,0,1,0-.05.05.05,0,0,0,0,0l-.07,0-.06.05,0,.07s0,.06,0,.08,0,.06,0,.1v.31s0,.06,0,.09a.08.08,0,0,0,0,.05.05.05,0,0,0,0,0l.06,0,.07,0a.43.43,0,0,1,0-.07s0-.06,0-.09S249.21,223.05,249.21,223Z" transform="translate(-159.53 -132.46)"/><path class="cls-4" d="M249.93,222v.15s0,.08,0,.11l0,.11-.06.09-.09.07-.08,0a.06.06,0,0,1-.06,0,.09.09,0,0,1,0-.06s0-.06,0-.1v-.14s0-.08,0-.12a.42.42,0,0,1,0-.1.15.15,0,0,1,.06-.09.27.27,0,0,1,.08-.07l.09,0,.05,0a.16.16,0,0,1,0,.07S249.92,222,249.93,222Zm.3-.4,0,0,0,0,.1-.06h0v0h0l-.61,1.58s0,0,0,0l0,0-.1.06h0s0,0,0,0h0Zm-.55.68s0,.05,0,.07,0,0,0,0a.1.1,0,0,0,0,0,.17.17,0,0,0,0-.08.24.24,0,0,0,0-.12s0-.06,0-.07h0a.08.08,0,0,0,0,0s0,0,0,.08Zm.82.06v.14s0,.08,0,.12l0,.1a.35.35,0,0,1-.06.09.31.31,0,0,1-.09.07l-.08,0-.06,0a.16.16,0,0,1,0-.07s0-.06,0-.09v-.15s0-.08,0-.11a.49.49,0,0,1,0-.11l.06-.09a.27.27,0,0,1,.08-.07l.09,0a.09.09,0,0,1,.06,0,.16.16,0,0,1,0,.06S250.49,222.34,250.5,222.38Zm-.25.27a.1.1,0,0,0,0,.07h0l0,0a.22.22,0,0,0,0-.09.24.24,0,0,0,0-.12.15.15,0,0,0,0-.07s0,0,0,0a.05.05,0,0,0,0,0,.15.15,0,0,0,0,.08Z" transform="translate(-159.53 -132.46)"/><path class="cls-4" d="M248.09,221l-.41-.63a8.2,8.2,0,0,0-1,2.59l.66,0A5.9,5.9,0,0,1,248.09,221Z" transform="translate(-159.53 -132.46)"/><path class="cls-4" d="M249.23,219.71v-1.06a4.59,4.59,0,0,0-1.55,1.67l.41.63A3.37,3.37,0,0,1,249.23,219.71Z" transform="translate(-159.53 -132.46)"/><path class="cls-4" d="M247.28,223.84a5.43,5.43,0,0,1,.1-1l-.66,0a7.49,7.49,0,0,0-.13,1.33,5.26,5.26,0,0,0,.13,1.18l.66-.71A3.78,3.78,0,0,1,247.28,223.84Z" transform="translate(-159.53 -132.46)"/><path class="cls-6" d="M251.74,220a2.14,2.14,0,0,0-1-1.48,1.52,1.52,0,0,0-1.55.12v1.06a1.15,1.15,0,0,1,1.15-.09,1.62,1.62,0,0,1,.71,1.09,3.91,3.91,0,0,1,.09.88,5.5,5.5,0,0,1-.09,1,6.08,6.08,0,0,1-.71,1.91,3.39,3.39,0,0,1-1.15,1.24,1.13,1.13,0,0,1-1.14.08,1.6,1.6,0,0,1-.71-1.09l-.66.71a2.2,2.2,0,0,0,1,1.48,1.56,1.56,0,0,0,1.55-.12,4.58,4.58,0,0,0,1.55-1.67,8.05,8.05,0,0,0,1-2.59,6.73,6.73,0,0,0,.13-1.33A4.68,4.68,0,0,0,251.74,220Z" transform="translate(-159.53 -132.46)"/><path class="cls-4" d="M255.82,217.1,268.13,210c.33-.19.6-.05.6.31a1.28,1.28,0,0,1-.6,1l-12.31,7.11c-.33.19-.6,0-.6-.3A1.29,1.29,0,0,1,255.82,217.1Z" transform="translate(-159.53 -132.46)"/><path class="cls-1" d="M255.82,219.72l21.31-12.3c.34-.19.6-.06.6.3a1.27,1.27,0,0,1-.6,1L255.82,221c-.33.19-.6,0-.6-.3A1.29,1.29,0,0,1,255.82,219.72Z" transform="translate(-159.53 -132.46)"/><path class="cls-8" d="M288.46,206.05l40.45-23.35a1.33,1.33,0,0,0,.6-1V171.35c0-.38-.27-.54-.6-.35l-40.45,23.35a1.33,1.33,0,0,0-.6,1v10.32C287.86,206.09,288.13,206.25,288.46,206.05Z" transform="translate(-159.53 -132.46)"/><path class="cls-4" d="M292.19,197.83a.76.76,0,0,1,0-.21.7.7,0,0,1,.08-.2.91.91,0,0,1,.11-.16.67.67,0,0,1,.14-.11.22.22,0,0,1,.13,0,.17.17,0,0,1,.12,0,.27.27,0,0,1,.08.1.48.48,0,0,1,0,.18s0,.08,0,.11,0,.07,0,.1l0,.09,0,.09-.24.64v0l0,0-.2.11h0v0h0v0l.16-.43a.25.25,0,0,1-.12,0l-.09,0a.36.36,0,0,1-.07-.1A.44.44,0,0,1,292.19,197.83Zm.49-.28a.15.15,0,0,0,0-.07l0,0h-.09a.12.12,0,0,0-.05.05l-.05.05a.25.25,0,0,0,0,.07.24.24,0,0,0,0,.08.11.11,0,0,0,0,.06.05.05,0,0,0,0,0h.05l.05,0,.05,0,0-.06,0-.07A.17.17,0,0,0,292.68,197.55Z" transform="translate(-159.53 -132.46)"/><path class="cls-4" d="M293.37,196.68a.22.22,0,0,1,.16-.05.15.15,0,0,1,.11,0,.26.26,0,0,1,.06.13.52.52,0,0,1,0,.18v.34a.76.76,0,0,1,0,.21.66.66,0,0,1-.06.2,1.74,1.74,0,0,1-.11.18l-.16.13a.27.27,0,0,1-.16.05.16.16,0,0,1-.11-.05.23.23,0,0,1-.06-.12.58.58,0,0,1,0-.19v-.33a.76.76,0,0,1,0-.21.83.83,0,0,1,.06-.21,1,1,0,0,1,.11-.17A.65.65,0,0,1,293.37,196.68Zm.13.76v-.32a.22.22,0,0,0,0-.08.14.14,0,0,0,0-.06l0,0a.07.07,0,0,0-.06,0,.15.15,0,0,0-.06.05.25.25,0,0,0,0,.07.24.24,0,0,0,0,.08.28.28,0,0,0,0,.09,1.71,1.71,0,0,0,0,.32.28.28,0,0,0,0,.09.08.08,0,0,0,0,0s0,0,0,0l.06,0,.06-.06a.16.16,0,0,0,0-.07.19.19,0,0,0,0-.08A.28.28,0,0,0,293.5,197.44Z" transform="translate(-159.53 -132.46)"/><path class="cls-4" d="M294.22,196.46v.15s0,.07,0,.11a.49.49,0,0,1,0,.11.47.47,0,0,1-.06.09.27.27,0,0,1-.08.07.16.16,0,0,1-.09,0s0,0-.05,0,0,0,0-.06,0-.06,0-.1v-.14s0-.08,0-.12a.42.42,0,0,1,0-.1.31.31,0,0,1,.05-.1l.09-.06.08,0,.06,0a.16.16,0,0,1,0,.07S294.22,196.43,294.22,196.46Zm.31-.4,0,0,0,0,.1-.06h0s0,0,0,0h0v0l-.61,1.58,0,0,0,0-.1.06h0v0h0v0Zm-.55.68s0,0,0,.06,0,0,0,0a.05.05,0,0,0,0-.05.19.19,0,0,0,0-.08v-.13a.08.08,0,0,0,0-.06s0,0,0,0a.08.08,0,0,0,0,0,.19.19,0,0,0,0,.08A.28.28,0,0,0,294,196.74Zm.81.06v.14s0,.08,0,.11a.36.36,0,0,1,0,.11.24.24,0,0,1-.06.09.27.27,0,0,1-.08.07.16.16,0,0,1-.09,0,.05.05,0,0,1-.05,0,.09.09,0,0,1,0-.06.31.31,0,0,1,0-.1.15.15,0,0,1,0-.07.2.2,0,0,1,0-.07.37.37,0,0,1,0-.11.36.36,0,0,1,0-.11.41.41,0,0,1,.05-.09l.09-.07.08,0a.06.06,0,0,1,.06,0,.09.09,0,0,1,0,.06S294.79,196.76,294.79,196.8Zm-.24.27s0,.06,0,.07,0,0,0,0a.1.1,0,0,0,0,0s0,0,0-.08v-.12a.56.56,0,0,0,0-.07h0a.1.1,0,0,0,0,.05.17.17,0,0,0,0,.08Z" transform="translate(-159.53 -132.46)"/><path class="cls-4" d="M293.49,194.15v-1.06a4.59,4.59,0,0,0-1.55,1.67l.41.62A3.33,3.33,0,0,1,293.49,194.15Z" transform="translate(-159.53 -132.46)"/><path class="cls-6" d="M296,194.44a2.14,2.14,0,0,0-1-1.47,1.52,1.52,0,0,0-1.55.12v1.06a1.15,1.15,0,0,1,1.15-.09,1.62,1.62,0,0,1,.71,1.09,3.88,3.88,0,0,1,.09.87,5.52,5.52,0,0,1-.09,1,6.08,6.08,0,0,1-.71,1.91,3.47,3.47,0,0,1-1.15,1.24,1.13,1.13,0,0,1-1.14.08,1.6,1.6,0,0,1-.71-1.09,3.85,3.85,0,0,1-.1-.87,5.54,5.54,0,0,1,.1-1,6.08,6.08,0,0,1,.71-1.91l-.41-.62a8,8,0,0,0-1,2.59,7.49,7.49,0,0,0-.13,1.33,5.33,5.33,0,0,0,.13,1.18,2.19,2.19,0,0,0,1,1.48,1.56,1.56,0,0,0,1.55-.12,4.62,4.62,0,0,0,1.55-1.68h0a7.91,7.91,0,0,0,1-2.58,6.73,6.73,0,0,0,.13-1.33A4.82,4.82,0,0,0,296,194.44Z" transform="translate(-159.53 -132.46)"/><path class="cls-4" d="M300.07,191.54l12.31-7.11c.33-.19.6-.05.6.31a1.28,1.28,0,0,1-.6,1l-12.31,7.11c-.33.19-.6,0-.6-.31A1.29,1.29,0,0,1,300.07,191.54Z" transform="translate(-159.53 -132.46)"/><path class="cls-1" d="M300.07,194.16l21.31-12.3c.33-.19.6-.06.6.3a1.29,1.29,0,0,1-.6,1l-21.31,12.3c-.33.19-.6,0-.6-.31A1.29,1.29,0,0,1,300.07,194.16Z" transform="translate(-159.53 -132.46)"/><path class="cls-4" d="M248.69,234.23l8.63-5c.33-.19.6-.06.6.3a1.29,1.29,0,0,1-.6,1l-8.63,5c-.33.19-.6.05-.6-.3A1.29,1.29,0,0,1,248.69,234.23Z" transform="translate(-159.53 -132.46)"/><path class="cls-1" d="M329.21,191h0m-.25.14v65.94a.77.77,0,0,1-.32.55l-84.12,48.57V240.23a.81.81,0,0,1,.32-.56l1-.6a1.89,1.89,0,0,0,.88-1.52v-3.81a.77.77,0,0,1,.32-.56l12.08-7v3.54a.9.9,0,0,0,.89,1,1.1,1.1,0,0,0,.54-.15L329,191.11m-69.54,34.95h0m69.76-35.64a.51.51,0,0,0-.27.08l-68.59,39.6a.56.56,0,0,1-.26.08c-.2,0-.34-.16-.34-.43v-3.81c0-.27-.13-.43-.33-.43a.51.51,0,0,0-.27.08l-12.3,7.11a1.32,1.32,0,0,0-.6,1v3.81a1.33,1.33,0,0,1-.6,1l-1.05.6a1.32,1.32,0,0,0-.6,1v66.21c0,.27.13.42.33.42a.51.51,0,0,0,.27-.08l84.34-48.7a1.32,1.32,0,0,0,.6-1V190.84c0-.27-.13-.42-.33-.42Z" transform="translate(-159.53 -132.46)"/><path class="cls-1" d="M249.39,243.11a.54.54,0,0,1-.29-.07.71.71,0,0,1-.32-.63v-2.52a1.64,1.64,0,0,1,.74-1.28l6.69-3.85a.68.68,0,0,1,.7,0,.67.67,0,0,1,.31.62v2.52a1.61,1.61,0,0,1-.73,1.28L249.8,243A.83.83,0,0,1,249.39,243.11Zm.41-4a1.06,1.06,0,0,0-.46.8v2.52a.27.27,0,0,0,0,.15.29.29,0,0,0,.15-.05l6.69-3.85a1.06,1.06,0,0,0,.46-.8v-2.52c0-.09,0-.14,0-.14s-.06,0-.14,0Z" transform="translate(-159.53 -132.46)"/><path class="cls-1" d="M250.19,240.13l4.36-2.53c.22-.13.4,0,.4.2a.87.87,0,0,1-.4.67L250.19,241c-.22.12-.4,0-.4-.21A.86.86,0,0,1,250.19,240.13Z" transform="translate(-159.53 -132.46)"/><path class="cls-4" d="M255.57,237.19l.36.51s0,0,0,0l.37-.93c0-.05,0-.09,0-.07l-.72.41A.09.09,0,0,0,255.57,237.19Z" transform="translate(-159.53 -132.46)"/><path class="cls-6" d="M248.47,267.47c.32-.19.58,0,.58.33a1.27,1.27,0,0,1-.58,1c-.32.19-.58,0-.58-.33A1.27,1.27,0,0,1,248.47,267.47Z" transform="translate(-159.53 -132.46)"/><path class="cls-6" d="M253,262.27c.32-.19.58,0,.58.33a1.27,1.27,0,0,1-.58,1c-.32.19-.58,0-.58-.33A1.27,1.27,0,0,1,253,262.27Z" transform="translate(-159.53 -132.46)"/><path class="cls-6" d="M257.47,259.67c.32-.19.58,0,.58.33a1.3,1.3,0,0,1-.58,1c-.32.18-.58,0-.58-.34A1.27,1.27,0,0,1,257.47,259.67Z" transform="translate(-159.53 -132.46)"/><path class="cls-6" d="M262,258.21c.32-.18.57,0,.57.34a1.29,1.29,0,0,1-.57,1c-.32.18-.58,0-.58-.34A1.28,1.28,0,0,1,262,258.21Z" transform="translate(-159.53 -132.46)"/><path class="cls-6" d="M266.48,253.53c.32-.18.58,0,.58.33a1.3,1.3,0,0,1-.58,1c-.32.18-.57,0-.57-.34A1.26,1.26,0,0,1,266.48,253.53Z" transform="translate(-159.53 -132.46)"/><path class="cls-6" d="M271,251.87c.32-.18.58,0,.58.33a1.3,1.3,0,0,1-.58,1c-.32.18-.58,0-.58-.34A1.28,1.28,0,0,1,271,251.87Z" transform="translate(-159.53 -132.46)"/><path class="cls-6" d="M275.48,246.67c.32-.18.58,0,.58.34a1.3,1.3,0,0,1-.58,1c-.32.18-.58,0-.58-.34A1.28,1.28,0,0,1,275.48,246.67Z" transform="translate(-159.53 -132.46)"/><path class="cls-6" d="M280,245.37c.32-.18.57,0,.57.34a1.29,1.29,0,0,1-.57,1c-.32.18-.58,0-.58-.34A1.28,1.28,0,0,1,280,245.37Z" transform="translate(-159.53 -132.46)"/><path class="cls-6" d="M284.49,231.07c.32-.18.58,0,.58.34a1.27,1.27,0,0,1-.58,1c-.32.19-.58,0-.58-.33A1.3,1.3,0,0,1,284.49,231.07Z" transform="translate(-159.53 -132.46)"/><path class="cls-6" d="M289,238.87c.32-.18.58,0,.58.34a1.28,1.28,0,0,1-.58,1c-.32.18-.58,0-.58-.33A1.3,1.3,0,0,1,289,238.87Z" transform="translate(-159.53 -132.46)"/><path class="cls-6" d="M293.49,238.87c.32-.18.58,0,.58.34a1.28,1.28,0,0,1-.58,1c-.32.18-.58,0-.58-.33A1.3,1.3,0,0,1,293.49,238.87Z" transform="translate(-159.53 -132.46)"/><path class="cls-6" d="M298,238.87c.31-.18.57,0,.57.34a1.3,1.3,0,0,1-.57,1c-.32.18-.58,0-.58-.33A1.3,1.3,0,0,1,298,238.87Z" transform="translate(-159.53 -132.46)"/><path class="cls-6" d="M302.5,231.07c.32-.18.58,0,.58.34a1.27,1.27,0,0,1-.58,1c-.32.19-.58,0-.58-.33A1.3,1.3,0,0,1,302.5,231.07Z" transform="translate(-159.53 -132.46)"/><path class="cls-6" d="M307,229.58c.32-.18.58,0,.58.33a1.3,1.3,0,0,1-.58,1c-.32.18-.58,0-.58-.34A1.28,1.28,0,0,1,307,229.58Z" transform="translate(-159.53 -132.46)"/><path class="cls-6" d="M311.52,223.28c.32-.19.58,0,.58.33a1.27,1.27,0,0,1-.58,1c-.32.19-.58,0-.58-.33A1.27,1.27,0,0,1,311.52,223.28Z" transform="translate(-159.53 -132.46)"/><ellipse class="cls-6" cx="316.01" cy="223.94" rx="0.82" ry="0.47" transform="translate(-195.46 253.2) rotate(-60)"/><ellipse class="cls-6" cx="320.51" cy="223.94" rx="0.82" ry="0.47" transform="translate(-193.21 257.09) rotate(-60)"/><path class="cls-6" d="M325,220.68c.32-.19.58,0,.58.33a1.27,1.27,0,0,1-.58,1c-.32.19-.58,0-.58-.33A1.27,1.27,0,0,1,325,220.68Z" transform="translate(-159.53 -132.46)"/><path class="cls-6" d="M248.46,268.28a.12.12,0,0,1-.09,0,.14.14,0,0,1,0-.2l4.55-5.22,0,0,4.47-2.58,4.5-1.46,4.48-4.66.05,0,4.47-1.65,4.48-5.17a.1.1,0,0,1,.07,0l4.43-1.28,4.48-14.23a.12.12,0,0,1,.11-.09.15.15,0,0,1,.14.06l4.46,7.73h8.85l4.46-7.73a.11.11,0,0,1,.07-.06l4.46-1.48,4.48-6.27a.16.16,0,0,1,.11-.05h9l4.47-2.58a.13.13,0,0,1,.19.05.12.12,0,0,1-.05.18l-4.5,2.6a.1.1,0,0,1-.07,0h-8.94l-4.46,6.25a.13.13,0,0,1-.07,0l-4.45,1.48-4.47,7.75a.17.17,0,0,1-.12.07h-9a.14.14,0,0,1-.12-.07l-4.34-7.52-4.41,14a.13.13,0,0,1-.1.09l-4.46,1.29-4.47,5.17-.06,0-4.47,1.65L262.08,259l-.06,0-4.5,1.46L253.09,263l-4.53,5.2A.14.14,0,0,1,248.46,268.28Z" transform="translate(-159.53 -132.46)"/><path class="cls-1" d="M248.47,271a.27.27,0,0,1-.24-.14.27.27,0,0,1,.1-.37l76.54-44.2a.28.28,0,0,1,.38.11.27.27,0,0,1-.1.37L248.61,271A.35.35,0,0,1,248.47,271Z" transform="translate(-159.53 -132.46)"/><path class="cls-6" d="M248.47,264.87c.32-.19.58,0,.58.33a1.27,1.27,0,0,1-.58,1c-.32.19-.58,0-.58-.33A1.27,1.27,0,0,1,248.47,264.87Z" transform="translate(-159.53 -132.46)"/><path class="cls-6" d="M253,257.07c.32-.18.58,0,.58.33a1.3,1.3,0,0,1-.58,1c-.32.18-.58,0-.58-.34A1.27,1.27,0,0,1,253,257.07Z" transform="translate(-159.53 -132.46)"/><ellipse class="cls-6" cx="257.47" cy="256.76" rx="0.82" ry="0.47" transform="translate(-253.15 218.92) rotate(-60)"/><path class="cls-6" d="M262,246.67c.32-.18.57,0,.57.34a1.29,1.29,0,0,1-.57,1c-.32.18-.58,0-.58-.34A1.28,1.28,0,0,1,262,246.67Z" transform="translate(-159.53 -132.46)"/><path class="cls-6" d="M266.48,249.27c.32-.18.58,0,.58.34a1.3,1.3,0,0,1-.58,1c-.32.18-.57,0-.57-.34A1.27,1.27,0,0,1,266.48,249.27Z" transform="translate(-159.53 -132.46)"/><path class="cls-6" d="M271,248c.32-.18.58,0,.58.34a1.3,1.3,0,0,1-.58,1c-.32.18-.58,0-.58-.34A1.28,1.28,0,0,1,271,248Z" transform="translate(-159.53 -132.46)"/><path class="cls-6" d="M275.48,244.07c.32-.18.58,0,.58.34a1.28,1.28,0,0,1-.58,1c-.32.18-.58,0-.58-.34A1.3,1.3,0,0,1,275.48,244.07Z" transform="translate(-159.53 -132.46)"/><path class="cls-6" d="M280,238.87c.31-.18.57,0,.57.34a1.3,1.3,0,0,1-.57,1c-.32.18-.58,0-.58-.33A1.3,1.3,0,0,1,280,238.87Z" transform="translate(-159.53 -132.46)"/><path class="cls-6" d="M284.49,237.57c.32-.18.58,0,.58.34a1.27,1.27,0,0,1-.58,1c-.32.18-.58,0-.58-.33A1.3,1.3,0,0,1,284.49,237.57Z" transform="translate(-159.53 -132.46)"/><path class="cls-6" d="M289,233.67c.32-.18.58,0,.58.34a1.27,1.27,0,0,1-.58,1c-.32.18-.58,0-.58-.33A1.3,1.3,0,0,1,289,233.67Z" transform="translate(-159.53 -132.46)"/><path class="cls-6" d="M293.49,233.67c.32-.18.58,0,.58.34a1.27,1.27,0,0,1-.58,1c-.32.18-.58,0-.58-.33A1.3,1.3,0,0,1,293.49,233.67Z" transform="translate(-159.53 -132.46)"/><path class="cls-6" d="M298,223.28c.31-.19.57,0,.57.33a1.28,1.28,0,0,1-.57,1c-.32.19-.58,0-.58-.33A1.27,1.27,0,0,1,298,223.28Z" transform="translate(-159.53 -132.46)"/><path class="cls-6" d="M302.5,228.44c.32-.19.58,0,.58.33a1.27,1.27,0,0,1-.58,1c-.32.19-.58,0-.58-.33A1.27,1.27,0,0,1,302.5,228.44Z" transform="translate(-159.53 -132.46)"/><path class="cls-6" d="M307,223.28c.32-.19.58,0,.58.33a1.27,1.27,0,0,1-.58,1c-.32.19-.58,0-.58-.33A1.27,1.27,0,0,1,307,223.28Z" transform="translate(-159.53 -132.46)"/><path class="cls-6" d="M311.5,220.68c.32-.19.58,0,.58.33a1.27,1.27,0,0,1-.58,1c-.32.19-.58,0-.58-.33A1.27,1.27,0,0,1,311.5,220.68Z" transform="translate(-159.53 -132.46)"/><path class="cls-6" d="M316,220.68c.32-.19.58,0,.58.33a1.27,1.27,0,0,1-.58,1c-.31.19-.57,0-.57-.33A1.28,1.28,0,0,1,316,220.68Z" transform="translate(-159.53 -132.46)"/><path class="cls-6" d="M320.51,218.08c.32-.19.58,0,.58.33a1.27,1.27,0,0,1-.58,1c-.32.19-.58,0-.58-.33A1.27,1.27,0,0,1,320.51,218.08Z" transform="translate(-159.53 -132.46)"/><path class="cls-6" d="M325,218.08c.32-.19.58,0,.58.33a1.27,1.27,0,0,1-.58,1c-.32.19-.58,0-.58-.33A1.27,1.27,0,0,1,325,218.08Z" transform="translate(-159.53 -132.46)"/><path class="cls-6" d="M248.47,265.67h-.07a.14.14,0,0,1-.05-.19l4.53-7.82a.2.2,0,0,1,.09-.07l4.41-.94,4.47-9.36a.18.18,0,0,1,.08-.07.14.14,0,0,1,.11,0l4.46,2.57,4.41-1.28,4.48-3.87,4.49-5.19.07,0,4.47-1.29,4.48-3.88a.15.15,0,0,1,.09,0h4.41l4.47-10.31a.13.13,0,0,1,.1-.08.15.15,0,0,1,.13,0l4.4,5.08,4.4-5.08,0,0,4.52-2.6a.08.08,0,0,1,.07,0H316l4.46-2.57a.08.08,0,0,1,.07,0H325a.14.14,0,0,1,.14.14.13.13,0,0,1-.14.13h-4.47l-4.45,2.58h-4.53l-4.47,2.58-4.49,5.18a.14.14,0,0,1-.21,0l-4.36-5-4.41,10.2a.13.13,0,0,1-.13.08H289l-4.46,3.87-.05,0-4.47,1.29-4.48,5.17-4.51,3.91a.05.05,0,0,1-.05,0l-4.5,1.31a.15.15,0,0,1-.11,0L262,247.53l-4.44,9.29a.16.16,0,0,1-.1.08l-4.41.94-4.5,7.77A.14.14,0,0,1,248.47,265.67Z" transform="translate(-159.53 -132.46)"/><g class="cls-16"><path d="M248.47,264.87c.32-.19.58,0,.58.33a1.27,1.27,0,0,1-.58,1c-.32.19-.58,0-.58-.33A1.27,1.27,0,0,1,248.47,264.87Z" transform="translate(-159.53 -132.46)"/><path d="M253,257.07c.32-.18.58,0,.58.33a1.3,1.3,0,0,1-.58,1c-.32.18-.58,0-.58-.34A1.27,1.27,0,0,1,253,257.07Z" transform="translate(-159.53 -132.46)"/><ellipse cx="257.47" cy="256.76" rx="0.82" ry="0.47" transform="translate(-253.15 218.92) rotate(-60)"/><path d="M262,246.67c.32-.18.57,0,.57.34a1.29,1.29,0,0,1-.57,1c-.32.18-.58,0-.58-.34A1.28,1.28,0,0,1,262,246.67Z" transform="translate(-159.53 -132.46)"/><path d="M266.48,249.27c.32-.18.58,0,.58.34a1.3,1.3,0,0,1-.58,1c-.32.18-.57,0-.57-.34A1.27,1.27,0,0,1,266.48,249.27Z" transform="translate(-159.53 -132.46)"/><path d="M271,248c.32-.18.58,0,.58.34a1.3,1.3,0,0,1-.58,1c-.32.18-.58,0-.58-.34A1.28,1.28,0,0,1,271,248Z" transform="translate(-159.53 -132.46)"/><path d="M275.48,244.07c.32-.18.58,0,.58.34a1.28,1.28,0,0,1-.58,1c-.32.18-.58,0-.58-.34A1.3,1.3,0,0,1,275.48,244.07Z" transform="translate(-159.53 -132.46)"/><path d="M280,238.87c.31-.18.57,0,.57.34a1.3,1.3,0,0,1-.57,1c-.32.18-.58,0-.58-.33A1.3,1.3,0,0,1,280,238.87Z" transform="translate(-159.53 -132.46)"/><path d="M284.49,237.57c.32-.18.58,0,.58.34a1.27,1.27,0,0,1-.58,1c-.32.18-.58,0-.58-.33A1.3,1.3,0,0,1,284.49,237.57Z" transform="translate(-159.53 -132.46)"/><path d="M289,233.67c.32-.18.58,0,.58.34a1.27,1.27,0,0,1-.58,1c-.32.18-.58,0-.58-.33A1.3,1.3,0,0,1,289,233.67Z" transform="translate(-159.53 -132.46)"/><path d="M293.49,233.67c.32-.18.58,0,.58.34a1.27,1.27,0,0,1-.58,1c-.32.18-.58,0-.58-.33A1.3,1.3,0,0,1,293.49,233.67Z" transform="translate(-159.53 -132.46)"/><path d="M298,223.28c.31-.19.57,0,.57.33a1.28,1.28,0,0,1-.57,1c-.32.19-.58,0-.58-.33A1.27,1.27,0,0,1,298,223.28Z" transform="translate(-159.53 -132.46)"/><path d="M302.5,228.44c.32-.19.58,0,.58.33a1.27,1.27,0,0,1-.58,1c-.32.19-.58,0-.58-.33A1.27,1.27,0,0,1,302.5,228.44Z" transform="translate(-159.53 -132.46)"/><path d="M307,223.28c.32-.19.58,0,.58.33a1.27,1.27,0,0,1-.58,1c-.32.19-.58,0-.58-.33A1.27,1.27,0,0,1,307,223.28Z" transform="translate(-159.53 -132.46)"/><path d="M311.5,220.68c.32-.19.58,0,.58.33a1.27,1.27,0,0,1-.58,1c-.32.19-.58,0-.58-.33A1.27,1.27,0,0,1,311.5,220.68Z" transform="translate(-159.53 -132.46)"/><path d="M316,220.68c.32-.19.58,0,.58.33a1.27,1.27,0,0,1-.58,1c-.31.19-.57,0-.57-.33A1.28,1.28,0,0,1,316,220.68Z" transform="translate(-159.53 -132.46)"/><path d="M320.51,218.08c.32-.19.58,0,.58.33a1.27,1.27,0,0,1-.58,1c-.32.19-.58,0-.58-.33A1.27,1.27,0,0,1,320.51,218.08Z" transform="translate(-159.53 -132.46)"/><path d="M325,218.08c.32-.19.58,0,.58.33a1.27,1.27,0,0,1-.58,1c-.32.19-.58,0-.58-.33A1.27,1.27,0,0,1,325,218.08Z" transform="translate(-159.53 -132.46)"/><path class="cls-12" d="M248.47,265.67h-.07a.14.14,0,0,1-.05-.19l4.53-7.82a.2.2,0,0,1,.09-.07l4.41-.94,4.47-9.36a.18.18,0,0,1,.08-.07.14.14,0,0,1,.11,0l4.46,2.57,4.41-1.28,4.48-3.87,4.49-5.19.07,0,4.47-1.29,4.48-3.88a.15.15,0,0,1,.09,0h4.41l4.47-10.31a.13.13,0,0,1,.1-.08.15.15,0,0,1,.13,0l4.4,5.08,4.4-5.08,0,0,4.52-2.6a.08.08,0,0,1,.07,0H316l4.46-2.57a.08.08,0,0,1,.07,0H325a.14.14,0,0,1,.14.14.13.13,0,0,1-.14.13h-4.47l-4.45,2.58h-4.53l-4.47,2.58-4.49,5.18a.14.14,0,0,1-.21,0l-4.36-5-4.41,10.2a.13.13,0,0,1-.13.08H289l-4.46,3.87-.05,0-4.47,1.29-4.48,5.17-4.51,3.91a.05.05,0,0,1-.05,0l-4.5,1.31a.15.15,0,0,1-.11,0L262,247.53l-4.44,9.29a.16.16,0,0,1-.1.08l-4.41.94-4.5,7.77A.14.14,0,0,1,248.47,265.67Z" transform="translate(-159.53 -132.46)"/></g><path class="cls-1" d="M250.83,245.58l4.36-2.53c.22-.13.4,0,.4.2a.87.87,0,0,1-.4.67l-4.36,2.53c-.22.12-.4,0-.4-.21A.86.86,0,0,1,250.83,245.58Z" transform="translate(-159.53 -132.46)"/><path class="cls-6" d="M248.47,246.67c.32-.18.58,0,.58.34a1.3,1.3,0,0,1-.58,1c-.32.18-.58,0-.58-.34A1.28,1.28,0,0,1,248.47,246.67Z" transform="translate(-159.53 -132.46)"/><path class="cls-17" d="M248.47,246.67c.32-.18.58,0,.58.34a1.3,1.3,0,0,1-.58,1c-.32.18-.58,0-.58-.34A1.28,1.28,0,0,1,248.47,246.67Z" transform="translate(-159.53 -132.46)"/><path class="cls-1" d="M250.83,248.17l4.36-2.53c.22-.13.4,0,.4.2a.87.87,0,0,1-.4.67L250.83,249c-.22.13-.4,0-.4-.2A.87.87,0,0,1,250.83,248.17Z" transform="translate(-159.53 -132.46)"/><path class="cls-6" d="M248.47,249.27c.32-.18.58,0,.58.34a1.3,1.3,0,0,1-.58,1c-.32.18-.58,0-.58-.34A1.28,1.28,0,0,1,248.47,249.27Z" transform="translate(-159.53 -132.46)"/><path class="cls-6" d="M248.47,283.91a.13.13,0,0,1-.1,0,.15.15,0,0,1,0-.2l2.28-2.35,2.25-.28,2.26-2.93,2.27.31,2.2-2,2.25-1.35,2.29-3.18,2.28.71,2.19-1.95a.13.13,0,0,1,.19,0,.14.14,0,0,1,0,.2l-2.3,2.06-2.24-.71-2.23,3.08-2.25,1.35-2.28,2.06-2.24-.31-2.23,2.89-2.26.29-2.22,2.28A.18.18,0,0,1,248.47,283.91Z" transform="translate(-159.53 -132.46)"/><path class="cls-4" d="M249.36,276.31a.1.1,0,0,1,.06-.05l.06-.05a.66.66,0,0,1,.34-.1.45.45,0,0,1,.27.1.8.8,0,0,1,.18.29,1.42,1.42,0,0,1,.06.44,2.24,2.24,0,0,1-.06.52,3.54,3.54,0,0,1-.18.49,2.52,2.52,0,0,1-.27.42,1.5,1.5,0,0,1-.34.29.72.72,0,0,1-.34.1.41.41,0,0,1-.27-.1.6.6,0,0,1-.18-.29,1.4,1.4,0,0,1-.07-.44,1.36,1.36,0,0,1,0-.29,2.37,2.37,0,0,1,.13-.53,2.25,2.25,0,0,0,.08-.24l.6-1.7,0-.09a.18.18,0,0,1,.07-.08l.18-.1h.05a.14.14,0,0,1,0,.07s0,0,0,0,0,0,0,0Zm-.42,1.44a1,1,0,0,0,0,.26.68.68,0,0,0,.11.19.33.33,0,0,0,.17.07.46.46,0,0,0,.23-.07.79.79,0,0,0,.22-.19,1,1,0,0,0,.17-.27,1.51,1.51,0,0,0,.15-.62,1,1,0,0,0,0-.26.5.5,0,0,0-.11-.19.29.29,0,0,0-.17-.07.43.43,0,0,0-.22.07.83.83,0,0,0-.23.19,1.24,1.24,0,0,0-.17.27,2.83,2.83,0,0,0-.11.31A1.63,1.63,0,0,0,248.94,277.75Z" transform="translate(-159.53 -132.46)"/><path class="cls-4" d="M250.89,276.93a.58.58,0,0,0,.05.14.2.2,0,0,0,.09.09.24.24,0,0,0,.15,0,.73.73,0,0,0,.25-.11,1,1,0,0,0,.2-.15,1.16,1.16,0,0,0,.16-.21,1.09,1.09,0,0,0,.11-.27,1,1,0,0,0,0-.31.6.6,0,0,0,0-.25.19.19,0,0,0-.11-.12.24.24,0,0,0-.15,0l-.21.09-.27.16a0,0,0,0,1-.06,0s0,0,0-.08v-.18a.44.44,0,0,1,0-.1l0-.08.6-1.33-.95.55s-.05,0-.06,0,0,0,0-.08v-.18a.2.2,0,0,1,0-.11.12.12,0,0,1,.06-.08l1.3-.75a0,0,0,0,1,.06,0s0,0,0,.08v.18a.44.44,0,0,1,0,.1s0,.07,0,.11l-.59,1.3a.64.64,0,0,1,.3-.09.33.33,0,0,1,.24.07.55.55,0,0,1,.15.24,1.09,1.09,0,0,1,.05.39,2.16,2.16,0,0,1-.06.51,1.93,1.93,0,0,1-.18.44,1.64,1.64,0,0,1-.26.37,1.31,1.31,0,0,1-.32.26,1,1,0,0,1-.38.14.38.38,0,0,1-.26-.06.35.35,0,0,1-.15-.2.65.65,0,0,1-.06-.29.29.29,0,0,1,0-.09s0-.06.05-.07l.15-.08s0,0,.06,0A.05.05,0,0,1,250.89,276.93Z" transform="translate(-159.53 -132.46)"/><path class="cls-4" d="M252.85,275.8a.78.78,0,0,0,.05.14.2.2,0,0,0,.09.09.24.24,0,0,0,.15,0,.68.68,0,0,0,.25-.1,1,1,0,0,0,.2-.15,1.16,1.16,0,0,0,.16-.21,1.09,1.09,0,0,0,.11-.27,1,1,0,0,0,0-.31.57.57,0,0,0,0-.25.19.19,0,0,0-.11-.12.24.24,0,0,0-.15,0,.74.74,0,0,0-.21.09l-.27.16a0,0,0,0,1-.06,0,.1.1,0,0,1,0-.08v-.18a.44.44,0,0,1,0-.1l0-.09.6-1.32-1,.55s0,0-.06,0a.1.1,0,0,1,0-.08v-.18a.2.2,0,0,1,0-.11.1.1,0,0,1,.06-.08l1.3-.75h.06a.12.12,0,0,1,0,.09v.18a.44.44,0,0,1,0,.1l0,.1-.59,1.31a.81.81,0,0,1,.3-.1.38.38,0,0,1,.24.08.57.57,0,0,1,.15.23,1.16,1.16,0,0,1,.06.4,2.08,2.08,0,0,1-.07.5,2,2,0,0,1-.18.45,1.64,1.64,0,0,1-.26.37,1.59,1.59,0,0,1-.32.26,1,1,0,0,1-.38.14.38.38,0,0,1-.26-.06.38.38,0,0,1-.15-.2.68.68,0,0,1-.06-.29.36.36,0,0,1,0-.1s0-.05.05-.06l.16-.09h0A.09.09,0,0,1,252.85,275.8Z" transform="translate(-159.53 -132.46)"/><path class="cls-1" d="M248.88,285.7l19.45-11.28c.22-.12.4,0,.4.21a.86.86,0,0,1-.4.66l-19.45,11.27c-.22.13-.4,0-.4-.2A.86.86,0,0,1,248.88,285.7Z" transform="translate(-159.53 -132.46)"/><path class="cls-1" d="M248.88,272.69l4.36-2.53c.22-.12.4,0,.4.21a.86.86,0,0,1-.4.66l-4.36,2.53c-.22.13-.4,0-.4-.2A.87.87,0,0,1,248.88,272.69Z" transform="translate(-159.53 -132.46)"/><path class="cls-6" d="M248.47,299.49a.13.13,0,0,1-.1,0,.14.14,0,0,1,0-.19l2.28-2.35,2.26-.29,2.28-2,2.19-.59,2.28-4.55,2.29,1.12,2.21-1.95h0l2.2-.41,2.21-3.83a.14.14,0,0,1,.24.14l-2.28,3.94-2.28.43-2.29,2-2.21-1.08-2.22,4.41-2.28.62-2.26,2-2.24.28-2.22,2.28A.13.13,0,0,1,248.47,299.49Z" transform="translate(-159.53 -132.46)"/><g class="cls-16"><path d="M248.47,299.49a.13.13,0,0,1-.1,0,.14.14,0,0,1,0-.19l2.28-2.35,2.26-.29,2.28-2,2.19-.59,2.28-4.55,2.29,1.12,2.21-1.95h0l2.2-.41,2.21-3.83a.14.14,0,0,1,.24.14l-2.28,3.94-2.28.43-2.29,2-2.21-1.08-2.22,4.41-2.28.62-2.26,2-2.24.28-2.22,2.28A.13.13,0,0,1,248.47,299.49Z" transform="translate(-159.53 -132.46)"/></g><path class="cls-4" d="M249.62,294a.2.2,0,0,1,0,.11.13.13,0,0,1-.06.08l-.14.08a0,0,0,0,1-.06,0s0,0,0-.08v-2.79l-.54.93a.14.14,0,0,1-.06.07,0,0,0,0,1-.06,0l-.08-.11s0-.05,0-.09a.35.35,0,0,1,0-.11l.71-1.24.05-.07,0,0,.14-.08h.06a.11.11,0,0,1,0,.08Z" transform="translate(-159.53 -132.46)"/><path class="cls-4" d="M251.06,291.41q.09-.2.15-.36a1.62,1.62,0,0,0,0-.4.59.59,0,0,0-.11-.39c-.06-.08-.17-.08-.32,0a.63.63,0,0,0-.19.17.83.83,0,0,0-.14.22,1.45,1.45,0,0,0-.09.25c0,.09,0,.17,0,.26a.2.2,0,0,1,0,.11s0,.05-.05.06l-.15.09s0,0,0,0a.06.06,0,0,1,0-.06,2.23,2.23,0,0,1,.06-.42,3.66,3.66,0,0,1,.15-.43,2.23,2.23,0,0,1,.24-.4,1.28,1.28,0,0,1,.33-.29.56.56,0,0,1,.32-.1.33.33,0,0,1,.23.1.59.59,0,0,1,.14.26,1.62,1.62,0,0,1,0,.4,2.66,2.66,0,0,1,0,.3,2.74,2.74,0,0,1-.05.28c0,.1-.06.19-.1.29s-.09.2-.14.31l-.74,1.48,1-.58s0,0,.06,0a.11.11,0,0,1,0,.08v.19a.26.26,0,0,1,0,.11.28.28,0,0,1-.06.08l-1.42.81s-.05,0-.06,0a.1.1,0,0,1,0-.08v-.18a.36.36,0,0,1,0-.11l.05-.13Z" transform="translate(-159.53 -132.46)"/><path class="cls-4" d="M253.66,289.57c0,.15,0,.29,0,.43s0,.27,0,.43a3.68,3.68,0,0,1,0,.58,2.18,2.18,0,0,1-.15.53,2.2,2.2,0,0,1-.26.45,1.47,1.47,0,0,1-.38.32.65.65,0,0,1-.37.11.37.37,0,0,1-.26-.15.76.76,0,0,1-.15-.35,2.66,2.66,0,0,1-.06-.52v-.86A3.68,3.68,0,0,1,252,290a2.18,2.18,0,0,1,.15-.53,2,2,0,0,1,.26-.45,1.4,1.4,0,0,1,.37-.32.62.62,0,0,1,.38-.11.37.37,0,0,1,.26.15.76.76,0,0,1,.15.35A2.7,2.7,0,0,1,253.66,289.57Zm-1.37,1.65a1.16,1.16,0,0,0,.14.63q.13.15.39,0a.86.86,0,0,0,.39-.45,2,2,0,0,0,.14-.79c0-.16,0-.3,0-.43s0-.28,0-.43a1,1,0,0,0-.14-.63c-.08-.1-.21-.11-.39,0a.94.94,0,0,0-.39.46,2.38,2.38,0,0,0-.14.79v.86Z" transform="translate(-159.53 -132.46)"/><path class="cls-1" d="M248.88,301.28,268.33,290c.22-.13.4,0,.4.2a.84.84,0,0,1-.4.66l-19.45,11.28c-.22.12-.4,0-.4-.21A.87.87,0,0,1,248.88,301.28Z" transform="translate(-159.53 -132.46)"/><path class="cls-1" d="M248.88,288.28l4.36-2.53c.22-.13.4,0,.4.2a.84.84,0,0,1-.4.66l-4.36,2.53c-.22.13-.4,0-.4-.2A.84.84,0,0,1,248.88,288.28Z" transform="translate(-159.53 -132.46)"/><path class="cls-6" d="M275.48,268.28a.16.16,0,0,1-.11,0,.15.15,0,0,1,0-.2l2.25-1.79,2.27-2.59,2.3-.34,2.19-.49,2.28-2.69,2.23.4,2.25-3.55,2.28,0,2.2-2a.14.14,0,0,1,.2,0,.15.15,0,0,1,0,.2l-2.29,2-2.23,0-2.26,3.58-2.27-.4-2.23,2.64-2.29.52-2.21.32-2.22,2.53-2.27,1.81Z" transform="translate(-159.53 -132.46)"/><path class="cls-4" d="M276.37,260.68l.06-.05.06-.05a.69.69,0,0,1,.34-.1.41.41,0,0,1,.27.1.6.6,0,0,1,.18.29,1.4,1.4,0,0,1,.07.44,2.25,2.25,0,0,1-.07.52,1.9,1.9,0,0,1-.18.49,1.51,1.51,0,0,1-.27.42,1.31,1.31,0,0,1-.34.29.66.66,0,0,1-.34.1.45.45,0,0,1-.27-.1.69.69,0,0,1-.18-.29,1.42,1.42,0,0,1-.06-.44,2.83,2.83,0,0,1,0-.29,1.31,1.31,0,0,1,.06-.27,2.5,2.5,0,0,1,.07-.26l.09-.24.6-1.7,0-.09a.16.16,0,0,1,.07-.07l.19-.11h.05a.15.15,0,0,1,0,.07v0s0,0,0,0Zm-.42,1.44a.77.77,0,0,0,0,.27.42.42,0,0,0,.11.18.24.24,0,0,0,.17.07.43.43,0,0,0,.22-.07.83.83,0,0,0,.23-.19,1.33,1.33,0,0,0,.27-.57,1.17,1.17,0,0,0,0-.32.68.68,0,0,0,0-.26.39.39,0,0,0-.1-.18.3.3,0,0,0-.17-.08.46.46,0,0,0-.23.07.79.79,0,0,0-.22.19,1,1,0,0,0-.17.27,1.15,1.15,0,0,0-.11.31A1.1,1.1,0,0,0,276,262.12Z" transform="translate(-159.53 -132.46)"/><path class="cls-4" d="M278.66,259.86a2.4,2.4,0,0,0,.14-.36,1.25,1.25,0,0,0,.05-.4.59.59,0,0,0-.1-.39c-.07-.08-.17-.08-.32,0a.62.62,0,0,0-.2.16.8.8,0,0,0-.13.22,1.06,1.06,0,0,0-.09.25c0,.09,0,.18-.05.26a.81.81,0,0,1,0,.11l-.05.06-.16.09s0,0-.05,0a.08.08,0,0,1,0-.06,1.64,1.64,0,0,1,.06-.42,1.84,1.84,0,0,1,.15-.43,1.77,1.77,0,0,1,.24-.4,1.28,1.28,0,0,1,.33-.29.65.65,0,0,1,.32-.1.33.33,0,0,1,.23.1.59.59,0,0,1,.14.26,1.62,1.62,0,0,1,.05.4,2.66,2.66,0,0,1,0,.3,2.33,2.33,0,0,1,0,.28c0,.1-.06.19-.1.29a2.89,2.89,0,0,1-.15.31l-.73,1.48,1-.58h.06a.12.12,0,0,1,0,.09v.18a.23.23,0,0,1,0,.11.28.28,0,0,1-.06.08l-1.42.82a.06.06,0,0,1-.07,0,.15.15,0,0,1,0-.08V262a.22.22,0,0,1,0-.11.79.79,0,0,1,.05-.13Z" transform="translate(-159.53 -132.46)"/><path class="cls-4" d="M280.9,256.88a0,0,0,0,1,.06,0,.1.1,0,0,1,0,.08v.18s0,.07,0,.1l0,.13-.73,3.33a.42.42,0,0,1,0,.1.11.11,0,0,1-.06.07L280,261h-.06a.15.15,0,0,1,0-.08v0s0,0,0,0l.74-3.34-1.08.63a.06.06,0,0,1-.07,0,.15.15,0,0,1,0-.08v-.18a.36.36,0,0,1,0-.11s0-.07.07-.08Z" transform="translate(-159.53 -132.46)"/><path class="cls-1" d="M275.89,270.07l19.45-11.27c.23-.13.4,0,.4.2a.83.83,0,0,1-.4.66l-19.45,11.28c-.22.12-.4,0-.4-.21A.86.86,0,0,1,275.89,270.07Z" transform="translate(-159.53 -132.46)"/><path class="cls-1" d="M275.89,257.06l4.36-2.53c.22-.12.4,0,.4.21a.86.86,0,0,1-.4.66l-4.36,2.53c-.22.13-.4,0-.4-.2A.87.87,0,0,1,275.89,257.06Z" transform="translate(-159.53 -132.46)"/><path class="cls-6" d="M275.48,283.86a.1.1,0,0,1-.07,0,.15.15,0,0,1-.05-.19l2.31-3.77,2.31.43,2.18-.6,2.25-2.75,2.24-.56,2.27-4.06,2.33.68,2.18-.41,2.22-2a.14.14,0,1,1,.19.21l-2.28,2h0l-2.29.43-2.17-.63-2.23,4-2.26.57L282.32,280l-.05,0-2.28.62h0l-2.16-.39-2.2,3.61A.13.13,0,0,1,275.48,283.86Z" transform="translate(-159.53 -132.46)"/><g class="cls-16"><path d="M275.48,283.86a.1.1,0,0,1-.07,0,.15.15,0,0,1-.05-.19l2.31-3.77,2.31.43,2.18-.6,2.25-2.75,2.24-.56,2.27-4.06,2.33.68,2.18-.41,2.22-2a.14.14,0,1,1,.19.21l-2.28,2h0l-2.29.43-2.17-.63-2.23,4-2.26.57L282.32,280l-.05,0-2.28.62h0l-2.16-.39-2.2,3.61A.13.13,0,0,1,275.48,283.86Z" transform="translate(-159.53 -132.46)"/></g><path class="cls-4" d="M276.52,277.33l0,0,0,0a.64.64,0,0,1-.31.09.38.38,0,0,1-.26-.07.62.62,0,0,1-.19-.27,1.26,1.26,0,0,1-.07-.47,2.24,2.24,0,0,1,.06-.52,3.41,3.41,0,0,1,.18-.48,2.33,2.33,0,0,1,.27-.4,1.19,1.19,0,0,1,.32-.28.71.71,0,0,1,.34-.11.41.41,0,0,1,.26.11.55.55,0,0,1,.16.28,1.42,1.42,0,0,1,.06.44,1.75,1.75,0,0,1-.09.56,2.29,2.29,0,0,1-.09.28c0,.1-.05.18-.08.26l-.6,1.7,0,.09a.11.11,0,0,1-.06.07l-.19.11a0,0,0,0,1-.05,0,.14.14,0,0,1,0-.07s0,0,0,0,0,0,0,0Zm.43-1.44a.77.77,0,0,0,0-.27.35.35,0,0,0-.1-.17.33.33,0,0,0-.17-.07.44.44,0,0,0-.2.07.6.6,0,0,0-.21.18.78.78,0,0,0-.16.24,1.08,1.08,0,0,0-.11.3,1.17,1.17,0,0,0,0,.32.73.73,0,0,0,0,.27.3.3,0,0,0,.11.17.21.21,0,0,0,.16.06.38.38,0,0,0,.21-.06.67.67,0,0,0,.2-.18,1,1,0,0,0,.17-.24,1.51,1.51,0,0,0,.1-.3A1.12,1.12,0,0,0,277,275.89Z" transform="translate(-159.53 -132.46)"/><path class="cls-4" d="M277.81,277a.65.65,0,0,0,0,.13.2.2,0,0,0,.09.09.26.26,0,0,0,.16,0,.82.82,0,0,0,.25-.11.9.9,0,0,0,.19-.15.87.87,0,0,0,.17-.21,2,2,0,0,0,.11-.26,1.55,1.55,0,0,0,0-.31.83.83,0,0,0,0-.26.22.22,0,0,0-.11-.12.28.28,0,0,0-.16,0l-.2.09-.27.16a.06.06,0,0,1-.07,0,.13.13,0,0,1,0-.08v-.18a.15.15,0,0,1,0-.09.46.46,0,0,1,0-.09l.59-1.33-.95.55a0,0,0,0,1-.06,0s0,0,0-.08v-.18a.22.22,0,0,1,0-.11.28.28,0,0,1,.06-.08l1.3-.75a.06.06,0,0,1,.07,0,.13.13,0,0,1,0,.08v.18a.2.2,0,0,1,0,.1.76.76,0,0,1,0,.11l-.58,1.3a.64.64,0,0,1,.3-.09.3.3,0,0,1,.23.07.48.48,0,0,1,.16.24,1.45,1.45,0,0,1,.05.4,1.73,1.73,0,0,1-.07.5,1.92,1.92,0,0,1-.17.44,2,2,0,0,1-.26.37,1.52,1.52,0,0,1-.32.26,1.05,1.05,0,0,1-.38.14.35.35,0,0,1-.26-.06.38.38,0,0,1-.16-.19.94.94,0,0,1-.05-.3.15.15,0,0,1,0-.09.1.1,0,0,1,.05-.06l.15-.09s0,0,.06,0A.16.16,0,0,1,277.81,277Z" transform="translate(-159.53 -132.46)"/><path class="cls-1" d="M275.89,285.65l19.45-11.27c.23-.13.4,0,.4.2a.82.82,0,0,1-.4.66l-19.45,11.28c-.22.13-.4,0-.4-.2A.87.87,0,0,1,275.89,285.65Z" transform="translate(-159.53 -132.46)"/><path class="cls-1" d="M275.89,272.65l4.36-2.53c.22-.13.4,0,.4.2a.84.84,0,0,1-.4.66l-4.36,2.53c-.22.13-.4,0-.4-.2A.86.86,0,0,1,275.89,272.65Z" transform="translate(-159.53 -132.46)"/><path class="cls-6" d="M304.75,243a2.54,2.54,0,0,1,2.56-.19l-2.56,6.92Z" transform="translate(-159.53 -132.46)"/><path class="cls-6" d="M302.18,245.75a7.7,7.7,0,0,1,2.57-2.77v6.73Z" transform="translate(-159.53 -132.46)"/><path class="cls-6" d="M300.59,250a13.81,13.81,0,0,1,1.59-4.28l2.57,4Z" transform="translate(-159.53 -132.46)"/><path class="cls-12" d="M302.18,245.75a13.81,13.81,0,0,0-1.59,4.28l4.16-.32V243A7.7,7.7,0,0,0,302.18,245.75Z" transform="translate(-159.53 -132.46)"/><path class="cls-6" d="M307.31,242.79a3.56,3.56,0,0,1,1.59,2.44l-4.15,4.48Z" transform="translate(-159.53 -132.46)"/><path class="cls-6" d="M300.59,254.19a8.92,8.92,0,0,1-.21-2,12.79,12.79,0,0,1,.21-2.2l4.16-.32Z" transform="translate(-159.53 -132.46)"/><path class="cls-6" d="M308.9,249.39a13.33,13.33,0,0,1-1.59,4.28l-2.56-4Z" transform="translate(-159.53 -132.46)"/><path class="cls-6" d="M304.75,256.44a2.56,2.56,0,0,1-2.57.19l2.57-6.92Z" transform="translate(-159.53 -132.46)"/><path class="cls-6" d="M300.59,254.19l4.16-4.48-2.57,6.92A3.62,3.62,0,0,1,300.59,254.19Z" transform="translate(-159.53 -132.46)"/><path class="cls-6" d="M308.9,245.23a8.33,8.33,0,0,1,.22,2,11.89,11.89,0,0,1-.22,2.2l-4.15.32Z" transform="translate(-159.53 -132.46)"/><path class="cls-6" d="M307.31,253.67a7.68,7.68,0,0,1-2.56,2.77v-6.73Z" transform="translate(-159.53 -132.46)"/><path class="cls-4" d="M302.57,259.87l4.36-2.53c.22-.13.4,0,.4.2a.87.87,0,0,1-.4.67l-4.36,2.53c-.22.12-.4,0-.4-.21A.86.86,0,0,1,302.57,259.87Z" transform="translate(-159.53 -132.46)"/><path class="cls-1" d="M301.61,263l6.28-3.64c.22-.13.4,0,.4.2a.84.84,0,0,1-.4.66l-6.28,3.65c-.22.13-.4,0-.4-.2A.87.87,0,0,1,301.61,263Z" transform="translate(-159.53 -132.46)"/><path class="cls-1" d="M301.61,265.64l6.28-3.65c.22-.13.4,0,.4.2a.87.87,0,0,1-.4.67l-6.28,3.64c-.22.13-.4,0-.4-.2A.84.84,0,0,1,301.61,265.64Z" transform="translate(-159.53 -132.46)"/><path class="cls-1" d="M301.61,268.24l6.28-3.64c.22-.13.4,0,.4.2a.84.84,0,0,1-.4.66l-6.28,3.65c-.22.13-.4,0-.4-.2A.87.87,0,0,1,301.61,268.24Z" transform="translate(-159.53 -132.46)"/><path class="cls-6" d="M320.51,233.85a2.54,2.54,0,0,1,2.56-.19l-2.56,6.92Z" transform="translate(-159.53 -132.46)"/><path class="cls-6" d="M317.94,236.62a7.62,7.62,0,0,1,2.57-2.77v6.73Z" transform="translate(-159.53 -132.46)"/><path class="cls-6" d="M316.35,240.9a13.47,13.47,0,0,1,1.59-4.28l2.57,4Z" transform="translate(-159.53 -132.46)"/><path class="cls-6" d="M323.07,233.66a3.59,3.59,0,0,1,1.59,2.44l-4.15,4.48Z" transform="translate(-159.53 -132.46)"/><path class="cls-6" d="M316.35,245.06a8.35,8.35,0,0,1-.21-2,11.79,11.79,0,0,1,.21-2.2l4.16-.32Z" transform="translate(-159.53 -132.46)"/><path class="cls-6" d="M324.66,240.26a13.42,13.42,0,0,1-1.59,4.27l-2.56-3.95Z" transform="translate(-159.53 -132.46)"/><path class="cls-6" d="M320.51,247.31a2.56,2.56,0,0,1-2.57.19l2.57-6.92Z" transform="translate(-159.53 -132.46)"/><path class="cls-6" d="M316.35,245.06l4.16-4.48-2.57,6.92A3.61,3.61,0,0,1,316.35,245.06Z" transform="translate(-159.53 -132.46)"/><path class="cls-12" d="M317.94,236.62a13.47,13.47,0,0,0-1.59,4.28,11.79,11.79,0,0,0-.21,2.2,8.35,8.35,0,0,0,.21,2,3.61,3.61,0,0,0,1.59,2.44l2.57-6.92v-6.73A7.62,7.62,0,0,0,317.94,236.62Z" transform="translate(-159.53 -132.46)"/><path class="cls-6" d="M324.66,236.1a8.33,8.33,0,0,1,.22,2,11.89,11.89,0,0,1-.22,2.2l-4.15.32Z" transform="translate(-159.53 -132.46)"/><path class="cls-6" d="M323.07,244.53a7.64,7.64,0,0,1-2.56,2.78v-6.73Z" transform="translate(-159.53 -132.46)"/><path class="cls-4" d="M318.33,250.77l4.36-2.53c.22-.13.4,0,.4.2a.87.87,0,0,1-.4.67l-4.36,2.53c-.22.12-.4,0-.4-.21A.87.87,0,0,1,318.33,250.77Z" transform="translate(-159.53 -132.46)"/><path class="cls-1" d="M317.37,253.93l6.28-3.64c.22-.13.4,0,.4.2a.87.87,0,0,1-.4.67l-6.28,3.64c-.22.13-.4,0-.4-.2A.87.87,0,0,1,317.37,253.93Z" transform="translate(-159.53 -132.46)"/><path class="cls-1" d="M317.37,256.54l6.28-3.65c.22-.12.4,0,.4.21a.86.86,0,0,1-.4.66l-6.28,3.65c-.22.12-.4,0-.4-.21A.86.86,0,0,1,317.37,256.54Z" transform="translate(-159.53 -132.46)"/><path class="cls-1" d="M317.37,259.14l6.28-3.64c.22-.13.4,0,.4.2a.87.87,0,0,1-.4.67L317.37,260c-.22.13-.4,0-.4-.2A.87.87,0,0,1,317.37,259.14Z" transform="translate(-159.53 -132.46)"/></g></svg>