<svg id="Camada_1" data-name="Camada 1" xmlns="http://www.w3.org/2000/svg" viewBox="0 0 299.55 314.65"><defs><style>.cls-1,.cls-13{fill:#407bff;}.cls-10,.cls-12,.cls-2{fill:#fff;}.cls-2{opacity:0.75;}.cls-10,.cls-2{isolation:isolate;}.cls-14,.cls-15,.cls-3,.cls-5,.cls-7,.cls-8,.cls-9{fill:none;}.cls-11,.cls-12,.cls-13,.cls-14,.cls-3{stroke:#263238;}.cls-3,.cls-5,.cls-7,.cls-8{stroke-miterlimit:10;}.cls-11,.cls-4{fill:#263238;}.cls-5{stroke:#407bff;}.cls-6{fill:gray;}.cls-7,.cls-9{stroke:#fff;}.cls-8{stroke:#999;}.cls-11,.cls-12,.cls-13,.cls-14,.cls-15,.cls-9{stroke-linecap:round;stroke-linejoin:round;}.cls-10{opacity:0.5;}.cls-15{stroke:#636363;}</style></defs><g id="freepik--background-simple--inject-4"><path class="cls-1" d="M232,86.8s54.23-6.89,97.41,32.39,55.73,101.27,67.24,151.25-10.88,93.35-53.18,106.13-61.18-23.83-113.74-36.87-68.46-8.61-105.81-48.08S94,179.83,140.06,135.18,232,86.8,232,86.8Z" transform="translate(-100.09 -86.34)"/><path class="cls-2" d="M232,86.8s54.23-6.89,97.41,32.39,55.73,101.27,67.24,151.25-10.88,93.35-53.18,106.13-61.18-23.83-113.74-36.87-68.46-8.61-105.81-48.08S94,179.83,140.06,135.18,232,86.8,232,86.8Z" transform="translate(-100.09 -86.34)"/></g><g id="freepik--Wall--inject-4"><line class="cls-3" x1="289.04" y1="218" x2="22.12" y2="199.2"/><line class="cls-3" x1="35.81" y1="200" x2="35.81" y2="169.96"/><line class="cls-3" x1="61.04" y1="201.6" x2="61.04" y2="172.37"/><line class="cls-3" x1="90.28" y1="204" x2="90.28" y2="173.97"/><line class="cls-3" x1="122.72" y1="206.41" x2="122.72" y2="174.77"/><line class="cls-3" x1="156.35" y1="208.41" x2="156.35" y2="174.77"/><line class="cls-3" x1="189.99" y1="210.01" x2="189.99" y2="177.98"/><line class="cls-3" x1="225.84" y1="214.6" x2="225.84" y2="179.98"/><line class="cls-3" x1="266.48" y1="216.02" x2="266.48" y2="182.78"/><line class="cls-3" x1="289.04" y1="222.68" x2="21.26" y2="202.81"/><line class="cls-3" x1="280.63" y1="301.33" x2="288.63" y2="302.26"/><line class="cls-3" x1="20.03" y1="270.97" x2="271.69" y2="300.29"/></g><g id="freepik--Graphics--inject-4"><polygon class="cls-4" points="290.59 176.24 29.56 165.04 29.56 22.79 290.59 11.6 290.59 176.24"/><polygon class="cls-5" points="284.15 168.48 34.4 158.75 34.4 29.09 284.15 19.35 284.15 168.48"/><path class="cls-6" d="M215.61,130.13l-69.11,2a3.06,3.06,0,0,1-3-3.15.41.41,0,0,1,0-.11h0a3.27,3.27,0,0,1,3-3.43l69.11-2.27a3.27,3.27,0,0,1,3.23,3.29.41.41,0,0,1,0,.11h0A3.49,3.49,0,0,1,215.61,130.13Z" transform="translate(-100.09 -86.34)"/><path class="cls-1" d="M174.1,127.92a3.1,3.1,0,0,0-2.92-3.29H171l-24.53.8a3.31,3.31,0,0,0-3,3.44,3.07,3.07,0,0,0,2.86,3.26h.11l24.53-.71A3.35,3.35,0,0,0,174.1,127.92Z" transform="translate(-100.09 -86.34)"/><path class="cls-6" d="M215.61,143.73l-69.11,1.44a3.08,3.08,0,0,1-3-3.26h0a3.26,3.26,0,0,1,3-3.41l69.11-1.72a3.27,3.27,0,0,1,3.23,3.29.37.37,0,0,1,0,.11h0A3.45,3.45,0,0,1,215.61,143.73Z" transform="translate(-100.09 -86.34)"/><path class="cls-1" d="M191.39,140.8h0a3.19,3.19,0,0,0-3-3.35h-.11l-41.72,1a3.27,3.27,0,0,0-3,3.41h0a3.06,3.06,0,0,0,3,3.26l41.76-.87A3.37,3.37,0,0,0,191.39,140.8Z" transform="translate(-100.09 -86.34)"/><path class="cls-6" d="M215.61,157.33l-69.11.91a3.12,3.12,0,0,1-3-3.26v0h0a3.26,3.26,0,0,1,3-3.39l69.11-1.18a3.3,3.3,0,0,1,3.23,3.37v.06h0A3.41,3.41,0,0,1,215.61,157.33Z" transform="translate(-100.09 -86.34)"/><path class="cls-1" d="M203.57,154a3.26,3.26,0,0,0-3.12-3.4h0l-53.89.92a3.27,3.27,0,0,0-3,3.39,3.11,3.11,0,0,0,2.93,3.29h0l53.89-.71A3.39,3.39,0,0,0,203.57,154Z" transform="translate(-100.09 -86.34)"/><path class="cls-1" d="M215.61,170.94l-69.11.36a3.14,3.14,0,0,1-3-3.31h0a3.19,3.19,0,0,1,3-3.36l69.11-.65a3.33,3.33,0,0,1,3.23,3.42v0h0A3.39,3.39,0,0,1,215.61,170.94Z" transform="translate(-100.09 -86.34)"/><path class="cls-1" d="M233,129.62l-9.47.28a3.26,3.26,0,0,1-3.26-3.26v-.14h0a3.52,3.52,0,0,1,3.26-3.6l9.47-.29a3.25,3.25,0,0,1,3.29,3.22V126h0A3.53,3.53,0,0,1,233,129.62Z" transform="translate(-100.09 -86.34)"/><path class="cls-1" d="M233,143.37l-9.47.19a3.25,3.25,0,0,1-3.26-3.25v-.17h0a3.48,3.48,0,0,1,3.26-3.57l9.47-.24a3.31,3.31,0,0,1,3.29,3.33v.11h0A3.51,3.51,0,0,1,233,143.37Z" transform="translate(-100.09 -86.34)"/><path class="cls-1" d="M233,157.1l-9.47.13a3.32,3.32,0,0,1-3.26-3.38v-.07h0a3.45,3.45,0,0,1,3.26-3.55l9.47-.16a3.34,3.34,0,0,1,3.29,3.41v.06h0A3.46,3.46,0,0,1,233,157.1Z" transform="translate(-100.09 -86.34)"/><path class="cls-1" d="M233,170.85l-9.47.05a3.35,3.35,0,0,1-3.26-3.44v0h0a3.43,3.43,0,0,1,3.26-3.52l9.47-.08a3.36,3.36,0,0,1,3.29,3.44v.05h0A3.44,3.44,0,0,1,233,170.85Z" transform="translate(-100.09 -86.34)"/><line class="cls-7" x1="46.96" y1="35.58" x2="58.09" y2="35.19"/><line class="cls-7" x1="46.96" y1="49.28" x2="58.09" y2="48.99"/><line class="cls-7" x1="46.96" y1="62.29" x2="58.09" y2="62.08"/><line class="cls-7" x1="46.96" y1="75.99" x2="58.09" y2="75.88"/><line class="cls-7" x1="252.71" y1="35.95" x2="262.03" y2="35.66"/><line class="cls-7" x1="247.29" y1="43.98" x2="262.03" y2="43.59"/><line class="cls-7" x1="252.71" y1="51.72" x2="262.03" y2="51.51"/><line class="cls-7" x1="256.56" y1="59.54" x2="262.03" y2="59.44"/><line class="cls-7" x1="252.71" y1="67.5" x2="262.03" y2="67.37"/><line class="cls-7" x1="250.22" y1="75.41" x2="262.03" y2="75.29"/><line class="cls-7" x1="252.71" y1="83.27" x2="262.03" y2="83.22"/><line class="cls-7" x1="248.19" y1="91.16" x2="262.03" y2="91.14"/><line class="cls-7" x1="252.71" y1="99.04" x2="262.03" y2="99.07"/><path class="cls-7" d="M364.6,122l2.82-.09" transform="translate(-100.09 -86.34)"/><path class="cls-7" d="M364.6,129.86l2.82-.07" transform="translate(-100.09 -86.34)"/><path class="cls-7" d="M364.6,137.8l2.82-.07" transform="translate(-100.09 -86.34)"/><path class="cls-7" d="M364.64,145.73l2.75,0" transform="translate(-100.09 -86.34)"/><path class="cls-7" d="M364.6,153.67l2.82,0" transform="translate(-100.09 -86.34)"/><path class="cls-7" d="M364.6,161.61h2.77" transform="translate(-100.09 -86.34)"/><path class="cls-7" d="M364.6,169.55h2.82" transform="translate(-100.09 -86.34)"/><path class="cls-7" d="M364.54,177.48h2.85" transform="translate(-100.09 -86.34)"/><path class="cls-7" d="M364.6,185.41h2.82" transform="translate(-100.09 -86.34)"/><path class="cls-7" d="M370.16,121.75l4.84-.15" transform="translate(-100.09 -86.34)"/><path class="cls-7" d="M370.16,129.71l4.84-.13" transform="translate(-100.09 -86.34)"/><path class="cls-7" d="M370.16,137.67l4.84-.11" transform="translate(-100.09 -86.34)"/><path class="cls-7" d="M370.28,145.63l4.72-.09" transform="translate(-100.09 -86.34)"/><path class="cls-7" d="M370.16,153.59l4.84-.07" transform="translate(-100.09 -86.34)"/><path class="cls-7" d="M370.26,161.55l4.74-.05" transform="translate(-100.09 -86.34)"/><path class="cls-7" d="M370.16,169.51H375" transform="translate(-100.09 -86.34)"/><path class="cls-7" d="M370.12,177.47H375" transform="translate(-100.09 -86.34)"/><path class="cls-7" d="M370.16,185.43H375" transform="translate(-100.09 -86.34)"/><line class="cls-8" x1="145.91" y1="92.72" x2="240.72" y2="92.65"/><line class="cls-8" x1="145.91" y1="86.69" x2="240.72" y2="86.29"/><line class="cls-8" x1="145.91" y1="80.65" x2="240.72" y2="79.94"/><path class="cls-1" d="M341.13,191.53V162.84s-2.23-2.82-11.4-2.3-11.25,8.54-20.86,13.21-14-2.87-21.86-2.83-11.63,8.7-17.25,12-10.54-.42-17.21.38a9.47,9.47,0,0,0-8.06,6.86l-.09.8Z" transform="translate(-100.09 -86.34)"/><path class="cls-6" d="M341.13,191.53V175.77c-3.14-.17-9.65.36-16.56,6.11s-19.24,2.72-22.86,1.4a20.76,20.76,0,0,0-19,1.95c-6.57,4.18-11.92,3.77-18,3.74a46.76,46.76,0,0,0-11.83,2Z" transform="translate(-100.09 -86.34)"/><path class="cls-6" d="M268.61,236.22l-16.87-.53a3.05,3.05,0,0,1-2.85-3.11h0a2.83,2.83,0,0,1,2.74-2.94h.11l16.87.46a3.09,3.09,0,0,1,2.92,3.14h0a2.89,2.89,0,0,1-2.81,3Z" transform="translate(-100.09 -86.34)"/><path class="cls-6" d="M302.66,237.27l-17.51-.54a3.14,3.14,0,0,1-3-3.17h0a2.93,2.93,0,0,1,2.85-3h.11l17.51.49a3.18,3.18,0,0,1,3,3.2h0a3,3,0,0,1-2.9,3Z" transform="translate(-100.09 -86.34)"/><path class="cls-6" d="M337.28,238.35l-18.18-.56a3.23,3.23,0,0,1-3.07-3.26h0a3,3,0,0,1,3-3.05h.12l18.18.5a3.26,3.26,0,0,1,3.14,3.26h0a3,3,0,0,1-3,3.11A.43.43,0,0,1,337.28,238.35Z" transform="translate(-100.09 -86.34)"/><line class="cls-8" x1="43.34" y1="133.51" x2="136.84" y2="135.72"/><line class="cls-8" x1="43.34" y1="128.55" x2="136.84" y2="130.49"/><line class="cls-8" x1="43.34" y1="123.59" x2="136.84" y2="125.25"/><line class="cls-8" x1="43.34" y1="118.62" x2="136.84" y2="120.01"/><line class="cls-8" x1="43.34" y1="113.66" x2="136.84" y2="114.77"/><line class="cls-8" x1="43.34" y1="108.7" x2="136.84" y2="109.53"/><line class="cls-8" x1="43.34" y1="103.74" x2="136.84" y2="104.29"/><line class="cls-8" x1="43.34" y1="98.78" x2="136.84" y2="99.05"/><polygon class="cls-6" points="54.62 139.15 45.66 138.91 45.66 119.23 54.62 119.37 54.62 139.15"/><polygon class="cls-1" points="67.32 139.49 58.23 139.25 58.23 113.86 67.32 113.97 67.32 139.49"/><polygon class="cls-6" points="80.22 139.83 70.99 139.58 70.99 109.66 80.22 109.75 80.22 139.83"/><polygon class="cls-1" points="93.32 140.18 83.95 139.94 83.95 97.25 93.32 97.27 93.32 140.18"/><polygon class="cls-6" points="106.62 140.54 97.1 140.29 97.1 109.9 106.62 109.99 106.62 140.54"/><polygon class="cls-1" points="120.13 140.91 110.46 140.65 110.46 119.58 120.13 119.72 120.13 140.91"/><polygon class="cls-6" points="133.85 141.27 124.03 141.01 124.03 128.12 133.85 128.31 133.85 141.27"/><line class="cls-9" x1="46.08" y1="143.87" x2="53.37" y2="144.09"/><line class="cls-9" x1="58.74" y1="144.25" x2="66.14" y2="144.47"/><line class="cls-9" x1="71.59" y1="144.64" x2="79.11" y2="144.86"/><line class="cls-9" x1="84.65" y1="145.02" x2="92.27" y2="145.25"/><line class="cls-9" x1="97.9" y1="145.42" x2="105.64" y2="145.65"/><line class="cls-9" x1="111.36" y1="145.82" x2="119.22" y2="146.06"/><line class="cls-9" x1="125.03" y1="146.23" x2="133.02" y2="146.47"/><polygon class="cls-1" points="248.45 112.58 248.45 107.9 261.17 108 261.17 112.7 248.45 112.58"/><polygon class="cls-6" points="248.45 119.13 248.45 114.45 264.76 114.63 264.76 119.35 248.45 119.13"/><polygon class="cls-1" points="248.45 125.67 248.45 121 267.57 121.27 267.57 126 248.45 125.67"/><polygon class="cls-6" points="248.45 132.22 248.45 127.54 275.64 128.03 275.64 132.78 248.45 132.22"/><polygon class="cls-1" points="248.45 138.77 248.45 134.09 267.57 134.5 267.57 139.22 248.45 138.77"/><polygon class="cls-6" points="248.45 145.31 248.45 140.64 261.57 140.97 261.57 145.67 248.45 145.31"/><polygon class="cls-1" points="248.45 151.87 248.45 147.19 256.39 147.41 256.39 152.11 248.45 151.87"/><path class="cls-6" d="M273.48,210.72c0,7.95-6.14,14.24-13.66,14.05s-13.45-6.68-13.45-14.51,6-14.13,13.45-14.06S273.48,202.8,273.48,210.72Z" transform="translate(-100.09 -86.34)"/><path class="cls-1" d="M260.47,196.24c-.22,0-.43,0-.65,0-7.46-.07-13.45,6.23-13.45,14.06s6,14.34,13.45,14.51h.65Z" transform="translate(-100.09 -86.34)"/><path class="cls-4" d="M269.23,210.62a9.43,9.43,0,0,1-9.41,9.71,9.79,9.79,0,0,1-9.31-10,9.42,9.42,0,0,1,9.31-9.7A9.83,9.83,0,0,1,269.23,210.62Z" transform="translate(-100.09 -86.34)"/><path class="cls-1" d="M307.22,211.27a14,14,0,0,1-14.16,14.31,14.57,14.57,0,0,1-14-14.78,14.08,14.08,0,0,1,14-14.35C300.8,196.5,307.22,203.19,307.22,211.27Z" transform="translate(-100.09 -86.34)"/><path class="cls-4" d="M302.78,211.21a9.68,9.68,0,0,1-9.47,9.89H293a10.09,10.09,0,0,1-9.67-10.21,9.68,9.68,0,0,1,9.48-9.88H293A10.08,10.08,0,0,1,302.78,211.21Z" transform="translate(-100.09 -86.34)"/><path class="cls-6" d="M342.19,211.88A14.41,14.41,0,0,1,328,226.46h-.48A15,15,0,0,1,313,211.39a14.42,14.42,0,0,1,14.27-14.58h.21A15,15,0,0,1,342.19,211.88Z" transform="translate(-100.09 -86.34)"/><path class="cls-1" d="M328.17,196.85c-.23,0-.46,0-.7,0A14.42,14.42,0,0,0,313,211.17v.22a15,15,0,0,0,14.48,15.07h.7Z" transform="translate(-100.09 -86.34)"/><path class="cls-4" d="M337.61,211.8a9.94,9.94,0,0,1-9.83,10.07h-.31a10.37,10.37,0,0,1-10-10.43,10,10,0,0,1,9.85-10.06h.17A10.36,10.36,0,0,1,337.61,211.8Z" transform="translate(-100.09 -86.34)"/><line class="cls-7" x1="156.84" y1="124.82" x2="163.03" y2="124.93"/><line class="cls-7" x1="190.06" y1="125.39" x2="196.49" y2="125.5"/><line class="cls-7" x1="223.92" y1="125.98" x2="230.59" y2="126.09"/><polygon class="cls-6" points="190.35 48.91 190.4 48.41 190.25 48.55 190.35 48.91 190.35 48.91"/><polygon class="cls-6" points="171.12 56.21 171.45 56.27 172.21 56.03 171.12 55.68 171.27 56.04 170.82 56.14 171.12 56.21 171.12 56.21"/><path class="cls-6" d="M279.84,148.61l-1.68-.65-.3.18.05-.26-.54-.36-.62.26.2-.31-.46-.13-.15.21.28-.55-.35-.78-.4-.34-.88-.12h0l-.66-.65H274l.06-.22-.34-.14v-.14l-.19-.06-.44.19-.73-.19-.37-.35-.07.17-.31.22.08.37-.24-.08.09-.35,0-.18.06,0,.06-.16-.65.35h-.11l-.53.79h0l-.14-.21-.32-.16-.33.14h-.37l-.37-.48.14-1.09-.25-.2h-.92l-.09-.06.14-.58h0l.27-.87h-.55l-.51.79-.71.12-.26-.14-.37-.59v-1.43l-.09,0,.09,0-.06-.33.06-.25.77-.61.76.17.1-.09.2.16-.09-.28.36-.17.09.07.3-.05.21.17h.16l.21-.08.58,1.3h.17l.1-.31-.32-1.31,1-1.16v-.17l.06-.1h.15l.06-.16-.16-.26v-.13l-.15-.22.1-.09v-.35h.07l0,.57.11-.08,0-.45h.17l.11-.34.47-.19h-.35l.37-.14.11-.11h.19l-.06-.2.18-.43.3-.29h.29l.65-.5v.11l.21.08-.47.25v.29l.3-.07.22-.22.53-.18.1,0,.3-.13-.08-.11v-.18l-.37.38-.41-.07-.25-.23v-.27l-.1-.08v-.11l.23-.34-1,.21-.51.5.58-.75.24-.09.17-.23,1.43-.13,1-.65V132l-.07-.07.08-.14-.12-.21-.25.05v-.22l-.58.23-.05-.1.6-.28-1.12-.71v-.07l.18-.12-.71-1.3-.21.27-.08.31-.08.1h-.14l-.22.16-.38-.33-.1-.46.08-.23-.52-.16-.48-.43-.23.09-.7-.09-.09.2.15.17-.13.26.16.38-.23.56.34.31.05.57-.36.39-.32.15.19.83-.05.22,0,.13h-.1l-.12.17-.19-.08-.41-.59v-.6l-.13-.17-1.89-.74-.34.12v-.13l-.26-.54-.25-.07.14-.93.78-.83-.69-.31.78.13.06-.22.34,0,.32-.39-.57-.27v-.14l.45.24.34-.3-.13-.15.18-.09.15.12h.24l-.12-.18,0-.07.23.08h.2l.33-.29-.18-.47v-.11l.22-.09-.13-.27-.79-.24v.25l.07.13,0,.12-.15.12-.11.26-.1-.16,0,.21.08.16-.15.13-.28-.38.1-.12v-.16l-.15-.18-.22-.05-.19.4-.07-.31.08-.21-.22-.1-.17,0V125l.13-.06-.34-.3v-.23l-.3-.23-.05-.11.17-.14,0-.26h.35l.33-.53-.61-.19-.48.1.07.16H266l.12.89-.13.15.07.15h-.19v.71l.45.17-.07.35.11-.1.1.15-.38.27v.25l-.12.1-.12-.21v-.2l-.26-.08.17,0,.12-.1.26,0-.13-.22h-.18l.19,0-.39-.14-.49.26.37.27-.19.14v.17l-1.25-.06-.21-.11-.11-.2h-.38l-.33.18.11.1.5-.19-.37.23v.56l-.14-.06v-.22l-1.57-.1.25-.21-.08-.2-1.47-.38-.77.16v-.17l-.07-.21-.31.38-.34-.51-.13.06-.25.32-.93.48.05-.14.8-.51h-.2l-.77.37-.17-.09-.31.27.1.15-3.8-.74-.07-.13h-.38l-.12-.11-.28.08.08-.12-.17-.09-.8.35.05.14-.49.07-.26.26-.09.28-.57.14-.06.17.61.61H251l.07.22.24.06-.74.15v-.13h-.28l-.12.16H250l-.3.21.33.14-.05.12.17.19h.65l.4-.17-.07.18v.35l-.27,0-.12.21-.22-.05-.1.27-.22.19-.11.24.2.15v.25l.28.3.27-.06.11-.11.07.55h.69l.09-.14H252l-.07.55-.65.65-.35.05-.16.29,2.13-1.56-.18-.1.79-.87.14.06v.1l-.23.06-.09.24v.19l-.08.12.09.08.45-.29h.32v-.14l-.1-.15.07-.13.46.09-.09.09v.09l.31-.07,0,.05.75.06.2.15.27-.11,0,.16.65.47.13-.13.18.1v-.22h.09v.34l-.17,0-.15,0,.36.58v-.46l0,.18.13-.09v-.19l.13.18-.07.18-.13.07v.28l.1-.1.14,0,.19.17-.09-.13v-.14l.17.26-.11.13-.19-.1,0,.45.08-.09.12.06.05-.15.11,0,.11-.06v.18h.1l.09.13-.06.11,0,.2h.19l.06.15.28.21,0,.4.59.27.09.16.3.1.2.27,0,.27-.07.26-.11-.38v-.11l-.65-.57-.54-.1.72.66.32.75,0,2.47.76,1.26.47.17,1,1.77h-.18l.53.4.07.33.5.59.11-.08-.05-.21-.19-.09-.66-1.27v-.14l-.17-.08-.2-.59h.08l.35.13.08.66,1.68,2.11V142l-.07.09.18.33,1.65.86h.88l.24.22h0l.25.24.77.23.07,0h.07l.06.19.35.41v.1l.06.23.13,0,.91.65.18-.06-.07-.14.12-.13.25-.1.28.53,0,1-.35.46v0l-.16.09-.14.86.14.14h.11l-.1.16h0l-.19.23.09.36-.07.07,1.21,2.32,1.3,1-.94,7.17.1.18.11-.48.08-.09.06.09-.09,1.12-.11.08v.17l-.15-.07.1-.18-.12-.18.08.2-.26.18v.12l-.14.17h.29v.13l-.07.16h.21v.1h-.28l-.16.15.09.12.11-.09h.09l-.23.27.1.19.17-.22-.06.38-.14.17v.25l.24,0,0,.09-.1.12h.21l.15.06-.21.1-.06.16.17-.07h.35l-.42.18V163l.47-.16-.29.24h-.24v.18l.34.12,0-.09.47-.52-.06.28H272l-.13.12v.18l-.1-.21-.05.16-.11-.05-.17.21.17,0,.11.24.08-.21.16.24.08-.09.24.19v-.17l.71-.13-.71-.55v-.11l-.09-.14h0l-.2-.1v0h.22l-.15-.45.05-.24.69-.84,0-.27-.22-.06-.17-.4.38-.25.28-.79.13.09.09-.2-.16,0-.12-.06,0-.45.37.11.26-.16v-.43l.09-.11.59,0,.43-.26.21-.34-.42-.74h.08l.39.13.52-.06.71-1.3v.33l.53-.8.13-1,.9-.66.6-.07L279,152l.06-1.3,0-.08.15,0,.72-1.14-.05-.76-.2-.15Zm-7.62,15.07Z" transform="translate(-100.09 -86.34)"/><polygon class="cls-6" points="170.86 55.65 169.33 54.88 168.52 55.22 168.91 55.01 170.01 55.48 170.12 55.69 170.86 55.65 170.86 55.65"/><polygon class="cls-6" points="169.92 56.18 170.39 56.27 169.92 56.18 169.92 56.18"/><polygon class="cls-6" points="172.53 56.16 172.91 56.14 172.53 56.16 172.53 56.16"/><polygon class="cls-6" points="166.95 61.12 167.09 61.38 166.95 61.12 166.95 61.12"/><polygon class="cls-6" points="183.01 38.12 182.09 38.1 182.19 37.67 183.04 37.97 183.11 37.61 182.51 37.02 182.85 37.06 183.07 36.78 182.52 36.79 182.42 36.62 182.51 36.39 183.02 36.55 183.41 36.43 183.1 36.11 183.62 36.04 183.68 35.86 183.26 35.57 183.66 35.48 183.55 35 183.14 34.9 182.97 34.7 183.92 34.62 183.77 34.35 183.39 34.26 183.71 34.18 183.06 34.09 183.2 33.6 183.99 32.95 183.84 32.74 183.45 32.89 183.77 32.66 184.35 32.55 183.92 32.45 185.36 31.77 184.57 31.54 184.1 31.81 183.62 31.86 183.42 31.78 182.57 32.44 182.96 31.88 182.81 31.5 181.78 32.01 182.26 31.66 180.52 31.82 183.14 31.18 179.47 30.72 179.08 30.96 177.34 31.04 177.57 31.27 177.16 31.42 177.74 31.82 176.31 31.43 176.59 31.79 176.28 31.82 175.85 31.57 175.83 31.9 175.64 32.09 175.52 31.56 173.88 32.04 173.94 32.44 173.5 32.37 172.47 33.06 173.03 33.13 172.84 33.62 171.25 34.21 171.39 34.41 172.74 34.69 171.57 34.9 171.98 35.01 171.99 35.22 172.26 35.38 173.44 35.24 174.55 35.7 175.36 37.01 175.24 37.35 175.35 37.7 175.69 37.52 175.78 37.78 176.22 38.01 176.13 38.12 175.51 38.08 176.13 38.39 176.33 38.66 176.29 39.02 176 39.05 175.62 39.63 175.84 39.86 175.67 40.1 175.99 40.47 176.03 40.92 176.57 41.85 177.98 42.71 178.15 42.5 178.25 41.67 178.63 41.15 178.64 40.96 178.73 40.83 178.69 40.64 178.72 40.53 179.26 40.06 179.37 40.06 179.42 40.2 179.85 40.08 180.65 39.22 182.93 38.25 183.01 38.12 183.01 38.12"/><polygon class="cls-6" points="176.05 38.62 175.87 38.43 175.42 38.35 175.39 38.58 175.64 38.74 176.05 38.62 176.05 38.62"/><polygon class="cls-6" points="166.78 36.15 167.42 36.35 167.59 36.26 169.46 36.28 169.66 35.86 167.35 35.74 167.42 35.49 166.33 35.15 165.75 35.26 166.78 35.74 166.78 36.15 166.78 36.15"/><polygon class="cls-6" points="169.61 42.27 169.65 41.98 169.61 42.27 169.61 42.27"/><polygon class="cls-6" points="164.47 38.83 164.79 38.8 164.03 38.27 163.87 36.94 163.43 37.07 163.71 37.34 163.4 37.21 163.16 37.22 163.31 37.85 163.16 37.99 163 37.55 162.57 37.37 162.75 37.59 162.48 37.62 162.05 37.37 161.9 37.61 161.73 37.54 161.77 37.23 160.78 37.7 160.72 37.88 160.92 38.23 161.45 38.13 160.86 38.41 162.29 38.66 161.05 38.92 162.38 39.5 163.39 39.13 164.57 39.24 164.42 39.01 164.24 39 164.47 38.83 164.47 38.83"/><polygon class="cls-6" points="168.73 42.05 169.11 41.74 168.73 42.05 168.73 42.05"/><polygon class="cls-6" points="175.17 46.04 175.06 45.95 174.39 47.29 175.28 47.26 175.23 47.45 175.42 47.35 175.85 47.45 175.73 47.07 175.64 47.02 175.66 46.75 175.27 46.66 175.17 46.51 174.99 46.53 175.01 46.34 175.17 46.04 175.17 46.04"/><polygon class="cls-6" points="173.17 46.58 173.8 46.81 173.17 46.58 173.17 46.58"/><polygon class="cls-6" points="169.46 41.38 168.41 40.57 168.16 40.76 167.91 41.47 168.19 41.45 168.31 41.66 168.69 41.41 169.46 41.38 169.46 41.38"/><polygon class="cls-6" points="164.16 36.21 163.95 36.09 164.16 36.21 164.16 36.21"/><polygon class="cls-6" points="170.63 39.77 170.66 39.41 170.37 39.34 170.16 39.75 170.63 39.77 170.63 39.77"/><polygon class="cls-6" points="165.14 38.06 165.54 37.92 165.84 37.27 165.71 37.24 165.68 37.35 165.4 37.23 165.69 36.94 165.53 36.7 164.71 37.07 164.96 37.29 164.51 37.26 165.14 38.06 165.14 38.06"/><polygon class="cls-6" points="159.76 38.44 161.47 37.14 161.19 36.86 160.13 36.63 159.42 36.78 159.53 37.02 159.16 37.82 159.76 38.44 159.76 38.44"/><polygon class="cls-6" points="167.3 34.76 167.08 34.97 167.3 34.76 167.3 34.76"/><polygon class="cls-6" points="160.65 36.09 161 35.81 160.65 36.09 160.65 36.09"/><polygon class="cls-6" points="157.51 45.56 157.85 46.12 157.74 45.72 157.51 45.56 157.51 45.56"/><polygon class="cls-6" points="166.54 34.69 165.88 34.86 166.54 34.69 166.54 34.69"/><polygon class="cls-6" points="171.54 37.86 171.2 37.88 170.16 37.26 169.91 37.49 169.77 37.44 169.39 37.59 169.4 37.14 169.24 36.84 168.8 36.85 168.31 37.09 168.38 37.47 168.26 37.72 168.5 37.91 168.12 37.74 168.07 37.41 168.19 37.03 168.42 36.79 167.52 37.08 167.31 37.99 167.79 38.08 167.74 38.2 167.4 38.25 169.04 38.7 169.27 38.57 169.79 38.64 169.76 38.47 169.81 38.34 170.55 38.92 170.32 39.15 170.68 39.02 171.24 39.51 171.24 39.97 171.61 39.92 171.97 40.11 171.63 40.31 171.05 40.08 171 40.52 170.15 40.74 170.02 41.08 171.09 41 171.36 41.26 171.49 41.59 172.75 42.07 172.15 41.39 173.11 41.47 172.38 40.44 172.45 40.14 172.78 40.26 173.11 40.63 173.58 40.38 173.88 40.04 172.31 39 172.62 38.91 172.36 38.77 172.49 38.64 172.36 38.43 172.2 38.53 172.24 38.32 171.72 38.08 171.43 38.16 171.35 38.08 171.54 37.86 171.54 37.86"/><polygon class="cls-6" points="169.37 36.78 169.5 37.1 169.85 37.22 170.4 37.09 169.81 36.79 169.37 36.78 169.37 36.78"/><polygon class="cls-6" points="162.74 34.74 162.6 34.65 162.02 34.88 162.32 35.1 162.74 34.74 162.74 34.74"/><polygon class="cls-6" points="163.92 34.13 164.22 34.28 163.86 34.36 165.18 34.59 165.09 34.31 164.57 33.96 163.77 33.85 163.92 34.13 163.92 34.13"/><polygon class="cls-6" points="161.9 34.84 161.6 34.77 161.9 34.84 161.9 34.84"/><polygon class="cls-6" points="163.99 35.1 163.65 34.8 163.99 35.1 163.99 35.1"/><polygon class="cls-6" points="161.38 35.68 161.41 35.86 161.22 36.08 161.45 36.08 161.05 36.24 161.65 36.28 161.83 36.19 162.26 36.21 161.93 36.43 161.92 36.67 163.56 36.28 163.64 35.74 163.39 35.85 162.97 35.34 162.73 35.64 162.75 35.81 162.92 36 161.62 35.51 161.38 35.68 161.38 35.68"/><polygon class="cls-6" points="159.9 35.94 160.24 35.77 160.39 35.97 160.87 35.4 160.94 35.63 161.33 35.46 161.33 35.26 161.47 35.12 161.29 35.01 161.15 35.11 160.85 35.09 159.81 35.8 159.9 35.94 159.9 35.94"/><polygon class="cls-6" points="162.24 34.54 162.9 34.43 162.4 34.31 161.97 34.53 162.24 34.54 162.24 34.54"/><polygon class="cls-6" points="165.84 33.51 166.07 33.78 166.73 33.78 166.33 34.02 167.19 34.44 167.51 34.41 167.98 33.88 168.36 33.72 167.92 33.45 167.81 33.21 166.33 32.58 166.35 32.7 166.01 32.95 166.05 33.23 165.84 33.51 165.84 33.51"/><polygon class="cls-6" points="165.73 34.66 166.13 34.56 166.15 34.37 165.43 34.11 165.73 34.66 165.73 34.66"/><polygon class="cls-6" points="165.3 33.54 165 33.42 165.3 33.54 165.3 33.54"/><polygon class="cls-6" points="166.32 35.95 165.75 36.23 166.43 36.39 166.32 35.95 166.32 35.95"/><polygon class="cls-6" points="164.88 35.27 164.95 35.57 164.68 35.49 164.61 35.68 164.47 35.7 164.09 35.32 164.06 35.65 164.42 35.92 164.97 35.89 164.92 36.22 165.4 36.23 165.58 36.01 165.56 35.75 165.3 35.36 164.88 35.27 164.88 35.27"/><polygon class="cls-6" points="167.07 32.31 167.2 32.35 167.29 32.44 167.22 32.63 167.43 32.78 168.01 32.78 168.07 32.91 169.7 32.61 169.7 32.83 168.95 33.04 169.23 33.38 168.13 33.1 168.14 33.52 169.01 34.12 168.39 34 167.81 34.32 168.35 34.32 168.3 34.48 168.56 34.82 168.26 34.8 167.87 34.58 167.83 35 167.36 35.28 169.94 35.25 170.04 35.02 169.29 34.94 169.3 34.78 169.9 34.74 169.94 34.48 170.37 34.44 170.82 33.88 170.21 33.75 170.73 33.59 171.01 33.33 171.46 33.35 173.14 32.26 172.46 32.23 173.69 31.82 173.76 31.56 173.14 31.34 172.62 31.43 172.71 31.27 168.29 31.79 167.92 32.07 167.56 32.03 167.38 32.2 166.89 32.26 167.07 32.31 167.07 32.31"/><polygon class="cls-6" points="150.29 45.62 150.59 45.44 150.29 45.62 150.29 45.62"/><polygon class="cls-6" points="152.93 44.09 152.73 44.36 152.56 44.44 152.66 44.63 152.78 44.63 153.07 44.38 152.99 44.23 153.15 44.14 153.1 44.02 152.93 44.09 152.93 44.09"/><polygon class="cls-6" points="149.94 43.42 149.74 43.51 150.05 43.6 150.1 43.43 149.94 43.42 149.94 43.42"/><polygon class="cls-6" points="188.97 49.5 188.77 49.58 188.97 49.5 188.97 49.5"/><polygon class="cls-6" points="194.24 50.7 193.72 50.66 193.58 50.73 193.92 50.82 194.24 50.7 194.24 50.7"/><polygon class="cls-6" points="196 50.76 196.13 50.59 196.12 50.54 195.79 50.66 195.68 50.85 196 50.76 196 50.76"/><polygon class="cls-6" points="184.63 40.73 185 40.35 184.71 39.85 184.55 39.87 184.33 39.75 184.3 39.91 183.94 39.96 183.82 39.92 183.66 40.05 183.57 39.99 183.46 40.08 183.43 40.2 183.28 40.29 183.22 40.07 182.87 39.82 182.9 39.97 182.81 39.96 182.66 40.03 182.55 40.21 183.05 40.26 183 40.39 182.62 40.55 182.96 40.55 183.11 40.74 182.91 40.95 183.21 40.93 183.63 41.11 184.63 40.73 184.63 40.73"/><polygon class="cls-6" points="186 45.64 186.68 45.37 186.68 44.71 186.86 44.58 186.73 44.28 186.17 44.4 186.28 44.52 186.09 44.63 185.85 44.65 185.98 45.03 185.92 45.25 185.76 45.44 186 45.64 186 45.64"/><polygon class="cls-6" points="186.69 43.05 186.54 43.29 186.69 43.05 186.69 43.05"/><polygon class="cls-6" points="186.64 43.41 186.8 43.56 186.72 43.76 186.84 43.9 186.65 44.07 186.82 44 186.91 44.15 187.04 43.94 187.06 44.13 186.98 44.39 187.32 44.35 187.48 44.69 187.46 44.93 187.22 44.94 187.15 44.99 187.08 45.16 187.22 45.25 186.99 45.44 187.09 45.55 187.46 45.61 187.48 45.68 187.23 45.72 186.93 46.15 187.1 46.03 187.27 46.07 187.38 45.95 187.73 45.85 187.91 45.9 188.5 45.67 188.4 45.62 188.42 45.46 188.61 45.2 188.25 45.06 188.25 44.91 187.69 44.01 187.48 43.98 187.74 43.33 187.31 43.33 187.23 43.24 187.4 43.01 187.44 42.85 187.34 42.97 187.09 42.98 186.78 43.46 186.64 43.41 186.64 43.41"/><polygon class="cls-6" points="190.93 44.37 191.09 44.15 191.15 43.87 191.07 43.93 191 43.87 190.84 43.95 190.93 44.19 190.87 44.26 190.93 44.37 190.93 44.37"/><polygon class="cls-6" points="192.54 43.1 192.38 43.45 192.54 43.1 192.54 43.1"/><polygon class="cls-6" points="193.47 42.65 193.32 42.67 193.47 42.65 193.47 42.65"/><polygon class="cls-6" points="193.28 43.01 193.52 42.82 193.37 42.77 193.28 43.01 193.28 43.01"/><polygon class="cls-6" points="192.43 32.55 193.28 32.55 192.8 32.76 193.62 32.92 194.52 32.37 193.7 32.26 193.57 32.33 193.44 32.16 193.4 32.42 193.21 32.31 193.02 32.31 192.76 32.15 192.78 32.27 192.61 32.22 192.61 32.37 192.44 32.23 192.34 32.34 192.46 32.45 192.43 32.55 192.43 32.55"/><polygon class="cls-6" points="190.81 33.46 190.97 33.59 190.66 33.23 190.81 33.46 190.81 33.46"/><polygon class="cls-6" points="191.02 32.98 190.88 33.24 191.12 33.53 191.45 33.54 191.7 33.21 191.72 33.37 191.92 33.34 192.01 33.42 191.37 33.73 191.58 33.82 192.05 33.78 191.4 34.02 191.63 34.22 191.86 34.24 191.75 34.34 191.94 34.47 192.1 34.41 192.65 33.36 192.93 33.26 192.98 33.32 193.01 33.52 193.09 33.61 193.06 33.87 193.28 33.91 193.41 34.04 193.9 33.72 193.54 33.62 193.51 33.52 193.32 33.45 193.19 33.3 193.15 33.15 192.55 32.95 192.46 32.74 192.27 32.84 192.33 32.65 192.09 32.56 191.96 32.44 191.87 32.7 192.01 33.1 191.6 32.64 191.5 32.85 191.44 32.91 191.26 32.75 191.46 32.66 191.33 32.61 190.96 32.65 190.78 32.74 190.78 33.01 191.02 32.98 191.02 32.98"/><polygon class="cls-6" points="221.53 47.56 221.33 47.65 221.19 47.97 221.19 48.18 221.45 48.09 221.31 47.9 221.87 47.95 222.37 47.69 222.77 47.22 222.3 47.37 221.77 46.95 221.62 47.03 221.53 47.56 221.53 47.56"/><polygon class="cls-6" points="218.79 50.79 218.68 50.98 218.82 50.9 218.95 51.49 219.22 51.03 219.17 50.86 219 50.72 218.79 50.79 218.79 50.79"/><polygon class="cls-6" points="220.36 49.75 220.21 50.02 219.41 50.16 219.04 50.48 219.04 50.64 219.91 50.38 220.01 50.61 220.29 50.59 220.38 50.41 220.46 50.37 220.94 50.35 221.08 50.18 221.31 50.14 221.44 49.34 221.66 49.04 221.54 48.32 221.23 48.42 221.07 49.15 220.7 49.61 220.54 49.52 220.36 49.75 220.36 49.75"/><polygon class="cls-6" points="219.53 50.9 219.74 50.8 219.9 50.56 219.66 50.53 219.43 50.61 219.4 50.97 219.53 50.9 219.53 50.9"/><polygon class="cls-6" points="216.5 54.15 216.8 53.31 216.37 53.69 216.5 54.15 216.5 54.15"/><polygon class="cls-6" points="214.01 55.16 214.13 54.84 213.84 54.83 213.61 55.2 214.01 55.16 214.01 55.16"/><polygon class="cls-6" points="217.65 57.69 217.37 57.96 217.16 57.91 216.88 58.1 216.79 58.38 217.19 58.17 217.38 58.63 217.63 58.77 217.62 58.42 217.88 58.3 217.82 57.71 217.65 57.69 217.65 57.69"/><polygon class="cls-6" points="216.28 55.82 216.41 56.39 217.16 56.77 217.45 57.47 217.64 57.23 217.58 56.9 217.14 56.46 216.81 56.4 216.68 56.16 216.85 55.77 216.79 55.24 216.44 55.22 216.4 55.85 216.28 55.82 216.28 55.82"/><polygon class="cls-6" points="216.41 56.62 216.64 56.9 216.41 56.62 216.41 56.62"/><polygon class="cls-6" points="215.97 57.56 215.67 58.01 216.1 57.55 216.17 57.26 215.97 57.56 215.97 57.56"/><polygon class="cls-6" points="217.42 57.56 217.24 57.69 217.42 57.56 217.42 57.56"/><polygon class="cls-6" points="217.16 57.34 216.8 57.02 216.81 57.39 216.94 57.31 217 57.82 217.26 57.38 217.16 57.34 217.16 57.34"/><polygon class="cls-6" points="224.01 61.48 223.72 61.68 223.2 61.71 223.59 61.9 224.09 61.61 224.17 61.37 224.01 61.48 224.01 61.48"/><polygon class="cls-6" points="224.33 61.44 224.25 61.17 224.18 61.19 224.33 61.44 224.33 61.44"/><polygon class="cls-6" points="223.01 61.85 220.57 60.63 219.96 61.14 219.71 60.47 219.15 60.4 218.95 60.58 219.07 60.65 219.21 60.83 219.6 60.84 219.58 60.93 219.22 61.01 219.38 61.25 220.68 61.7 220.82 62 220.81 62.24 220.58 62.47 221.14 62.42 221.66 62.73 222.09 62.34 222.6 62.46 223.13 62.98 223.64 63.07 223.6 62.91 223.18 62.6 222.95 62.02 223.01 61.85 223.01 61.85"/><polygon class="cls-6" points="207.03 57.82 206.93 58.43 207.05 58.83 207.42 58.44 207.03 57.82 207.03 57.82"/><polygon class="cls-6" points="199.58 63.79 199.5 63.87 199.47 64.06 199.2 64.3 199.2 64.45 198.4 64.88 198.18 66.9 198.34 67.4 198.75 67.51 199 67.41 199.7 64.77 199.84 64.73 199.58 63.79 199.58 63.79"/><polygon class="cls-6" points="200.61 57.18 200.85 57.12 200.61 57.18 200.61 57.18"/><polygon class="cls-6" points="222.69 72.09 222.28 71.96 222.39 72.5 222.71 72.92 222.84 72.81 222.9 72.67 223.04 72.7 223.1 71.99 222.69 72.09 222.69 72.09"/><polygon class="cls-6" points="218.75 63.48 219.06 63.39 218.75 63.48 218.75 63.48"/><polygon class="cls-6" points="220.26 70.46 220.56 70.41 220.26 70.46 220.26 70.46"/><polygon class="cls-6" points="224.43 68 224.36 67.35 223.83 66.76 223.75 66.48 223.65 66.4 223.51 66.41 223.28 65.83 222.73 65.47 222.27 64.14 222.08 64.15 221.77 63.12 221.62 63.32 221.44 64.73 221.23 65.05 220.08 64.31 220.12 63.95 220.28 63.82 220.35 63.64 220.3 63.51 220.21 63.62 220.12 63.48 219.94 63.57 219.25 63.26 219.34 63.44 218.97 63.57 218.63 64.09 218.64 64.32 218.36 64.37 217.94 64.02 217.8 64.11 217.73 64.24 217.54 64.25 217.5 64.37 217.39 64.46 217.34 64.73 217.16 64.71 217.2 64.91 217.13 65.05 217.03 64.85 216.85 64.96 216.83 65.28 216.49 65.67 215.02 66.28 214.89 66.47 214.86 66.31 214.74 66.51 214.71 67.24 214.84 67.6 214.7 67.47 214.77 67.66 214.6 67.51 215.26 69.23 215.21 69.59 215.07 69.82 215.14 70 215.31 70.17 215.78 70.21 218.98 69.1 219.69 69.38 219.71 69.54 219.92 69.77 219.98 70.07 220.63 69.53 220.37 70.13 220.59 70.11 220.73 70.03 220.7 70.32 220.88 70.31 221.21 71.03 221.94 71.33 222.25 71.12 222.35 71.17 222.39 71.25 222.46 71.19 222.7 71.42 223.04 71.08 223.54 70.97 224.43 68 224.43 68"/><polygon class="cls-6" points="227.9 74.05 227.99 73.93 227.9 74.05 227.9 74.05"/><polygon class="cls-6" points="199.5 38.21 199.94 38.1 199.73 37.93 199.5 38.21 199.5 38.21"/><polygon class="cls-6" points="200.44 36.87 200.48 37.07 200.57 36.98 201.06 37.3 201.68 37.28 201.36 36.97 201.27 36.39 201.94 35.34 204.41 33.98 201.49 34.93 201.23 35.46 201.03 35.59 200.94 35.93 200.56 36.19 200.64 36.38 200.2 36.72 200.44 36.87 200.44 36.87"/><polygon class="cls-6" points="209.77 31.24 209.45 31.3 209.77 31.24 209.77 31.24"/><polygon class="cls-6" points="222.07 35.41 221.76 35.08 221.36 35.31 222.07 35.41 222.07 35.41"/><polygon class="cls-6" points="221.51 34.9 221.28 35.01 221.51 34.9 221.51 34.9"/><polygon class="cls-6" points="210.32 32.01 210.16 32.26 211.25 32.62 211.52 32.11 210.99 31.83 210.32 32.01 210.32 32.01"/><polygon class="cls-6" points="211.41 33.1 212.88 32.66 212.56 32.44 212.22 32.53 212.24 32.39 212.11 32.22 211.85 32.33 211.77 32.55 211.59 32.71 211.41 33.1 211.41 33.1"/><polygon class="cls-6" points="220.78 34.61 221.79 34.51 221.77 34.2 222.21 34.48 222.38 34.24 222.32 34.02 221.8 33.92 221.46 34.03 220.99 33.79 220.58 34.44 220.78 34.61 220.78 34.61"/><polygon class="cls-6" points="221.99 44.07 221.83 43.75 221.68 46.66 221.84 46.48 222.05 46.68 221.84 46.12 221.91 45.69 222.2 45.65 222.28 45.59 221.99 44.07 221.99 44.07"/><polygon class="cls-6" points="214.48 34.99 214.34 35.12 214.77 35.02 214.48 34.99 214.48 34.99"/><polygon class="cls-6" points="223.34 34.56 223.92 34.42 222.91 34.17 222.75 34.36 223.34 34.56 223.34 34.56"/><polygon class="cls-6" points="209.95 31.8 209.89 31.91 209.72 32.01 209.94 32.16 210.87 31.72 210.94 31.49 210.66 31.09 210.05 31.43 209.94 31.62 209.95 31.8 209.95 31.8"/><path class="cls-6" d="M333.07,125.14l.28.06-.05-.08h.18l.15-.23-.8-.41h-.32l.14.08,0,.18-.16-.07v-.28l-.09-.14-3.49-1.15-.08.18.12.22-.06.26-.57-.3.29-.15-.3-.13-.29.26h-1.34l0,.25-.07-.26-.31-.12,0-.17-.4-.37-1.48.08-.06-.13-.71-.24v-.08l.2-.11-.78-.12-.14.27h-.26l.19-.14-.27-.08.13-.07h.19l-1.3-.19-.06.12-.43.27h.19l-.06.14.07.18h-.42l-.07.06v.11l-.53-.23-.28.11-.49-.15-.29.49-.15,0-.58-.62h.27l-.15-.57-.17-.12H318l-.48-.25-.24.28v.21l-1.22,0,.1-.13H314.9V122l0-.26-.13,0-.25,0-.27-.15-.27.18.14,0-1,.4.06-.18,1.3-.77.12-.15.29-.13.11-.17-.11-.09.12,0-.08-.25h-.15l-.06-.22-1-.06-.16.11-.3,0,.17-.26-.65,0,.29-.14v-.1l-.45-.12-.32.08-.42.48,0,.11-.5.12.16.13-.7.08.07-.15-.23.08h-.16l-.38.12.14.1-1.42.45,0,.06-.1.07.07.1h-.2l.23.16h-.18l.18.17v.11l-1.37.18-.08.46.32.19.14.25-1.12-.36-.15.13.23.13-.46.11.54.39,0,.08-.28-.15h-.4l0-.44-.1-.33-.12.39-.28.18-.1.16.27.37-.13.72h.18l.28-.07.45.16.1.21-.11.19.27.2h-.27l-.1-.16.06-.19-.28-.28-.36.13.05.36-.59.73h-.66l-.11-.11.39.07.55-.55.11-.4-.19-.23,0-.81-.2-.29.19-.65-.75-.11-.71,1,.13,0-.11.52.28.11.09.22.15.08-.15.27-2.32-1,.07.22.33.19.1.22-.07.15-.28.15v-.25l-.15-.11-.36.21h-.39l-.23.18h-.31l.16-.33-.32.11-.05.15-.1-.06-1,.45-.06.29-.4.07-.18-.19v-.17l.37-.1-.14-.25-.59-.12.11.29-.09.3.16.33-.07.21h-.11l-.06-.08-.24,0-.58.38.11.45-.53-.08-.27-.16-.14.15.07.15.23.08v.16l-.18,0-.39-.19-.19-.34V126l-.65-.56,1.48.45.68-.37v-.31l-2.06-.87.18-.07-.16-.07-.31,0h-.28l-.15-.13h.12l.32-.13-.12-.13-.3-.13-.25.17v-.15l-.09-.14-.29.36v-.24l-.37.36,0-.17.15-.22v-.1l-.13.13H294l0,.1-.21.11-.09.26-.08-.17.18-.25-.28.08V124l-.06.06h-.18l.13.13h-.11l-.12-.08-.08.06,0,.17-.08-.06h-.13v-.15h-.16l-.07.08v.12l-.07.06-.25,0-.11.19h.14l0,.1v.07h-.12l-.1-.07-.13.08,0-.22-.65.59h.08l.68-.25v.15l-.06,0-.09,0-.51.74,0,.19-.18,0,0,.43-.3.09.13.16-.28.14-.26.37-.13-.11v.15l-.35.2.13.1H290l-.39.24h-.09l-.1.13.09.13-.07.48.12,0,.16-.07,0,.08-.13.11h-.09l-.07.08V129h.25l-.12.17.25.21.27.07.43-.37.17,0,.06-.2.57,1.61h.18l.16-.25h.19L292,130l.08,0,.11-.29h-.08l0-.56.48-.61-.22-.28-.16,0,0-.3.43-.8.58-.47v-.27l.08-.21.16-.14.37,0,.19.09.08.2-.94,1v.91l.62.24.94-.25.11-.16-.11.16.1,0,.15.17.2.05-1.38.34-.14.15.05.16.14.1,0,.1h0v.26l-.19.11-.21-.27-.22.12-.13.47h0v.37l0,0-.07.14h-.27v.06l-.13.08-.11-.16-.94.39h0l-.14-.08v-.15l-.48.24-.37-.23-.11-.2h.28l-.08-.16h-.1l.06-.17.15-.09-.11-.12v-.41l-.31.19v.12l-.19-.08-.11.2.22,1-.09.11h-.36v0l-.29.05-.09.18h-.11l-.11.06-.29.47-.25.11-.53.65-.29-.11-.14.11,0,.29h-.19l-.15-.08h-.23l-.14.13v.16l.52.16.32.55-.15.8-1.46-.1-.2.14v2h.49l.28.3H287l.66-.12.6-.65v-.4l.65-.55.1-.22v-.07l.2-.27.42.1.69-.43,1.61,1.49v.5l.26-.39-.11-.2.22-.13h.18l-1.3-1.3V134l.1-.15h.15l.08.19.18.08.21.37.78.51.05-.13-.05.13.06.56.16.22h0l.13.23.37.13h-.25l.17.41.22.11,0-.27h.17l-.11-.1.09-.06h.17l-.08-.21h-.2l.08-.15-.19-.29.12-.08h.19l0-.2.15,0,.17-.1.3.15.22-.16.31,0-.17-.16-.14-.4.23-.28v-.15l.24-.36h0l.32-.48.26,0v.18l.38.05-.31.2.23.12v.2l.73-.23-.24-.06-.19-.21,1-.41-.29.2.09.14-.33.34,1.05.79.08.27-.05.09-.85.2-.83-.29-1.23.31-.12.21-.49.06-.05.19.1.07v.53l.27.24.12,0,.14.16.5-.17.32.2.24-.05.22-.16.18,0,.18-.06-.22,1,.13.06h0v0l-.13,0-.22.65-2.08-.15h0l-.65-.29-.52.31,0,.35-.79-.16-.39-.33-.69-.15-.37-.28.18-.19.05-.59,0-.1-2.22.15-.81.5-.88-.21-.26.54-.35.2-.31.49v.4l-1.7,2.61.19.72-.17,1,0,.42v.28l2,2.13,1.19-.15.18.06,1.21-.53h0l.35.09.35.5.59-.11.09.14.18,0,.07.26-.05.24h0l-.06.35,0,0,.09.14-.22.28,1,1.95,0,.29.15.55-.49,1.65,1.49,4.83.22.18,1.57-.36,1.38-1.57.12-.57-.09-.11.65-.52-.09-1.26,1.38-1.39-.43-2.32,2.93-4.84-.15-.09-1.6.32-.13-.15,0,0,0,0-.12-.05.14-.13-2.55-5.09.4.65.14-.38,2,4.56,1.91-.71.22-.27.66-.21.09-.21.26-.06.16-.25.15-.08.07-.37.39-.46v-.15l-.2-.28-.39-.16-.19-.61-.28.37-.73.34h-.05l-.1-.17v-.42l-.15.26h0l-.62-1.3v-.05l.44-.12.37.66.83.37.38-.13.18.35,2.27.14.15.33.47.34h.26l-.33.14.5.45.33-.42,1.12,3.91.44-.43.37-1.72,1.35-1.25.07-.28,1-.47.65,1.31,0,.43.1.14h.23l.2-.27.13.1,1,3.71.69.49-.17-.95-1-1.31.16-1,.2-.07.45.32.07.24h.15v.14h.19l.13.13-.07.24.12.1.34-.44.47-.21.19-.36-.06-.65-.78-1.35.47-.56.42,0,.11.34.07-.11.8-.56.65-.08.81-.79v-.26l.17-.09.46-.85-.33-.14.26-.14-.36-.31h.34l-.42-.69-.21-.16.23-.4.55-.29-.14-.17-.24-.1-.31.24-.15-.21-.25-.09v-.34l1-.52-.2.58h.17l.44-.29h.12l.27.15-.14.29,0,.16.12.07.19-.05H318l.08.15-.07.86.7-.29.09-.12-.31-.83-.21-.22.07-.24.41-.3.09-.33.33-.35h0l.2-.13.28.17,1.56-1.83.44-1.82-.42-.41H321l-.15.2h-.14v-.27l-.15.2,0-.28h-.28v-.2l2-1.73,1.65-.13.35.13-.12.18.92-.18-.1-.09v-.23l.65-.73.4,0,.16.07.18-.08-.12.25.14.11-.07.11.7-.37.05-.27.42-.18v.07l-1.73,1.89-.23.06-.3.95.27,1.65.38-.41.05-.28.16-.12.19-.05v-.22l.22-.26.3-.06-.05-.27.18-.33h.19l-.12-.18,0-.45h-.15l0-.28.39-.59h.21l.09,0,.24-.26.06.23.22-.15.61-.07.18.17.1-.17,1.6-1H331v-.21l-.53-.7-.2,0,.24-.09.13.13h.28l.32-.19.07-.15,0-.15V125l.09-.09h.13V125l.08.19.66.13.17.22.37.16H333l-.11-.15H333v-.4l.07,0Z" transform="translate(-100.09 -86.34)"/><polygon class="cls-6" points="205.11 35.92 204.85 35.81 204.75 36.02 205.11 35.92 205.11 35.92"/><polygon class="cls-6" points="206.98 35.98 206.8 36.08 206.98 35.98 206.98 35.98"/><polygon class="cls-6" points="170.03 54.3 169.94 54.38 170.12 54.66 170.03 54.3 170.03 54.3"/><polygon class="cls-6" points="173.77 58.34 173.95 58.31 173.94 58.16 173.76 58.22 173.77 58.34 173.77 58.34"/><polygon class="cls-6" points="213.46 61.12 213.34 61.18 213.46 61.12 213.46 61.12"/><polygon class="cls-6" points="217.11 62.6 217.19 62.51 216.23 62.65 216.62 62.72 217.11 62.6 217.11 62.6"/><polygon class="cls-6" points="215.69 62.52 215.46 62.56 215.35 62.71 215.7 62.76 216.04 62.64 215.69 62.52 215.69 62.52"/><polygon class="cls-6" points="217.48 62.88 217.54 62.81 218.06 62.52 217.71 62.54 217.29 62.77 217.18 63.08 217.48 62.88 217.48 62.88"/><polygon class="cls-6" points="218.24 61.14 218.88 61.3 218.71 61.02 218.24 61.14 218.24 61.14"/><polygon class="cls-6" points="216.48 63.03 216.04 62.91 216.25 63.02 216.48 63.03 216.48 63.03"/><polygon class="cls-6" points="217.75 61.16 218.04 61.24 217.75 61.16 217.75 61.16"/><polygon class="cls-6" points="216 60.99 216.25 61.85 216.37 61.59 216.34 61.1 216.5 61.2 216.62 61.48 216.84 61.5 216.73 60.76 217.09 60.46 216.6 60.63 216.31 60.37 217.52 59.87 217.26 59.99 216.66 59.92 216.36 60.07 216 60.99 216 60.99"/><polygon class="cls-6" points="218.28 59.88 218.12 59.78 218.24 60.37 218.42 59.95 218.28 59.88 218.28 59.88"/><polygon class="cls-6" points="210.8 59.99 210.95 60.2 210.8 59.99 210.8 59.99"/><polygon class="cls-6" points="211.15 60.67 211.26 60.82 211.15 60.67 211.15 60.67"/><polygon class="cls-6" points="214.92 62.62 215.21 62.63 214.97 62.47 214.55 62.4 214.79 62.21 212.94 62.02 212.82 62.17 213.01 62.21 213.13 62.36 214.92 62.62 214.92 62.62"/><polygon class="cls-6" points="213.6 60.16 214.16 61.15 214.35 61.25 214.67 61.2 214.97 61.36 215.32 61.29 215.65 60.27 216.01 60.03 215.71 59.17 216.11 58.87 215.95 58.72 215.73 58.66 215.52 58.46 215.14 58.99 215.02 59.06 214.85 59.03 214.64 59.41 214.29 59.53 214.13 59.88 213.75 59.78 213.6 60.16 213.6 60.16"/><polygon class="cls-6" points="212.91 61.52 212.95 61.24 213.04 61.17 213.05 61.01 212.86 60.8 212.82 60.92 212.92 61.04 212.77 61 210.39 58.88 212.57 61.92 212.82 61.92 212.91 61.52 212.91 61.52"/><polygon class="cls-6" points="191.61 49.92 191.32 49.93 191.13 50.05 191.63 50.37 191.79 49.94 191.61 49.92 191.61 49.92"/><polygon class="cls-6" points="190.1 49.11 190.28 49.71 190.44 49.59 190.48 49.16 190.27 49.07 190.1 49.11 190.1 49.11"/><path class="cls-1" d="M264.41,132.32a2.8,2.8,0,0,1-2.64,2.84,2.6,2.6,0,0,1-2.61-2.6v-.1a2.8,2.8,0,0,1,2.61-2.84,2.6,2.6,0,0,1,2.64,2.57Z" transform="translate(-100.09 -86.34)"/><path class="cls-1" d="M268.51,143.71a1.31,1.31,0,0,1-1.22,1.31,1.22,1.22,0,0,1-1.22-1.22v0a1.31,1.31,0,0,1,1.22-1.31,1.23,1.23,0,0,1,1.22,1.23Z" transform="translate(-100.09 -86.34)"/><path class="cls-1" d="M298.3,142.86a4.68,4.68,0,0,1-4.51,4.74,4.46,4.46,0,0,1-4.48-4.43.53.53,0,0,1,0-.13,4.68,4.68,0,0,1,4.47-4.74,4.47,4.47,0,0,1,4.51,4.43Z" transform="translate(-100.09 -86.34)"/><path class="cls-1" d="M307.13,125.49a2,2,0,0,1-1.95,2.05,1.9,1.9,0,0,1-2-1.83v-.13a2,2,0,0,1,2-2,1.9,1.9,0,0,1,1.95,1.84Z" transform="translate(-100.09 -86.34)"/><path class="cls-1" d="M311.85,137a2.31,2.31,0,0,1-2.22,2.33,2.2,2.2,0,0,1-2.22-2.16v-.07a2.33,2.33,0,0,1,2.22-2.33,2.18,2.18,0,0,1,2.22,2.15Z" transform="translate(-100.09 -86.34)"/><path class="cls-1" d="M321.08,123.81a2,2,0,0,1-1.91,2,1.86,1.86,0,0,1-1.9-1.82v-.07a2,2,0,0,1,1.9-2,1.84,1.84,0,0,1,1.91,1.79Z" transform="translate(-100.09 -86.34)"/></g><g id="freepik--character-2--inject-4"><ellipse class="cls-1" cx="99.38" cy="306.65" rx="26.92" ry="8"/><ellipse class="cls-10" cx="99.38" cy="306.65" rx="26.92" ry="8"/><path class="cls-11" d="M170.91,297.08S172,306.94,172.5,312s1.75,19.56,1.59,21.31-1.75,19.93-1.75,26.93,1,16.86,1,16.86-1.59,2.7-1.28,4.13a21.61,21.61,0,0,1,.66,3.66,8.39,8.39,0,0,0,.32,1.91,12.09,12.09,0,0,0,3.82,1.74c1.43.16,4.29-.79,4.29-1.27s1.27-5.25,1.27-7a10.46,10.46,0,0,1,.48-3.49c.48-2.39,5.56-35.36,6.2-38.38s1.59-25.76,1.59-25.76l1.12,2.07s2.69,24.33,2.54,27-1.12,13-.65,17.81,1.43,16.54,1.43,17.81-.32,4.14-.32,5.25-1,2.86-.47,3.66a14.17,14.17,0,0,1,.95,2.39s5.73.95,7.31.95a4.46,4.46,0,0,0,2.87-1.43V385.5c0-1.43.31-2.7.31-4.13s.17-4.45.17-6.68a56.8,56.8,0,0,1,.65-6.37c.16-1.42,2.38-18.12,2.7-24.33S211,323.78,211,321.57s-.16-23.05-.16-23.05l-.31-3.83s-16.7,2.23-24.65,1.12-14.48-1.43-14.48-1.43Z" transform="translate(-100.09 -86.34)"/><path class="cls-12" d="M181.71,384.77a3.37,3.37,0,0,1-1.3.71c-.87.26-1.4.43-2.1-.53s-2.11-2.1-3.26-1.58-2.45,1.31-2.71,2-.09,7-.09,8.24,2.36,1.75,4.73,1.84a7.53,7.53,0,0,0,4.2-1.23s2,.17,2.72-.7.36-2.9-.09-3.6a25.46,25.46,0,0,1-1.4-2.54A7.68,7.68,0,0,1,181.71,384.77Z" transform="translate(-100.09 -86.34)"/><path class="cls-13" d="M183.9,393.45a2.14,2.14,0,0,0,.39-1.14,7.49,7.49,0,0,1-3,.27,12,12,0,0,1-5.17.87,10.6,10.6,0,0,1-3.88-.88v1c0,1.23,2.37,1.75,4.74,1.84a7.47,7.47,0,0,0,4.2-1.23S183.2,394.32,183.9,393.45Z" transform="translate(-100.09 -86.34)"/><line class="cls-14" x1="80.75" y1="307.82" x2="81.1" y2="303.61"/><path class="cls-13" d="M179,385.6a1.74,1.74,0,0,1-.72-.65c-.71-1-2.11-2.1-3.26-1.58a8.6,8.6,0,0,0-2.5,1.62c.38,1.08,1.3,3,3.11,3.11C177.15,388.21,178.3,386.91,179,385.6Z" transform="translate(-100.09 -86.34)"/><path class="cls-12" d="M205.52,386.77a3.13,3.13,0,0,1-2-.08c-.71-.44-1.76-3.06-4.12-2.8s-3.42,2.45-3.91,2.72-.62.34-.79.61a80.31,80.31,0,0,0-.18,8.06c.09.71,5.09,1.4,8.16,1.05a6.94,6.94,0,0,0,4.38-1.84,2.49,2.49,0,0,0,1.57-2.1c.18-1.58-.35-3.33-1.23-3.95a12.89,12.89,0,0,1-1.57-1.3Z" transform="translate(-100.09 -86.34)"/><path class="cls-13" d="M202.13,394.31a21.24,21.24,0,0,1-7.66-1.17v2.14c.09.7,5.09,1.4,8.16,1.05a6.94,6.94,0,0,0,4.38-1.84,2.52,2.52,0,0,0,1.58-2.1,7.88,7.88,0,0,0,0-1.19c-.13.27-.28.56-.45.84C207.65,392.91,206.34,394.23,202.13,394.31Z" transform="translate(-100.09 -86.34)"/><line class="cls-14" x1="105.49" y1="304.98" x2="104.98" y2="309.32"/><path class="cls-13" d="M199.65,389.06c1.58.18,3.26-1.07,4.2-2.23a1,1,0,0,1-.34-.14c-.71-.44-1.76-3.06-4.12-2.8s-3.42,2.45-3.91,2.72A7.8,7.8,0,0,0,199.65,389.06Z" transform="translate(-100.09 -86.34)"/><line class="cls-15" x1="90.55" y1="226.33" x2="86.72" y2="224.42"/><path class="cls-12" d="M198.7,222.94s1-1.6,1.31.47-.49,4.29-1.59,5.09-1.6,0-1.6-.8S198.7,222.94,198.7,222.94Z" transform="translate(-100.09 -86.34)"/><path class="cls-12" d="M180.1,223.73a1.31,1.31,0,0,0-1.68.76,1.27,1.27,0,0,0-.07.67c0,1.91,2.54,4.61,3.66,4S180.1,223.73,180.1,223.73Z" transform="translate(-100.09 -86.34)"/><path class="cls-11" d="M189.32,205.12s-2.48,4.13-5.08,5.25a10.52,10.52,0,0,0-5.87,9.22c.17,3.5,5.25,14.95,6,15.27s10.82-.48,11.14-1,1.74-5.25,3-9.87a29.68,29.68,0,0,0,1.27-7,14.69,14.69,0,0,0,.65-4.61,8.39,8.39,0,0,0-2.07-5.09l-1.91,2.38.65-5.4a6.12,6.12,0,0,0-3.81.79,14.12,14.12,0,0,0-3,2.7Z" transform="translate(-100.09 -86.34)"/><path class="cls-12" d="M245.14,209.42c-.23-.71-.95-.71-1.54-2.25s-2.25-1.18-2.72-1.42-.47-.47-.24-1.18.83-3.08-.23-3.08-1.9,2.49-2.13,3.08a32.54,32.54,0,0,1-2.14,3.08,8.8,8.8,0,0,1-1.54.23c-.58,0-1.3,1.19-1.41,1.78a7,7,0,0,0,.94,2.42,18.07,18.07,0,0,0,.72,2.07s.58.83,2.36.6,5.09,2.13,5.56,1.77a14.25,14.25,0,0,0,2-3.66A6.13,6.13,0,0,0,245.14,209.42Z" transform="translate(-100.09 -86.34)"/><path class="cls-12" d="M168.6,308.33s2.15,3.26,2.26,4.52.12,3.63.23,4.41-.34,1.37-.9,1.37a1.22,1.22,0,0,1-.91-.57,13.78,13.78,0,0,0,.34,1.92c.22.8,1.47,1.48,1.36,2.27s-1.36,1.13-3.06,1.13a5.12,5.12,0,0,1-4.75-3.26c-1-2.37-2-9.17-2-10.43S167.47,307.42,168.6,308.33Z" transform="translate(-100.09 -86.34)"/><path class="cls-14" d="M166.22,312.51a3.08,3.08,0,0,1-.45,2.61,10.38,10.38,0,0,0-1.36,3.06,10.44,10.44,0,0,0,1,2.26c.45.91,1.95.8,2,1.59a1.74,1.74,0,0,1-.23,1.24" transform="translate(-100.09 -86.34)"/><path class="cls-14" d="M167.65,317.36a11.57,11.57,0,0,0,.61,2.6c.45,1.14,2.83,1.82,2,3.06" transform="translate(-100.09 -86.34)"/><path class="cls-14" d="M166.22,317.83a9.88,9.88,0,0,0,.57,2.15c.34.66,2.61,1.36,2.15,3.17" transform="translate(-100.09 -86.34)"/><path class="cls-14" d="M169.28,318.06s-.23-1.81-.34-2.49a16,16,0,0,1-.12-2" transform="translate(-100.09 -86.34)"/><path class="cls-12" d="M206.41,238.87a23.64,23.64,0,0,0-10.18-4.61c-6.36-1.27-14.79.8-18.13,3a8.77,8.77,0,0,0-3.66,6Z" transform="translate(-100.09 -86.34)"/><path class="cls-12" d="M232.65,219.47a3.64,3.64,0,0,1,0-1.91c.32-.65.47-2.55.95-3s4-2.39,6.52-1.27,3.82,5.86,4.3,7-1,3.66-1.59,4-1.28-1.91-1.91-2.54S234.86,218.52,232.65,219.47Z" transform="translate(-100.09 -86.34)"/><path class="cls-13" d="M190.66,238.56c-.65.15-12.72,1.74-18.13,3.33s-9.85,3.66-10,5.73-4.56,40.59-4.73,42.82,1.43,15.1,2.23,15.58a11.49,11.49,0,0,0,5.72.32,5.51,5.51,0,0,0,2.07-1.43l.48-10.66s.32,3.66.95,3.82a71.53,71.53,0,0,0,24.34,2.07c13.69-1.12,19.4-3.18,20.51-4S215,293,215,293s.16-1.75.16-3.5-5.1-36.93-5.1-36.93,21-5.73,22.58-7.64,9.22-22.74,9.22-24.33-3.5-4-6-4.13-8.75,12.39-10.18,13.36-15.11,6.36-20.21,7.31S190.66,238.56,190.66,238.56Z" transform="translate(-100.09 -86.34)"/><path class="cls-14" d="M185.62,249.33s2.16,8.48,8.48,11.94" transform="translate(-100.09 -86.34)"/><path class="cls-14" d="M194.93,265c.48.25,1,.49,1.47.73" transform="translate(-100.09 -86.34)"/><path class="cls-14" d="M185.62,258.12a37.32,37.32,0,0,0,7,5.58" transform="translate(-100.09 -86.34)"/><path class="cls-11" d="M210.89,259l-.8-6.44-7.83,2.89,3,1.25c-1.48,1.3-3.41,3.14-2.21,2.92a20.58,20.58,0,0,0,4.52-1.95Z" transform="translate(-100.09 -86.34)"/><path class="cls-11" d="M166.84,289.64c0-2.86,1.4-32,1.4-32l-.48-2.07L164.23,250l1.88,10.87c-1.49-.46-4.5-1.26-3.36.26a21.47,21.47,0,0,0,3.56,3.44l-1.07,21.55a9.27,9.27,0,0,0,1.26,5.14l1.1,1.86A8.1,8.1,0,0,1,166.84,289.64Z" transform="translate(-100.09 -86.34)"/><path class="cls-11" d="M167.6,293.1a6,6,0,0,0,.65,1.15Z" transform="translate(-100.09 -86.34)"/><path class="cls-12" d="M214.39,292.18a62.76,62.76,0,0,1-46.11,2.07s.32,3.66.95,3.82a71.53,71.53,0,0,0,24.34,2.07c13.69-1.12,19.4-3.18,20.51-4S215,293,215,293a8.45,8.45,0,0,1,.07-.93Z" transform="translate(-100.09 -86.34)"/><path class="cls-12" d="M158.26,304.43s3.65,1.59,6.68.65,3.81-1.91,4.29-1.75.48,4,0,5.09-1.59,1.91-4.93,2.23-5.09-1.31-5.41-2.23A31.83,31.83,0,0,1,158.26,304.43Z" transform="translate(-100.09 -86.34)"/></g></svg>