<svg id="Camada_1" data-name="Camada 1" xmlns="http://www.w3.org/2000/svg" viewBox="0 0 212.98 162.72"><defs><style>.cls-1{fill:#263238;}.cls-11,.cls-12,.cls-13,.cls-14,.cls-2,.cls-3,.cls-4{fill:#fff;}.cls-2,.cls-9{opacity:0.5;}.cls-10,.cls-11,.cls-12,.cls-13,.cls-14,.cls-2,.cls-3,.cls-4,.cls-5,.cls-7,.cls-8,.cls-9{isolation:isolate;}.cls-3{opacity:0.3;}.cls-4{opacity:0.7;}.cls-5{fill:#fafafa;}.cls-14,.cls-5{opacity:0.9;}.cls-6{fill:#407bff;}.cls-11,.cls-7{opacity:0.2;}.cls-13,.cls-8{opacity:0.4;}.cls-10{opacity:0.1;}.cls-12{opacity:0.6;}</style></defs><g id="freepik--Device--inject-11"><path class="cls-1" d="M260.72,322.63h30.84a3.38,3.38,0,0,1,3.38,3.38v1.88a3.38,3.38,0,0,1-3.38,3.38H260.72v-8.64Z" transform="translate(-143.69 -168.55)"/><path d="M200.41,322.63h65.64a3.14,3.14,0,0,1,3.13,3.14v2.31a3.14,3.14,0,0,1-3.13,3.14H200.41a3.15,3.15,0,0,1-3.15-3.15h0v-2.29a3.15,3.15,0,0,1,3.13-3.15Z" transform="translate(-143.69 -168.55)"/><path class="cls-2" d="M200.41,322.63h65.64a3.14,3.14,0,0,1,3.13,3.14v2.31a3.14,3.14,0,0,1-3.13,3.14H200.41a3.15,3.15,0,0,1-3.15-3.15h0v-2.29a3.15,3.15,0,0,1,3.13-3.15Z" transform="translate(-143.69 -168.55)"/><polygon class="cls-1" points="107.95 154.1 124.58 154.1 113.93 114.32 107.95 114.32 107.95 154.1"/><polygon points="122.15 154.1 88.21 154.1 84.83 114.32 111.51 114.32 122.15 154.1"/><polygon class="cls-3" points="122.15 154.1 88.21 154.1 84.83 114.32 111.51 114.32 122.15 154.1"/><path class="cls-1" d="M351.34,168.55H335.91l-12,136.58h15.43a6.53,6.53,0,0,0,6.38-5.86l10.91-124.83a5.22,5.22,0,0,0-5.29-5.89Z" transform="translate(-143.69 -168.55)"/><path class="cls-1" d="M335.83,305.13H149.05a5.26,5.26,0,0,1-5.36-5.17q0-.34,0-.69l10.92-124.83A6.51,6.51,0,0,1,161,168.6H347.78a5.26,5.26,0,0,1,5.36,5.17,3.8,3.8,0,0,1,0,.67L342.2,299.27A6.53,6.53,0,0,1,335.83,305.13Z" transform="translate(-143.69 -168.55)"/><path class="cls-4" d="M335.83,305.13H149.05a5.26,5.26,0,0,1-5.36-5.17q0-.34,0-.69l10.92-124.83A6.51,6.51,0,0,1,161,168.6H347.78a5.26,5.26,0,0,1,5.36,5.17,3.8,3.8,0,0,1,0,.67L342.2,299.27A6.53,6.53,0,0,1,335.83,305.13Z" transform="translate(-143.69 -168.55)"/><path class="cls-5" d="M330.85,289.14h-174a4.57,4.57,0,0,1-4.66-4.47,3.33,3.33,0,0,1,0-.63l9.07-103.72a5.64,5.64,0,0,1,5.52-5.1h174a4.56,4.56,0,0,1,4.66,4.46c0,.21,0,.43,0,.64L336.37,284A5.66,5.66,0,0,1,330.85,289.14Z" transform="translate(-143.69 -168.55)"/><polygon class="cls-6" points="141.6 43.34 135.52 43.34 136.57 31.16 142.67 31.16 141.6 43.34"/><polygon class="cls-7" points="141.6 43.34 135.52 43.34 136.57 31.16 142.67 31.16 141.6 43.34"/><polygon class="cls-6" points="153.78 43.34 147.69 43.34 149.29 25.08 155.37 25.08 153.78 43.34"/><polygon class="cls-6" points="165.96 43.34 159.86 43.34 161.2 28.13 167.28 28.13 165.96 43.34"/><polygon class="cls-6" points="178.13 43.34 172.04 43.34 174.17 19 180.26 19 178.13 43.34"/><polygon class="cls-8" points="178.13 43.34 172.04 43.34 174.17 19 180.26 19 178.13 43.34"/><path class="cls-6" d="M327.9,210.77H274.35q1-11.61,2-23.22c.12-1.45-2.13-1.45-2.26,0q-1,12.16-2.13,24.34a1.14,1.14,0,0,0,1.12,1.12H328a1.13,1.13,0,0,0,1.1-1.15A1.11,1.11,0,0,0,327.9,210.77Z" transform="translate(-143.69 -168.55)"/><path class="cls-2" d="M327.9,210.77H274.35q1-11.61,2-23.22c.12-1.45-2.13-1.45-2.26,0q-1,12.16-2.13,24.34a1.14,1.14,0,0,0,1.12,1.12H328a1.13,1.13,0,0,0,1.1-1.15A1.11,1.11,0,0,0,327.9,210.77Z" transform="translate(-143.69 -168.55)"/><path class="cls-6" d="M184.92,205.3,181,209a12.63,12.63,0,0,0,9.46,4l.44-5.1A8,8,0,0,1,184.92,205.3Z" transform="translate(-143.69 -168.55)"/><path class="cls-9" d="M184.92,205.3,181,209a12.63,12.63,0,0,0,9.46,4l.44-5.1A8,8,0,0,1,184.92,205.3Z" transform="translate(-143.69 -168.55)"/><path class="cls-6" d="M200.29,199.14a9.73,9.73,0,0,1-9.49,8.72l-.45,5.1a15.46,15.46,0,0,0,15.1-13.87Z" transform="translate(-143.69 -168.55)"/><path class="cls-10" d="M200.29,199.14a9.73,9.73,0,0,1-9.49,8.72l-.45,5.1a15.46,15.46,0,0,0,15.1-13.87Z" transform="translate(-143.69 -168.55)"/><path class="cls-6" d="M184.92,205.3a8,8,0,0,1-2-6.16h-5.1A12.73,12.73,0,0,0,181,209Z" transform="translate(-143.69 -168.55)"/><path class="cls-6" d="M192.33,190.36a7.85,7.85,0,0,1,8,7.71,8.7,8.7,0,0,1,0,1h5.1a12.53,12.53,0,0,0-11.16-13.76,13.88,13.88,0,0,0-1.44-.07,15.46,15.46,0,0,0-15.1,13.89h5.1A9.71,9.71,0,0,1,192.33,190.36Z" transform="translate(-143.69 -168.55)"/><path class="cls-11" d="M192.33,190.36a7.85,7.85,0,0,1,8,7.71,8.7,8.7,0,0,1,0,1h5.1a12.53,12.53,0,0,0-11.16-13.76,13.88,13.88,0,0,0-1.44-.07,15.46,15.46,0,0,0-15.1,13.89h5.1A9.71,9.71,0,0,1,192.33,190.36Z" transform="translate(-143.69 -168.55)"/><path class="cls-12" d="M198.27,192.91l4-3.64a12.61,12.61,0,0,0-9.45-4.07l-.46,5.1A7.92,7.92,0,0,1,198.27,192.91Z" transform="translate(-143.69 -168.55)"/><path class="cls-6" d="M223.52,205.3l-4,3.66a12.67,12.67,0,0,0,9.47,4l.45-5.1A8,8,0,0,1,223.52,205.3Z" transform="translate(-143.69 -168.55)"/><path class="cls-9" d="M223.52,205.3l-4,3.66a12.67,12.67,0,0,0,9.47,4l.45-5.1A8,8,0,0,1,223.52,205.3Z" transform="translate(-143.69 -168.55)"/><path class="cls-6" d="M239,199.14a9.72,9.72,0,0,1-9.48,8.72L229,213a15.46,15.46,0,0,0,15.09-13.87Z" transform="translate(-143.69 -168.55)"/><path class="cls-10" d="M239,199.14a9.72,9.72,0,0,1-9.48,8.72L229,213a15.46,15.46,0,0,0,15.09-13.87Z" transform="translate(-143.69 -168.55)"/><path class="cls-6" d="M223.52,205.3a8,8,0,0,1-2-6.16H216.4a12.77,12.77,0,0,0,3.21,9.82Z" transform="translate(-143.69 -168.55)"/><path class="cls-6" d="M231,190.36a7.87,7.87,0,0,1,8,7.71,8.71,8.71,0,0,1-.05,1h5.1a12.52,12.52,0,0,0-11.15-13.76,14.08,14.08,0,0,0-1.45-.07,15.47,15.47,0,0,0-15.1,13.89h5.1A9.72,9.72,0,0,1,231,190.36Z" transform="translate(-143.69 -168.55)"/><path class="cls-11" d="M231,190.36a7.87,7.87,0,0,1,8,7.71,8.71,8.71,0,0,1-.05,1h5.1a12.52,12.52,0,0,0-11.15-13.76,14.08,14.08,0,0,0-1.45-.07,15.47,15.47,0,0,0-15.1,13.89h5.1A9.72,9.72,0,0,1,231,190.36Z" transform="translate(-143.69 -168.55)"/><path class="cls-12" d="M236.93,192.91l4-3.64a12.6,12.6,0,0,0-9.45-4.07l-.46,5.1A7.88,7.88,0,0,1,236.93,192.91Z" transform="translate(-143.69 -168.55)"/><path class="cls-6" d="M281.62,257.05h-7.27l.62-7.26h7.28Zm-5.56-1.58h4.1l.37-4.1h-4.1Z" transform="translate(-143.69 -168.55)"/><path class="cls-6" d="M280.65,268.15h-7.27l.62-7.27h7.28Zm-5.55-1.58h4.11l.35-4.11h-4.1Z" transform="translate(-143.69 -168.55)"/><path class="cls-6" d="M279.68,279.18h-7.27l.64-7.26h7.26Zm-5.5-1.57h4.11l.35-4.12h-4.1Z" transform="translate(-143.69 -168.55)"/><path class="cls-6" d="M286.65,255.4a1.6,1.6,0,0,1-1.63-1.56,1.62,1.62,0,0,1,0-.22,2,2,0,0,1,1.93-1.77h24.32a1.59,1.59,0,0,1,1.62,1.56.74.74,0,0,1,0,.21A2,2,0,0,1,311,255.4Z" transform="translate(-143.69 -168.55)"/><path class="cls-4" d="M286.65,255.4a1.6,1.6,0,0,1-1.63-1.56,1.62,1.62,0,0,1,0-.22,2,2,0,0,1,1.93-1.77h24.32a1.59,1.59,0,0,1,1.62,1.56.74.74,0,0,1,0,.21A2,2,0,0,1,311,255.4Z" transform="translate(-143.69 -168.55)"/><path class="cls-6" d="M284.73,277.33a1.62,1.62,0,0,1-1.63-1.61.81.81,0,0,1,0-.16,2,2,0,0,1,1.94-1.78h20.4a1.59,1.59,0,0,1,1.61,1.57.74.74,0,0,1,0,.21,2,2,0,0,1-1.92,1.77Z" transform="translate(-143.69 -168.55)"/><path class="cls-13" d="M284.73,277.33a1.62,1.62,0,0,1-1.63-1.61.81.81,0,0,1,0-.16,2,2,0,0,1,1.94-1.78h20.4a1.59,1.59,0,0,1,1.61,1.57.74.74,0,0,1,0,.21,2,2,0,0,1-1.92,1.77Z" transform="translate(-143.69 -168.55)"/><path class="cls-6" d="M285.66,266.26a1.61,1.61,0,0,1-1.63-1.58,1.15,1.15,0,0,1,0-.19,2,2,0,0,1,1.94-1.77h18.8a1.59,1.59,0,0,1,1.63,1.58,1.21,1.21,0,0,1,0,.19,2,2,0,0,1-1.92,1.77Z" transform="translate(-143.69 -168.55)"/><path class="cls-11" d="M285.66,266.26a1.61,1.61,0,0,1-1.63-1.58,1.15,1.15,0,0,1,0-.19,2,2,0,0,1,1.94-1.77h18.8a1.59,1.59,0,0,1,1.63,1.58,1.21,1.21,0,0,1,0,.19,2,2,0,0,1-1.92,1.77Z" transform="translate(-143.69 -168.55)"/><path class="cls-6" d="M262.11,267.59q-2.73-3.82-5.5-7.51a1.16,1.16,0,0,0-1.6-.38.9.9,0,0,0-.19.15L249,266.22c-1.53-2.55-3.05-5-4.58-7.52a1.15,1.15,0,0,0-1.57-.41,1.18,1.18,0,0,0-.22.17c-2,1.85-4,3.76-6,5.56-.61-.34-1.28-.72-1.81-1.07l-3.32-2a1.16,1.16,0,0,0-1.55.41L224,269.92q-2.19-4.26-4.39-8.53a1.16,1.16,0,0,0-1.55-.41l-2.82,1.51a31,31,0,0,0-3,1.69,22.22,22.22,0,0,0-2.45-1.45L206.83,261a1.14,1.14,0,0,0-1.15,2h0c1.63,1,4.54,3.65,6.47,3.64s4.22-1.83,6-3l4.71,9.13a1.14,1.14,0,0,0,1.57.39,1.21,1.21,0,0,0,.39-.39l6.37-9.22,5,2.92a1.16,1.16,0,0,0,1.38-.18l5.64-5.17,4.65,7.65a1.15,1.15,0,0,0,1.78.23l5.92-6.53,4.6,6.3C261,269.89,263,268.76,262.11,267.59Z" transform="translate(-143.69 -168.55)"/><path class="cls-6" d="M260.27,276.91H206.09q1-11.75,2-23.49c.13-1.45-2.14-1.45-2.27,0L203.72,278a1.14,1.14,0,0,0,1.13,1.14h55.42a1.14,1.14,0,0,0,0-2.27Z" transform="translate(-143.69 -168.55)"/><path class="cls-2" d="M260.27,276.91H206.09q1-11.75,2-23.49c.13-1.45-2.14-1.45-2.27,0L203.72,278a1.14,1.14,0,0,0,1.13,1.14h55.42a1.14,1.14,0,0,0,0-2.27Z" transform="translate(-143.69 -168.55)"/><polygon class="cls-6" points="175.57 74.98 78.88 74.98 81.03 50.3 177.72 50.3 175.57 74.98"/><polygon class="cls-14" points="175.57 74.98 78.88 74.98 81.03 50.3 177.72 50.3 175.57 74.98"/><path class="cls-1" d="M321,245.4H220.52L223.07,217H323.52Zm-96.37-3.75h92.94l1.83-20.91H226.44Z" transform="translate(-143.69 -168.55)"/><path class="cls-6" d="M244.41,234.5l-.18,2h-8.15l.92-10.53h8l-.17,1.95h-5.53l-.21,2.29h4.88l-.16,1.89h-4.88l-.22,2.44Z" transform="translate(-143.69 -168.55)"/><path class="cls-6" d="M252.7,236.46l-2.22-3.66-2.82,3.66h-2.81l4.36-5.36L246,225.93h2.77l2.13,3.41,2.66-3.41h2.64L252,231l3.46,5.44Z" transform="translate(-143.69 -168.55)"/><path class="cls-6" d="M259.27,227.92h-3.36l.18-2h9.17l-.17,2h-3.37l-.75,8.54h-2.43Z" transform="translate(-143.69 -168.55)"/><path class="cls-6" d="M272.36,236.46l-1.77-2.93h-2.25l-.25,2.93h-2.44l.92-10.53h4.55a5.67,5.67,0,0,1,2.4.46,3.17,3.17,0,0,1,1.46,1.27,3.54,3.54,0,0,1,.39,2,4,4,0,0,1-.74,2,4.08,4.08,0,0,1-1.72,1.27l2.06,3.39Zm.09-8.07a2.39,2.39,0,0,0-1.63-.47h-2l-.32,3.66h2a2.72,2.72,0,0,0,1.7-.48,1.86,1.86,0,0,0,.69-1.35,1.55,1.55,0,0,0-.44-1.36Z" transform="translate(-143.69 -168.55)"/><path class="cls-6" d="M283.83,234.2H279l-1.13,2.26h-2.55l5.61-10.53h2.41l3.82,10.53h-2.55Zm-.61-1.86-1.27-4-2,4Z" transform="translate(-143.69 -168.55)"/><path class="cls-6" d="M290.25,235.94a4.63,4.63,0,0,1-1.88-1.94,4.87,4.87,0,0,1-.49-2.81,5.65,5.65,0,0,1,1-2.8,5.94,5.94,0,0,1,2.22-1.94,6.41,6.41,0,0,1,3-.7,5.83,5.83,0,0,1,2.44.47,4.5,4.5,0,0,1,1.73,1.39l-1.7,1.44a3,3,0,0,0-2.55-1.27,3.67,3.67,0,0,0-1.77.42,3.25,3.25,0,0,0-1.27,1.2,3.73,3.73,0,0,0-.59,1.74,3.29,3.29,0,0,0,.28,1.75,2.71,2.71,0,0,0,1.08,1.19,3.2,3.2,0,0,0,1.71.43,3.67,3.67,0,0,0,2.76-1.28l1.44,1.45a5.46,5.46,0,0,1-2,1.4,6.57,6.57,0,0,1-2.55.48A5.77,5.77,0,0,1,290.25,235.94Z" transform="translate(-143.69 -168.55)"/><path class="cls-6" d="M301.92,227.92h-3.37l.18-2h9.17l-.17,2h-3.38l-.74,8.54h-2.43Z" transform="translate(-143.69 -168.55)"/></g></svg>