<svg id="Camada_1" data-name="Camada 1" xmlns="http://www.w3.org/2000/svg" xmlns:xlink="http://www.w3.org/1999/xlink" viewBox="0 0 1228.21 681.94"><defs><style>.cls-1{fill:url(#Gradiente_sem_nome_402);}.cls-2{fill:url(#Gradiente_sem_nome_402-2);}.cls-3{fill:url(#Gradiente_sem_nome_402-3);}.cls-4{fill:url(#Gradiente_sem_nome_402-4);}.cls-5{fill:url(#Gradiente_sem_nome_402-5);}.cls-6{fill:url(#Gradiente_sem_nome_402-6);}.cls-7{fill:url(#Gradiente_sem_nome_402-7);}.cls-8{fill:url(#Gradiente_sem_nome_402-8);}.cls-9{fill:url(#Gradiente_sem_nome_402-9);}.cls-10{fill:url(#Gradiente_sem_nome_402-10);}.cls-11{fill:url(#Gradiente_sem_nome_402-11);}.cls-12{fill:url(#Gradiente_sem_nome_402-12);}.cls-13{fill:url(#Gradiente_sem_nome_402-13);}.cls-14{fill:url(#Gradiente_sem_nome_402-14);}.cls-15{fill:url(#Gradiente_sem_nome_402-15);}.cls-16{fill:url(#Gradiente_sem_nome_402-16);}.cls-17{fill:url(#Gradiente_sem_nome_402-17);}.cls-18{fill:url(#Gradiente_sem_nome_402-18);}.cls-19{fill:url(#Gradiente_sem_nome_402-19);}.cls-20{fill:url(#Gradiente_sem_nome_402-20);}.cls-21{fill:url(#Gradiente_sem_nome_402-21);}.cls-22{fill:url(#Gradiente_sem_nome_402-22);}.cls-23{fill:url(#Gradiente_sem_nome_402-23);}.cls-24{fill:url(#Gradiente_sem_nome_402-24);}.cls-25{fill:url(#Gradiente_sem_nome_402-25);}.cls-26{fill:url(#Gradiente_sem_nome_402-26);}.cls-27{fill:url(#Gradiente_sem_nome_402-27);}.cls-28{fill:url(#Gradiente_sem_nome_402-28);}.cls-29{fill:url(#Gradiente_sem_nome_402-29);}.cls-30{fill:url(#Gradiente_sem_nome_402-30);}.cls-31{fill:url(#Gradiente_sem_nome_402-31);}.cls-32{fill:url(#Gradiente_sem_nome_402-32);}.cls-33{fill:url(#Gradiente_sem_nome_402-33);}.cls-34{fill:url(#Gradiente_sem_nome_402-34);}.cls-35{fill:url(#Gradiente_sem_nome_402-35);}.cls-36{fill:url(#Gradiente_sem_nome_402-36);}.cls-37{fill:url(#Gradiente_sem_nome_402-37);}.cls-38{fill:url(#Gradiente_sem_nome_402-38);}.cls-39{fill:url(#Gradiente_sem_nome_402-39);}.cls-40{fill:url(#Gradiente_sem_nome_402-40);}.cls-41{fill:url(#Gradiente_sem_nome_402-41);}.cls-42{fill:url(#Gradiente_sem_nome_402-42);}.cls-43{fill:url(#Gradiente_sem_nome_402-43);}.cls-44{fill:url(#Gradiente_sem_nome_402-44);}.cls-45{fill:url(#Gradiente_sem_nome_402-45);}.cls-46{fill:url(#Gradiente_sem_nome_402-46);}.cls-47{fill:url(#Gradiente_sem_nome_402-47);}.cls-48{fill:url(#Gradiente_sem_nome_402-48);}.cls-49{fill:url(#Gradiente_sem_nome_402-49);}.cls-50{fill:url(#Gradiente_sem_nome_402-50);}.cls-51{fill:url(#Gradiente_sem_nome_402-51);}.cls-52{fill:url(#Gradiente_sem_nome_402-52);}.cls-53{fill:url(#Gradiente_sem_nome_402-53);}.cls-54{fill:url(#Gradiente_sem_nome_402-54);}.cls-55{fill:url(#Gradiente_sem_nome_402-55);}.cls-56{fill:url(#Gradiente_sem_nome_402-56);}.cls-57{fill:url(#Gradiente_sem_nome_402-57);}.cls-58{fill:url(#Gradiente_sem_nome_402-58);}.cls-59{fill:url(#Gradiente_sem_nome_402-59);}.cls-60{fill:url(#Gradiente_sem_nome_402-60);}.cls-61{fill:url(#Gradiente_sem_nome_402-61);}.cls-62{fill:url(#Gradiente_sem_nome_402-62);}.cls-63{fill:url(#Gradiente_sem_nome_402-63);}.cls-64{fill:url(#Gradiente_sem_nome_402-64);}.cls-65{fill:url(#Gradiente_sem_nome_402-65);}.cls-66{fill:url(#Gradiente_sem_nome_402-66);}.cls-67{fill:url(#Gradiente_sem_nome_402-67);}.cls-68{fill:url(#Gradiente_sem_nome_402-68);}.cls-69{fill:url(#Gradiente_sem_nome_402-69);}.cls-70{fill:url(#Gradiente_sem_nome_402-70);}.cls-71{fill:url(#Gradiente_sem_nome_402-71);}.cls-72{fill:url(#Gradiente_sem_nome_402-72);}.cls-73{fill:url(#Gradiente_sem_nome_402-73);}.cls-74{fill:url(#Gradiente_sem_nome_402-74);}.cls-75{fill:url(#Gradiente_sem_nome_402-75);}.cls-76{fill:url(#Gradiente_sem_nome_409);}.cls-77{fill:url(#Gradiente_sem_nome_409-2);}.cls-78{fill:url(#Gradiente_sem_nome_409-3);}.cls-79{fill:url(#Gradiente_sem_nome_409-4);}.cls-80{fill:url(#Gradiente_sem_nome_409-5);}.cls-81{fill:url(#Gradiente_sem_nome_409-6);}.cls-82{fill:url(#Gradiente_sem_nome_409-7);}.cls-83{fill:url(#Gradiente_sem_nome_409-8);}.cls-84{fill:url(#Gradiente_sem_nome_409-9);}.cls-85{fill:url(#Gradiente_sem_nome_409-10);}.cls-86{fill:url(#Gradiente_sem_nome_409-11);}.cls-87{fill:url(#Gradiente_sem_nome_409-12);}</style><linearGradient id="Gradiente_sem_nome_402" x1="-188.48" y1="187.36" x2="198.07" y2="576.83" gradientUnits="userSpaceOnUse"><stop offset="0" stop-color="#0091bf"/><stop offset="1" stop-color="#b900bf"/></linearGradient><linearGradient id="Gradiente_sem_nome_402-2" x1="-170.81" y1="169.81" x2="215.74" y2="559.28" xlink:href="#Gradiente_sem_nome_402"/><linearGradient id="Gradiente_sem_nome_402-3" x1="-158.43" y1="157.53" x2="228.12" y2="547" xlink:href="#Gradiente_sem_nome_402"/><linearGradient id="Gradiente_sem_nome_402-4" x1="-138.91" y1="138.15" x2="247.64" y2="527.62" xlink:href="#Gradiente_sem_nome_402"/><linearGradient id="Gradiente_sem_nome_402-5" x1="-126.18" y1="125.52" x2="260.37" y2="515" xlink:href="#Gradiente_sem_nome_402"/><linearGradient id="Gradiente_sem_nome_402-6" x1="-110.72" y1="110.18" x2="275.83" y2="499.65" xlink:href="#Gradiente_sem_nome_402"/><linearGradient id="Gradiente_sem_nome_402-7" x1="-98.98" y1="98.53" x2="287.57" y2="488" xlink:href="#Gradiente_sem_nome_402"/><linearGradient id="Gradiente_sem_nome_402-8" x1="-85.52" y1="85.17" x2="301.03" y2="474.64" xlink:href="#Gradiente_sem_nome_402"/><linearGradient id="Gradiente_sem_nome_402-9" x1="-69.78" y1="69.54" x2="316.77" y2="459.01" xlink:href="#Gradiente_sem_nome_402"/><linearGradient id="Gradiente_sem_nome_402-10" x1="-56.79" y1="56.65" x2="329.76" y2="446.13" xlink:href="#Gradiente_sem_nome_402"/><linearGradient id="Gradiente_sem_nome_402-11" x1="-46.49" y1="46.43" x2="340.06" y2="435.9" xlink:href="#Gradiente_sem_nome_402"/><linearGradient id="Gradiente_sem_nome_402-12" x1="-29.81" y1="29.87" x2="356.74" y2="419.35" xlink:href="#Gradiente_sem_nome_402"/><linearGradient id="Gradiente_sem_nome_402-13" x1="189.85" y1="-188.14" x2="576.4" y2="201.34" xlink:href="#Gradiente_sem_nome_402"/><linearGradient id="Gradiente_sem_nome_402-14" x1="172.17" y1="-170.59" x2="558.72" y2="218.88" xlink:href="#Gradiente_sem_nome_402"/><linearGradient id="Gradiente_sem_nome_402-15" x1="159.8" y1="-158.31" x2="546.35" y2="231.16" xlink:href="#Gradiente_sem_nome_402"/><linearGradient id="Gradiente_sem_nome_402-16" x1="140.27" y1="-138.93" x2="526.82" y2="250.54" xlink:href="#Gradiente_sem_nome_402"/><linearGradient id="Gradiente_sem_nome_402-17" x1="127.55" y1="-126.3" x2="514.1" y2="263.17" xlink:href="#Gradiente_sem_nome_402"/><linearGradient id="Gradiente_sem_nome_402-18" x1="112.09" y1="-110.96" x2="498.64" y2="278.51" xlink:href="#Gradiente_sem_nome_402"/><linearGradient id="Gradiente_sem_nome_402-19" x1="100.35" y1="-99.31" x2="486.9" y2="290.16" xlink:href="#Gradiente_sem_nome_402"/><linearGradient id="Gradiente_sem_nome_402-20" x1="86.89" y1="-85.95" x2="473.44" y2="303.52" xlink:href="#Gradiente_sem_nome_402"/><linearGradient id="Gradiente_sem_nome_402-21" x1="71.14" y1="-70.32" x2="457.69" y2="319.15" xlink:href="#Gradiente_sem_nome_402"/><linearGradient id="Gradiente_sem_nome_402-22" x1="58.16" y1="-57.43" x2="444.71" y2="332.04" xlink:href="#Gradiente_sem_nome_402"/><linearGradient id="Gradiente_sem_nome_402-23" x1="47.86" y1="-47.21" x2="434.41" y2="342.26" xlink:href="#Gradiente_sem_nome_402"/><linearGradient id="Gradiente_sem_nome_402-24" x1="31.17" y1="-30.65" x2="417.72" y2="358.82" xlink:href="#Gradiente_sem_nome_402"/><linearGradient id="Gradiente_sem_nome_402-25" x1="25.97" y1="-25.49" x2="412.52" y2="363.98" xlink:href="#Gradiente_sem_nome_402"/><linearGradient id="Gradiente_sem_nome_402-26" x1="43.64" y1="-43.03" x2="430.19" y2="346.45" xlink:href="#Gradiente_sem_nome_402"/><linearGradient id="Gradiente_sem_nome_402-27" x1="61.36" y1="-60.61" x2="447.91" y2="328.87" xlink:href="#Gradiente_sem_nome_402"/><linearGradient id="Gradiente_sem_nome_402-28" x1="76.7" y1="-75.83" x2="463.25" y2="313.64" xlink:href="#Gradiente_sem_nome_402"/><linearGradient id="Gradiente_sem_nome_402-29" x1="89.77" y1="-88.81" x2="476.32" y2="300.67" xlink:href="#Gradiente_sem_nome_402"/><linearGradient id="Gradiente_sem_nome_402-30" x1="103.45" y1="-102.38" x2="490" y2="287.09" xlink:href="#Gradiente_sem_nome_402"/><linearGradient id="Gradiente_sem_nome_402-31" x1="116.57" y1="-115.41" x2="503.12" y2="274.07" xlink:href="#Gradiente_sem_nome_402"/><linearGradient id="Gradiente_sem_nome_402-32" x1="130.13" y1="-128.87" x2="516.68" y2="260.61" xlink:href="#Gradiente_sem_nome_402"/><linearGradient id="Gradiente_sem_nome_402-33" x1="142.93" y1="-141.57" x2="529.48" y2="247.91" xlink:href="#Gradiente_sem_nome_402"/><linearGradient id="Gradiente_sem_nome_402-34" x1="156.76" y1="-155.29" x2="543.31" y2="234.18" xlink:href="#Gradiente_sem_nome_402"/><linearGradient id="Gradiente_sem_nome_402-35" x1="169.98" y1="-168.41" x2="556.53" y2="221.06" xlink:href="#Gradiente_sem_nome_402"/><linearGradient id="Gradiente_sem_nome_402-36" x1="183.83" y1="-182.16" x2="570.38" y2="207.31" xlink:href="#Gradiente_sem_nome_402"/><linearGradient id="Gradiente_sem_nome_402-37" x1="-188.02" y1="186.9" x2="198.53" y2="576.37" xlink:href="#Gradiente_sem_nome_402"/><linearGradient id="Gradiente_sem_nome_402-38" x1="-170.35" y1="169.36" x2="216.2" y2="558.83" xlink:href="#Gradiente_sem_nome_402"/><linearGradient id="Gradiente_sem_nome_402-39" x1="-152.64" y1="151.78" x2="233.91" y2="541.25" xlink:href="#Gradiente_sem_nome_402"/><linearGradient id="Gradiente_sem_nome_402-40" x1="-137.3" y1="136.56" x2="249.25" y2="526.03" xlink:href="#Gradiente_sem_nome_402"/><linearGradient id="Gradiente_sem_nome_402-41" x1="-124.23" y1="123.58" x2="262.32" y2="513.05" xlink:href="#Gradiente_sem_nome_402"/><linearGradient id="Gradiente_sem_nome_402-42" x1="-110.55" y1="110.01" x2="276" y2="499.48" xlink:href="#Gradiente_sem_nome_402"/><linearGradient id="Gradiente_sem_nome_402-43" x1="-97.43" y1="96.98" x2="289.12" y2="486.46" xlink:href="#Gradiente_sem_nome_402"/><linearGradient id="Gradiente_sem_nome_402-44" x1="-83.86" y1="83.52" x2="302.69" y2="472.99" xlink:href="#Gradiente_sem_nome_402"/><linearGradient id="Gradiente_sem_nome_402-45" x1="-71.07" y1="70.82" x2="315.48" y2="460.3" xlink:href="#Gradiente_sem_nome_402"/><linearGradient id="Gradiente_sem_nome_402-46" x1="-57.24" y1="57.09" x2="329.31" y2="446.57" xlink:href="#Gradiente_sem_nome_402"/><linearGradient id="Gradiente_sem_nome_402-47" x1="-44.02" y1="43.97" x2="342.53" y2="433.45" xlink:href="#Gradiente_sem_nome_402"/><linearGradient id="Gradiente_sem_nome_402-48" x1="-30.16" y1="30.23" x2="356.39" y2="419.7" xlink:href="#Gradiente_sem_nome_402"/><linearGradient id="Gradiente_sem_nome_402-49" x1="743.74" y1="47.89" x2="1281.01" y2="54.99" xlink:href="#Gradiente_sem_nome_402"/><linearGradient id="Gradiente_sem_nome_402-50" x1="743.75" y1="47.19" x2="1281.02" y2="54.29" xlink:href="#Gradiente_sem_nome_402"/><linearGradient id="Gradiente_sem_nome_402-51" x1="743.75" y1="46.54" x2="1281.03" y2="53.64" xlink:href="#Gradiente_sem_nome_402"/><linearGradient id="Gradiente_sem_nome_402-52" x1="743.77" y1="44.97" x2="1281.05" y2="52.07" xlink:href="#Gradiente_sem_nome_402"/><linearGradient id="Gradiente_sem_nome_402-53" x1="743.82" y1="41.52" x2="1281.1" y2="48.62" xlink:href="#Gradiente_sem_nome_402"/><linearGradient id="Gradiente_sem_nome_402-54" x1="743.74" y1="47.77" x2="1281.02" y2="54.87" xlink:href="#Gradiente_sem_nome_402"/><linearGradient id="Gradiente_sem_nome_402-55" x1="743.83" y1="40.62" x2="1281.11" y2="47.72" xlink:href="#Gradiente_sem_nome_402"/><linearGradient id="Gradiente_sem_nome_402-56" x1="743.84" y1="40.13" x2="1281.12" y2="47.23" xlink:href="#Gradiente_sem_nome_402"/><linearGradient id="Gradiente_sem_nome_402-57" x1="743.76" y1="46.05" x2="1281.04" y2="53.15" xlink:href="#Gradiente_sem_nome_402"/><linearGradient id="Gradiente_sem_nome_402-58" x1="743.77" y1="45.52" x2="1281.05" y2="52.62" xlink:href="#Gradiente_sem_nome_402"/><linearGradient id="Gradiente_sem_nome_402-59" x1="743.78" y1="44.72" x2="1281.06" y2="51.82" xlink:href="#Gradiente_sem_nome_402"/><linearGradient id="Gradiente_sem_nome_402-60" x1="743.78" y1="44.55" x2="1281.06" y2="51.65" xlink:href="#Gradiente_sem_nome_402"/><linearGradient id="Gradiente_sem_nome_402-61" x1="711.74" y1="210.89" x2="1249.01" y2="217.99" xlink:href="#Gradiente_sem_nome_402"/><linearGradient id="Gradiente_sem_nome_402-62" x1="711.75" y1="210.19" x2="1249.02" y2="217.29" xlink:href="#Gradiente_sem_nome_402"/><linearGradient id="Gradiente_sem_nome_402-63" x1="711.75" y1="209.54" x2="1249.03" y2="216.64" xlink:href="#Gradiente_sem_nome_402"/><linearGradient id="Gradiente_sem_nome_402-64" x1="403.74" y1="-156.11" x2="941.01" y2="-149.01" xlink:href="#Gradiente_sem_nome_402"/><linearGradient id="Gradiente_sem_nome_402-65" x1="403.75" y1="-156.81" x2="941.02" y2="-149.71" xlink:href="#Gradiente_sem_nome_402"/><linearGradient id="Gradiente_sem_nome_402-66" x1="403.75" y1="-157.46" x2="941.03" y2="-150.36" xlink:href="#Gradiente_sem_nome_402"/><linearGradient id="Gradiente_sem_nome_402-67" x1="403.77" y1="-159.03" x2="941.05" y2="-151.93" xlink:href="#Gradiente_sem_nome_402"/><linearGradient id="Gradiente_sem_nome_402-68" x1="403.82" y1="-162.48" x2="941.1" y2="-155.38" xlink:href="#Gradiente_sem_nome_402"/><linearGradient id="Gradiente_sem_nome_402-69" x1="403.74" y1="-156.23" x2="941.02" y2="-149.13" xlink:href="#Gradiente_sem_nome_402"/><linearGradient id="Gradiente_sem_nome_402-70" x1="403.83" y1="-163.38" x2="941.11" y2="-156.28" xlink:href="#Gradiente_sem_nome_402"/><linearGradient id="Gradiente_sem_nome_402-71" x1="403.84" y1="-163.87" x2="941.12" y2="-156.77" xlink:href="#Gradiente_sem_nome_402"/><linearGradient id="Gradiente_sem_nome_402-72" x1="403.76" y1="-157.95" x2="941.04" y2="-150.85" xlink:href="#Gradiente_sem_nome_402"/><linearGradient id="Gradiente_sem_nome_402-73" x1="403.77" y1="-158.48" x2="941.05" y2="-151.38" xlink:href="#Gradiente_sem_nome_402"/><linearGradient id="Gradiente_sem_nome_402-74" x1="403.78" y1="-159.28" x2="941.06" y2="-152.18" xlink:href="#Gradiente_sem_nome_402"/><linearGradient id="Gradiente_sem_nome_402-75" x1="403.78" y1="-159.45" x2="941.06" y2="-152.35" xlink:href="#Gradiente_sem_nome_402"/><linearGradient id="Gradiente_sem_nome_409" x1="103.42" y1="151.59" x2="285.87" y2="301.3" xlink:href="#Gradiente_sem_nome_402"/><linearGradient id="Gradiente_sem_nome_409-2" x1="135.81" y1="112.12" x2="318.26" y2="261.83" xlink:href="#Gradiente_sem_nome_402"/><linearGradient id="Gradiente_sem_nome_409-3" x1="167.92" y1="72.98" x2="350.38" y2="222.69" xlink:href="#Gradiente_sem_nome_402"/><linearGradient id="Gradiente_sem_nome_409-4" x1="21.97" y1="250.86" x2="204.42" y2="400.57" xlink:href="#Gradiente_sem_nome_402"/><linearGradient id="Gradiente_sem_nome_409-5" x1="37.59" y1="231.81" x2="220.05" y2="381.52" xlink:href="#Gradiente_sem_nome_402"/><linearGradient id="Gradiente_sem_nome_409-6" x1="53.08" y1="212.95" x2="235.53" y2="362.65" xlink:href="#Gradiente_sem_nome_402"/><linearGradient id="Gradiente_sem_nome_409-7" x1="68.39" y1="194.29" x2="250.84" y2="343.99" xlink:href="#Gradiente_sem_nome_402"/><linearGradient id="Gradiente_sem_nome_409-8" x1="84.29" y1="174.9" x2="266.75" y2="324.61" xlink:href="#Gradiente_sem_nome_402"/><linearGradient id="Gradiente_sem_nome_409-9" x1="99.26" y1="156.65" x2="281.72" y2="306.36" xlink:href="#Gradiente_sem_nome_402"/><linearGradient id="Gradiente_sem_nome_409-10" x1="115.52" y1="136.85" x2="297.97" y2="286.56" xlink:href="#Gradiente_sem_nome_402"/><linearGradient id="Gradiente_sem_nome_409-11" x1="130.94" y1="118.05" x2="313.39" y2="267.76" xlink:href="#Gradiente_sem_nome_402"/><linearGradient id="Gradiente_sem_nome_409-12" x1="147.26" y1="98.16" x2="329.72" y2="247.86" xlink:href="#Gradiente_sem_nome_402"/></defs><path class="cls-1" d="M31.06,388.82a17.93,17.93,0,0,1,12.2,4.52q4.6,4,4.85,11.21,0,1.4,0,7.63c0,.78,0,2-.07,3.53s-.07,2.74-.07,3.52c0,.47-.19.7-.55.7-1.76,0-4.39-.07-7.91-.21s-6.14-.2-7.9-.2-4.58.07-8.23.2-6.4.21-8.22.21c-.33,0-.53-.23-.6-.7-.12-1.13-.19-3-.19-5.57q0-7.37.22-9.54a18.25,18.25,0,0,1,2.87-8.87,14.55,14.55,0,0,1,6-4.76A18,18,0,0,1,31.06,388.82Zm0,9.16a9.2,9.2,0,0,0-6.59,2.41,8.36,8.36,0,0,0-2.66,6.46c0,2.45.33,3.68,1,3.68.94,0,2.36,0,4.25.05s3.3.05,4.24.05,2.31,0,4.17-.05,3.26-.05,4.2-.05c.68,0,1-1.27,1-3.83a8.15,8.15,0,0,0-2.75-6.5A10.24,10.24,0,0,0,31.06,398Z" transform="translate(-6.03 190.12)"/><path class="cls-2" d="M40.58,360.63a31.41,31.41,0,0,1,3.78.41,14.28,14.28,0,0,1,3.56.76.91.91,0,0,1,.46.79,6.06,6.06,0,0,1-.08.72c-.16,1.16-.24,4.56-.24,10.18,0,1.23,0,3.06,0,5.48s0,4.24,0,5.45c0,.53-.23.79-.7.79q-2.67,0-8-.3t-8-.3c-1.82,0-5.2.1-10.16.29-1.28.05-3.18.13-5.71.26l-.34,0c-.37,0-.55-.17-.55-.6,0-1.18,0-3,.1-5.32s.09-4.14.09-5.32,0-2.92-.09-5.26-.1-4.1-.1-5.26q0-1.24.93-1.44c.37-.08,1.48-.2,3.34-.37s3-.25,3.38-.25.5.16.5.48c0,.09,0,.26,0,.5q-.53,6.36-.53,11.43c0,.85.2,1.36.6,1.55a7.49,7.49,0,0,0,1.84.12,3.41,3.41,0,0,0,2.16-.47,2.07,2.07,0,0,0,.45-1.56c0-.16,0-.47,0-.93s0-.85,0-1.15q0-3-.17-6.1c0-.17-.06-.61-.12-1.31a12.31,12.31,0,0,1-.09-1.29c0-.38.18-.58.55-.58a31.23,31.23,0,0,0,3.65.43,37.79,37.79,0,0,0,3.83.2q.48,0,.48.69l-.24,2.15q-.15,1.37-.15,6.22v2.53c0,.66.16,1,.48,1.15.08,0,.58,0,1.48,0a7.41,7.41,0,0,0,2.35-.23c.6-.28,1-1.3,1.07-3.07v-3.49c0-.84-.07-2.1-.22-3.76s-.23-2.92-.23-3.74C39.72,360.81,40,360.63,40.58,360.63Z" transform="translate(-6.03 190.12)"/><path class="cls-3" d="M48.11,343.94c0,2.15,0,3.38-.09,3.68a1.21,1.21,0,0,1-.7.77l-10.78,5.47q-8.68,4.33-9.83,4.33c-1.26,0-3.15,0-5.68-.13s-4.42-.13-5.67-.13c-.59,0-.89-.16-.89-.48q0-1.44.12-4.35t.12-4.38c0-.4.17-.6.5-.6,1.29,0,3.23.1,5.82.28s4.54.27,5.83.27c1,0,4.52-1.61,10.59-4.85-1.58-.88-3.52-1.87-5.81-3Q27,338.58,26,338.58c-1.17,0-2.92,0-5.25.05s-4.09.05-5.25.05c-.43,0-.67-.07-.72-.22v-.76c0-.88,0-2.2-.13-4s-.13-3.11-.13-4q0-.72.57-.72c1.23,0,3.09,0,5.56.06s4.34.06,5.59.06q1.48,0,10.9,4.71,3.39,1.86,10.23,5.38a2.56,2.56,0,0,1,.59.32,1.86,1.86,0,0,1,.11.61Q48.11,341.39,48.11,343.94Z" transform="translate(-6.03 190.12)"/><path class="cls-4" d="M55,311.54H6v-5.38H55Z" transform="translate(-6.03 190.12)"/><path class="cls-5" d="M16,284.24v6.86H11.41V278.26H40.65v-7H45.2v20.69H40.65v-7.7Z" transform="translate(-6.03 190.12)"/><path class="cls-6" d="M20.9,259.37H36.73a5.06,5.06,0,0,0,3-.74,2.59,2.59,0,0,0,1-2.25,4.17,4.17,0,0,0-1.21-2.81,20.75,20.75,0,0,0-3.26-2.85H20.9v-5.84H45.2v5.05l-3.59.14a21.65,21.65,0,0,1,1.7,1.55,9.2,9.2,0,0,1,1.3,1.71,8.53,8.53,0,0,1,.84,2,9.06,9.06,0,0,1,.3,2.4,8.22,8.22,0,0,1-.61,3.27,6.24,6.24,0,0,1-1.74,2.33,7.48,7.48,0,0,1-2.69,1.4,12.26,12.26,0,0,1-3.5.46H20.9Z" transform="translate(-6.03 190.12)"/><path class="cls-7" d="M45.2,223.19l-12.15,9H45.2V238H11.41v-5.84H31.19L20.9,223.67v-7.29L32,226.23,45.2,215.57Z" transform="translate(-6.03 190.12)"/><path class="cls-8" d="M45.2,196.27l-12.15,9H45.2v5.83H11.41v-5.83H31.19L20.9,196.75v-7.29L32,199.31,45.2,188.64Z" transform="translate(-6.03 190.12)"/><path class="cls-9" d="M45.2,169.16,42,169.3a16,16,0,0,1,1.49,1.6,9.91,9.91,0,0,1,2,4,11.14,11.14,0,0,1,.28,2.6,9.11,9.11,0,0,1-.55,3.27,6.74,6.74,0,0,1-1.53,2.37,6.5,6.5,0,0,1-2.37,1.45,9.31,9.31,0,0,1-3.06.49,7.08,7.08,0,0,1-3.18-.73,6.8,6.8,0,0,1-2.51-2.23,11.68,11.68,0,0,1-1.65-3.73,20.39,20.39,0,0,1-.6-5.25V170H28.84a4.93,4.93,0,0,0-1.68.27,3,3,0,0,0-1.28.85,4.11,4.11,0,0,0-.82,1.51,8,8,0,0,0-.28,2.3,18.33,18.33,0,0,0,.49,4.24,22.3,22.3,0,0,0,1.37,4.06H22a24.45,24.45,0,0,1-1.6-8.78,18.42,18.42,0,0,1,.51-4.64,8.55,8.55,0,0,1,1.54-3.19A6.15,6.15,0,0,1,25,164.76a9.82,9.82,0,0,1,3.59-.6H45.2ZM34.46,170v3.57a9.51,9.51,0,0,0,.29,2.51,4.72,4.72,0,0,0,.79,1.67,3.07,3.07,0,0,0,1.16.95,3.31,3.31,0,0,0,1.4.29,2.74,2.74,0,0,0,2.26-.95,4.08,4.08,0,0,0,.77-2.61,4.53,4.53,0,0,0-.88-2.53,18.58,18.58,0,0,0-2.54-2.9Z" transform="translate(-6.03 190.12)"/><path class="cls-10" d="M45.2,157.2H41.13L25.9,145.32v11.59h-5V137.62H25l15,11.62V137.43H45.2Z" transform="translate(-6.03 190.12)"/><path class="cls-11" d="M30.35,114.9A10.8,10.8,0,0,0,28,115a4.57,4.57,0,0,0-1.58.57,2.47,2.47,0,0,0-.91,1,2.9,2.9,0,0,0-.28,1.31,4.4,4.4,0,0,0,1.06,2.67,15.37,15.37,0,0,0,3.5,3H45.2v6H20.9v-5.28l3.54-.22a9.67,9.67,0,0,1-1.67-1.35A8.71,8.71,0,0,1,21.49,121a7.92,7.92,0,0,1-.82-2.05,9.54,9.54,0,0,1-.29-2.46,8,8,0,0,1,.63-3.26,6.09,6.09,0,0,1,1.88-2.39A8.19,8.19,0,0,1,26,109.44a16.1,16.1,0,0,1,4.34-.39Z" transform="translate(-6.03 190.12)"/><path class="cls-12" d="M45.2,88,37,93.53,45.2,99.1v7.05L33,97,20.9,105.68V98.57l8-5.45-8-5.38V81.19l12,8.37L45.2,80.74Z" transform="translate(-6.03 190.12)"/><path class="cls-13" d="M470,113.84a17.94,17.94,0,0,1-12.2-4.51c-3.07-2.67-4.69-6.4-4.85-11.22,0-.92-.05-3.47-.05-7.63,0-.78,0-2,.07-3.52s.08-2.75.08-3.53c0-.46.18-.69.55-.69,1.75,0,4.38.06,7.9.2s6.15.2,7.9.2,4.58-.06,8.24-.2,6.39-.2,8.21-.2c.34,0,.53.23.6.69a55.58,55.58,0,0,1,.19,5.57q0,7.36-.22,9.54a18.11,18.11,0,0,1-2.87,8.87,14.47,14.47,0,0,1-6,4.76A17.86,17.86,0,0,1,470,113.84Zm0-9.15a9.24,9.24,0,0,0,6.6-2.42,8.33,8.33,0,0,0,2.65-6.45c0-2.46-.33-3.69-1-3.69-.94,0-2.35,0-4.24,0s-3.31,0-4.25,0-2.31,0-4.17,0-3.26,0-4.2,0c-.68,0-1,1.28-1,3.83a8.09,8.09,0,0,0,2.75,6.5A10.15,10.15,0,0,0,470,104.69Z" transform="translate(-6.03 190.12)"/><path class="cls-14" d="M460.45,142a31.13,31.13,0,0,1-3.78-.4,14.09,14.09,0,0,1-3.56-.77.89.89,0,0,1-.45-.79,5.23,5.23,0,0,1,.07-.71c.16-1.17.24-4.56.24-10.19,0-1.23,0-3,0-5.47s0-4.24,0-5.46c0-.52.23-.79.69-.79,1.78,0,4.47.1,8.05.3s6.26.3,8,.3,5.2-.09,10.16-.28c1.28,0,3.18-.14,5.72-.27l.33,0c.37,0,.55.17.55.6,0,1.18,0,3-.09,5.32s-.1,4.14-.1,5.32,0,2.91.1,5.26.09,4.09.09,5.26c0,.83-.31,1.3-.93,1.43-.37.08-1.48.21-3.34.37s-3,.25-3.38.25-.5-.16-.5-.47c0-.1,0-.27,0-.51q.52-6.36.53-11.43c0-.84-.2-1.36-.6-1.55a7.43,7.43,0,0,0-1.84-.12,3.36,3.36,0,0,0-2.15.48,2,2,0,0,0-.46,1.55c0,.16,0,.47,0,.94s0,.84,0,1.14q0,3,.17,6.1c0,.18.06.61.12,1.31a10.68,10.68,0,0,1,.1,1.3.5.5,0,0,1-.55.57,36.81,36.81,0,0,0-3.66-.43,37.78,37.78,0,0,0-3.83-.19c-.31,0-.47-.23-.47-.7l.23-2.15q.15-1.37.15-6.21v-2.54c0-.65-.16-1-.48-1.15-.08,0-.57,0-1.48,0a7.06,7.06,0,0,0-2.35.24c-.6.27-1,1.29-1.07,3.06V134c0,.85.07,2.1.23,3.77s.22,2.91.22,3.74C461.31,141.86,461,142,460.45,142Z" transform="translate(-6.03 190.12)"/><path class="cls-15" d="M452.92,158.72A32.28,32.28,0,0,1,453,155a1.15,1.15,0,0,1,.69-.76l10.78-5.48q8.68-4.32,9.83-4.33c1.26,0,3.15.05,5.68.13s4.42.14,5.68.14c.59,0,.88.16.88.47,0,1,0,2.41-.12,4.36s-.12,3.4-.12,4.37c0,.4-.16.6-.5.6q-1.94,0-5.82-.28t-5.82-.27q-1.49,0-10.6,4.85,2.37,1.32,5.81,3c3.1,1.5,5,2.25,5.69,2.25,1.17,0,2.92,0,5.25-.05s4.09-.05,5.25-.05c.43,0,.67.08.72.22V165c0,.88,0,2.21.13,4s.13,3.1.13,4c0,.48-.19.71-.57.71-1.23,0-3.08,0-5.56-.06s-4.34-.06-5.58-.06q-1.49,0-10.91-4.71-3.39-1.86-10.23-5.38a2.2,2.2,0,0,1-.59-.32,1.92,1.92,0,0,1-.1-.61C453,161.69,452.92,160.43,452.92,158.72Z" transform="translate(-6.03 190.12)"/><path class="cls-16" d="M446,191.12h49v5.38H446Z" transform="translate(-6.03 190.12)"/><path class="cls-17" d="M485.08,218.43v-6.86h4.54V224.4H460.38v7h-4.54V210.73h4.54v7.7Z" transform="translate(-6.03 190.12)"/><path class="cls-18" d="M480.13,243.29H464.3a5,5,0,0,0-3,.75,2.58,2.58,0,0,0-1,2.24,4.17,4.17,0,0,0,1.21,2.81,20.75,20.75,0,0,0,3.26,2.86h15.38v5.83H455.84v-5l3.58-.15a19.85,19.85,0,0,1-1.7-1.55,9.2,9.2,0,0,1-1.3-1.71,8.19,8.19,0,0,1-.84-2,9.4,9.4,0,0,1-.29-2.4,8,8,0,0,1,.61-3.26,6.15,6.15,0,0,1,1.73-2.34,7.47,7.47,0,0,1,2.69-1.39,12.25,12.25,0,0,1,3.5-.47h16.31Z" transform="translate(-6.03 190.12)"/><path class="cls-19" d="M455.84,279.47l12.14-9H455.84v-5.83h33.78v5.83H469.85L480.13,279v7.29l-11.07-9.85L455.84,287.1Z" transform="translate(-6.03 190.12)"/><path class="cls-20" d="M455.84,306.39l12.14-9H455.84v-5.84h33.78v5.84H469.85l10.28,8.49v7.29l-11.07-9.85L455.84,314Z" transform="translate(-6.03 190.12)"/><path class="cls-21" d="M455.84,333.51l3.18-.15a16.07,16.07,0,0,1-1.5-1.6,10,10,0,0,1-1.18-1.84,9.46,9.46,0,0,1-.78-2.19,11.64,11.64,0,0,1-.27-2.59,9,9,0,0,1,.55-3.28,6.33,6.33,0,0,1,3.89-3.81,9.09,9.09,0,0,1,3.06-.49,7,7,0,0,1,3.18.73,6.7,6.7,0,0,1,2.51,2.22,11.78,11.78,0,0,1,1.65,3.73,20.39,20.39,0,0,1,.6,5.25v3.18h1.46a5.3,5.3,0,0,0,1.69-.26,3.07,3.07,0,0,0,1.27-.85A3.88,3.88,0,0,0,476,330a8,8,0,0,0,.28-2.3,18.39,18.39,0,0,0-.49-4.24,21.46,21.46,0,0,0-1.37-4.05h4.66a22.9,22.9,0,0,1,1.15,4,24.43,24.43,0,0,1,.45,4.74,18.42,18.42,0,0,1-.51,4.64,8.33,8.33,0,0,1-1.54,3.19,6.14,6.14,0,0,1-2.57,1.86,10.14,10.14,0,0,1-3.6.59H455.84Zm10.73-.84v-3.56a9.06,9.06,0,0,0-.29-2.51,4.69,4.69,0,0,0-.79-1.68,3.09,3.09,0,0,0-1.15-.94,3.36,3.36,0,0,0-1.4-.3,2.73,2.73,0,0,0-2.26,1,4,4,0,0,0-.78,2.6,4.64,4.64,0,0,0,.88,2.54,18.57,18.57,0,0,0,2.54,2.89Z" transform="translate(-6.03 190.12)"/><path class="cls-22" d="M455.84,345.46h4.06l15.23,11.89v-11.6h5v19.3H476l-15-11.63v11.82h-5.14Z" transform="translate(-6.03 190.12)"/><path class="cls-23" d="M470.68,387.76a10.87,10.87,0,0,0,2.32-.13,4.31,4.31,0,0,0,1.58-.58,2.38,2.38,0,0,0,.91-1,3,3,0,0,0,.29-1.32,4.42,4.42,0,0,0-1.07-2.67,15.39,15.39,0,0,0-3.5-3H455.84v-6h24.29v5.29l-3.54.21a9.67,9.67,0,0,1,1.67,1.35,8.39,8.39,0,0,1,1.28,1.68,7.73,7.73,0,0,1,.83,2,10,10,0,0,1,.28,2.46,8,8,0,0,1-.63,3.27,6.17,6.17,0,0,1-1.88,2.39,8.33,8.33,0,0,1-3.12,1.43,16.07,16.07,0,0,1-4.34.4Z" transform="translate(-6.03 190.12)"/><path class="cls-24" d="M455.84,414.68l8.17-5.54-8.17-5.58v-7.05l12.24,9.11L480.13,397v7.1l-8,5.45,8,5.38v6.55l-12-8.37-12.28,8.83Z" transform="translate(-6.03 190.12)"/><path class="cls-25" d="M111,39.88a17.91,17.91,0,0,1-4.52,12.19q-4,4.62-11.21,4.86-1.39,0-7.63,0c-.78,0-2,0-3.53-.08s-2.74-.07-3.53-.07c-.46,0-.69-.18-.69-.55q0-2.62.2-7.9c.14-3.51.21-6.15.21-7.9s-.07-4.58-.21-8.24-.2-6.39-.2-8.21q0-.51.69-.6a55.82,55.82,0,0,1,5.58-.19c4.9,0,8.09.07,9.54.21a18.39,18.39,0,0,1,8.87,2.87,14.62,14.62,0,0,1,4.75,6A17.87,17.87,0,0,1,111,39.88Zm-9.16,0a9.24,9.24,0,0,0-2.41-6.6A8.36,8.36,0,0,0,93,30.63c-2.46,0-3.68.32-3.68,1,0,.94,0,2.35,0,4.24s0,3.31,0,4.25,0,2.31,0,4.17,0,3.25,0,4.19c0,.69,1.27,1,3.82,1a8.12,8.12,0,0,0,6.51-2.75A10.2,10.2,0,0,0,101.87,39.88Z" transform="translate(-6.03 190.12)"/><path class="cls-26" d="M139.22,49.4a31.51,31.51,0,0,1-.41,3.77,14.41,14.41,0,0,1-.76,3.57.9.9,0,0,1-.79.45,5.34,5.34,0,0,1-.72-.07q-1.74-.24-10.19-.24l-5.47,0-5.45,0c-.53,0-.79-.23-.79-.69q0-2.69.3-8c.2-3.57.3-6.26.3-8s-.1-5.21-.29-10.16c0-1.28-.14-3.18-.26-5.72l0-.33c0-.37.17-.55.6-.55,1.18,0,2.95,0,5.32.09s4.14.1,5.32.1,2.92,0,5.26-.1,4.1-.09,5.26-.09q1.25,0,1.44.93c.08.37.2,1.48.37,3.33s.25,3,.25,3.39-.16.5-.48.5l-.5,0q-6.36-.53-11.43-.53-1.27,0-1.56.6a7.43,7.43,0,0,0-.12,1.84,3.36,3.36,0,0,0,.48,2.15,2.07,2.07,0,0,0,1.56.46l.93,0c.46,0,.84,0,1.15,0q3,0,6.09-.16l1.32-.12a10.4,10.4,0,0,1,1.29-.1c.38,0,.57.18.57.55a36.81,36.81,0,0,0-.43,3.66c-.12,1.27-.19,2.55-.19,3.82q0,.48-.69.48l-2.15-.24q-1.37-.14-6.22-.14h-2.53c-.66,0-1,.16-1.15.48,0,.08,0,.57,0,1.48a7,7,0,0,0,.24,2.34q.41.92,3.06,1.08h3.49c.85,0,2.1-.08,3.77-.23s2.91-.22,3.74-.22C139,48.54,139.22,48.82,139.22,49.4Z" transform="translate(-6.03 190.12)"/><path class="cls-27" d="M155.91,56.93a32.28,32.28,0,0,1-3.68-.1,1.16,1.16,0,0,1-.77-.69L146,45.36q-4.34-8.69-4.33-9.83c0-1.26,0-3.15.13-5.68s.13-4.42.13-5.68c0-.59.16-.88.48-.88q1.44,0,4.35.12t4.38.12c.39,0,.59.16.59.5q0,1.93-.27,5.82c-.18,2.59-.28,4.53-.28,5.82q0,1.48,4.86,10.59,1.31-2.35,3-5.81c1.49-3.09,2.24-5,2.24-5.69,0-1.16,0-2.91,0-5.24s-.05-4.09-.05-5.25q0-.64.21-.72h.77c.88,0,2.2,0,4-.13s3.1-.13,4-.13q.72,0,.72.57c0,1.23,0,3.08-.06,5.56s-.06,4.34-.06,5.58q0,1.48-4.71,10.91-1.87,3.39-5.38,10.23a2.17,2.17,0,0,1-.32.58,1.86,1.86,0,0,1-.61.11C158.87,56.9,157.61,56.93,155.91,56.93Z" transform="translate(-6.03 190.12)"/><path class="cls-28" d="M188.31,63.82v-49h5.38v49Z" transform="translate(-6.03 190.12)"/><path class="cls-29" d="M215.61,24.77h-6.86V20.23h12.84V49.47h7V54H207.91V49.47h7.7Z" transform="translate(-6.03 190.12)"/><path class="cls-30" d="M240.48,29.72V45.55a5,5,0,0,0,.74,3,2.59,2.59,0,0,0,2.25,1,4.22,4.22,0,0,0,2.81-1.21,20.87,20.87,0,0,0,2.85-3.27V29.72H255V54h-5.05l-.14-3.58a19.75,19.75,0,0,1-1.56,1.69,8.87,8.87,0,0,1-1.7,1.31,8.51,8.51,0,0,1-2,.83,9.09,9.09,0,0,1-2.41.3,8,8,0,0,1-3.26-.61,6.11,6.11,0,0,1-2.33-1.73,7.57,7.57,0,0,1-1.4-2.69,12.25,12.25,0,0,1-.47-3.5V29.72Z" transform="translate(-6.03 190.12)"/><path class="cls-31" d="M276.65,54l-9-12.14V54h-5.84V20.23h5.84V40l8.49-10.28h7.29l-9.85,11.07L284.28,54Z" transform="translate(-6.03 190.12)"/><path class="cls-32" d="M303.58,54l-9-12.14V54h-5.83V20.23h5.83V40l8.49-10.28h7.29l-9.85,11.07L311.2,54Z" transform="translate(-6.03 190.12)"/><path class="cls-33" d="M330.69,54l-.14-3.18a17.25,17.25,0,0,1-1.6,1.5,10,10,0,0,1-1.85,1.18,9.69,9.69,0,0,1-2.18.78,11.73,11.73,0,0,1-2.6.27,8.89,8.89,0,0,1-3.27-.55,6.47,6.47,0,0,1-2.37-1.53,6.38,6.38,0,0,1-1.45-2.36,9.35,9.35,0,0,1-.49-3.06,7.15,7.15,0,0,1,.73-3.19,6.88,6.88,0,0,1,2.23-2.51,11.36,11.36,0,0,1,3.73-1.64,20.36,20.36,0,0,1,5.24-.6h3.18V37.66a5,5,0,0,0-.26-1.69,3,3,0,0,0-.85-1.28,3.93,3.93,0,0,0-1.52-.81,7.88,7.88,0,0,0-2.29-.29,19,19,0,0,0-4.25.49,22.49,22.49,0,0,0-4.05,1.38V30.8a22.31,22.31,0,0,1,4-1.15,24.45,24.45,0,0,1,4.75-.46,18.44,18.44,0,0,1,4.64.52,8.4,8.4,0,0,1,3.19,1.54,6.21,6.21,0,0,1,1.85,2.57,9.91,9.91,0,0,1,.6,3.6V54Zm-.84-10.73h-3.56a9.55,9.55,0,0,0-2.51.28,5.09,5.09,0,0,0-1.67.79,3.15,3.15,0,0,0-.95,1.16,3.36,3.36,0,0,0-.3,1.4,2.74,2.74,0,0,0,1,2.26,4,4,0,0,0,2.61.78,4.57,4.57,0,0,0,2.53-.89,18,18,0,0,0,2.89-2.53Z" transform="translate(-6.03 190.12)"/><path class="cls-34" d="M342.65,54V50l11.88-15.23h-11.6v-5h19.3v4.11l-11.62,15h11.81V54Z" transform="translate(-6.03 190.12)"/><path class="cls-35" d="M384.94,39.17a10.22,10.22,0,0,0-.13-2.32,4.5,4.5,0,0,0-.57-1.58,2.4,2.4,0,0,0-1-.91,2.92,2.92,0,0,0-1.32-.29,4.4,4.4,0,0,0-2.66,1.07,15.15,15.15,0,0,0-3,3.5V54h-6V29.72h5.28l.22,3.54a8.81,8.81,0,0,1,1.35-1.67,8.32,8.32,0,0,1,1.67-1.28,7.8,7.8,0,0,1,2.05-.83,9.88,9.88,0,0,1,2.46-.29,8,8,0,0,1,3.26.64A6.16,6.16,0,0,1,389,31.7a8.17,8.17,0,0,1,1.44,3.13,16.06,16.06,0,0,1,.39,4.34Z" transform="translate(-6.03 190.12)"/><path class="cls-36" d="M411.87,54l-5.55-8.17L400.75,54h-7.06l9.11-12.24-8.63-12.05h7.1l5.46,8,5.38-8h6.55l-8.37,12L419.11,54Z" transform="translate(-6.03 190.12)"/><path class="cls-37" d="M111,467.88a17.91,17.91,0,0,1-4.52,12.19q-4,4.62-11.21,4.86-1.39,0-7.63.05c-.78,0-2,0-3.53-.08s-2.74-.07-3.53-.07c-.46,0-.69-.18-.69-.55q0-2.62.2-7.9c.14-3.51.21-6.15.21-7.9s-.07-4.58-.21-8.24-.2-6.39-.2-8.21q0-.51.69-.6a55.82,55.82,0,0,1,5.58-.19c4.9,0,8.09.07,9.54.21a18.39,18.39,0,0,1,8.87,2.87,14.62,14.62,0,0,1,4.75,6A17.87,17.87,0,0,1,111,467.88Zm-9.16,0a9.24,9.24,0,0,0-2.41-6.6A8.36,8.36,0,0,0,93,458.63c-2.46,0-3.68.32-3.68,1,0,.94,0,2.35,0,4.24s0,3.31,0,4.25,0,2.31,0,4.17,0,3.25,0,4.19c0,.69,1.27,1,3.82,1a8.12,8.12,0,0,0,6.51-2.75A10.2,10.2,0,0,0,101.87,467.88Z" transform="translate(-6.03 190.12)"/><path class="cls-38" d="M139.22,477.4a31.51,31.51,0,0,1-.41,3.77,14.41,14.41,0,0,1-.76,3.57.9.9,0,0,1-.79.45,5.34,5.34,0,0,1-.72-.07q-1.74-.24-10.19-.24l-5.47,0-5.45,0c-.53,0-.79-.23-.79-.69q0-2.68.3-8.05c.2-3.57.3-6.26.3-8s-.1-5.21-.29-10.16c0-1.28-.14-3.18-.26-5.72l0-.33c0-.37.17-.55.6-.55,1.18,0,2.95,0,5.32.09s4.14.1,5.32.1,2.92,0,5.26-.1,4.1-.09,5.26-.09q1.25,0,1.44.93c.08.37.2,1.48.37,3.33s.25,3,.25,3.39-.16.5-.48.5l-.5,0q-6.36-.53-11.43-.53-1.27,0-1.56.6a7.43,7.43,0,0,0-.12,1.84,3.36,3.36,0,0,0,.48,2.15,2.07,2.07,0,0,0,1.56.46l.93,0c.46,0,.84,0,1.15,0q3,0,6.09-.16l1.32-.12a10.4,10.4,0,0,1,1.29-.1c.38,0,.57.18.57.55a36.81,36.81,0,0,0-.43,3.66c-.12,1.27-.19,2.55-.19,3.82q0,.48-.69.48l-2.15-.24q-1.37-.13-6.22-.14h-2.53c-.66,0-1,.16-1.15.48,0,.08,0,.57,0,1.48a7,7,0,0,0,.24,2.34q.41.91,3.06,1.08h3.49c.85,0,2.1-.08,3.77-.23s2.91-.22,3.74-.22C139,476.54,139.22,476.82,139.22,477.4Z" transform="translate(-6.03 190.12)"/><path class="cls-39" d="M155.91,484.93a32.28,32.28,0,0,1-3.68-.1,1.16,1.16,0,0,1-.77-.69L146,473.36q-4.34-8.69-4.33-9.83c0-1.26,0-3.15.13-5.68s.13-4.42.13-5.68c0-.59.16-.88.48-.88q1.44,0,4.35.12t4.38.12c.39,0,.59.16.59.5q0,1.94-.27,5.82c-.18,2.59-.28,4.53-.28,5.82q0,1.49,4.86,10.59,1.31-2.36,3-5.81c1.49-3.09,2.24-5,2.24-5.69,0-1.16,0-2.91,0-5.24s-.05-4.09-.05-5.25q0-.64.21-.72h.77c.88,0,2.2,0,4-.13s3.1-.13,4-.13q.72,0,.72.57c0,1.23,0,3.08-.06,5.56s-.06,4.34-.06,5.58q0,1.49-4.71,10.91-1.87,3.39-5.38,10.23a2.17,2.17,0,0,1-.32.58,1.86,1.86,0,0,1-.61.11C158.87,484.9,157.61,484.93,155.91,484.93Z" transform="translate(-6.03 190.12)"/><path class="cls-40" d="M188.31,491.82v-49h5.38v49Z" transform="translate(-6.03 190.12)"/><path class="cls-41" d="M215.61,452.77h-6.86v-4.54h12.84v29.24h7V482H207.91v-4.54h7.7Z" transform="translate(-6.03 190.12)"/><path class="cls-42" d="M240.48,457.72v15.83a5,5,0,0,0,.74,3,2.59,2.59,0,0,0,2.25,1,4.22,4.22,0,0,0,2.81-1.21,20.87,20.87,0,0,0,2.85-3.27V457.72H255V482h-5.05l-.14-3.58a19.75,19.75,0,0,1-1.56,1.69,8.87,8.87,0,0,1-1.7,1.31,8.51,8.51,0,0,1-2,.83,9.09,9.09,0,0,1-2.41.3,8,8,0,0,1-3.26-.61,6.11,6.11,0,0,1-2.33-1.73,7.57,7.57,0,0,1-1.4-2.69,12.25,12.25,0,0,1-.47-3.5V457.72Z" transform="translate(-6.03 190.12)"/><path class="cls-43" d="M276.65,482l-9-12.14V482h-5.84V448.23h5.84V468l8.49-10.28h7.29l-9.85,11.07L284.28,482Z" transform="translate(-6.03 190.12)"/><path class="cls-44" d="M303.58,482l-9-12.14V482h-5.83V448.23h5.83V468l8.49-10.28h7.29l-9.85,11.07L311.2,482Z" transform="translate(-6.03 190.12)"/><path class="cls-45" d="M330.69,482l-.14-3.18a17.25,17.25,0,0,1-1.6,1.5,10,10,0,0,1-1.85,1.18,9.69,9.69,0,0,1-2.18.78,11.73,11.73,0,0,1-2.6.27,8.89,8.89,0,0,1-3.27-.55,6.47,6.47,0,0,1-2.37-1.53,6.38,6.38,0,0,1-1.45-2.36,9.35,9.35,0,0,1-.49-3.06,7.15,7.15,0,0,1,.73-3.19,6.88,6.88,0,0,1,2.23-2.51,11.36,11.36,0,0,1,3.73-1.64,20.36,20.36,0,0,1,5.24-.6h3.18v-1.46a5,5,0,0,0-.26-1.69,3,3,0,0,0-.85-1.28,3.93,3.93,0,0,0-1.52-.81,7.88,7.88,0,0,0-2.29-.29,19,19,0,0,0-4.25.49,22.49,22.49,0,0,0-4.05,1.38V458.8a22.31,22.31,0,0,1,4-1.15,24.45,24.45,0,0,1,4.75-.46,18.44,18.44,0,0,1,4.64.52,8.4,8.4,0,0,1,3.19,1.54,6.21,6.21,0,0,1,1.85,2.57,9.91,9.91,0,0,1,.6,3.6V482Zm-.84-10.73h-3.56a9.55,9.55,0,0,0-2.51.28,5.09,5.09,0,0,0-1.67.79,3.15,3.15,0,0,0-.95,1.16,3.36,3.36,0,0,0-.3,1.4,2.74,2.74,0,0,0,1,2.26,4,4,0,0,0,2.61.78,4.57,4.57,0,0,0,2.53-.89,18,18,0,0,0,2.89-2.53Z" transform="translate(-6.03 190.12)"/><path class="cls-46" d="M342.65,482V478l11.88-15.23h-11.6v-5h19.3v4.11l-11.62,15h11.81V482Z" transform="translate(-6.03 190.12)"/><path class="cls-47" d="M384.94,467.17a10.22,10.22,0,0,0-.13-2.32,4.5,4.5,0,0,0-.57-1.58,2.4,2.4,0,0,0-1-.91,2.92,2.92,0,0,0-1.32-.29,4.4,4.4,0,0,0-2.66,1.07,15.15,15.15,0,0,0-3,3.5V482h-6V457.72h5.28l.22,3.54a8.81,8.81,0,0,1,1.35-1.67,8.32,8.32,0,0,1,1.67-1.28,7.8,7.8,0,0,1,2.05-.83,9.88,9.88,0,0,1,2.46-.29,8,8,0,0,1,3.26.64A6.16,6.16,0,0,1,389,459.7a8.17,8.17,0,0,1,1.44,3.13,16.06,16.06,0,0,1,.39,4.34Z" transform="translate(-6.03 190.12)"/><path class="cls-48" d="M411.87,482l-5.55-8.17L400.75,482h-7.06l9.11-12.24-8.63-12h7.1l5.46,8,5.38-8h6.55l-8.37,12L419.11,482Z" transform="translate(-6.03 190.12)"/><path class="cls-49" d="M813.29,48.08a24.5,24.5,0,0,1-6.17,16.66q-5.46,6.32-15.33,6.64-1.89.06-10.42.06c-1.06,0-2.67,0-4.82-.1s-3.75-.1-4.81-.1c-.64,0-1-.25-1-.75q0-3.58.28-10.79t.27-10.8q0-3.76-.27-11.26c-.19-5-.28-8.74-.28-11.22,0-.46.31-.73,1-.82q2.31-.26,7.61-.26,10.06,0,13,.3,7.74.78,12.12,3.92a19.71,19.71,0,0,1,6.5,8.23A24.39,24.39,0,0,1,813.29,48.08Zm-12.51,0a12.63,12.63,0,0,0-3.3-9,11.42,11.42,0,0,0-8.82-3.62c-3.36,0-5,.44-5,1.34,0,1.28,0,3.22-.07,5.8s-.06,4.51-.06,5.8,0,3.16.06,5.7.07,4.44.07,5.73c0,.94,1.74,1.4,5.22,1.4a11.13,11.13,0,0,0,8.89-3.75A13.94,13.94,0,0,0,800.78,48.08Z" transform="translate(-6.03 190.12)"/><path class="cls-50" d="M851.81,61.08a43,43,0,0,1-.56,5.17,19.83,19.83,0,0,1-1,4.86,1.2,1.2,0,0,1-1.08.62,8.81,8.81,0,0,1-1-.09q-2.39-.33-13.92-.33l-7.48,0q-5,0-7.45,0c-.72,0-1.07-.31-1.07-.94q0-3.66.4-11c.28-4.89.41-8.55.41-11s-.13-7.11-.39-13.88q-.1-2.62-.36-7.81l0-.46c0-.5.23-.75.81-.75q2.43,0,7.27.13t7.27.13q2.39,0,7.19-.13t7.19-.13c1.13,0,1.78.42,2,1.27.11.5.28,2,.5,4.56s.35,4.08.35,4.62-.22.69-.66.69l-.68,0q-8.7-.72-15.62-.72c-1.15,0-1.86.27-2.12.81a10.1,10.1,0,0,0-.17,2.52,4.58,4.58,0,0,0,.66,2.94,2.82,2.82,0,0,0,2.12.62l1.28,0c.63,0,1.15,0,1.56,0,2.75,0,5.52-.07,8.33-.23l1.8-.16a15.24,15.24,0,0,1,1.77-.13q.78,0,.78.75a45.53,45.53,0,0,0-.59,5c-.17,1.74-.26,3.48-.26,5.23,0,.43-.32.65-1,.65l-2.94-.33q-1.86-.19-8.49-.19h-3.46c-.9,0-1.42.22-1.57.65,0,.11,0,.79,0,2a9.53,9.53,0,0,0,.33,3.2c.37.83,1.77,1.32,4.18,1.47h4.77c1.16,0,2.87-.11,5.15-.31s4-.31,5.11-.31Q851.81,59.91,851.81,61.08Z" transform="translate(-6.03 190.12)"/><path class="cls-51" d="M874.61,71.38a45.35,45.35,0,0,1-5-.14,1.59,1.59,0,0,1-1-.94l-7.48-14.74q-5.92-11.85-5.92-13.42,0-2.58.18-7.76c.12-3.46.18-6,.18-7.76,0-.81.22-1.21.66-1.21q2,0,5.94.16t6,.17c.54,0,.82.22.82.68q0,2.66-.38,8t-.37,7.95q0,2,6.63,14.47c1.19-2.15,2.56-4.8,4.08-7.93q3.07-6.34,3.07-7.78,0-2.39-.06-7.17t-.07-7.17c0-.59.1-.92.3-1h1c1.2,0,3-.06,5.44-.18s4.24-.18,5.44-.18c.65,0,1,.26,1,.78q0,2.52-.08,7.6c-.06,3.39-.08,5.93-.08,7.63q0,2-6.44,14.89-2.55,4.65-7.35,14a3.42,3.42,0,0,1-.44.8,2.81,2.81,0,0,1-.83.14C878.66,71.33,876.94,71.38,874.61,71.38Z" transform="translate(-6.03 190.12)"/><path class="cls-52" d="M918.88,80.79V13.88h7.35V80.79Z" transform="translate(-6.03 190.12)"/><path class="cls-53" d="M956.19,27.44h-9.38V21.23h17.55v40h9.57v6.21H945.67V61.18h10.52Z" transform="translate(-6.03 190.12)"/><path class="cls-54" d="M990.17,34.2V55.83a6.91,6.91,0,0,0,1,4.1,3.56,3.56,0,0,0,3.07,1.39,5.72,5.72,0,0,0,3.84-1.65,29,29,0,0,0,3.9-4.46v-21h8V67.39h-6.89l-.19-4.9a28.47,28.47,0,0,1-2.13,2.32,12.31,12.31,0,0,1-2.33,1.78,11.38,11.38,0,0,1-2.75,1.14,12,12,0,0,1-3.28.41,11,11,0,0,1-4.46-.83,8.42,8.42,0,0,1-3.19-2.37,10.34,10.34,0,0,1-1.91-3.67,17,17,0,0,1-.64-4.79V34.2Z" transform="translate(-6.03 190.12)"/><path class="cls-55" d="M1039.6,67.39,1027.35,50.8V67.39h-8V21.23h8v27l11.59-14h10l-13.46,15.13L1050,67.39Z" transform="translate(-6.03 190.12)"/><path class="cls-56" d="M1076.38,67.39,1064.13,50.8V67.39h-8V21.23h8v27l11.6-14h10l-13.46,15.13,14.57,18.06Z" transform="translate(-6.03 190.12)"/><path class="cls-57" d="M1113.43,67.39l-.2-4.34a21,21,0,0,1-2.19,2,13.28,13.28,0,0,1-5.5,2.68,15.7,15.7,0,0,1-3.54.37,12.3,12.3,0,0,1-4.48-.75,9,9,0,0,1-3.23-2.09,8.52,8.52,0,0,1-2-3.23,12.44,12.44,0,0,1-.67-4.19,9.52,9.52,0,0,1,1-4.34,9.21,9.21,0,0,1,3-3.43,15.89,15.89,0,0,1,5.1-2.25,27.73,27.73,0,0,1,7.17-.82h4.35v-2a7,7,0,0,0-.36-2.31,4.24,4.24,0,0,0-1.16-1.75,5.79,5.79,0,0,0-2.08-1.11,10.81,10.81,0,0,0-3.13-.39,25.68,25.68,0,0,0-5.8.67,30.14,30.14,0,0,0-5.54,1.88V35.67a32.38,32.38,0,0,1,5.5-1.57,33.54,33.54,0,0,1,6.49-.62,25,25,0,0,1,6.34.7,11.38,11.38,0,0,1,4.36,2.11,8.4,8.4,0,0,1,2.53,3.51,13.49,13.49,0,0,1,.82,4.92V67.39Zm-1.14-14.67h-4.87a12.52,12.52,0,0,0-3.43.4,6.68,6.68,0,0,0-2.29,1.07,4.21,4.21,0,0,0-1.29,1.59,4.58,4.58,0,0,0-.41,1.91,3.76,3.76,0,0,0,1.31,3.09,5.53,5.53,0,0,0,3.56,1.06,6.25,6.25,0,0,0,3.46-1.21,25.35,25.35,0,0,0,4-3.46Z" transform="translate(-6.03 190.12)"/><path class="cls-58" d="M1129.77,67.39V61.84L1146,41h-15.84V34.2h26.36v5.62l-15.88,20.55h16.14v7Z" transform="translate(-6.03 190.12)"/><path class="cls-59" d="M1187.56,47.1a15.06,15.06,0,0,0-.18-3.16,6,6,0,0,0-.79-2.16,3.25,3.25,0,0,0-1.32-1.24,4,4,0,0,0-1.8-.39,6,6,0,0,0-3.64,1.45,20.8,20.8,0,0,0-4.13,4.79v21h-8.17V34.2h7.22l.3,4.83a13.3,13.3,0,0,1,1.84-2.28,11.48,11.48,0,0,1,2.29-1.75,10.81,10.81,0,0,1,2.79-1.13,13.73,13.73,0,0,1,3.37-.39,10.85,10.85,0,0,1,4.46.87,8.39,8.39,0,0,1,3.26,2.56,11,11,0,0,1,2,4.26,21.67,21.67,0,0,1,.54,5.93Z" transform="translate(-6.03 190.12)"/><path class="cls-60" d="M1224.34,67.39l-7.57-11.17-7.62,11.17h-9.63L1212,50.67,1200.17,34.2h9.7l7.45,10.91,7.35-10.91h8.95l-11.43,16.4,12,16.79Z" transform="translate(-6.03 190.12)"/><path class="cls-61" d="M781.29,211.08a24.5,24.5,0,0,1-6.17,16.66q-5.46,6.31-15.33,6.64-1.89.06-10.42.06c-1.06,0-2.67,0-4.82-.1s-3.75-.1-4.81-.1c-.64,0-1-.25-1-.75q0-3.59.28-10.79t.27-10.8q0-3.77-.27-11.26c-.19-5-.28-8.74-.28-11.22,0-.46.31-.73,1-.82q2.31-.25,7.61-.26,10.06,0,13,.3,7.74.78,12.12,3.92a19.71,19.71,0,0,1,6.5,8.23A24.39,24.39,0,0,1,781.29,211.08Zm-12.51,0a12.63,12.63,0,0,0-3.3-9,11.42,11.42,0,0,0-8.82-3.62c-3.36,0-5,.44-5,1.34,0,1.28,0,3.22-.07,5.8s-.06,4.51-.06,5.8,0,3.16.06,5.7.07,4.44.07,5.73c0,.94,1.74,1.4,5.22,1.4a11.13,11.13,0,0,0,8.89-3.75A13.94,13.94,0,0,0,768.78,211.08Z" transform="translate(-6.03 190.12)"/><path class="cls-62" d="M819.81,224.08a43,43,0,0,1-.56,5.17,19.83,19.83,0,0,1-1,4.86,1.2,1.2,0,0,1-1.08.62,8.81,8.81,0,0,1-1-.09q-2.39-.33-13.92-.33l-7.48,0q-5,0-7.45,0c-.72,0-1.07-.31-1.07-.94q0-3.66.4-11c.28-4.89.41-8.55.41-11s-.13-7.11-.39-13.88q-.1-2.62-.36-7.81l0-.46c0-.5.23-.75.81-.75q2.43,0,7.27.13t7.27.13q2.39,0,7.19-.13t7.19-.13c1.13,0,1.78.42,2,1.27.11.5.28,2,.5,4.56s.35,4.08.35,4.62-.22.69-.66.69l-.68,0q-8.7-.72-15.62-.72c-1.15,0-1.86.27-2.12.81a10.1,10.1,0,0,0-.17,2.52,4.58,4.58,0,0,0,.66,2.94,2.82,2.82,0,0,0,2.12.62l1.28-.05c.63,0,1.15,0,1.56,0,2.75,0,5.52-.07,8.33-.23l1.8-.16a15.24,15.24,0,0,1,1.77-.13q.78,0,.78.75a45.53,45.53,0,0,0-.59,5c-.17,1.74-.26,3.48-.26,5.23,0,.43-.32.65-1,.65l-2.94-.33q-1.86-.19-8.49-.19h-3.46c-.9,0-1.42.22-1.57.65,0,.11,0,.79,0,2a9.53,9.53,0,0,0,.33,3.2c.37.83,1.77,1.32,4.18,1.47h4.77c1.16,0,2.87-.11,5.15-.31s4-.31,5.11-.31Q819.81,222.91,819.81,224.08Z" transform="translate(-6.03 190.12)"/><path class="cls-63" d="M842.61,234.38a45.35,45.35,0,0,1-5-.14,1.59,1.59,0,0,1-1-.94l-7.48-14.74q-5.92-11.85-5.92-13.42,0-2.58.18-7.76c.12-3.46.18-6,.18-7.76,0-.81.22-1.21.66-1.21q2,0,5.94.16t6,.17c.54,0,.82.22.82.68q0,2.66-.38,8t-.37,8q0,2,6.63,14.47c1.19-2.15,2.56-4.8,4.08-7.93q3.07-6.35,3.07-7.78,0-2.39-.06-7.17t-.07-7.17c0-.59.1-.92.3-1h1c1.2,0,3-.06,5.44-.18s4.24-.18,5.44-.18c.65,0,1,.26,1,.78q0,2.52-.08,7.6c-.06,3.39-.08,5.93-.08,7.63q0,2-6.44,14.89-2.55,4.65-7.35,14a3.42,3.42,0,0,1-.44.8,2.81,2.81,0,0,1-.83.14C846.66,234.33,844.94,234.38,842.61,234.38Z" transform="translate(-6.03 190.12)"/><path class="cls-64" d="M473.29-155.92a24.5,24.5,0,0,1-6.17,16.66q-5.46,6.31-15.33,6.64-1.89.06-10.42.06c-1.06,0-2.67,0-4.82-.1s-3.75-.1-4.81-.1c-.64,0-.95-.25-.95-.75q0-3.59.28-10.79t.27-10.8q0-3.77-.27-11.26c-.19-5-.28-8.74-.28-11.22,0-.46.31-.73.95-.82q2.31-.25,7.61-.26,10.06,0,13,.3,7.74.78,12.12,3.92a19.71,19.71,0,0,1,6.5,8.23A24.39,24.39,0,0,1,473.29-155.92Zm-12.51,0a12.63,12.63,0,0,0-3.3-9,11.42,11.42,0,0,0-8.82-3.62c-3.36,0-5,.44-5,1.34,0,1.28,0,3.22-.07,5.8s-.06,4.51-.06,5.8,0,3.16.06,5.7.07,4.44.07,5.73c0,.94,1.74,1.4,5.22,1.4a11.13,11.13,0,0,0,8.89-3.75A13.94,13.94,0,0,0,460.78-155.92Z" transform="translate(-6.03 190.12)"/><path class="cls-65" d="M511.81-142.92a43,43,0,0,1-.56,5.17,19.83,19.83,0,0,1-1,4.86,1.2,1.2,0,0,1-1.08.62,8.81,8.81,0,0,1-1-.09q-2.38-.33-13.92-.33l-7.48,0q-5,0-7.45,0c-.72,0-1.07-.31-1.07-.94q0-3.66.4-11c.28-4.89.41-8.55.41-11s-.13-7.11-.39-13.88q-.11-2.62-.36-7.81l0-.46c-.05-.5.23-.75.81-.75q2.43,0,7.27.13t7.27.13q2.38,0,7.19-.13t7.19-.13c1.13,0,1.78.42,2,1.27.11.5.28,2,.5,4.56s.35,4.08.35,4.62-.22.69-.66.69l-.68,0q-8.7-.72-15.62-.72c-1.15,0-1.86.27-2.12.81a10.1,10.1,0,0,0-.17,2.52,4.58,4.58,0,0,0,.66,2.94,2.82,2.82,0,0,0,2.12.62l1.28-.05c.63,0,1.15,0,1.56,0,2.75,0,5.52-.07,8.33-.23l1.8-.16a15.24,15.24,0,0,1,1.77-.13q.78,0,.78.75a45.53,45.53,0,0,0-.59,5c-.17,1.74-.26,3.48-.26,5.23,0,.43-.32.65-.95.65l-2.94-.33q-1.86-.19-8.49-.19h-3.46c-.9,0-1.42.22-1.57.65,0,.11,0,.79,0,2a9.53,9.53,0,0,0,.33,3.2c.37.83,1.77,1.32,4.18,1.47h4.77c1.16,0,2.87-.11,5.15-.31s4-.31,5.11-.31Q511.81-144.09,511.81-142.92Z" transform="translate(-6.03 190.12)"/><path class="cls-66" d="M534.61-132.62a45.35,45.35,0,0,1-5-.14,1.59,1.59,0,0,1-1-.94l-7.48-14.74q-5.92-11.85-5.92-13.42,0-2.58.18-7.76c.12-3.46.18-6,.18-7.76,0-.81.22-1.21.66-1.21q2,0,5.94.16t6,.17c.54,0,.82.22.82.68q0,2.66-.38,8t-.37,8q0,2,6.63,14.47c1.19-2.15,2.56-4.8,4.08-7.93q3.07-6.35,3.07-7.78,0-2.39-.06-7.17t-.07-7.17c0-.59.1-.92.3-1h1c1.2,0,3-.06,5.44-.18s4.24-.18,5.44-.18c.65,0,1,.26,1,.78q0,2.52-.08,7.6c-.06,3.39-.08,5.93-.08,7.63q0,2-6.44,14.89-2.55,4.65-7.35,14a3.42,3.42,0,0,1-.44.8,2.81,2.81,0,0,1-.83.14C538.66-132.67,536.94-132.62,534.61-132.62Z" transform="translate(-6.03 190.12)"/><path class="cls-67" d="M578.88-123.21v-66.91h7.35v66.91Z" transform="translate(-6.03 190.12)"/><path class="cls-68" d="M616.19-176.56h-9.38v-6.21h17.55v40h9.57v6.21H605.67v-6.21h10.52Z" transform="translate(-6.03 190.12)"/><path class="cls-69" d="M650.17-169.8v21.63a6.91,6.91,0,0,0,1,4.1,3.56,3.56,0,0,0,3.07,1.39,5.72,5.72,0,0,0,3.84-1.65,29,29,0,0,0,3.9-4.46v-21h8v33.19h-6.89l-.19-4.9a28.47,28.47,0,0,1-2.13,2.32,12.31,12.31,0,0,1-2.33,1.78,11.38,11.38,0,0,1-2.75,1.14,12,12,0,0,1-3.28.41,11,11,0,0,1-4.46-.83,8.42,8.42,0,0,1-3.19-2.37,10.34,10.34,0,0,1-1.91-3.67,17,17,0,0,1-.64-4.79V-169.8Z" transform="translate(-6.03 190.12)"/><path class="cls-70" d="M699.6-136.61,687.35-153.2v16.59h-8v-46.16h8v27l11.59-14.05h10l-13.46,15.13L710-136.61Z" transform="translate(-6.03 190.12)"/><path class="cls-71" d="M736.38-136.61,724.13-153.2v16.59h-8v-46.16h8v27l11.6-14.05h10l-13.46,15.13,14.57,18.06Z" transform="translate(-6.03 190.12)"/><path class="cls-72" d="M773.43-136.61l-.2-4.34a21,21,0,0,1-2.19,2,13.83,13.83,0,0,1-2.51,1.62,13.71,13.71,0,0,1-3,1.06,15.7,15.7,0,0,1-3.54.37,12.3,12.3,0,0,1-4.48-.75,9,9,0,0,1-3.23-2.09,8.52,8.52,0,0,1-2-3.23,12.44,12.44,0,0,1-.67-4.19,9.52,9.52,0,0,1,1-4.34,9.21,9.21,0,0,1,3-3.43,15.89,15.89,0,0,1,5.1-2.25,27.73,27.73,0,0,1,7.17-.82h4.35v-2a7,7,0,0,0-.36-2.31,4.24,4.24,0,0,0-1.16-1.75,5.79,5.79,0,0,0-2.08-1.11,10.81,10.81,0,0,0-3.13-.39,25.68,25.68,0,0,0-5.8.67,30.14,30.14,0,0,0-5.54,1.88v-6.37a32.38,32.38,0,0,1,5.5-1.57,33.54,33.54,0,0,1,6.49-.62,25,25,0,0,1,6.34.7,11.38,11.38,0,0,1,4.36,2.11,8.4,8.4,0,0,1,2.53,3.51,13.49,13.49,0,0,1,.82,4.92v22.67Zm-1.14-14.67h-4.87a12.52,12.52,0,0,0-3.43.4,6.68,6.68,0,0,0-2.29,1.07,4.21,4.21,0,0,0-1.29,1.59,4.58,4.58,0,0,0-.41,1.91,3.76,3.76,0,0,0,1.31,3.09,5.53,5.53,0,0,0,3.56,1.06,6.25,6.25,0,0,0,3.46-1.21,25.35,25.35,0,0,0,4-3.46Z" transform="translate(-6.03 190.12)"/><path class="cls-73" d="M789.77-136.61v-5.55L806-163H790.16v-6.83h26.36v5.62l-15.88,20.55h16.14v7Z" transform="translate(-6.03 190.12)"/><path class="cls-74" d="M847.56-156.9a15.06,15.06,0,0,0-.18-3.16,6,6,0,0,0-.79-2.16,3.25,3.25,0,0,0-1.32-1.24,4,4,0,0,0-1.8-.39,6,6,0,0,0-3.64,1.45,20.8,20.8,0,0,0-4.13,4.79v21h-8.17V-169.8h7.22l.3,4.83a13.3,13.3,0,0,1,1.84-2.28,11.48,11.48,0,0,1,2.29-1.75,10.81,10.81,0,0,1,2.79-1.13,13.73,13.73,0,0,1,3.37-.39,10.85,10.85,0,0,1,4.46.87,8.39,8.39,0,0,1,3.26,2.56,11,11,0,0,1,2,4.26,21.67,21.67,0,0,1,.54,5.93Z" transform="translate(-6.03 190.12)"/><path class="cls-75" d="M884.34-136.61l-7.57-11.17-7.62,11.17h-9.63L872-153.33,860.17-169.8h9.7l7.45,10.91,7.35-10.91h9l-11.43,16.4,12,16.79Z" transform="translate(-6.03 190.12)"/><path class="cls-76" d="M208.79,199.62a40.7,40.7,0,0,1-10.25,27.67q-9.06,10.46-25.44,11-3.15.1-17.3.1-2.66,0-8-.16t-8-.16c-1.05,0-1.57-.42-1.57-1.25q0-6,.46-17.92t.46-17.93q0-6.24-.46-18.68t-.46-18.64c0-.75.52-1.21,1.57-1.35q3.85-.44,12.64-.43,16.69,0,21.64.48,12.85,1.3,20.12,6.51A33,33,0,0,1,205,182.54,40.67,40.67,0,0,1,208.79,199.62Zm-20.77,0q0-9.17-5.48-15-5.53-6-14.65-6c-5.57,0-8.35.75-8.35,2.23q0,3.19-.11,9.63t-.11,9.62c0,2.1,0,5.25.11,9.47s.11,7.38.11,9.51q0,2.34,8.68,2.34,9.38,0,14.75-6.24Q188,209.28,188,199.62Z" transform="translate(-6.03 190.12)"/><path class="cls-77" d="M272.74,221.21a69.89,69.89,0,0,1-.93,8.57q-1,6.78-1.73,8.08a2,2,0,0,1-1.79,1,12.73,12.73,0,0,1-1.63-.16q-4-.54-23.1-.54-4.19,0-12.43-.06t-12.36,0c-1.19,0-1.79-.53-1.79-1.57q0-6.07.68-18.26t.68-18.25q0-6.18-.66-23.05-.15-4.33-.59-13l-.06-.76c-.07-.83.38-1.25,1.36-1.25q4,0,12.07.22t12.07.22q3.94,0,11.93-.22t11.93-.22c1.88,0,3,.71,3.25,2.12q.27,1.25.84,7.57t.57,7.67q0,1.14-1.08,1.14-.33,0-1.14-.06-14.43-1.18-25.93-1.19c-1.91,0-3.09.45-3.52,1.36a17,17,0,0,0-.27,4.17c0,2.46.36,4.09,1.08,4.88s1.79,1,3.53,1c.36,0,1.06,0,2.11-.09s1.92-.08,2.61-.08q6.83,0,13.83-.38l3-.27a27.9,27.9,0,0,1,2.93-.22c.87,0,1.3.42,1.3,1.25,0-.76-.32,2-1,8.3-.29,2.89-.43,5.79-.43,8.68,0,.72-.52,1.08-1.57,1.08l-4.88-.54q-3.09-.33-14.11-.33h-5.74c-1.49,0-2.36.37-2.61,1.09,0,.18,0,1.3,0,3.36a16.07,16.07,0,0,0,.54,5.32c.62,1.37,2.93,2.19,6.94,2.44h7.92c1.92,0,4.76-.17,8.54-.52s6.61-.51,8.49-.51Q272.74,219.26,272.74,221.21Z" transform="translate(-6.03 190.12)"/><path class="cls-78" d="M310.59,238.3a79.86,79.86,0,0,1-8.35-.22,2.67,2.67,0,0,1-1.73-1.57L288.08,212q-9.81-19.68-9.81-22.29,0-4.27.3-12.88t.29-12.88c0-1.34.37-2,1.09-2q3.26,0,9.87.27t9.93.28c.9,0,1.35.38,1.35,1.13q0,4.4-.62,13.21t-.63,13.21q0,3.36,11,24,3-5.37,6.78-13.17,5.1-10.53,5.1-12.91,0-4-.11-11.91t-.1-11.9c0-1,.16-1.52.48-1.63h1.74q3,0,9-.3t9-.3c1.09,0,1.63.44,1.63,1.3q0,4.18-.14,12.62t-.13,12.66q0,3.36-10.69,24.73-4.23,7.71-12.2,23.22a5.15,5.15,0,0,1-.73,1.32,4.26,4.26,0,0,1-1.39.25C317.32,238.22,314.46,238.3,310.59,238.3Z" transform="translate(-6.03 190.12)"/><path class="cls-79" d="M80.56,338.12V266.23h7.9v71.89Z" transform="translate(-6.03 190.12)"/><path class="cls-80" d="M120.65,280.8H110.58v-6.67h18.85v42.93h10.29v6.67H109.35v-6.67h11.3Z" transform="translate(-6.03 190.12)"/><path class="cls-81" d="M157.16,288.06V311.3a7.47,7.47,0,0,0,1.09,4.41,3.81,3.81,0,0,0,3.3,1.49,6.18,6.18,0,0,0,4.13-1.77,31,31,0,0,0,4.19-4.79V288.06h8.57v35.67H171l-.21-5.26a31,31,0,0,1-2.28,2.49,13,13,0,0,1-2.51,1.91,12.08,12.08,0,0,1-2.95,1.23,13.43,13.43,0,0,1-3.53.44,11.87,11.87,0,0,1-4.79-.9,9,9,0,0,1-3.42-2.54,11,11,0,0,1-2.06-4,18.22,18.22,0,0,1-.68-5.14V288.06Z" transform="translate(-6.03 190.12)"/><path class="cls-82" d="M210.28,323.73,197.11,305.9v17.83h-8.56v-49.6h8.56v29l12.47-15.1h10.7l-14.46,16.26,15.66,19.41Z" transform="translate(-6.03 190.12)"/><path class="cls-83" d="M249.81,323.73,236.64,305.9v17.83h-8.56v-49.6h8.56v29l12.47-15.1h10.7l-14.46,16.26L261,323.73Z" transform="translate(-6.03 190.12)"/><path class="cls-84" d="M289.62,323.73l-.21-4.67a24.32,24.32,0,0,1-2.36,2.2,15,15,0,0,1-2.7,1.73,14,14,0,0,1-3.21,1.15,17.4,17.4,0,0,1-3.81.4,13.14,13.14,0,0,1-4.81-.81,9.76,9.76,0,0,1-3.48-2.24,9.45,9.45,0,0,1-2.12-3.48,13.42,13.42,0,0,1-.72-4.49,10.31,10.31,0,0,1,1.07-4.67,10,10,0,0,1,3.27-3.69,16.94,16.94,0,0,1,5.47-2.42,29.85,29.85,0,0,1,7.71-.88h4.67v-2.14a7.36,7.36,0,0,0-.39-2.47,4.46,4.46,0,0,0-1.24-1.88,5.87,5.87,0,0,0-2.23-1.2,11.68,11.68,0,0,0-3.37-.42,27.28,27.28,0,0,0-6.24.72,32.34,32.34,0,0,0-5.95,2v-6.85a34.46,34.46,0,0,1,5.92-1.68,36,36,0,0,1,7-.67,26.54,26.54,0,0,1,6.81.76,12.24,12.24,0,0,1,4.68,2.26,9.08,9.08,0,0,1,2.73,3.78,14.68,14.68,0,0,1,.87,5.28v24.36ZM288.39,308h-5.23a14,14,0,0,0-3.69.42,7.12,7.12,0,0,0-2.46,1.16,4.52,4.52,0,0,0-1.38,1.7,4.83,4.83,0,0,0-.44,2.06,4,4,0,0,0,1.4,3.31,5.91,5.91,0,0,0,3.83,1.14,6.68,6.68,0,0,0,3.72-1.3,26.39,26.39,0,0,0,4.25-3.72Z" transform="translate(-6.03 190.12)"/><path class="cls-85" d="M307.17,323.73v-6l17.45-22.36h-17v-7.34h28.33v6l-17.06,22.08H336.2v7.55Z" transform="translate(-6.03 190.12)"/><path class="cls-86" d="M369.27,301.93a15.9,15.9,0,0,0-.19-3.4,6.78,6.78,0,0,0-.84-2.32,3.55,3.55,0,0,0-1.43-1.33,4.13,4.13,0,0,0-1.93-.43A6.48,6.48,0,0,0,361,296a22.17,22.17,0,0,0-4.44,5.14v22.57h-8.78V288.06h7.76l.32,5.2a14,14,0,0,1,2-2.46,12.92,12.92,0,0,1,2.46-1.88,11.78,11.78,0,0,1,3-1.21,14.6,14.6,0,0,1,3.61-.42,11.71,11.71,0,0,1,4.8.93,9.08,9.08,0,0,1,3.51,2.76,12.12,12.12,0,0,1,2.1,4.58,23.56,23.56,0,0,1,.58,6.37Z" transform="translate(-6.03 190.12)"/><path class="cls-87" d="M408.8,323.73l-8.14-12-8.18,12H382.12l13.38-18-12.68-17.7h10.43l8,11.73,7.9-11.73h9.62l-12.29,17.63,13,18Z" transform="translate(-6.03 190.12)"/></svg>