<svg id="Camada_1" data-name="Camada 1" xmlns="http://www.w3.org/2000/svg" viewBox="0 0 346.34 50"><path d="M95.15,248.82a18.34,18.34,0,0,1-4.61,12.45q-4.08,4.71-11.45,5c-1,0-3.54,0-7.79,0-.8,0-2,0-3.6-.07s-2.81-.07-3.6-.07c-.48,0-.71-.19-.71-.57q0-2.69.21-8.06t.2-8.07q0-2.82-.2-8.41t-.21-8.39c0-.34.23-.55.71-.61,1.15-.13,3.05-.2,5.68-.2,5,0,8.26.08,9.75.22a18.67,18.67,0,0,1,9,2.93,14.9,14.9,0,0,1,4.86,6.16A18.27,18.27,0,0,1,95.15,248.82Zm-9.35,0a9.4,9.4,0,0,0-2.47-6.74,8.5,8.5,0,0,0-6.59-2.71c-2.5,0-3.76.33-3.76,1,0,1,0,2.4,0,4.33s0,3.38,0,4.34,0,2.36,0,4.26,0,3.32,0,4.28c0,.7,1.3,1.05,3.91,1.05a8.28,8.28,0,0,0,6.64-2.81A10.43,10.43,0,0,0,85.8,248.82Z" transform="translate(-63.39 -223.26)"/><path d="M123.94,258.53a31.38,31.38,0,0,1-.42,3.86,14.56,14.56,0,0,1-.78,3.64.92.92,0,0,1-.81.46,5.6,5.6,0,0,1-.73-.07c-1.19-.16-4.65-.25-10.4-.25-1.25,0-3.12,0-5.59,0s-4.33,0-5.57,0c-.53,0-.8-.24-.8-.71,0-1.83.1-4.56.3-8.22s.31-6.39.31-8.21-.1-5.32-.3-10.38c0-1.3-.13-3.25-.26-5.83l0-.35c0-.37.17-.56.61-.56,1.21,0,3,0,5.43.1s4.23.1,5.44.1,3,0,5.37-.1,4.18-.1,5.37-.1c.84,0,1.33.32,1.46.95.08.38.21,1.51.38,3.41s.26,3.05.26,3.46-.16.51-.49.51l-.51,0q-6.5-.53-11.67-.53c-.87,0-1.39.2-1.59.61a7.75,7.75,0,0,0-.12,1.88,3.39,3.39,0,0,0,.49,2.19,2.07,2.07,0,0,0,1.58.47l1,0c.47,0,.86,0,1.17,0,2,0,4.12-.05,6.22-.17l1.35-.12c.55-.06,1-.1,1.31-.1a.51.51,0,0,1,.59.57,33.06,33.06,0,0,0-.44,3.73c-.13,1.3-.19,2.61-.19,3.91,0,.32-.24.49-.71.49l-2.2-.25c-.93-.1-3-.15-6.35-.15H110c-.66,0-1,.17-1.17.49,0,.08,0,.59,0,1.52A7.32,7.32,0,0,0,109,257c.28.62,1.32,1,3.13,1.1h3.56c.86,0,2.15-.08,3.85-.23s3-.24,3.82-.24C123.76,257.65,123.94,258,123.94,258.53Z" transform="translate(-63.39 -223.26)"/><path d="M141,266.22c-2.2,0-3.45,0-3.76-.09a1.21,1.21,0,0,1-.78-.71q-2.79-5.49-5.6-11-4.41-8.86-4.41-10c0-1.28,0-3.22.13-5.8s.13-4.51.13-5.79c0-.61.17-.91.49-.91,1,0,2.46,0,4.45.12s3.47.13,4.46.13c.41,0,.61.17.61.51q0,2-.28,5.94c-.18,2.65-.28,4.63-.28,6q0,1.51,5,10.81c.89-1.61,1.91-3.58,3.05-5.93,1.53-3.16,2.29-5.09,2.29-5.81,0-1.19,0-3,0-5.36s-.05-4.17-.05-5.36c0-.44.07-.68.22-.73h.78c.89,0,2.25,0,4.06-.13s3.17-.14,4.07-.14c.49,0,.73.2.73.59q0,1.88-.06,5.67c0,2.54-.06,4.44-.06,5.71,0,1-1.61,4.72-4.81,11.13q-1.91,3.46-5.49,10.45a2.76,2.76,0,0,1-.33.6,2.34,2.34,0,0,1-.63.11C144,266.19,142.72,266.22,141,266.22Z" transform="translate(-63.39 -223.26)"/><path d="M174.06,273.26v-50h5.49v50Z" transform="translate(-63.39 -223.26)"/><path d="M201.94,233.39h-7v-4.64H208v29.86h7.15v4.64H194.07v-4.64h7.87Z" transform="translate(-63.39 -223.26)"/><path d="M227.33,238.44V254.6a5.21,5.21,0,0,0,.75,3.07,2.67,2.67,0,0,0,2.3,1,4.31,4.31,0,0,0,2.87-1.24,21.18,21.18,0,0,0,2.91-3.33v-15.7h6v24.81H237l-.15-3.67a20.91,20.91,0,0,1-1.58,1.74,9.29,9.29,0,0,1-1.75,1.33,8.68,8.68,0,0,1-2.05.85,9,9,0,0,1-2.45.31,8.43,8.43,0,0,1-3.34-.62,6.49,6.49,0,0,1-2.38-1.77,7.64,7.64,0,0,1-1.42-2.75,12.46,12.46,0,0,1-.48-3.58V238.44Z" transform="translate(-63.39 -223.26)"/><path d="M264.26,263.25l-9.15-12.41v12.41h-6v-34.5h6v20.19l8.67-10.5h7.44l-10.06,11.31,10.89,13.5Z" transform="translate(-63.39 -223.26)"/><path d="M291.75,263.25l-9.15-12.41v12.41h-6v-34.5h6v20.19l8.67-10.5h7.44l-10.06,11.31,10.89,13.5Z" transform="translate(-63.39 -223.26)"/><path d="M319.44,263.25l-.15-3.25a18,18,0,0,1-1.63,1.53,10.37,10.37,0,0,1-1.88,1.2,9.9,9.9,0,0,1-2.24.8,12,12,0,0,1-2.64.28,9.29,9.29,0,0,1-3.35-.56,6.89,6.89,0,0,1-2.42-1.57,6.42,6.42,0,0,1-1.47-2.41,9.22,9.22,0,0,1-.5-3.13,7.15,7.15,0,0,1,.74-3.25,7,7,0,0,1,2.27-2.56,12,12,0,0,1,3.81-1.68,20.75,20.75,0,0,1,5.36-.61h3.25v-1.49a5.13,5.13,0,0,0-.27-1.72,3.08,3.08,0,0,0-.87-1.31,4,4,0,0,0-1.55-.83,7.9,7.9,0,0,0-2.34-.29,18.65,18.65,0,0,0-4.34.5,22.68,22.68,0,0,0-4.14,1.4v-4.76a24,24,0,0,1,4.12-1.17,24.68,24.68,0,0,1,4.84-.47,18.67,18.67,0,0,1,4.74.53A8.48,8.48,0,0,1,322,240a6.16,6.16,0,0,1,1.89,2.63,10,10,0,0,1,.61,3.67v16.95Zm-.85-11H315a9.49,9.49,0,0,0-2.57.3,4.8,4.8,0,0,0-1.7.8,3.21,3.21,0,0,0-1,1.19,3.43,3.43,0,0,0-.3,1.43,2.8,2.8,0,0,0,1,2.3,4.1,4.1,0,0,0,2.66.8,4.68,4.68,0,0,0,2.59-.91,18.29,18.29,0,0,0,3-2.59Z" transform="translate(-63.39 -223.26)"/><path d="M331.65,263.25V259.1l12.13-15.56H331.94v-5.1h19.7v4.2L339.78,258h12.06v5.25Z" transform="translate(-63.39 -223.26)"/><path d="M374.84,248.08a11.2,11.2,0,0,0-.14-2.36,4.67,4.67,0,0,0-.58-1.61,2.44,2.44,0,0,0-1-.93,2.92,2.92,0,0,0-1.35-.3,4.55,4.55,0,0,0-2.72,1.09,16.14,16.14,0,0,0-3.09,3.58v15.7h-6.1V238.44h5.4l.22,3.61a9.16,9.16,0,0,1,1.38-1.7,8.66,8.66,0,0,1,1.7-1.31,7.89,7.89,0,0,1,2.09-.84,10,10,0,0,1,2.52-.3,8.14,8.14,0,0,1,3.33.65,6.26,6.26,0,0,1,2.44,1.92,8.43,8.43,0,0,1,1.47,3.18,16.77,16.77,0,0,1,.4,4.43Z" transform="translate(-63.39 -223.26)"/><path d="M402.33,263.25l-5.67-8.35L391,263.25h-7.2l9.3-12.5-8.81-12.31h7.25l5.57,8.16,5.49-8.16h6.69l-8.55,12.26,9,12.55Z" transform="translate(-63.39 -223.26)"/></svg>