<svg id="Camada_1" data-name="Camada 1" xmlns="http://www.w3.org/2000/svg" xmlns:xlink="http://www.w3.org/1999/xlink" viewBox="0 0 205.54 221.68"><defs><style>.cls-1{fill:none;}.cls-2{clip-path:url(#clip-path);}.cls-3{fill:#2672ab;}.cls-4{fill:#d1ebff;}.cls-5,.cls-6{fill:#3f92d1;}.cls-5{opacity:0.5;}.cls-5,.cls-8{isolation:isolate;}.cls-7,.cls-8{fill:#fff;}.cls-8{opacity:0.3;}.cls-9{fill:#a8cff0;}.cls-10{fill:#72b5e8;}.cls-11{fill:#022652;}.cls-12{fill:#4f9fdb;}.cls-13{fill:#0fbab8;}.cls-14{fill:#03336e;}.cls-15{fill:#ffd70f;}.cls-16{fill:#eb4680;}</style><clipPath id="clip-path" transform="translate(-145.25 -129.39)"><rect class="cls-1" x="145.28" y="129.39" width="205.46" height="221.68"/></clipPath></defs><g class="cls-2"><path class="cls-3" d="M256.52,349.4,148.17,287a4.76,4.76,0,0,1-2-1.66,4.86,4.86,0,0,1-.89-2.43v-5.35c0-1.87,1.42,1.37,4.08-.16L210.86,242c4.94-2.84,12.42-3.15,16.69-.69L335.9,303.71c1.43.81,2.47-2.67,2.84-1.57.12.37,0,5.27,0,5.65,0,1.92-1.34,3.95-4.08,5.53l-61.38,35.37C268.27,351.56,260.8,351.87,256.52,349.4Z" transform="translate(-145.25 -129.39)"/><path class="cls-4" d="M256.52,344.15,148.17,281.76c-4.27-2.46-3.74-6.76,1.16-9.61l61.53-35.4c4.94-2.84,12.38-3.15,16.69-.68L335.9,298.45c4.29,2.46,3.75,6.76-1.16,9.61l-61.46,35.4C268.27,346.3,260.8,346.61,256.52,344.15Z" transform="translate(-145.25 -129.39)"/><path class="cls-5" d="M256.52,349.4c4.28,2.47,11.75,2.16,16.7-.68v-5.26c-5,2.84-12.42,3.16-16.7.7Z" transform="translate(-145.25 -129.39)"/><path class="cls-6" d="M256.52,344.16,148.17,281.77c-2.08-1.19-3-2.81-2.89-4.5a1.6,1.6,0,0,0,0,.31v5.35a4.89,4.89,0,0,0,.89,2.43,4.83,4.83,0,0,0,2,1.66L256.52,349.4Z" transform="translate(-145.25 -129.39)"/><path class="cls-7" d="M334.7,307.16l-61.42,35.41c-4.95,2.84-12.42,3.15-16.7.69L148.17,280.88a5,5,0,0,1-2.89-3.78c-.22,1.74.71,3.48,2.85,4.64l108.39,62.42c4.28,2.46,11.75,2.14,16.7-.7l61.48-35.38c2.9-1.66,4.26-3.83,4.07-5.8C338.54,304,337.17,305.76,334.7,307.16Z" transform="translate(-145.25 -129.39)"/><path class="cls-8" d="M231.85,322.36l-38.56-22.21c-.77-.44-.67-1.16.22-1.73L208,290.08a3.41,3.41,0,0,1,1.49-.42A3.32,3.32,0,0,1,211,290l38.56,22.19c.77.44.68,1.16-.22,1.73l-14.46,8.34a3.42,3.42,0,0,1-1.5.43,3.38,3.38,0,0,1-1.53-.3Z" transform="translate(-145.25 -129.39)"/><path class="cls-9" d="M193.51,299.33,208,291a3.41,3.41,0,0,1,1.49-.42,3.46,3.46,0,0,1,1.52.29l38.56,22.21a1.18,1.18,0,0,1,.36.3.66.66,0,0,0,.12-.32.79.79,0,0,0,0-.34.75.75,0,0,0-.17-.3,1,1,0,0,0-.28-.2L211,290a3.32,3.32,0,0,0-1.52-.31,3.41,3.41,0,0,0-1.49.42l-14.48,8.34c-.71.41-.91,1-.57,1.42a1.64,1.64,0,0,1,.57-.51Z" transform="translate(-145.25 -129.39)"/><path class="cls-10" d="M220.5,244.09l6.64,3.81a3.35,3.35,0,0,0,3.06,0,.86.86,0,0,0,.46-.33.92.92,0,0,0,0-1.09.88.88,0,0,0-.46-.34l-6.64-3.82a3.43,3.43,0,0,0-3.06,0,.94.94,0,0,0-.47.34,1,1,0,0,0,0,1.09.94.94,0,0,0,.47.34Zm11.38,6.54,3.15,1.81a3.33,3.33,0,0,0,1.52.36,3.38,3.38,0,0,0,1.53-.36.92.92,0,0,0,.46-.34.88.88,0,0,0,.18-.54.86.86,0,0,0-.18-.54.92.92,0,0,0-.46-.34l-3.2-1.78a3.43,3.43,0,0,0-3.06,0C231,249.36,231,250.14,231.88,250.63Zm7.87,4.54,3.16,1.85a3.22,3.22,0,0,0,1.52.37A3.29,3.29,0,0,0,246,257a.94.94,0,0,0,.46-.33.92.92,0,0,0,0-1.09,1,1,0,0,0-.46-.34l-3.15-1.81a3.31,3.31,0,0,0-3,0c-.87.44-.85,1.25,0,1.72Zm7.93,4.54,3.14,1.81a3.33,3.33,0,0,0,1.52.36,3.38,3.38,0,0,0,1.53-.36,1,1,0,0,0,.46-.34.92.92,0,0,0,0-1.09.92.92,0,0,0-.46-.34l-3.16-1.81a3.31,3.31,0,0,0-3,0C246.79,258.43,246.79,259.22,247.68,259.71Zm7.88,4.53,3.15,1.81a3.34,3.34,0,0,0,1.52.37,3.39,3.39,0,0,0,1.53-.37.89.89,0,0,0,.45-.34.9.9,0,0,0,.17-.53.94.94,0,0,0-.17-.54.89.89,0,0,0-.45-.34l-3.16-1.82a3.31,3.31,0,0,0-3,0c-.9.5-.9,1.27,0,1.76Zm7.87,4.54,3.16,1.81a3.33,3.33,0,0,0,1.52.36,3.41,3.41,0,0,0,1.53-.36.93.93,0,0,0,.62-.88.9.9,0,0,0-.17-.53.94.94,0,0,0-.45-.34L266.49,267a3.23,3.23,0,0,0-1.53-.37,3.29,3.29,0,0,0-1.53.37c-.88.45-.87,1.27,0,1.76Zm7.89,4.54,3.14,1.81a3.41,3.41,0,0,0,1.53.36,3.33,3.33,0,0,0,1.52-.36,1,1,0,0,0,.45-.34.9.9,0,0,0,0-1.08,1,1,0,0,0-.45-.34l-3.14-1.82a3.33,3.33,0,0,0-1.52-.36,3.38,3.38,0,0,0-1.53.36c-.88.56-.88,1.28,0,1.72Zm7.88,4.53,3.14,1.81a3.35,3.35,0,0,0,3.06,0c.84-.48.83-1.26,0-1.75l-3.15-1.82a3.33,3.33,0,0,0-3.05,0c-.88.5-.88,1.28,0,1.82Zm7.88,4.54,3.15,1.82a3.41,3.41,0,0,0,3,0,.92.92,0,0,0,0-1.75l-3.15-1.82a3.42,3.42,0,0,0-1.53-.37,3.34,3.34,0,0,0-1.52.37c-.89.48-.89,1.26,0,1.75Zm7.88,4.54,3.15,1.82a3.33,3.33,0,0,0,1.52.36,3.38,3.38,0,0,0,1.53-.36c.84-.49.84-1.27,0-1.75L298,285.17a3.54,3.54,0,0,0-1.53-.36,3.47,3.47,0,0,0-1.52.36c-.9.49-.89,1.27-.05,1.76Zm7.89,4.53,3.14,1.82a3.34,3.34,0,0,0,1.52.37,3.42,3.42,0,0,0,1.53-.37c.85-.48.83-1.26,0-1.75l-3.18-1.82a3.41,3.41,0,0,0-3.05,0c-.85.49-.85,1.27,0,1.75Zm7.87,4.54,3.14,1.82a3.42,3.42,0,0,0,1.53.37,3.35,3.35,0,0,0,1.53-.37.92.92,0,0,0,0-1.75l-3.15-1.82a3.33,3.33,0,0,0-1.52-.36,3.41,3.41,0,0,0-1.53.36c-.88.48-.88,1.26,0,1.75Zm8,4.64,3.16,1.81a3.31,3.31,0,0,0,3,0c.84-.47.84-1.26,0-1.75l-3.14-1.81a3.43,3.43,0,0,0-3.06,0,.87.87,0,0,0-.45.33.92.92,0,0,0-.19.53,1,1,0,0,0,.16.54,1,1,0,0,0,.45.35ZM213.44,248.43l2.73,1.56a3.84,3.84,0,0,0,3.49,0l2.71-1.55a1,1,0,0,0,.51-.39,1,1,0,0,0,0-1.23,1,1,0,0,0-.51-.39l-2.73-1.57a3.86,3.86,0,0,0-3.5,0l-2.71,1.56c-1,.53-1,1.43,0,2Zm14.08,6.11,2.7-1.58a1,1,0,0,0,.53-.38,1.06,1.06,0,0,0,0-1.24,1,1,0,0,0-.53-.38l-2.72-1.57a3.84,3.84,0,0,0-3.49,0l-2.71,1.55a1.12,1.12,0,0,0-.52.39,1,1,0,0,0-.19.61,1,1,0,0,0,.19.61,1.06,1.06,0,0,0,.52.39l2.73,1.57a3.86,3.86,0,0,0,1.73.41,3.72,3.72,0,0,0,1.73-.4Zm1.69,3,2.72,1.58a3.94,3.94,0,0,0,3.5,0l2.71-1.56a1,1,0,0,0,.52-.38,1,1,0,0,0,0-1.24,1,1,0,0,0-.52-.38L235.41,254a3.75,3.75,0,0,0-1.74-.42,3.79,3.79,0,0,0-1.75.42l-2.71,1.55a1.17,1.17,0,0,0-.5.38,1.19,1.19,0,0,0-.2.6,1.08,1.08,0,0,0,.18.6,1.07,1.07,0,0,0,.49.4Zm7.88,4.54,2.72,1.58a3.92,3.92,0,0,0,3.49,0l2.7-1.56a1,1,0,0,0,.73-1,1,1,0,0,0-.2-.62,1.09,1.09,0,0,0-.53-.39l-2.72-1.56a3.76,3.76,0,0,0-3.49,0L237.08,260a1.05,1.05,0,0,0-.5.38,1.09,1.09,0,0,0-.19.6,1.07,1.07,0,0,0,.17.6,1,1,0,0,0,.49.39Zm16.78,2.55L251.13,263a3.88,3.88,0,0,0-1.74-.42,3.92,3.92,0,0,0-1.75.42l-2.71,1.56a1,1,0,0,0-.51.38,1.07,1.07,0,0,0-.2.62,1,1,0,0,0,.2.61,1,1,0,0,0,.51.38l2.75,1.56a3.84,3.84,0,0,0,3.49,0l2.71-1.56a1,1,0,0,0,.5-.4,1,1,0,0,0,.18-.62,1,1,0,0,0-.21-.6,1,1,0,0,0-.52-.38Zm7.88,4.54L259,267.56a3.84,3.84,0,0,0-3.49,0l-2.7,1.56a1,1,0,0,0,0,2l2.73,1.58a3.75,3.75,0,0,0,1.74.42,3.79,3.79,0,0,0,1.75-.42l2.71-1.56a1,1,0,0,0,.54-.39,1,1,0,0,0,.2-.64,1,1,0,0,0-.22-.63,1.14,1.14,0,0,0-.57-.37Zm7.87,4.53-2.75-1.55a3.79,3.79,0,0,0-1.75-.42,3.75,3.75,0,0,0-1.74.42l-2.72,1.55a1.15,1.15,0,0,0-.51.39,1,1,0,0,0-.2.61,1,1,0,0,0,.2.61,1.08,1.08,0,0,0,.51.39l2.73,1.58a3.88,3.88,0,0,0,1.74.42,3.92,3.92,0,0,0,1.75-.42l2.71-1.56a1.06,1.06,0,0,0,.57-.37,1.11,1.11,0,0,0,.22-.65,1.05,1.05,0,0,0-.22-.64,1,1,0,0,0-.57-.38Zm7.89,4.55-2.73-1.58a3.84,3.84,0,0,0-3.49,0l-2.67,1.54a1,1,0,0,0-.51.38,1,1,0,0,0-.2.61,1.07,1.07,0,0,0,.2.62,1,1,0,0,0,.51.38l2.73,1.58a3.84,3.84,0,0,0,3.49,0l2.7-1.56a1,1,0,0,0,.5-.4,1,1,0,0,0,.18-.61,1.09,1.09,0,0,0-.21-.61,1,1,0,0,0-.53-.37Zm7.88,4.54-2.8-1.6a3.79,3.79,0,0,0-1.75-.42,3.75,3.75,0,0,0-1.74.42l-2.72,1.55a1.08,1.08,0,0,0-.51.39,1,1,0,0,0,0,1.22,1.08,1.08,0,0,0,.51.39l2.74,1.58a3.84,3.84,0,0,0,3.49,0l2.71-1.56a1.09,1.09,0,0,0,.52-.37,1,1,0,0,0,.21-.61,1.12,1.12,0,0,0-.18-.62,1.08,1.08,0,0,0-.51-.39Zm7.88,4.54-2.72-1.58a3.83,3.83,0,0,0-1.75-.42,3.75,3.75,0,0,0-1.74.42l-2.73,1.48a1,1,0,0,0-.51.39,1,1,0,0,0,0,1.22,1,1,0,0,0,.51.39l2.73,1.58a3.85,3.85,0,0,0,1.74.42,3.92,3.92,0,0,0,1.75-.42l2.71-1.56a1.11,1.11,0,0,0,.47-.39,1.12,1.12,0,0,0,.17-.59,1.08,1.08,0,0,0-.19-.58,1,1,0,0,0-.48-.39Zm-1,6.51,2.72,1.57a3.84,3.84,0,0,0,3.49,0l2.7-1.55a1.06,1.06,0,0,0,.52-.39,1.07,1.07,0,0,0,0-1.22,1.06,1.06,0,0,0-.52-.39l-2.72-1.58a3.91,3.91,0,0,0-1.75-.41,3.87,3.87,0,0,0-1.74.41l-2.75,1.59a1.05,1.05,0,0,0-.46.4,1.06,1.06,0,0,0-.17.58,1.12,1.12,0,0,0,.17.58,1.09,1.09,0,0,0,.47.38ZM309,296.36l-2.74-1.58a3.84,3.84,0,0,0-3.49,0L300,296.31a1.1,1.1,0,0,0-.51.39,1.06,1.06,0,0,0-.19.62,1.06,1.06,0,0,0,.7,1l2.72,1.57a3.91,3.91,0,0,0,1.75.41,3.87,3.87,0,0,0,1.74-.41l2.72-1.56a1.09,1.09,0,0,0,.52-.37,1.12,1.12,0,0,0,.21-.61,1.06,1.06,0,0,0-.19-.62,1,1,0,0,0-.51-.39ZM320.58,303l-6.23-3.58a3.92,3.92,0,0,0-3.49,0l-2.67,1.52c-1,.56-1,1.45,0,2l6.21,3.57a3.84,3.84,0,0,0,3.49,0L320.6,305a1,1,0,0,0,.49-.41,1,1,0,0,0,.17-.61,1,1,0,0,0-.2-.6,1.1,1.1,0,0,0-.52-.38ZM206.11,252.6l6.23,3.59a3.84,3.84,0,0,0,3.49,0l2.71-1.57a1,1,0,0,0,0-2L212.32,249a3.92,3.92,0,0,0-1.75-.42,3.88,3.88,0,0,0-1.74.42l-2.72,1.56a1,1,0,0,0-.52.38,1,1,0,0,0,0,1.24,1,1,0,0,0,.52.38Zm11.38,6.56,2.73,1.57a3.84,3.84,0,0,0,3.49,0l2.71-1.57a1.06,1.06,0,0,0,0-2l-2.72-1.56a3.79,3.79,0,0,0-1.75-.42,3.75,3.75,0,0,0-1.74.42l-2.72,1.56C216.53,257.71,216.53,258.6,217.49,259.16Zm10.6,6.1a3.86,3.86,0,0,0,3.5,0l2.7-1.56c1-.55,1-1.44,0-2l-2.73-1.57a3.84,3.84,0,0,0-3.49,0l-2.71,1.54c-1,.54-1,1.43,0,2Zm7.88,4.53a3.92,3.92,0,0,0,3.49,0l2.71-1.57a1,1,0,0,0,0-2l-2.75-1.55a3.92,3.92,0,0,0-1.75-.42,3.88,3.88,0,0,0-1.74.42l-2.72,1.57a1.06,1.06,0,0,0,0,2Zm7.86-.59-2.7,1.56c-1,.55-1,1.44,0,2l2.72,1.57a3.92,3.92,0,0,0,3.49,0l2.66-1.55a1,1,0,0,0,0-2l-2.72-1.57a3.79,3.79,0,0,0-1.72-.41,3.7,3.7,0,0,0-1.73.4Zm8,4.44-3,1.76a1.05,1.05,0,0,0-.48.35,1,1,0,0,0,0,1.12,1,1,0,0,0,.48.34L251.9,279a3.58,3.58,0,0,0,1.57.37A3.52,3.52,0,0,0,255,279l3.11-1.75a1,1,0,0,0,0-1.81l-3.06-1.76a3.53,3.53,0,0,0-1.6-.39,3.6,3.6,0,0,0-1.61.38Zm7.88,4.54-3,1.75a.93.93,0,0,0-.48.35.95.95,0,0,0,0,1.11.93.93,0,0,0,.48.35l3.06,1.76a3.49,3.49,0,0,0,3.13,0l3-1.75a.89.89,0,0,0,.46-.35.93.93,0,0,0,0-1.1A1,1,0,0,0,266,280l-3.06-1.76a3.45,3.45,0,0,0-1.57-.37,3.39,3.39,0,0,0-1.57.37Zm7.89,4.53-3,1.76a1,1,0,0,0-.48.34,1,1,0,0,0,0,1.12,1.05,1.05,0,0,0,.48.35l3.06,1.76a3.52,3.52,0,0,0,1.57.37,3.58,3.58,0,0,0,1.57-.37l3-1.75a1,1,0,0,0,.46-.35.93.93,0,0,0,0-1.1.94.94,0,0,0-.46-.35l-3.06-1.76a3.45,3.45,0,0,0-1.57-.37,3.38,3.38,0,0,0-1.56.37Zm7.87,4.54-3,1.75a1,1,0,0,0-.46.36,1,1,0,0,0,0,1.1,1,1,0,0,0,.46.35l3.06,1.77a3.54,3.54,0,0,0,3.15,0l3-1.75c.88-.5.87-1.3,0-1.8l-3.06-1.77a3.51,3.51,0,0,0-1.56-.37,3.58,3.58,0,0,0-1.57.37Zm7.88,4.58-3,1.76a1,1,0,0,0,0,1.81l3.06,1.76a3.58,3.58,0,0,0,1.57.37,3.51,3.51,0,0,0,1.56-.37l3.05-1.75a1,1,0,0,0,0-1.8l-3.06-1.78a3.52,3.52,0,0,0-1.57-.37,3.58,3.58,0,0,0-1.57.37Zm11.06,9.87,3-1.75a1,1,0,0,0,.47-.35,1,1,0,0,0,0-1.11.94.94,0,0,0-.47-.34l-3.06-1.77a3.52,3.52,0,0,0-3.14,0l-3,1.76a.9.9,0,0,0-.47.34.92.92,0,0,0,0,1.12,1,1,0,0,0,.47.35l3.06,1.76a3.44,3.44,0,0,0,1.58.35,3.58,3.58,0,0,0,1.57-.4Zm7.87,4.53,3-1.75a.9.9,0,0,0,.47-.35,1,1,0,0,0,0-1.1,1,1,0,0,0-.47-.35l-3.06-1.76a3.49,3.49,0,0,0-3.13,0l-3.05,1.75a.93.93,0,0,0-.48.35,1,1,0,0,0-.18.56,1,1,0,0,0,.18.56,1,1,0,0,0,.48.34l3.06,1.77a3.53,3.53,0,0,0,1.6.35,3.37,3.37,0,0,0,1.58-.4Zm11.08,1.08-3.06-1.76a3.52,3.52,0,0,0-3.14,0l-3,1.75a.93.93,0,0,0-.48.35,1,1,0,0,0-.18.56,1,1,0,0,0,.18.56,1,1,0,0,0,.48.34l3.06,1.77a3.58,3.58,0,0,0,1.57.37,3.52,3.52,0,0,0,1.57-.37l3.05-1.75a1,1,0,0,0,.51-.34.91.91,0,0,0,.19-.59,1,1,0,0,0-.2-.58.93.93,0,0,0-.51-.34Zm-114.77-50.6,9.88,5.7a3.58,3.58,0,0,0,1.57.37,3.52,3.52,0,0,0,1.57-.37l3-1.75c.87-.5.86-1.3,0-1.81l-9.89-5.69a3.51,3.51,0,0,0-1.56-.37,3.55,3.55,0,0,0-1.57.37l-3.05,1.75C197.77,255.4,197.77,256.21,198.64,256.71Zm14.71,8.44,3.06,1.76a3.55,3.55,0,0,0,1.57.37,3.51,3.51,0,0,0,1.56-.37l3.05-1.76a1,1,0,0,0,0-1.81l-3.07-1.67a3.46,3.46,0,0,0-1.57-.38,3.4,3.4,0,0,0-1.57.38l-3,1.75C212.47,263.87,212.48,264.68,213.35,265.15Zm7.88,4.53,3.06,1.77a3.52,3.52,0,0,0,3.14,0l3-1.66a1,1,0,0,0,0-1.81l-3.06-1.75a3.46,3.46,0,0,0-1.57-.38,3.4,3.4,0,0,0-1.57.38l-3,1.75a.93.93,0,0,0-.41.35.87.87,0,0,0-.16.52.91.91,0,0,0,.16.52,1,1,0,0,0,.41.35Zm7.83,4.57,3.06,1.77a3.58,3.58,0,0,0,1.57.37,3.52,3.52,0,0,0,1.57-.37l3.11-1.75a1,1,0,0,0,0-1.81l-3.06-1.75a3.42,3.42,0,0,0-1.57-.37,3.38,3.38,0,0,0-1.56.37l-3.12,1.74a1,1,0,0,0-.48.34,1,1,0,0,0,0,1.12,1,1,0,0,0,.48.34Zm14.08,6.31,3-1.76a.94.94,0,0,0,0-1.79l-3.06-1.77a3.58,3.58,0,0,0-1.57-.37,3.52,3.52,0,0,0-1.57.37l-3,1.75a1.05,1.05,0,0,0-.48.35,1,1,0,0,0,0,1.12,1,1,0,0,0,.48.34l3.06,1.77a3.51,3.51,0,0,0,1.59.38,3.7,3.7,0,0,0,1.6-.39Zm7.88,4.53,3-1.75a.94.94,0,0,0,.46-.35.93.93,0,0,0,0-1.1,1,1,0,0,0-.46-.35L251,279.78a3.54,3.54,0,0,0-3.15,0l-3,1.75a.93.93,0,0,0-.48.35.91.91,0,0,0-.18.56,1,1,0,0,0,.18.56,1,1,0,0,0,.48.34l3.06,1.77a3.61,3.61,0,0,0,1.59.37,3.36,3.36,0,0,0,1.58-.39Zm7.89,4.54,3-1.75a1,1,0,0,0,.47-.35.93.93,0,0,0,0-1.1.9.9,0,0,0-.47-.35l-3.06-1.76a3.4,3.4,0,0,0-1.57-.38,3.46,3.46,0,0,0-1.57.38l-3,1.71a1,1,0,0,0-.48.35.94.94,0,0,0-.18.56,1,1,0,0,0,.18.56,1,1,0,0,0,.48.34l3.08,1.79a3.55,3.55,0,0,0,1.57.37,3.51,3.51,0,0,0,1.56-.37Zm7.87,4.54,3-1.75c.87-.51.86-1.31,0-1.8l-3.06-1.77a3.51,3.51,0,0,0-1.56-.37,3.55,3.55,0,0,0-1.57.37l-3.05,1.75a1,1,0,0,0-.46.36,1,1,0,0,0,0,1.1,1.07,1.07,0,0,0,.46.36l3.06,1.76a3.58,3.58,0,0,0,1.6.37,3.41,3.41,0,0,0,1.59-.4Zm7.88,4.53,3-1.75a1,1,0,0,0,0-1.8l-3.06-1.76a3.52,3.52,0,0,0-3.14,0l-3,1.75a1,1,0,0,0,0,1.81l3.06,1.77a3.67,3.67,0,0,0,1.59.37,3.4,3.4,0,0,0,1.59-.39Zm7.88,4.54,3-1.75a1,1,0,0,0,.46-.35.93.93,0,0,0,0-1.1.89.89,0,0,0-.46-.35l-3-1.76a3.45,3.45,0,0,0-3.15,0l-3,1.75a1,1,0,0,0-.48.34,1,1,0,0,0-.18.56,1,1,0,0,0,.66.91l3.06,1.76a3.5,3.5,0,0,0,1.56.36,3.54,3.54,0,0,0,1.56-.37Zm1.69,2.77,3.06,1.77a3.52,3.52,0,0,0,1.57.37,3.58,3.58,0,0,0,1.57-.37l3-1.75a1,1,0,0,0,0-1.8l-3.06-1.77a3.58,3.58,0,0,0-1.57-.37,3.51,3.51,0,0,0-1.56.37l-3,1.76a.89.89,0,0,0-.46.35.94.94,0,0,0-.16.56.94.94,0,0,0,.66.88Zm21.83,5.47L298.28,307a3.52,3.52,0,0,0-1.57-.37,3.58,3.58,0,0,0-1.57.37l-3.05,1.75a1.05,1.05,0,0,0-.46.35,1,1,0,0,0-.17.56,1,1,0,0,0,.17.55,1.05,1.05,0,0,0,.46.35l7.79,4.48a3.52,3.52,0,0,0,3.14,0l3-1.75a1,1,0,0,0,.68-.89.86.86,0,0,0-.17-.56.94.94,0,0,0-.47-.36ZM191.32,261.13l14,8.13a4,4,0,0,0,3.55,0l2.77-1.56a1.09,1.09,0,0,0,.53-.39,1.12,1.12,0,0,0,.2-.63,1.07,1.07,0,0,0-.2-.63,1.09,1.09,0,0,0-.53-.39l-14-8.12a3.76,3.76,0,0,0-1.77-.43,3.8,3.8,0,0,0-1.78.43l-2.64,1.5a1.1,1.1,0,0,0-.85,1,1.08,1.08,0,0,0,.2.67,1.11,1.11,0,0,0,.57.4Zm19.26,11.08,2.66,1.54a3.87,3.87,0,0,0,1.74.41,4,4,0,0,0,1.75-.41l2.64-1.51a1.11,1.11,0,0,0,.53-.4,1.08,1.08,0,0,0,0-1.25,1.17,1.17,0,0,0-.53-.4l-2.57-1.56a3.93,3.93,0,0,0-1.78-.43,3.89,3.89,0,0,0-1.77.43l-2.63,1.51a1,1,0,0,0-.57.39,1.06,1.06,0,0,0-.22.65,1.12,1.12,0,0,0,.23.65,1,1,0,0,0,.57.38Zm7.93,4.54,2.65,1.53a3.88,3.88,0,0,0,3.55,0l2.63-1.51a1.09,1.09,0,0,0,.53-.39,1.07,1.07,0,0,0,.2-.63,1.12,1.12,0,0,0-.2-.63,1.09,1.09,0,0,0-.53-.39l-2.65-1.53a3.94,3.94,0,0,0-3.5,0l-2.63,1.51a1.08,1.08,0,0,0-.54.38,1.14,1.14,0,0,0-.22.62,1.09,1.09,0,0,0,.19.63,1,1,0,0,0,.52.41Zm7.87,4.54,2.68,1.53a3.92,3.92,0,0,0,3.49,0l2.63-1.51a1.08,1.08,0,0,0,0-2l-2.63-1.53a3.84,3.84,0,0,0-3.49,0l-2.64,1.51a1,1,0,0,0-.54.38,1.08,1.08,0,0,0-.21.62,1.12,1.12,0,0,0,.19.64,1.14,1.14,0,0,0,.52.4Zm7.88,4.53,2.65,1.54a3.94,3.94,0,0,0,3.5,0l2.64-1.51a1.11,1.11,0,0,0,.53-.4,1.08,1.08,0,0,0,0-1.25,1.17,1.17,0,0,0-.53-.4l-2.66-1.53a3.9,3.9,0,0,0-1.74-.41,4,4,0,0,0-1.75.41l-2.63,1.51a1.09,1.09,0,0,0-.53.39,1.07,1.07,0,0,0-.2.63,1,1,0,0,0,.19.63,1.09,1.09,0,0,0,.53.39Zm7.89,4.54,2.65,1.53a4,4,0,0,0,1.75.41,3.87,3.87,0,0,0,1.74-.41l2.65-1.52a1.08,1.08,0,0,0,0-2l-2.66-1.53a3.92,3.92,0,0,0-3.49,0l-2.65,1.55a1.09,1.09,0,0,0-.49,1.62,1.07,1.07,0,0,0,.5.39ZM250,294.9l2.68,1.58a4,4,0,0,0,3.49,0L258.8,295a1.08,1.08,0,0,0,0-2l-2.65-1.53a3.92,3.92,0,0,0-3.49,0L250,292.86a1.06,1.06,0,0,0-.52.39,1.09,1.09,0,0,0,.52,1.65Zm7.88,4.53,2.66,1.54a4,4,0,0,0,1.77.42,4.05,4.05,0,0,0,1.78-.42l2.62-1.52a1.08,1.08,0,0,0,0-2.05l-2.64-1.53a3.9,3.9,0,0,0-1.74-.41,4,4,0,0,0-1.75.41l-2.64,1.52a1.12,1.12,0,0,0-.55.38,1.1,1.1,0,0,0-.23.63,1.13,1.13,0,0,0,.2.64,1.14,1.14,0,0,0,.55.39Zm7.89,4.54,2.66,1.53a3.9,3.9,0,0,0,1.74.41,4,4,0,0,0,1.75-.41l2.64-1.52a1.08,1.08,0,0,0,0-2l-2.65-1.53a3.92,3.92,0,0,0-1.78-.42,3.88,3.88,0,0,0-1.77.42l-2.63,1.52a1,1,0,0,0-.54.4,1.08,1.08,0,0,0-.19.65,1.07,1.07,0,0,0,.8,1Zm7.88,4.54L276.3,310a4,4,0,0,0,1.75.41,3.9,3.9,0,0,0,1.74-.41l2.64-1.52a1.08,1.08,0,0,0,0-2L279.78,305a3.92,3.92,0,0,0-3.49,0l-2.63,1.52a1,1,0,0,0-.54.39,1,1,0,0,0-.21.63,1.14,1.14,0,0,0,.21.64,1.12,1.12,0,0,0,.55.38Zm7.88,4.53,2.65,1.54a4,4,0,0,0,3.49,0l2.63-1.52a1.08,1.08,0,0,0,0-2.05l-2.65-1.53a3.92,3.92,0,0,0-3.49,0L281.52,311a1.1,1.1,0,0,0-.55.4,1.09,1.09,0,0,0,0,1.27,1,1,0,0,0,.55.37Zm16.88,2.63-2.65-1.53a3.84,3.84,0,0,0-3.49,0l-2.64,1.5a1.06,1.06,0,0,0-.53.4,1,1,0,0,0,0,1.25,1.06,1.06,0,0,0,.53.4l2.65,1.53a4,4,0,0,0,3.55,0l2.64-1.51a1.14,1.14,0,0,0,.52-.4,1.12,1.12,0,0,0,.2-.63,1.09,1.09,0,0,0-.22-.63,1.07,1.07,0,0,0-.53-.38Zm-102-50.35-6.16-3.54a3.92,3.92,0,0,0-3.49,0l-2.64,1.51a1.09,1.09,0,0,0-.53.39,1.12,1.12,0,0,0-.2.63,1.07,1.07,0,0,0,.2.63,1.09,1.09,0,0,0,.53.39l6.16,3.55a3.9,3.9,0,0,0,1.74.41,4,4,0,0,0,1.75-.41l2.64-1.52C197.39,266.81,197.38,265.89,196.4,265.32Zm7.88,4.54-2.66-1.52a3.92,3.92,0,0,0-3.49,0l-2.64,1.52c-1,.55-1,1.47,0,2l2.65,1.53a4,4,0,0,0,3.55,0l2.63-1.52A1.09,1.09,0,0,0,204.28,269.86Zm7.87,4.57-2.65-1.52a3.92,3.92,0,0,0-3.49,0l-2.69,1.52c-1,.56-1,1.47,0,2l2.67,1.44a3.9,3.9,0,0,0,1.74.41,4,4,0,0,0,1.75-.41l2.63-1.52C213.14,275.88,213.14,275,212.15,274.43Zm55.17,31.77-49.9-28.79a3.9,3.9,0,0,0-1.74-.41,4,4,0,0,0-1.75.41l-2.63,1.52a1.08,1.08,0,0,0,0,2l49.93,28.76a4.08,4.08,0,0,0,1.75.4,4,4,0,0,0,1.74-.4l2.64-1.51a1.17,1.17,0,0,0,.53-.4,1.13,1.13,0,0,0,.2-.64,1.09,1.09,0,0,0-.22-.63,1.08,1.08,0,0,0-.55-.39Zm7.89,4.54-2.65-1.54a4,4,0,0,0-1.75-.41,3.87,3.87,0,0,0-1.74.41l-2.63,1.51a1.13,1.13,0,0,0-.54.4,1.08,1.08,0,0,0,0,1.25,1.2,1.2,0,0,0,.54.4l2.65,1.53a4,4,0,0,0,3.55,0l2.64-1.51a1.14,1.14,0,0,0,.56-.41,1.09,1.09,0,0,0,.19-.66,1,1,0,0,0-.24-.64,1.12,1.12,0,0,0-.58-.37Zm7.88,4.53-2.66-1.53a3.88,3.88,0,0,0-1.77-.42,3.92,3.92,0,0,0-1.78.42l-2.63,1.51a1.08,1.08,0,0,0,0,2l2.66,1.53a3.84,3.84,0,0,0,3.49,0l2.64-1.51a1.06,1.06,0,0,0,.58-.37,1,1,0,0,0,.23-.65,1,1,0,0,0-.2-.65,1.12,1.12,0,0,0-.56-.4Zm8,4.64-2.66-1.53a3.9,3.9,0,0,0-1.74-.41,4,4,0,0,0-1.75.41l-2.64,1.51a1.09,1.09,0,0,0-.53.39,1.12,1.12,0,0,0-.2.63,1.07,1.07,0,0,0,.2.63,1.09,1.09,0,0,0,.53.39l2.66,1.54a4,4,0,0,0,1.74.4,4.08,4.08,0,0,0,1.75-.4l2.63-1.53c1-.6,1-1.5,0-2.07Z" transform="translate(-145.25 -129.39)"/><path class="cls-9" d="M220.5,243.34l6.64,3.83a3.35,3.35,0,0,0,3.06,0,.94.94,0,0,0,.46-.33,1,1,0,0,0,.18-.53.91.91,0,0,0-.17-.54.92.92,0,0,0-.45-.35l-6.64-3.82a3.43,3.43,0,0,0-3.06,0,1,1,0,0,0-.45.34.9.9,0,0,0-.17.53.92.92,0,0,0,.16.53.87.87,0,0,0,.44.34Zm11.38,6.56,3.15,1.81a3.33,3.33,0,0,0,1.52.36,3.38,3.38,0,0,0,1.53-.36.92.92,0,0,0,.46-.34.88.88,0,0,0,.18-.54.91.91,0,0,0-.18-.55,1,1,0,0,0-.46-.33l-3.2-1.8a3.35,3.35,0,0,0-3.06,0C231,248.62,231,249.41,231.88,249.9Zm7.87,4.54,3.16,1.81a3.33,3.33,0,0,0,1.52.36,3.41,3.41,0,0,0,1.53-.36.95.95,0,0,0,.64-.88,1,1,0,0,0-.18-.55,1,1,0,0,0-.46-.34l-3.15-1.81a3.39,3.39,0,0,0-3,0A.93.93,0,0,0,239.75,254.44Zm7.93,4.53,3.14,1.81a3.34,3.34,0,0,0,1.52.37,3.39,3.39,0,0,0,1.53-.37.92.92,0,0,0,.46-1.42.92.92,0,0,0-.46-.34l-3.16-1.81a3.39,3.39,0,0,0-3,0C246.79,257.7,246.79,258.49,247.68,259Zm7.88,4.54,3.15,1.81a3.33,3.33,0,0,0,1.52.36,3.41,3.41,0,0,0,1.53-.36.92.92,0,0,0,.46-.34.88.88,0,0,0,.18-.54.86.86,0,0,0-.18-.54.92.92,0,0,0-.46-.34l-3.16-1.81a3.31,3.31,0,0,0-3,0c-.9.48-.9,1.27,0,1.76Zm7.87,4.54,3.16,1.81a3.33,3.33,0,0,0,1.52.36,3.41,3.41,0,0,0,1.53-.36.95.95,0,0,0,.64-.88,1,1,0,0,0-.18-.55,1,1,0,0,0-.46-.34l-3.15-1.81a3.35,3.35,0,0,0-1.53-.36,3.41,3.41,0,0,0-1.53.36c-.88.49-.87,1.28,0,1.77Zm7.89,4.53,3.12,1.85a3.39,3.39,0,0,0,1.53.37,3.34,3.34,0,0,0,1.52-.37.88.88,0,0,0,.46-.34.92.92,0,0,0,0-1.09.91.91,0,0,0-.46-.33l-3.14-1.81a3.39,3.39,0,0,0-1.53-.37,3.34,3.34,0,0,0-1.52.37c-.86.45-.86,1.25,0,1.72Zm7.88,4.54,3.14,1.81a3.35,3.35,0,0,0,3.06,0,.94.94,0,0,0,.47-.34.94.94,0,0,0,0-1.08.94.94,0,0,0-.47-.34l-3.15-1.81a3.33,3.33,0,0,0-3.05,0c-.88.5-.88,1.27,0,1.76Zm7.88,4.54,3.15,1.81a3.38,3.38,0,0,0,1.53.36,3.33,3.33,0,0,0,1.52-.36,1,1,0,0,0,.45-.34.94.94,0,0,0,.17-.54.9.9,0,0,0-.17-.53.89.89,0,0,0-.45-.34l-3.15-1.83a3.54,3.54,0,0,0-1.53-.36,3.47,3.47,0,0,0-1.52.36c-.89.5-.89,1.28,0,1.77ZM295,286.2l3.15,1.81a3.33,3.33,0,0,0,1.52.36,3.38,3.38,0,0,0,1.53-.36,1,1,0,0,0,.45-.34.94.94,0,0,0,0-1.08,1,1,0,0,0-.45-.34L298,284.43a3.41,3.41,0,0,0-1.53-.36,3.33,3.33,0,0,0-1.52.36c-.9.5-.89,1.28-.05,1.77Zm7.89,4.53,3.14,1.81a3.34,3.34,0,0,0,1.52.37,3.42,3.42,0,0,0,1.53-.37c.85-.48.83-1.26,0-1.75L305.86,289a3.39,3.39,0,0,0-1.53-.37,3.34,3.34,0,0,0-1.52.37c-.85.53-.85,1.26,0,1.75Zm7.87,4.54,3.14,1.82a3.41,3.41,0,0,0,1.53.36,3.35,3.35,0,0,0,1.53-.36.92.92,0,0,0,0-1.75l-3.15-1.82a3.34,3.34,0,0,0-1.52-.37,3.42,3.42,0,0,0-1.53.37c-.88.48-.88,1.26,0,1.8Zm8,4.64,3.16,1.82a3.31,3.31,0,0,0,3,0,.92.92,0,0,0,0-1.75l-3.14-1.81a3.35,3.35,0,0,0-3.06,0,.92.92,0,0,0-.69.88.93.93,0,0,0,.17.56.91.91,0,0,0,.49.35ZM213.44,247.7l2.73,1.56a3.84,3.84,0,0,0,3.49,0l2.66-1.52a1.06,1.06,0,0,0,.52-.39,1.07,1.07,0,0,0,0-1.22,1.06,1.06,0,0,0-.52-.39l-2.73-1.57a3.84,3.84,0,0,0-3.49,0l-2.71,1.57c-.95.48-.95,1.38,0,1.93Zm14.08,6.11,2.7-1.58a1,1,0,0,0,.53-.38,1.06,1.06,0,0,0,0-1.24,1,1,0,0,0-.53-.38l-2.72-1.57a3.84,3.84,0,0,0-3.49,0l-2.71,1.55c-1,.55-.94,1.44,0,2l2.73,1.57a3.9,3.9,0,0,0,3.46,0Zm1.69,3,2.72,1.57a3.86,3.86,0,0,0,3.5,0l2.71-1.56a1,1,0,0,0,.52-.38,1,1,0,0,0,0-1.24,1.06,1.06,0,0,0-.52-.39l-2.8-1.57a3.76,3.76,0,0,0-1.74-.43,3.8,3.8,0,0,0-1.75.43l-2.68,1.5c-1,.6-1,1.49,0,2.05Zm7.88,4.54,2.69,1.52a3.92,3.92,0,0,0,3.49,0l2.7-1.56a1.11,1.11,0,0,0,.53-.38,1.06,1.06,0,0,0,0-1.24,1.13,1.13,0,0,0-.53-.39l-2.72-1.56a3.78,3.78,0,0,0-3.5,0L237,259.35c-1,.48-1,1.38,0,1.93Zm16.78,2.55-2.74-1.57a3.75,3.75,0,0,0-1.74-.42,3.79,3.79,0,0,0-1.75.42l-2.71,1.56a1,1,0,0,0-.51.38,1,1,0,0,0,0,1.23,1,1,0,0,0,.51.38l2.75,1.55a3.92,3.92,0,0,0,3.49,0l2.71-1.56a1.07,1.07,0,0,0,.49-.4,1.09,1.09,0,0,0,.18-.61,1.06,1.06,0,0,0-.21-.6,1,1,0,0,0-.51-.38Zm7.88,4.54L259,266.83a3.75,3.75,0,0,0-1.74-.42,3.79,3.79,0,0,0-1.75.42l-2.7,1.55a1.06,1.06,0,0,0,0,2l2.73,1.57a3.88,3.88,0,0,0,1.74.42,3.92,3.92,0,0,0,1.75-.42l2.71-1.56a1.09,1.09,0,0,0,.53-.39,1,1,0,0,0,.19-.64,1,1,0,0,0-.22-.62,1,1,0,0,0-.55-.37Zm7.87,4.53-2.72-1.56a3.76,3.76,0,0,0-3.49,0l-2.71,1.55a1.06,1.06,0,0,0-.52.39,1.07,1.07,0,0,0,0,1.22,1.06,1.06,0,0,0,.52.39l2.72,1.57a3.84,3.84,0,0,0,3.49,0l2.71-1.55a1.08,1.08,0,0,0,.76-1,1.1,1.1,0,0,0-.23-.63,1.07,1.07,0,0,0-.56-.37Zm7.89,4.54-2.73-1.57a3.84,3.84,0,0,0-3.49,0l-2.67,1.54a1,1,0,0,0-.51.38,1,1,0,0,0-.2.61,1.07,1.07,0,0,0,.2.62,1.08,1.08,0,0,0,.51.38l2.73,1.58a3.84,3.84,0,0,0,3.49,0l2.7-1.56a1,1,0,0,0,.51-.4,1.06,1.06,0,0,0,.19-.62,1,1,0,0,0-.22-.61,1.06,1.06,0,0,0-.54-.37Zm7.88,4.54-2.8-1.59a3.79,3.79,0,0,0-1.75-.42,3.75,3.75,0,0,0-1.74.42L276.38,282a1.08,1.08,0,0,0-.51.39,1,1,0,0,0,0,1.22,1.08,1.08,0,0,0,.51.39l2.74,1.58a3.92,3.92,0,0,0,3.49,0l2.71-1.56a1,1,0,0,0,.52-.38,1.12,1.12,0,0,0,.21-.61,1.16,1.16,0,0,0-.19-.62,1.09,1.09,0,0,0-.5-.4Zm7.88,4.53L290.55,285a3.83,3.83,0,0,0-1.75-.42,3.75,3.75,0,0,0-1.74.42l-2.7,1.55a1.06,1.06,0,0,0-.52.39,1,1,0,0,0,0,1.22,1.06,1.06,0,0,0,.52.39l2.72,1.58a3.84,3.84,0,0,0,3.49,0l2.71-1.56a1.08,1.08,0,0,0,.55-.39,1.13,1.13,0,0,0,.2-.64,1.07,1.07,0,0,0-.8-1Zm-1,6.52,2.72,1.58a3.84,3.84,0,0,0,3.49,0l2.7-1.55a1.06,1.06,0,0,0,.52-.39,1.07,1.07,0,0,0,0-1.22,1.06,1.06,0,0,0-.52-.39l-2.78-1.58a3.84,3.84,0,0,0-3.49,0l-2.71,1.56a1,1,0,0,0-.45.4,1,1,0,0,0,0,1.14,1,1,0,0,0,.46.38ZM309,295.63l-2.74-1.58a3.84,3.84,0,0,0-3.49,0L300,295.58a1.06,1.06,0,0,0-.52.39,1.07,1.07,0,0,0,0,1.22,1.06,1.06,0,0,0,.52.39l2.72,1.58a3.91,3.91,0,0,0,1.75.41,3.87,3.87,0,0,0,1.74-.41L309,297.6a1,1,0,0,0,.52-.38,1,1,0,0,0,0-1.22,1,1,0,0,0-.51-.39Zm11.54,6.64-6.23-3.59a3.92,3.92,0,0,0-3.49,0l-2.67,1.53c-1,.56-1,1.45,0,2l6.21,3.57a3.84,3.84,0,0,0,3.49,0l2.71-1.55a1.07,1.07,0,0,0,.46-.41,1,1,0,0,0,.16-.59,1.08,1.08,0,0,0-.19-.58,1,1,0,0,0-.49-.38Zm-114.47-50.4,6.23,3.59a3.84,3.84,0,0,0,3.49,0l2.71-1.57a1,1,0,0,0,0-2l-6.22-3.59a3.79,3.79,0,0,0-1.75-.42,3.73,3.73,0,0,0-1.74.42l-2.72,1.56a1,1,0,0,0-.52.38,1,1,0,0,0,0,1.24A1,1,0,0,0,206.11,251.87Zm11.38,6.56,2.73,1.57a3.92,3.92,0,0,0,3.49,0l2.71-1.57a1.06,1.06,0,0,0,0-2l-2.72-1.56a3.79,3.79,0,0,0-1.75-.42,3.75,3.75,0,0,0-1.74.42l-2.72,1.56c-1,.59-1,1.44,0,2Zm10.6,6.1a3.86,3.86,0,0,0,3.5,0l2.7-1.56c1-.55,1-1.44,0-2l-2.73-1.57a3.84,3.84,0,0,0-3.49,0L225.36,261a1.06,1.06,0,0,0,0,2Zm7.88,4.54a3.92,3.92,0,0,0,3.49,0l2.7-1.6c1-.55,1-1.44,0-2L239.42,264a3.79,3.79,0,0,0-1.75-.42,3.75,3.75,0,0,0-1.74.42l-2.72,1.56a1.06,1.06,0,0,0,0,2Zm7.86-.59-2.7,1.56c-1,.55-1,1.44,0,2l2.72,1.57a3.84,3.84,0,0,0,3.49,0l2.66-1.5c1-.55,1-1.44,0-2l-2.72-1.56a4,4,0,0,0-1.72-.45,3.83,3.83,0,0,0-1.73.38Zm8,4.44-3,1.75a1,1,0,0,0-.48.35,1,1,0,0,0,0,1.12,1,1,0,0,0,.48.34l3.06,1.77a3.58,3.58,0,0,0,1.57.37,3.52,3.52,0,0,0,1.57-.37l3.11-1.76c.86-.49.85-1.29,0-1.81l-3.06-1.75a3.41,3.41,0,0,0-1.6-.39,3.47,3.47,0,0,0-1.61.38Zm7.88,4.54-3,1.75a.93.93,0,0,0-.48.35.95.95,0,0,0,0,1.11.93.93,0,0,0,.48.35l3.06,1.76a3.49,3.49,0,0,0,3.13,0l3-1.75a1,1,0,0,0,0-1.81l-3.06-1.75a3.46,3.46,0,0,0-1.57-.38,3.52,3.52,0,0,0-1.57.37Zm7.89,4.53-3,1.72a1,1,0,0,0-.48.35.94.94,0,0,0-.18.56,1,1,0,0,0,.18.56,1,1,0,0,0,.48.34l3.06,1.77a3.52,3.52,0,0,0,1.57.37,3.58,3.58,0,0,0,1.57-.37l3-1.76a1,1,0,0,0,0-1.81L270.78,282a3.44,3.44,0,0,0-1.57-.36,3.36,3.36,0,0,0-1.56.38Zm7.87,4.54-3,1.75a1,1,0,0,0-.46.36,1,1,0,0,0,0,1.1,1,1,0,0,0,.46.35l3.13,1.74a3.45,3.45,0,0,0,3.15,0l3-1.75c.88-.5.86-1.3,0-1.81l-3.06-1.75a3.52,3.52,0,0,0-1.6-.38A3.6,3.6,0,0,0,275.52,286.53Zm7.88,4.54-3,1.75a1,1,0,0,0,0,1.81l3.06,1.76a3.45,3.45,0,0,0,1.57.37,3.38,3.38,0,0,0,1.56-.37l3.05-1.75a1,1,0,0,0,0-1.8l-3.06-1.76a3.4,3.4,0,0,0-1.57-.38,3.58,3.58,0,0,0-1.57.37Zm11.06,9.86,3-1.75a1,1,0,0,0,.47-.35,1,1,0,0,0,0-1.1,1,1,0,0,0-.47-.35l-3.06-1.76a3.43,3.43,0,0,0-3.14,0l-3,1.75a.87.87,0,0,0-.47.35.92.92,0,0,0-.19.55,1,1,0,0,0,.19.56.87.87,0,0,0,.47.35l3.06,1.76a3.49,3.49,0,0,0,3.15,0Zm7.87,4.54,3-1.75a1,1,0,0,0,.47-.35,1,1,0,0,0,.17-.55,1,1,0,0,0-.17-.56.94.94,0,0,0-.47-.34l-3.06-1.77a3.49,3.49,0,0,0-3.13,0l-3.05,1.76a1,1,0,0,0-.48.34,1,1,0,0,0,0,1.12,1.05,1.05,0,0,0,.48.35l3.06,1.76a3.51,3.51,0,0,0,1.59.38,3.66,3.66,0,0,0,1.59-.39Zm11.08,1.08-3.06-1.77a3.52,3.52,0,0,0-3.14,0l-3,1.76a1,1,0,0,0-.48.34,1,1,0,0,0,0,1.12,1.05,1.05,0,0,0,.48.35l3.06,1.76a3.58,3.58,0,0,0,1.57.37,3.52,3.52,0,0,0,1.57-.37l3.05-1.75A1,1,0,0,0,313.41,306.55ZM198.64,256l9.88,5.69a3.58,3.58,0,0,0,1.57.37,3.52,3.52,0,0,0,1.57-.37l3-1.76a1,1,0,0,0,.48-.34,1,1,0,0,0,0-1.12,1.05,1.05,0,0,0-.48-.35l-9.89-5.68a3.38,3.38,0,0,0-1.56-.37,3.42,3.42,0,0,0-1.57.37l-3.05,1.74a1,1,0,0,0-.49.35.94.94,0,0,0-.18.56,1,1,0,0,0,.19.57,1,1,0,0,0,.49.34Zm14.71,8.47,3.06,1.75a3.43,3.43,0,0,0,1.57.38,3.39,3.39,0,0,0,1.56-.38l3.05-1.75a1,1,0,0,0,.48-.34,1,1,0,0,0,.18-.56,1,1,0,0,0-.66-.91l-3.06-1.76a3.52,3.52,0,0,0-3.14,0l-3,1.75c-.88.51-.87,1.36,0,1.82Zm7.88,4.54,3.06,1.76a3.52,3.52,0,0,0,3.14,0l3-1.75a1,1,0,0,0,0-1.81l-3.06-1.75a3.46,3.46,0,0,0-1.57-.38,3.4,3.4,0,0,0-1.57.38l-3,1.75a.9.9,0,0,0-.47.35,1,1,0,0,0,0,1.1A1,1,0,0,0,221.23,269Zm7.83,4.54,3.06,1.76a3.58,3.58,0,0,0,1.57.37,3.52,3.52,0,0,0,1.57-.37l3.11-1.75a1,1,0,0,0,0-1.81L235.31,270a3.55,3.55,0,0,0-1.57-.37,3.51,3.51,0,0,0-1.56.37l-3.12,1.75a1,1,0,0,0-.48.34,1,1,0,0,0,0,1.12,1.05,1.05,0,0,0,.48.35Zm14.08,6.3,3-1.76c.87-.5.86-1.3,0-1.81l-3.06-1.75a3.58,3.58,0,0,0-1.57-.37,3.52,3.52,0,0,0-1.57.37l-3,1.75a1,1,0,0,0-.48.35,1,1,0,0,0,0,1.12,1,1,0,0,0,.48.34l3.06,1.77a3.38,3.38,0,0,0,1.59.37,3.55,3.55,0,0,0,1.6-.38Zm7.88,4.53,3-1.75a1,1,0,0,0,0-1.81l-3-1.73a3.52,3.52,0,0,0-3.14,0l-3,1.75a1.05,1.05,0,0,0-.48.35,1,1,0,0,0-.18.56,1,1,0,0,0,.18.56,1,1,0,0,0,.48.34l3.06,1.77a3.44,3.44,0,0,0,1.58.35,3.4,3.4,0,0,0,1.56-.39Zm7.89,4.54,3.08-1.71a1,1,0,0,0,0-1.81l-3.06-1.75a3.52,3.52,0,0,0-3.14,0l-3,1.75a1.05,1.05,0,0,0-.48.35,1,1,0,0,0,0,1.12,1,1,0,0,0,.48.34l3.07,1.71a3.55,3.55,0,0,0,1.57.37,3.51,3.51,0,0,0,1.56-.37Zm7.87,4.54,3-1.76c.87-.49.86-1.3,0-1.8l-3.06-1.76a3.51,3.51,0,0,0-1.56-.37,3.55,3.55,0,0,0-1.57.37l-3.05,1.75a1,1,0,0,0-.46.36,1,1,0,0,0,0,1.1,1,1,0,0,0,.46.35l3.06,1.77a3.55,3.55,0,0,0,1.6.38,3.66,3.66,0,0,0,1.59-.39Zm7.88,4.53,3-1.75a1,1,0,0,0,0-1.8l-3.06-1.76a3.52,3.52,0,0,0-3.14,0l-3,1.75a1,1,0,0,0,0,1.81l3.06,1.76a3.48,3.48,0,0,0,3.18,0Zm7.93,4.54,3.05-1.75a1,1,0,0,0,.46-.35.93.93,0,0,0,0-1.1.94.94,0,0,0-.46-.35l-3.05-1.77a3.54,3.54,0,0,0-3.15,0l-3,1.76a1,1,0,0,0-.48.34,1,1,0,0,0,0,1.12,1,1,0,0,0,.48.35l3.06,1.76a3.5,3.5,0,0,0,1.56.36,3.54,3.54,0,0,0,1.56-.37Zm1.68,2.77,3.06,1.77a3.54,3.54,0,0,0,3.15,0l3-1.76A.94.94,0,0,0,294,305a.95.95,0,0,0,0-1.11.94.94,0,0,0-.47-.34l-3.06-1.77a3.51,3.51,0,0,0-1.56-.37,3.55,3.55,0,0,0-1.57.37l-3.06,1.71a1,1,0,0,0-.52.34,1,1,0,0,0-.19.58,1,1,0,0,0,.2.59,1,1,0,0,0,.52.33Zm21.83,5.47-7.77-4.48a3.52,3.52,0,0,0-3.14,0L292.14,308a1,1,0,0,0-.46.35,1,1,0,0,0-.18.56,1,1,0,0,0,.18.55,1,1,0,0,0,.46.35l7.78,4.48a3.54,3.54,0,0,0,3.15,0l3-1.75a1,1,0,0,0,.66-.91,1,1,0,0,0-.18-.56.93.93,0,0,0-.48-.34ZM191.37,260.4l14,8.12a3.93,3.93,0,0,0,1.78.43,3.89,3.89,0,0,0,1.77-.43l2.63-1.5a1.12,1.12,0,0,0,.53-.4,1,1,0,0,0,0-1.25,1.06,1.06,0,0,0-.53-.4l-14-8.12a4,4,0,0,0-3.55,0l-2.64,1.52a1.14,1.14,0,0,0-.52.4,1.13,1.13,0,0,0-.19.62,1.07,1.07,0,0,0,.72,1Zm19.26,11.08,2.65,1.53a3.92,3.92,0,0,0,3.49,0l2.64-1.5a1.12,1.12,0,0,0,.53-.4,1,1,0,0,0,0-1.25,1.06,1.06,0,0,0-.53-.4l-2.65-1.53a4,4,0,0,0-3.55,0l-2.63,1.52a1.07,1.07,0,0,0,0,2Zm7.88,4.54,2.65,1.53a3.88,3.88,0,0,0,3.55,0l2.63-1.51a1.09,1.09,0,0,0,.53-.39,1.07,1.07,0,0,0,.2-.63,1.12,1.12,0,0,0-.2-.63,1.09,1.09,0,0,0-.53-.39l-2.65-1.53a3.94,3.94,0,0,0-3.5,0L218.56,274c-1,.57-1,1.47-.05,2Zm7.87,4.54,2.68,1.53a3.92,3.92,0,0,0,3.49,0l2.63-1.51a1.09,1.09,0,0,0,.53-.39,1.12,1.12,0,0,0,.2-.63,1.07,1.07,0,0,0-.2-.63,1.09,1.09,0,0,0-.53-.39L232.55,277a3.84,3.84,0,0,0-3.49,0l-2.64,1.5c-1,.56-1,1.48,0,2.05Zm7.88,4.53,2.65,1.53a3.86,3.86,0,0,0,3.5,0l2.64-1.5a1.11,1.11,0,0,0,.53-.4,1.08,1.08,0,0,0,0-1.25,1.11,1.11,0,0,0-.53-.4l-2.66-1.53a3.9,3.9,0,0,0-1.74-.41,4,4,0,0,0-1.75.41l-2.63,1.51a1.09,1.09,0,0,0-.53.39,1.07,1.07,0,0,0-.2.63,1,1,0,0,0,.19.63,1.09,1.09,0,0,0,.53.39Zm7.89,4.54,2.65,1.53a4,4,0,0,0,1.75.42,3.88,3.88,0,0,0,1.74-.42l2.65-1.51a1.13,1.13,0,0,0,.53-.39,1.07,1.07,0,0,0,.2-.63,1.12,1.12,0,0,0-.2-.63,1.13,1.13,0,0,0-.53-.39L248.32,286a3.92,3.92,0,0,0-3.49,0l-2.63,1.51a1.11,1.11,0,0,0-.59.37,1.08,1.08,0,0,0-.25.66,1.11,1.11,0,0,0,.79,1.06Zm7.85,4.52,2.66,1.54a3.92,3.92,0,0,0,3.49,0l2.63-1.51a1,1,0,0,0,.53-.4,1.08,1.08,0,0,0,0-1.25,1.09,1.09,0,0,0-.53-.39l-2.58-1.47a3.91,3.91,0,0,0-1.75-.41,3.87,3.87,0,0,0-1.74.41L250,292.12a1.12,1.12,0,0,0-.51.4,1.06,1.06,0,0,0,0,1.24A1,1,0,0,0,250,294.15Zm7.88,4.54,2.66,1.53a3.86,3.86,0,0,0,1.77.43,3.93,3.93,0,0,0,1.78-.43l2.62-1.5a1.08,1.08,0,0,0,0-2.05l-2.64-1.53a3.92,3.92,0,0,0-3.49,0l-2.64,1.51a1.08,1.08,0,0,0-.77,1,1.1,1.1,0,0,0,.2.64,1,1,0,0,0,.54.4Zm7.89,4.54,2.66,1.53a3.9,3.9,0,0,0,1.74.41,4,4,0,0,0,1.75-.41l2.64-1.52a1.08,1.08,0,0,0,0-2l-2.65-1.53a3.93,3.93,0,0,0-1.78-.43,3.86,3.86,0,0,0-1.77.43l-2.63,1.51a1.06,1.06,0,0,0-.55.4,1.08,1.08,0,0,0,.05,1.29,1.06,1.06,0,0,0,.57.37Zm7.88,4.54,2.65,1.53a4,4,0,0,0,1.75.41,3.9,3.9,0,0,0,1.74-.41l2.64-1.52a1.08,1.08,0,0,0,0-2l-2.65-1.53a4,4,0,0,0-3.49,0l-2.63,1.51a1.1,1.1,0,0,0-.55.4,1.06,1.06,0,0,0,0,1.28,1.08,1.08,0,0,0,.55.39Zm7.88,4.53,2.65,1.53a3.92,3.92,0,0,0,3.49,0l2.63-1.52a1.08,1.08,0,0,0,0-2l-2.65-1.53a3.92,3.92,0,0,0-3.49,0l-2.64,1.52a1.12,1.12,0,0,0-.56.39,1.1,1.1,0,0,0-.21.65,1.06,1.06,0,0,0,.8,1Zm16.88,2.62-2.65-1.53a4,4,0,0,0-3.49,0l-2.7,1.52a1.09,1.09,0,0,0-.73,1,1.07,1.07,0,0,0,.2.63,1.12,1.12,0,0,0,.53.4l2.65,1.53a4,4,0,0,0,3.55,0l2.64-1.52a1,1,0,0,0,.54-.39,1,1,0,0,0,.21-.62,1,1,0,0,0-.19-.63,1.09,1.09,0,0,0-.53-.39Zm-102-50.33-6.16-3.48a3.84,3.84,0,0,0-3.49,0l-2.64,1.51a1.09,1.09,0,0,0-.53.39,1.07,1.07,0,0,0-.2.63,1.12,1.12,0,0,0,.2.63,1.09,1.09,0,0,0,.53.39l6.16,3.48a3.9,3.9,0,0,0,1.74.41,4,4,0,0,0,1.75-.41l2.64-1.52C197.39,266.08,197.38,265.15,196.4,264.59Zm7.88,4.54-2.66-1.52a3.92,3.92,0,0,0-3.49,0l-2.64,1.52c-1,.55-1,1.47,0,2l2.65,1.52a4,4,0,0,0,3.55,0l2.63-1.52c.94-.56.94-1.47,0-2Zm7.87,4.53-2.65-1.55a3.92,3.92,0,0,0-3.49,0l-2.64,1.52c-1,.56-1,1.47,0,2l2.65,1.52a3.92,3.92,0,0,0,3.49,0l2.63-1.52c1-.52,1-1.44,0-2Zm55.17,31.77-49.9-28.75a3.9,3.9,0,0,0-1.74-.41,4,4,0,0,0-1.75.41l-2.63,1.52a1.08,1.08,0,0,0,0,2L261.23,309a4.08,4.08,0,0,0,1.75.4,4,4,0,0,0,1.74-.4l2.64-1.52a1.12,1.12,0,0,0,.54-.4,1.13,1.13,0,0,0,.2-.64,1.1,1.1,0,0,0-.23-.63,1.08,1.08,0,0,0-.55-.38Zm7.89,4.54-2.65-1.53a4,4,0,0,0-1.75-.41,3.87,3.87,0,0,0-1.74.41L266.44,310a1.11,1.11,0,0,0-.54.39,1.07,1.07,0,0,0-.2.63,1.1,1.1,0,0,0,.2.63,1.11,1.11,0,0,0,.54.39l2.65,1.53a4,4,0,0,0,3.55,0l2.64-1.52a1.07,1.07,0,0,0,.72-1,1,1,0,0,0-.23-.63,1.07,1.07,0,0,0-.56-.37Zm7.88,4.54L280.43,313a3.89,3.89,0,0,0-1.77-.43,3.93,3.93,0,0,0-1.78.43l-2.63,1.52a1.08,1.08,0,0,0,0,2l2.66,1.53a3.92,3.92,0,0,0,3.49,0l2.64-1.52a1.07,1.07,0,0,0,.56-.37,1,1,0,0,0,.22-.63,1.08,1.08,0,0,0-.19-.65,1.11,1.11,0,0,0-.54-.39Zm8,4.64-2.66-1.53a3.84,3.84,0,0,0-3.49,0l-2.64,1.5a1.17,1.17,0,0,0-.53.4,1.08,1.08,0,0,0,0,1.25,1.11,1.11,0,0,0,.53.4L285,322.7a3.87,3.87,0,0,0,1.74.41,4,4,0,0,0,1.75-.41l2.63-1.51a1.05,1.05,0,0,0,.54-.39,1,1,0,0,0,.21-.63,1.13,1.13,0,0,0-.2-.64,1.11,1.11,0,0,0-.54-.39Z" transform="translate(-145.25 -129.39)"/><path class="cls-9" d="M334.19,297.64l-104.4-60.17c-4-2.32-7.32-8.56-7.32-13.92V141.86c0-5.37,3.27-7.83,7.32-5.51l104.4,60.14c4,2.32,7.32,8.58,7.32,13.93v81.66C341.51,297.47,338.23,300,334.19,297.64Z" transform="translate(-145.25 -129.39)"/><path class="cls-7" d="M335.14,293.43l-103.3-59.49a12.41,12.41,0,0,1-5.26-10.45v-82a1.37,1.37,0,0,1,.16-.66,1.33,1.33,0,0,1,.48-.49,1.26,1.26,0,0,1,.66-.18,1.19,1.19,0,0,1,.66.17l.23.14L332.13,200c3.88,2.22,5.26,6.17,5.26,10.44v81.87a1.46,1.46,0,0,1-.2.68,1.29,1.29,0,0,1-.52.49,1.36,1.36,0,0,1-.68.18,1.38,1.38,0,0,1-.69-.19Z" transform="translate(-145.25 -129.39)"/><path class="cls-11" d="M332.13,200,228.77,140.5l-.23-.14a1.28,1.28,0,0,0-.66-.18,1.27,1.27,0,0,0-.66.19,1.19,1.19,0,0,0-.48.49,1.37,1.37,0,0,0-.16.66v82A12.38,12.38,0,0,0,231.84,234l103.3,59.49.16.1a1.37,1.37,0,0,0,.69.18,1.35,1.35,0,0,0,.68-.17,1.44,1.44,0,0,0,.52-.49,1.49,1.49,0,0,0,.2-.68v-82C337.39,206.22,336,202.27,332.13,200Zm4.45,92.27a.62.62,0,0,1-.18.41.59.59,0,0,1-.4.16.54.54,0,0,1-.29-.07L232.26,233.22a11.64,11.64,0,0,1-3.64-4.24,11.49,11.49,0,0,1-1.21-5.44V141.47a.37.37,0,0,1,0-.18.44.44,0,0,1,.1-.16.54.54,0,0,1,.16-.1.4.4,0,0,1,.19,0,.39.39,0,0,1,.23.07l103.56,59.68c4,2.32,4.85,6.55,4.85,9.69Z" transform="translate(-145.25 -129.39)"/><path class="cls-6" d="M336.26,195.39l-104.4-60.14a5,5,0,0,0-2.06-.8,4.91,4.91,0,0,0-2.22.18c-.15,0-2.2,1.16-2.32,1.16a4.66,4.66,0,0,1,2.34-.3,4.81,4.81,0,0,1,2.19.86l104.4,60.14c4,2.32,7.32,8.58,7.32,13.93v81.66c0,3.35-1.28,5.57-3.22,6.21a1.23,1.23,0,0,0,.64-.22l2.4-1.36c1.38-1,2.25-3,2.25-5.73V209.34C343.58,204,340.3,197.72,336.26,195.39Z" transform="translate(-145.25 -129.39)"/><path class="cls-12" d="M336.26,195.39l-104.4-60.14a5,5,0,0,0-2.06-.8,4.91,4.91,0,0,0-2.22.18c-.15,0-2.2,1.16-2.32,1.16a4.66,4.66,0,0,1,2.34-.3,4.81,4.81,0,0,1,2.19.86l104.4,60.14Z" transform="translate(-145.25 -129.39)"/><path class="cls-7" d="M334.54,196.32l-104.4-60.14a4.75,4.75,0,0,0-2.13-.81,4.9,4.9,0,0,0-2.28.24,5.41,5.41,0,0,1,3.49.82l104.44,60.14c4,2.32,7.32,8.58,7.32,13.93v81.68c0,3.18-1.17,5.33-2.91,6.08,2.25-.34,3.79-2.66,3.79-6.33V210.27C341.86,204.88,338.58,198.64,334.54,196.32Z" transform="translate(-145.25 -129.39)"/><path class="cls-13" d="M314,225.88a4.51,4.51,0,0,0,2.07,3.55c1.17.66,2.06.13,2.06-1.16a4.5,4.5,0,0,0-2.06-3.55C315,224.06,314,224.54,314,225.88Z" transform="translate(-145.25 -129.39)"/><path class="cls-13" d="M295.8,219.12a4.57,4.57,0,0,0,2.06,3.55c1.17.65,2.06.13,2.06-1.16a4.39,4.39,0,0,0-.6-2,4.55,4.55,0,0,0-1.46-1.53C296.72,217.29,295.8,217.82,295.8,219.12Z" transform="translate(-145.25 -129.39)"/><path class="cls-13" d="M307.2,216.42a4.52,4.52,0,0,0,.6,2,4.64,4.64,0,0,0,1.46,1.53c1.16.65,2.06.12,2.06-1.16a4.53,4.53,0,0,0-.61-2,4.39,4.39,0,0,0-1.45-1.52C308.12,214.63,307.2,215.15,307.2,216.42Z" transform="translate(-145.25 -129.39)"/><path class="cls-13" d="M298,211.53a4.55,4.55,0,0,0,2.07,3.55c1.16.65,2.06.13,2.06-1.16a4.53,4.53,0,0,0-.61-2,4.42,4.42,0,0,0-1.45-1.53C299,209.7,298,210.22,298,211.53Z" transform="translate(-145.25 -129.39)"/><path class="cls-13" d="M237.81,143.79a4.55,4.55,0,0,0,2.07,3.55c1.17.66,2.06.13,2.06-1.16a4.69,4.69,0,0,0-.6-2,4.55,4.55,0,0,0-1.46-1.53C238.74,142,237.81,142.49,237.81,143.79Z" transform="translate(-145.25 -129.39)"/><path class="cls-13" d="M255,180.44a4.6,4.6,0,0,0,2.08,3.55c1.16.65,2.05.13,2.05-1.16a4.39,4.39,0,0,0-.6-2,4.71,4.71,0,0,0-1.45-1.53C255.91,178.66,255,179.18,255,180.44Z" transform="translate(-145.25 -129.39)"/><path class="cls-13" d="M305.54,198.86a4.57,4.57,0,0,0,2.06,3.55c1.17.65,2.08.13,2.08-1.16a4.67,4.67,0,0,0-.62-2,4.55,4.55,0,0,0-1.46-1.53C306.46,197,305.54,197.56,305.54,198.86Z" transform="translate(-145.25 -129.39)"/><path class="cls-13" d="M323.2,157a4.39,4.39,0,0,0,.6,2,4.55,4.55,0,0,0,1.46,1.53c1.16.66,2.06.13,2.06-1.16a4.57,4.57,0,0,0-2.06-3.55C324.12,155.13,323.2,155.65,323.2,157Z" transform="translate(-145.25 -129.39)"/><path class="cls-13" d="M279.46,169.85a4.49,4.49,0,0,0,.61,2,4.55,4.55,0,0,0,1.46,1.53c1.16.65,2.06.13,2.06-1.16a4.53,4.53,0,0,0-.61-2,4.61,4.61,0,0,0-1.45-1.53C280.39,168,279.46,168.55,279.46,169.85Z" transform="translate(-145.25 -129.39)"/><path class="cls-13" d="M320,240.25a4.5,4.5,0,0,0,2.06,3.55c1.16.65,2.06.13,2.06-1.16a4.49,4.49,0,0,0-.61-2,4.42,4.42,0,0,0-1.45-1.53C320.92,238.46,320,238.94,320,240.25Z" transform="translate(-145.25 -129.39)"/><path class="cls-13" d="M287.71,200.17a4.5,4.5,0,0,0,2.06,3.55c1.16.65,2.06.13,2.06-1.16a4.53,4.53,0,0,0-.61-2,4.42,4.42,0,0,0-1.45-1.53C288.63,198.38,287.71,198.91,287.71,200.17Z" transform="translate(-145.25 -129.39)"/><path class="cls-13" d="M277.82,199a4.52,4.52,0,0,0,.6,2,4.71,4.71,0,0,0,1.45,1.53c1.17.65,2.06.13,2.06-1.16a4.36,4.36,0,0,0-.6-2,4.45,4.45,0,0,0-1.46-1.53C278.74,197.22,277.82,197.74,277.82,199Z" transform="translate(-145.25 -129.39)"/><path class="cls-13" d="M275.92,208.19a4.51,4.51,0,0,0,2.07,3.58c1.16.67,2.06.13,2.06-1.16a4.45,4.45,0,0,0-.61-2,4.55,4.55,0,0,0-1.45-1.54C276.85,206.37,275.92,206.89,275.92,208.19Z" transform="translate(-145.25 -129.39)"/><path class="cls-13" d="M277.52,176.57a4.57,4.57,0,0,0,2.06,3.55c1.17.66,2.06.13,2.06-1.16a4.5,4.5,0,0,0-2.06-3.55C278.44,174.75,277.52,175.27,277.52,176.57Z" transform="translate(-145.25 -129.39)"/><path class="cls-13" d="M263.56,164.05a4.53,4.53,0,0,0,.61,2,4.42,4.42,0,0,0,1.45,1.53c1.16.65,2.06.13,2.06-1.16a4.65,4.65,0,0,0-.6-2,4.55,4.55,0,0,0-1.46-1.53C264.48,162.23,263.56,162.75,263.56,164.05Z" transform="translate(-145.25 -129.39)"/><path class="cls-13" d="M261,151.29a4.52,4.52,0,0,0,.6,2,4.64,4.64,0,0,0,1.46,1.53c1.16.65,2.07.13,2.07-1.16a4.62,4.62,0,0,0-2.07-3.55C262,149.47,261,150,261,151.29Z" transform="translate(-145.25 -129.39)"/><path class="cls-13" d="M264,177a4.5,4.5,0,0,0,2.06,3.55c1.16.65,2.07.13,2.07-1.16a4.5,4.5,0,0,0-.62-2A4.58,4.58,0,0,0,266,175.8C264.86,175.18,264,175.7,264,177Z" transform="translate(-145.25 -129.39)"/><path class="cls-13" d="M263,185.9a4.5,4.5,0,0,0,2.06,3.55c1.16.66,2.06.14,2.06-1.16a4.53,4.53,0,0,0-.61-2,4.42,4.42,0,0,0-1.45-1.53C263.9,184.08,263,184.6,263,185.9Z" transform="translate(-145.25 -129.39)"/><path class="cls-13" d="M315.92,172.32a4.53,4.53,0,0,0,.61,2,4.39,4.39,0,0,0,1.45,1.52c1.17.67,2.06.13,2.06-1.16a4.5,4.5,0,0,0-2.06-3.55C316.84,170.5,315.92,171,315.92,172.32Z" transform="translate(-145.25 -129.39)"/><path class="cls-13" d="M230.69,155.4a4.52,4.52,0,0,0,.6,2,4.64,4.64,0,0,0,1.46,1.53c1.16.66,2.06.12,2.06-1.16a4.61,4.61,0,0,0-2.06-3.56C231.61,153.57,230.69,154.1,230.69,155.4Z" transform="translate(-145.25 -129.39)"/><path class="cls-13" d="M318.25,197.7a4.53,4.53,0,0,0,.61,2,4.42,4.42,0,0,0,1.45,1.53c1.16.65,2.06.13,2.06-1.16a4.53,4.53,0,0,0-.61-2,4.42,4.42,0,0,0-1.45-1.53C319.17,195.88,318.25,196.4,318.25,197.7Z" transform="translate(-145.25 -129.39)"/><path class="cls-13" d="M289.35,209.68a4.41,4.41,0,0,0,.61,2,4.55,4.55,0,0,0,1.46,1.53c1.16.66,2.06.13,2.06-1.16a4.45,4.45,0,0,0-.61-2,4.55,4.55,0,0,0-1.45-1.54C290.28,207.86,289.35,208.39,289.35,209.68Z" transform="translate(-145.25 -129.39)"/><path class="cls-13" d="M297.11,200.17a4.65,4.65,0,0,0,.6,2,4.55,4.55,0,0,0,1.46,1.53c1.16.65,2.07.13,2.07-1.16a4.49,4.49,0,0,0-.61-2,4.55,4.55,0,0,0-1.46-1.53C298,198.38,297.11,198.91,297.11,200.17Z" transform="translate(-145.25 -129.39)"/><path class="cls-13" d="M296.72,186.25a4.53,4.53,0,0,0,.61,2,4.42,4.42,0,0,0,1.45,1.53c1.17.66,2.06.12,2.06-1.16a4.48,4.48,0,0,0-.6-2,4.55,4.55,0,0,0-1.46-1.53C297.64,184.42,296.72,185,296.72,186.25Z" transform="translate(-145.25 -129.39)"/><path class="cls-13" d="M306,229a4.53,4.53,0,0,0,.61,2,4.61,4.61,0,0,0,1.45,1.53c1.17.65,2.06.12,2.06-1.16a4.5,4.5,0,0,0-2.06-3.55C307,227.2,306,227.73,306,229Z" transform="translate(-145.25 -129.39)"/><path class="cls-13" d="M286.39,169.47a4.55,4.55,0,0,0,2.07,3.55c1.17.65,2.06.13,2.06-1.16a4.5,4.5,0,0,0-2.06-3.55C287.32,167.68,286.39,168.16,286.39,169.47Z" transform="translate(-145.25 -129.39)"/><path class="cls-13" d="M252.69,171.59a4.62,4.62,0,0,0,2.07,3.56c1.17.64,2.06.12,2.06-1.17a4.52,4.52,0,0,0-.6-2,4.64,4.64,0,0,0-1.46-1.53C253.62,169.77,252.69,170.29,252.69,171.59Z" transform="translate(-145.25 -129.39)"/><path class="cls-13" d="M245.82,162.22a4.5,4.5,0,0,0,2.06,3.55c1.16.65,2.06.13,2.06-1.16a4.49,4.49,0,0,0-.61-2,4.42,4.42,0,0,0-1.45-1.53C246.74,160.39,245.82,160.91,245.82,162.22Z" transform="translate(-145.25 -129.39)"/><path class="cls-13" d="M239.22,154.09a4.61,4.61,0,0,0,.6,2,4.55,4.55,0,0,0,1.46,1.53c1.16.65,2.07.13,2.07-1.16a4.55,4.55,0,0,0-2.07-3.55C240.14,152.26,239.22,152.78,239.22,154.09Z" transform="translate(-145.25 -129.39)"/><path class="cls-13" d="M270.15,193.64a4.55,4.55,0,0,0,2.07,3.55c1.16.65,2.06.13,2.06-1.16a4.53,4.53,0,0,0-.61-2,4.42,4.42,0,0,0-1.45-1.53C271.08,191.82,270.15,192.34,270.15,193.64Z" transform="translate(-145.25 -129.39)"/><path class="cls-13" d="M250.18,161.35a4.53,4.53,0,0,0,.61,2,4.42,4.42,0,0,0,1.45,1.53c1.16.65,2.06.13,2.06-1.16a4.61,4.61,0,0,0-.6-2,4.55,4.55,0,0,0-1.46-1.53C251.1,159.56,250.18,160,250.18,161.35Z" transform="translate(-145.25 -129.39)"/><path class="cls-13" d="M270.25,146.26a4.57,4.57,0,0,0,2.06,3.55c1.17.65,2.06.13,2.06-1.16a4.5,4.5,0,0,0-2.06-3.55C271.17,144.48,270.25,145,270.25,146.26Z" transform="translate(-145.25 -129.39)"/><path class="cls-13" d="M259.49,130.84a4.48,4.48,0,0,0,.6,2,4.55,4.55,0,0,0,1.46,1.53c1.16.66,2.06.13,2.06-1.16a4.54,4.54,0,0,0-2.06-3.56C260.41,129,259.49,129.54,259.49,130.84Z" transform="translate(-145.25 -129.39)"/><path class="cls-13" d="M273.28,167.68a4.65,4.65,0,0,0,.6,2,4.55,4.55,0,0,0,1.46,1.53c1.16.65,2.07.13,2.07-1.16a4.5,4.5,0,0,0-2.1-3.55C274.17,165.89,273.28,166.42,273.28,167.68Z" transform="translate(-145.25 -129.39)"/><path class="cls-13" d="M257.3,166.42a4.56,4.56,0,0,0,.6,2,4.61,4.61,0,0,0,1.47,1.54c1.17.67,2.06.13,2.06-1.16a4.57,4.57,0,0,0-2.06-3.55C258.23,164.6,257.3,165.12,257.3,166.42Z" transform="translate(-145.25 -129.39)"/><path class="cls-13" d="M248.33,186.93a4.47,4.47,0,0,0,.62,2,4.52,4.52,0,0,0,1.45,1.5c1.16.66,2.06.14,2.06-1.16a4.46,4.46,0,0,0-2.06-3.54C249.26,185.08,248.33,185.62,248.33,186.93Z" transform="translate(-145.25 -129.39)"/><path class="cls-13" d="M282.76,146.79a4.65,4.65,0,0,0,.6,2,4.52,4.52,0,0,0,1.46,1.52c1.16.67,2.06.13,2.06-1.16a4.5,4.5,0,0,0-2.06-3.55C283.68,145,282.76,145.49,282.76,146.79Z" transform="translate(-145.25 -129.39)"/><path class="cls-13" d="M304.18,156.51a4.8,4.8,0,0,0,.61,2,4.55,4.55,0,0,0,1.46,1.53c1.17.65,2.06.13,2.06-1.16a4.5,4.5,0,0,0-2.06-3.55C305.11,154.69,304.18,155.21,304.18,156.51Z" transform="translate(-145.25 -129.39)"/><path class="cls-13" d="M282.76,182.77a4.65,4.65,0,0,0,.6,2,4.55,4.55,0,0,0,1.46,1.53c1.16.66,2.06.13,2.06-1.16a4.61,4.61,0,0,0-.6-2,4.55,4.55,0,0,0-1.46-1.53C283.68,181,282.76,181.47,282.76,182.77Z" transform="translate(-145.25 -129.39)"/><path class="cls-13" d="M274.22,184.36a4.53,4.53,0,0,0,.61,2,4.64,4.64,0,0,0,1.46,1.53c1.17.65,2.06.12,2.06-1.16a4.61,4.61,0,0,0-.6-2,4.55,4.55,0,0,0-1.46-1.53C275.15,182.53,274.22,183.06,274.22,184.36Z" transform="translate(-145.25 -129.39)"/><path class="cls-13" d="M292.65,163.27a4.65,4.65,0,0,0,.6,2,4.52,4.52,0,0,0,1.46,1.52c1.16.66,2.06.14,2.06-1.16a4.5,4.5,0,0,0-2.06-3.55C293.57,161.45,292.65,162,292.65,163.27Z" transform="translate(-145.25 -129.39)"/><path class="cls-13" d="M250.61,141.47a4.49,4.49,0,0,0,.61,2,4.55,4.55,0,0,0,1.46,1.53c1.17.66,2.06.13,2.06-1.16a4.54,4.54,0,0,0-2.06-3.56C251.54,139.65,250.61,140.17,250.61,141.47Z" transform="translate(-145.25 -129.39)"/><path class="cls-13" d="M255.56,155.55a4.53,4.53,0,0,0,.61,2,4.64,4.64,0,0,0,1.46,1.53c1.16.65,2.06.12,2.06-1.16a4.57,4.57,0,0,0-2.06-3.55C256.49,153.76,255.56,154.23,255.56,155.55Z" transform="translate(-145.25 -129.39)"/><path class="cls-13" d="M217,152.6a4.51,4.51,0,0,0,.62,2,4.59,4.59,0,0,0,1.44,1.5c1.16.65,2.06.13,2.06-1.16a4.5,4.5,0,0,0-2.06-3.48C217.94,150.73,217,151.26,217,152.6Z" transform="translate(-145.25 -129.39)"/><path class="cls-13" d="M262.54,195.72a4.55,4.55,0,0,0,2.07,3.55c1.16.66,2.06.13,2.06-1.16a4.57,4.57,0,0,0-2.06-3.55C263.47,193.9,262.54,194.37,262.54,195.72Z" transform="translate(-145.25 -129.39)"/><path class="cls-13" d="M288,188.9a4.44,4.44,0,0,0,.6,2,4.58,4.58,0,0,0,1.46,1.54c1.16.64,2.06.12,2.06-1.17a4.57,4.57,0,0,0-2.06-3.55C288.92,187.07,288,187.59,288,188.9Z" transform="translate(-145.25 -129.39)"/><path class="cls-13" d="M303.71,180a4.52,4.52,0,0,0,.6,2,4.64,4.64,0,0,0,1.46,1.53c1.16.65,2.06.12,2.06-1.16a4.58,4.58,0,0,0-.61-2,4.52,4.52,0,0,0-1.45-1.53C304.63,178.18,303.71,178.71,303.71,180Z" transform="translate(-145.25 -129.39)"/><path class="cls-13" d="M268.36,171.35a4.36,4.36,0,0,0,.6,2,4.48,4.48,0,0,0,1.47,1.53c1.16.66,2.06.13,2.06-1.16a4.57,4.57,0,0,0-2.06-3.55C269.29,169.53,268.36,170,268.36,171.35Z" transform="translate(-145.25 -129.39)"/><path class="cls-13" d="M262.69,142.92a4.5,4.5,0,0,0,2.06,3.55c1.16.66,2.06.13,2.06-1.16a4.57,4.57,0,0,0-2.06-3.55C263.61,141.1,262.69,141.62,262.69,142.92Z" transform="translate(-145.25 -129.39)"/><path class="cls-13" d="M243,168a4.6,4.6,0,0,0,2.08,3.55c1.16.65,2.05.12,2.05-1.16a4.48,4.48,0,0,0-.6-2,4.62,4.62,0,0,0-1.45-1.53C244,166.18,243,166.71,243,168Z" transform="translate(-145.25 -129.39)"/><path class="cls-13" d="M221.52,138.67a4.55,4.55,0,0,0,2.07,3.6c1.17.65,2.06.13,2.06-1.16a4.5,4.5,0,0,0-.59-2.05,4.63,4.63,0,0,0-1.47-1.55C222.45,136.89,221.52,137.41,221.52,138.67Z" transform="translate(-145.25 -129.39)"/><path class="cls-13" d="M240,178.89a4.48,4.48,0,0,0,.6,2,4.55,4.55,0,0,0,1.46,1.53c1.16.66,2.06.13,2.06-1.16a4.53,4.53,0,0,0-.61-2,4.61,4.61,0,0,0-1.45-1.53C240.92,177.07,240,177.59,240,178.89Z" transform="translate(-145.25 -129.39)"/><path class="cls-13" d="M294.4,177.84a4.52,4.52,0,0,0,.6,2,4.64,4.64,0,0,0,1.46,1.53c1.16.66,2.06.12,2.06-1.16a4.45,4.45,0,0,0-.61-2,4.52,4.52,0,0,0-1.45-1.53C295.32,176,294.4,176.54,294.4,177.84Z" transform="translate(-145.25 -129.39)"/><path class="cls-13" d="M277.37,190.07a4.67,4.67,0,0,0,.62,2,4.51,4.51,0,0,0,1.45,1.53c1.17.65,2.06.12,2.06-1.16a4.5,4.5,0,0,0-2.06-3.55C278.3,188.23,277.37,188.75,277.37,190.07Z" transform="translate(-145.25 -129.39)"/><path class="cls-13" d="M278.83,158.73a4.51,4.51,0,0,0,2.07,3.55c1.16.65,2.06.13,2.06-1.16a4.57,4.57,0,0,0-2.06-3.55C279.76,156.9,278.83,157.42,278.83,158.73Z" transform="translate(-145.25 -129.39)"/><path class="cls-13" d="M268.22,160.48a4.52,4.52,0,0,0,.6,2,4.64,4.64,0,0,0,1.46,1.53c1.16.65,2.06.12,2.06-1.16a4.53,4.53,0,0,0-.61-2,4.39,4.39,0,0,0-1.45-1.52C269.14,158.64,268.22,159.17,268.22,160.48Z" transform="translate(-145.25 -129.39)"/><path class="cls-13" d="M246,153.51a4.49,4.49,0,0,0,.61,2,4.55,4.55,0,0,0,1.46,1.53c1.16.65,2.06.13,2.06-1.16a4.57,4.57,0,0,0-2.06-3.55C246.89,151.68,246,152.2,246,153.51Z" transform="translate(-145.25 -129.39)"/><path class="cls-13" d="M231.17,168a4.53,4.53,0,0,0,.61,2,4.64,4.64,0,0,0,1.46,1.53c1.16.65,2.06.12,2.06-1.16a4.65,4.65,0,0,0-.6-2,4.52,4.52,0,0,0-1.46-1.52C232.1,166.18,231.17,166.71,231.17,168Z" transform="translate(-145.25 -129.39)"/><path class="cls-13" d="M238.54,133.21a4.53,4.53,0,0,0,.61,2,4.62,4.62,0,0,0,1.45,1.53c1.17.65,2.06.13,2.06-1.16a4.39,4.39,0,0,0-.6-2,4.55,4.55,0,0,0-1.46-1.53C239.46,131.38,238.54,131.9,238.54,133.21Z" transform="translate(-145.25 -129.39)"/><path class="cls-6" d="M343.09,309,257.6,259.73c-3.31-1.9-6-7-6-11.41V181.48c0-4.4,2.68-6.43,6-4.52l85.49,49.22c3.31,1.9,6,7,6,11.41v66.84C349,308.83,346.35,310.85,343.09,309Z" transform="translate(-145.25 -129.39)"/><path class="cls-3" d="M344.75,225.28l-85.44-49.22a4.09,4.09,0,0,0-3.49-.51c-.11,0-1.79.93-1.9,1a3.94,3.94,0,0,1,3.72.42l85.45,49.22c3.31,1.9,6,7,6,11.4v66.85c0,2.75-1,4.56-2.63,5.08a1.07,1.07,0,0,0,.52-.17l2-1.16c1.16-.8,1.85-2.44,1.85-4.65V236.7C350.74,232.3,348.05,227.18,344.75,225.28Z" transform="translate(-145.25 -129.39)"/><path class="cls-6" d="M343.34,226l-85.46-49.22a4.06,4.06,0,0,0-1.75-.66,3.89,3.89,0,0,0-1.85.21,4.4,4.4,0,0,1,2.89.67l85.45,49.22c3.3,1.91,6,7,6,11.42v66.84c0,2.6-.94,4.35-2.39,5,1.85-.28,3.11-2.18,3.11-5.18V237.45C349.33,233.06,346.64,228,343.34,226Z" transform="translate(-145.25 -129.39)"/><path class="cls-14" d="M253.69,182.42v66.14a10.47,10.47,0,0,0,1.13,4.91,10.36,10.36,0,0,0,3.3,3.81l86.72,50,.15.08a1.12,1.12,0,0,0,.59.17,1.21,1.21,0,0,0,.59-.16,1.18,1.18,0,0,0,.43-.43,1.24,1.24,0,0,0,.15-.6V237.56a12.6,12.6,0,0,0-.11-1.62Z" transform="translate(-145.25 -129.39)"/><path class="cls-9" d="M345.94,307.06l-.15-.08-86.72-50a10.43,10.43,0,0,1-4.42-8.73V183l-1-.56v66.14a10.47,10.47,0,0,0,1.13,4.91,10.36,10.36,0,0,0,3.3,3.81l86.72,50,.15.08a1.08,1.08,0,0,0,.7.15,1.12,1.12,0,0,0,.65-.28,1.42,1.42,0,0,1-.4-.12Z" transform="translate(-145.25 -129.39)"/><path class="cls-15" d="M296.27,221.56,291.74,219V269.8l4.53,2.61Z" transform="translate(-145.25 -129.39)"/><path class="cls-15" d="M302.79,219l-4.53-2.61V273.5l4.53,2.6Z" transform="translate(-145.25 -129.39)"/><path class="cls-15" d="M309.49,230.49l-4.52-2.6v49.43l4.52,2.61Z" transform="translate(-145.25 -129.39)"/><path class="cls-15" d="M278.32,234.07v27.86l4.52,2.61V236.67Z" transform="translate(-145.25 -129.39)"/><path class="cls-15" d="M289.56,226.32l-4.53-2.6v42l4.53,2.6Z" transform="translate(-145.25 -129.39)"/><path class="cls-15" d="M316.07,244.61,311.55,242v39.15l4.52,2.6Z" transform="translate(-145.25 -129.39)"/><path class="cls-15" d="M322.53,251.67l-4.52-2.6v35.84l4.52,2.6Z" transform="translate(-145.25 -129.39)"/><path class="cls-15" d="M276.14,229.25l-4.53-2.61V257.9l4.53,2.61Z" transform="translate(-145.25 -129.39)"/><path class="cls-15" d="M258.19,231.1V250l4.52,2.61V233.69Z" transform="translate(-145.25 -129.39)"/><path class="cls-15" d="M269.43,223.66l-4.53-2.6v32.8l4.53,2.6Z" transform="translate(-145.25 -129.39)"/><path class="cls-16" d="M296.27,241.51l-4.53-2.6V269.8l4.53,2.61Z" transform="translate(-145.25 -129.39)"/><path class="cls-16" d="M302.79,227.48l-4.53-2.61v48.64l4.53,2.59Z" transform="translate(-145.25 -129.39)"/><path class="cls-16" d="M309.49,239.52l-4.52-2.6v40.4l4.52,2.61Z" transform="translate(-145.25 -129.39)"/><path class="cls-16" d="M278.32,240.84v21.1l4.52,2.61v-21.1Z" transform="translate(-145.25 -129.39)"/><path class="cls-16" d="M289.56,240,285,237.4v28.36l4.53,2.6Z" transform="translate(-145.25 -129.39)"/><path class="cls-16" d="M276.14,231.8l-4.53-2.61V257.9l4.53,2.61Z" transform="translate(-145.25 -129.39)"/><path class="cls-16" d="M258.19,244.54V250l4.52,2.61v-5.49Z" transform="translate(-145.25 -129.39)"/><path class="cls-16" d="M269.43,244.55,264.9,242v11.91l4.53,2.6Z" transform="translate(-145.25 -129.39)"/><path class="cls-16" d="M316.07,251.9l-4.52-2.62v31.87l4.52,2.6Z" transform="translate(-145.25 -129.39)"/><path class="cls-16" d="M322.53,264.72l-4.52-2.6v22.79l4.52,2.6Z" transform="translate(-145.25 -129.39)"/><path class="cls-15" d="M328.9,248.9l-4.53-2.61v42.25l4.53,2.61Z" transform="translate(-145.25 -129.39)"/><path class="cls-15" d="M335.41,238.82l-4.52-2.6v56l4.52,2.61Z" transform="translate(-145.25 -129.39)"/><path class="cls-15" d="M342.13,249.23l-4.53-2.61v49.44l4.53,2.61Z" transform="translate(-145.25 -129.39)"/><path class="cls-16" d="M328.9,260.25l-4.53-2.61v30.9l4.53,2.61Z" transform="translate(-145.25 -129.39)"/><path class="cls-16" d="M335.41,246.2l-4.52-2.6v48.63l4.52,2.61Z" transform="translate(-145.25 -129.39)"/><path class="cls-16" d="M342.13,258.26l-4.53-2.61v40.41l4.53,2.61Z" transform="translate(-145.25 -129.39)"/><path class="cls-16" d="M342.13,258.26l-4.53-2.61v40.41l4.53,2.61Z" transform="translate(-145.25 -129.39)"/><path class="cls-6" d="M268,285.91l-85.43-49.22c-3.32-1.9-6-7-6-11.42V158.4c0-4.4,2.68-6.43,6-4.52L268,203.11c3.3,1.9,6,7,6,11.4v66.88C273.94,285.79,271.25,287.81,268,285.91Z" transform="translate(-145.25 -129.39)"/><path class="cls-3" d="M269.65,202.24,184.19,153a4,4,0,0,0-3.49-.51c-.13,0-1.79.92-1.91,1a4,4,0,0,1,1.92-.27,4,4,0,0,1,1.82.68L268,203.14c3.31,1.9,6,7,6,11.41v66.84c0,2.75-1,4.56-2.64,5.09a1.13,1.13,0,0,0,.53-.19,19,19,0,0,0,2-1.16c1.17-.79,1.85-2.43,1.85-4.64V213.65C275.6,209.26,273,204.14,269.65,202.24Z" transform="translate(-145.25 -129.39)"/><path class="cls-6" d="M268.24,203l-85.46-49.23a3.93,3.93,0,0,0-3.6-.46,4.47,4.47,0,0,1,2.89.68l85.45,49.22c3.3,1.9,6,7,6,11.41v66.84c0,2.6-.94,4.35-2.33,5,1.85-.29,3.1-2.18,3.1-5.19V214.41C274.22,210,271.54,204.89,268.24,203Z" transform="translate(-145.25 -129.39)"/><path class="cls-14" d="M178.59,159.38v66.13a10.47,10.47,0,0,0,4.43,8.74l86.72,49.9.15.08a1.17,1.17,0,0,0,1.18,0,1.11,1.11,0,0,0,.43-.43,1.23,1.23,0,0,0,.15-.59v-68.7a14.68,14.68,0,0,0-.11-1.61Z" transform="translate(-145.25 -129.39)"/><path class="cls-9" d="M270.85,284l-.16-.09L184,234a10.4,10.4,0,0,1-4.42-8.72V159.92l-1-.54v66.13a10.47,10.47,0,0,0,4.43,8.74l86.72,49.9.15.08a1.14,1.14,0,0,0,.7.14,1.12,1.12,0,0,0,.65-.28A1.28,1.28,0,0,1,270.85,284Z" transform="translate(-145.25 -129.39)"/><path class="cls-13" d="M269.6,256.72a1.18,1.18,0,0,1-.63-.18,1.2,1.2,0,0,1-.43-.49c-2.16-4.64-4.21-9-7.75-11.11a21.5,21.5,0,0,0-8.89-3.07,10.29,10.29,0,0,1-6.62-2.91q-.27-.27-.51-.48c-1.39-1.26-1.9-1.91-2.33-6.17l-.3-3.05c-.66-7.18-1.3-13.92-6.68-15.09-4.65-.95-5.82-4.27-7.17-8.12q-.78-2.33-1.79-4.56c-2.33-5-5.63-9.18-8.14-10.44-3.69-1.87-8.35,1-10.4,4.95s-4.65,8.87-9.47,9.45c-7.7.92-11-3.55-13.68-7.15-1.53-1.92-2.76-3.58-4.33-3.93a1.15,1.15,0,0,1-.74-.53,1.19,1.19,0,0,1-.16-.9,1.21,1.21,0,0,1,.53-.74,1.19,1.19,0,0,1,.9-.15c2.41.58,4,2.64,5.58,4.84,2.55,3.48,5.18,7,11.53,6.23,3.61-.44,5.82-4.57,7.69-8.23,2.54-4.86,8.44-8.52,13.5-5.94,3.71,1.88,7.3,7.4,9.31,11.6.7,1.56,1.33,3.16,1.87,4.78,1.29,3.7,2.08,5.93,5.45,6.62,7.07,1.42,7.82,9.4,8.54,17.1.09,1,.18,2,.29,3,.39,3.61.67,3.86,1.62,4.72.17.15.36.31.55.51,1.83,1.76,3.15,2,5.35,2.32A23.43,23.43,0,0,1,262,243c4.17,2.45,6.37,7.15,8.68,12.13a1.15,1.15,0,0,1,.05.89,1.21,1.21,0,0,1-.6.66A1.42,1.42,0,0,1,269.6,256.72Z" transform="translate(-145.25 -129.39)"/><path class="cls-3" d="M245.08,266.76a.39.39,0,0,1-.18,0,.44.44,0,0,1-.15-.1.56.56,0,0,1-.1-.15.47.47,0,0,1,0-.17v-1.16a.46.46,0,0,1,.46-.47.48.48,0,0,1,.47.47v1.16a.33.33,0,0,1,0,.17.46.46,0,0,1-.25.25.37.37,0,0,1-.18,0Zm0-3.48a.39.39,0,0,1-.18,0,.44.44,0,0,1-.15-.1.56.56,0,0,1-.1-.15.47.47,0,0,1,0-.17v-1.17a.46.46,0,0,1,.13-.32.47.47,0,0,1,.33-.14.44.44,0,0,1,.33.14.43.43,0,0,1,.14.32v1.17a.33.33,0,0,1,0,.17.46.46,0,0,1-.25.25.37.37,0,0,1-.18,0Zm0-3.48a.39.39,0,0,1-.18,0,.44.44,0,0,1-.15-.1.56.56,0,0,1-.1-.15.52.52,0,0,1,0-.18v-1.16a.46.46,0,0,1,.13-.32.47.47,0,0,1,.33-.14.44.44,0,0,1,.33.14.43.43,0,0,1,.14.32v1.16a.37.37,0,0,1,0,.18.46.46,0,0,1-.25.25.37.37,0,0,1-.18,0Zm0-3.48a.39.39,0,0,1-.18,0,.65.65,0,0,1-.15-.1.56.56,0,0,1-.1-.15.57.57,0,0,1,0-.18v-1.16a.44.44,0,0,1,.46-.46.46.46,0,0,1,.47.46v1.16a.39.39,0,0,1,0,.18.31.31,0,0,1-.1.15.4.4,0,0,1-.15.1.37.37,0,0,1-.18,0Zm0-3.48a.58.58,0,0,1-.18,0,.65.65,0,0,1-.15-.1.56.56,0,0,1-.1-.15.57.57,0,0,1,0-.18v-1.16a.44.44,0,0,1,.46-.46.46.46,0,0,1,.47.46v1.16a.39.39,0,0,1,0,.18.31.31,0,0,1-.1.15.4.4,0,0,1-.15.1.53.53,0,0,1-.18,0Zm0-3.48a.58.58,0,0,1-.18,0,.65.65,0,0,1-.15-.1.56.56,0,0,1-.1-.15.57.57,0,0,1,0-.18v-1.16a.44.44,0,0,1,.46-.46.46.46,0,0,1,.47.46v1.16a.39.39,0,0,1,0,.18.31.31,0,0,1-.1.15.4.4,0,0,1-.15.1.53.53,0,0,1-.18,0Zm0-3.49a.46.46,0,0,1-.33-.13.51.51,0,0,1-.13-.33v-1.15a.44.44,0,0,1,.46-.46.46.46,0,0,1,.47.46v1.16a.43.43,0,0,1-.14.32A.44.44,0,0,1,245.08,245.87Zm0-3.48a.44.44,0,0,1-.46-.46v-.29a.51.51,0,0,1,.13-.33.47.47,0,0,1,.33-.14.44.44,0,0,1,.33.14.47.47,0,0,1,.14.33v.3a.43.43,0,0,1-.14.32A.44.44,0,0,1,245.08,242.39Z" transform="translate(-145.25 -129.39)"/><path class="cls-3" d="M258.66,274.29l-.18,0-.15-.1-.1-.15a.57.57,0,0,1,0-.18v-1.16a.51.51,0,0,1,.13-.33.46.46,0,0,1,.33-.13.44.44,0,0,1,.33.13.47.47,0,0,1,.14.33v1.16a.47.47,0,0,1-.14.33.44.44,0,0,1-.33.13Zm0-3.48a.57.57,0,0,1-.18,0l-.15-.1-.1-.15a.57.57,0,0,1,0-.18v-1.16a.51.51,0,0,1,.13-.33.47.47,0,0,1,.33-.14.45.45,0,0,1,.33.14.47.47,0,0,1,.14.33v1.16a.47.47,0,0,1-.14.33.49.49,0,0,1-.33.13Zm0-3.48-.18,0-.15-.1a.86.86,0,0,1-.1-.16.47.47,0,0,1,0-.17v-1.16a.49.49,0,0,1,.13-.33.47.47,0,0,1,.33-.14.48.48,0,0,1,.47.47v1.16a.47.47,0,0,1-.14.33.49.49,0,0,1-.33.13Zm0-3.48-.18,0a.72.72,0,0,1-.15-.11.56.56,0,0,1-.1-.15.47.47,0,0,1,0-.17v-1.16a.49.49,0,0,1,.13-.33.47.47,0,0,1,.33-.14.48.48,0,0,1,.47.47v1.16a.43.43,0,0,1-.14.32.45.45,0,0,1-.33.14Zm0-3.48a.57.57,0,0,1-.18,0,.72.72,0,0,1-.15-.11.56.56,0,0,1-.1-.15.47.47,0,0,1,0-.17v-1.16a.46.46,0,0,1,.46-.47.45.45,0,0,1,.33.14.44.44,0,0,1,.14.33v1.16a.43.43,0,0,1-.14.32.45.45,0,0,1-.33.14Zm0-3.48a.39.39,0,0,1-.18,0,.44.44,0,0,1-.15-.1.56.56,0,0,1-.1-.15.48.48,0,0,1,0-.18v-1.16a.46.46,0,0,1,.13-.32.47.47,0,0,1,.33-.14.45.45,0,0,1,.33.14.43.43,0,0,1,.14.32v1.16a.44.44,0,0,1-.14.33.45.45,0,0,1-.33.14Zm0-3.48a.39.39,0,0,1-.18,0,.44.44,0,0,1-.15-.1.56.56,0,0,1-.1-.15.52.52,0,0,1,0-.18v-1.16a.46.46,0,0,1,.13-.32.47.47,0,0,1,.33-.14.45.45,0,0,1,.33.14.43.43,0,0,1,.14.32v1.16a.48.48,0,0,1-.47.47Zm0-3.48a.58.58,0,0,1-.18,0,.65.65,0,0,1-.15-.1.56.56,0,0,1-.1-.15.57.57,0,0,1,0-.18V248.3a.44.44,0,0,1,.46-.46.49.49,0,0,1,.33.13.47.47,0,0,1,.14.33v1.16a.48.48,0,0,1-.47.47Z" transform="translate(-145.25 -129.39)"/><path class="cls-3" d="M231.57,259.11a.46.46,0,0,1-.33-.13.51.51,0,0,1-.13-.33v-1.16a.44.44,0,0,1,.46-.46.46.46,0,0,1,.47.46v1.16a.47.47,0,0,1-.14.33A.43.43,0,0,1,231.57,259.11Zm0-3.48a.46.46,0,0,1-.33-.13.51.51,0,0,1-.13-.33V254a.51.51,0,0,1,.13-.33.46.46,0,0,1,.33-.13.43.43,0,0,1,.33.13.47.47,0,0,1,.14.33v1.16a.47.47,0,0,1-.14.33A.43.43,0,0,1,231.57,255.63Zm0-3.48a.44.44,0,0,1-.46-.46v-1.16a.51.51,0,0,1,.13-.33.47.47,0,0,1,.33-.14.44.44,0,0,1,.33.14.47.47,0,0,1,.14.33v1.16a.46.46,0,0,1-.47.46Zm0-3.48a.47.47,0,0,1-.17,0l-.16-.1a1.3,1.3,0,0,1-.1-.15.57.57,0,0,1,0-.18v-1.16a.49.49,0,0,1,.13-.33.47.47,0,0,1,.33-.14.44.44,0,0,1,.33.14.45.45,0,0,1,.14.33v1.16a.39.39,0,0,1,0,.18.44.44,0,0,1-.1.15.56.56,0,0,1-.15.1.48.48,0,0,1-.18,0Zm0-3.48a.47.47,0,0,1-.17,0l-.16-.1a1.3,1.3,0,0,1-.1-.15.57.57,0,0,1,0-.18v-1.16a.49.49,0,0,1,.13-.33.47.47,0,0,1,.33-.14.44.44,0,0,1,.33.14.45.45,0,0,1,.14.33v1.16a.39.39,0,0,1,0,.18.44.44,0,0,1-.1.15.56.56,0,0,1-.15.1.48.48,0,0,1-.18,0Zm0-3.48a.33.33,0,0,1-.17,0,.39.39,0,0,1-.16-.1.56.56,0,0,1-.1-.15.47.47,0,0,1,0-.17v-1.16a.46.46,0,0,1,.46-.47.48.48,0,0,1,.47.47v1.16a.33.33,0,0,1,0,.17.46.46,0,0,1-.25.25.34.34,0,0,1-.18,0Zm0-3.48a.33.33,0,0,1-.17,0,.39.39,0,0,1-.16-.1.56.56,0,0,1-.1-.15.47.47,0,0,1,0-.17V236.6a.46.46,0,0,1,.13-.32.47.47,0,0,1,.33-.14.44.44,0,0,1,.33.14.43.43,0,0,1,.14.32v1.17a.33.33,0,0,1,0,.17.46.46,0,0,1-.25.25.34.34,0,0,1-.18,0Zm0-3.48a.33.33,0,0,1-.17,0,.39.39,0,0,1-.16-.1.56.56,0,0,1-.1-.15.48.48,0,0,1,0-.18v-1.16a.46.46,0,0,1,.13-.32.47.47,0,0,1,.33-.14.44.44,0,0,1,.33.14.43.43,0,0,1,.14.32v1.16a.34.34,0,0,1,0,.18.46.46,0,0,1-.25.25.34.34,0,0,1-.18,0Zm0-3.48a.33.33,0,0,1-.17,0,.54.54,0,0,1-.16-.1.56.56,0,0,1-.1-.15.57.57,0,0,1,0-.18v-1.16a.44.44,0,0,1,.46-.46.46.46,0,0,1,.47.46v1.16a.39.39,0,0,1,0,.18.31.31,0,0,1-.1.15.4.4,0,0,1-.15.1.34.34,0,0,1-.18,0Zm0-3.48a.47.47,0,0,1-.17,0,.54.54,0,0,1-.16-.1.56.56,0,0,1-.1-.15.57.57,0,0,1,0-.18v-1.16a.44.44,0,0,1,.46-.46.46.46,0,0,1,.47.46v1.16a.39.39,0,0,1,0,.18.31.31,0,0,1-.1.15.4.4,0,0,1-.15.1.48.48,0,0,1-.18,0Zm0-3.48a.47.47,0,0,1-.17,0,.54.54,0,0,1-.16-.1.56.56,0,0,1-.1-.15.57.57,0,0,1,0-.18v-1.16a.44.44,0,0,1,.46-.46.46.46,0,0,1,.47.46v1.16a.39.39,0,0,1,0,.18.31.31,0,0,1-.1.15.4.4,0,0,1-.15.1.48.48,0,0,1-.18,0Zm0-3.49a.47.47,0,0,1-.17,0,.54.54,0,0,1-.16-.1.78.78,0,0,1-.1-.15.57.57,0,0,1,0-.18V219.2a.44.44,0,0,1,.46-.46.46.46,0,0,1,.47.46v1.16a.39.39,0,0,1,0,.18.36.36,0,0,1-.1.15.4.4,0,0,1-.15.1.48.48,0,0,1-.18,0Zm0-3.48a.47.47,0,0,1-.17,0,.54.54,0,0,1-.16-.1,1.3,1.3,0,0,1-.1-.15.57.57,0,0,1,0-.18v-1.16a.51.51,0,0,1,.13-.33.46.46,0,0,1,.33-.13.43.43,0,0,1,.33.13.47.47,0,0,1,.14.33v1.16a.39.39,0,0,1,0,.18.44.44,0,0,1-.1.15.4.4,0,0,1-.15.1.48.48,0,0,1-.18,0Z" transform="translate(-145.25 -129.39)"/><path class="cls-3" d="M218.08,251.3a.43.43,0,0,1-.33-.13.47.47,0,0,1-.14-.33v-1.16a.47.47,0,0,1,.14-.33.43.43,0,0,1,.33-.13.46.46,0,0,1,.33.13.51.51,0,0,1,.13.33v1.16a.51.51,0,0,1-.13.33.46.46,0,0,1-.33.13Zm0-3.48a.43.43,0,0,1-.33-.13.47.47,0,0,1-.14-.33V246.2a.47.47,0,0,1,.14-.33.43.43,0,0,1,.33-.13.46.46,0,0,1,.33.13.51.51,0,0,1,.13.33v1.16a.51.51,0,0,1-.13.33.46.46,0,0,1-.33.13Zm0-3.48a.46.46,0,0,1-.47-.46v-1.16a.47.47,0,0,1,.14-.33.44.44,0,0,1,.33-.14.47.47,0,0,1,.33.14.51.51,0,0,1,.13.33v1.16a.44.44,0,0,1-.46.46Zm0-3.48a.46.46,0,0,1-.47-.46v-1.16a.45.45,0,0,1,.14-.33.44.44,0,0,1,.33-.14.47.47,0,0,1,.33.14.49.49,0,0,1,.13.33v1.16a.44.44,0,0,1-.46.46Zm0-3.48a.46.46,0,0,1-.47-.46v-1.16a.45.45,0,0,1,.14-.33.44.44,0,0,1,.33-.14.47.47,0,0,1,.33.14.49.49,0,0,1,.13.33v1.16a.44.44,0,0,1-.46.46Zm0-3.48a.44.44,0,0,1-.33-.14.43.43,0,0,1-.14-.32v-1.16a.48.48,0,0,1,.47-.47.46.46,0,0,1,.46.47v1.16a.46.46,0,0,1-.13.32.47.47,0,0,1-.33.14Zm0-3.48a.48.48,0,0,1-.47-.47v-1.16a.43.43,0,0,1,.14-.32.44.44,0,0,1,.33-.14.47.47,0,0,1,.33.14.46.46,0,0,1,.13.32V230a.46.46,0,0,1-.46.47Zm0-3.48a.48.48,0,0,1-.47-.47v-1.16a.43.43,0,0,1,.14-.32.44.44,0,0,1,.33-.14.47.47,0,0,1,.33.14.46.46,0,0,1,.13.32v1.16a.46.46,0,0,1-.46.47Zm0-3.48a.44.44,0,0,1-.33-.14.45.45,0,0,1-.14-.33v-1.16a.46.46,0,0,1,.47-.46.44.44,0,0,1,.46.46V223a.49.49,0,0,1-.13.33.47.47,0,0,1-.33.14Zm0-3.48a.44.44,0,0,1-.33-.14.45.45,0,0,1-.14-.33v-1.16a.46.46,0,0,1,.47-.46.44.44,0,0,1,.46.46v1.16a.49.49,0,0,1-.13.33.47.47,0,0,1-.33.14Zm0-3.48a.44.44,0,0,1-.33-.14.47.47,0,0,1-.14-.33v-1.16a.46.46,0,0,1,.47-.46.44.44,0,0,1,.46.46V216a.51.51,0,0,1-.13.33.47.47,0,0,1-.33.14Zm0-3.49a.43.43,0,0,1-.33-.13.47.47,0,0,1-.14-.33v-1.16a.47.47,0,0,1,.14-.33.43.43,0,0,1,.33-.13.46.46,0,0,1,.33.13.51.51,0,0,1,.13.33v1.16a.51.51,0,0,1-.13.33.46.46,0,0,1-.33.13Zm0-3.48a.46.46,0,0,1-.47-.46v-1.16a.47.47,0,0,1,.14-.33.44.44,0,0,1,.33-.14.47.47,0,0,1,.33.14.51.51,0,0,1,.13.33v1.16a.44.44,0,0,1-.46.46Zm0-3.48a.46.46,0,0,1-.47-.46v-1.16a.45.45,0,0,1,.14-.33.44.44,0,0,1,.33-.14.47.47,0,0,1,.33.14.49.49,0,0,1,.13.33v1.16a.44.44,0,0,1-.46.46Zm0-3.48a.46.46,0,0,1-.47-.46V201a.45.45,0,0,1,.14-.33.44.44,0,0,1,.33-.14.47.47,0,0,1,.33.14.49.49,0,0,1,.13.33v1.16a.47.47,0,0,1,0,.17.86.86,0,0,1-.1.16l-.16.1a.47.47,0,0,1-.17,0Zm0-3.48a.44.44,0,0,1-.33-.14.43.43,0,0,1-.14-.32v-1.16a.48.48,0,0,1,.47-.47.46.46,0,0,1,.46.47v1.16a.47.47,0,0,1,0,.17.56.56,0,0,1-.1.15.57.57,0,0,1-.16.11.47.47,0,0,1-.17,0Z" transform="translate(-145.25 -129.39)"/><path class="cls-3" d="M204.62,243.17a.46.46,0,0,1-.32-.13.47.47,0,0,1-.14-.33v-1.16a.45.45,0,0,1,.14-.33.43.43,0,0,1,.32-.14.44.44,0,0,1,.33.14.45.45,0,0,1,.14.33v1.16a.46.46,0,0,1-.47.46Zm0-3.48a.46.46,0,0,1-.32-.13.47.47,0,0,1-.14-.33v-1.16a.45.45,0,0,1,.14-.33.43.43,0,0,1,.32-.14.44.44,0,0,1,.33.14.45.45,0,0,1,.14.33v1.16a.46.46,0,0,1-.47.46Zm0-3.48a.48.48,0,0,1-.46-.46v-1.16a.44.44,0,0,1,.14-.33.43.43,0,0,1,.32-.14.48.48,0,0,1,.47.47v1.16a.43.43,0,0,1-.14.32.44.44,0,0,1-.33.14Zm0-3.48a.43.43,0,0,1-.32-.14.44.44,0,0,1-.14-.33V231.1a.48.48,0,0,1,.46-.46.44.44,0,0,1,.33.14.43.43,0,0,1,.14.32v1.16a.48.48,0,0,1-.47.47Zm0-3.48a.43.43,0,0,1-.32-.14.44.44,0,0,1-.14-.33v-1.16a.48.48,0,0,1,.46-.46.44.44,0,0,1,.33.14.43.43,0,0,1,.14.32v1.16a.48.48,0,0,1-.47.47Zm0-3.48a.43.43,0,0,1-.32-.14.45.45,0,0,1-.14-.33v-1.16a.47.47,0,0,1,.14-.33.46.46,0,0,1,.32-.13.46.46,0,0,1,.47.46v1.16a.45.45,0,0,1-.14.33.44.44,0,0,1-.33.14Zm0-3.48a.43.43,0,0,1-.32-.14.45.45,0,0,1-.14-.33v-1.16a.47.47,0,0,1,.14-.33.46.46,0,0,1,.32-.13.46.46,0,0,1,.47.46v1.16a.45.45,0,0,1-.14.33.44.44,0,0,1-.33.14Zm0-3.48a.43.43,0,0,1-.32-.14.47.47,0,0,1-.14-.33v-1.16a.47.47,0,0,1,.14-.33.46.46,0,0,1,.32-.13.46.46,0,0,1,.47.46v1.16a.47.47,0,0,1-.14.33.44.44,0,0,1-.33.14Zm0-3.49a.42.42,0,0,1-.32-.13.47.47,0,0,1-.14-.33V213.7a.47.47,0,0,1,.14-.33.42.42,0,0,1,.32-.13.43.43,0,0,1,.33.13.47.47,0,0,1,.14.33v1.16a.47.47,0,0,1-.14.33.43.43,0,0,1-.33.13Zm0-3.48a.46.46,0,0,1-.32-.13.47.47,0,0,1-.14-.33v-1.16a.47.47,0,0,1,.14-.33.43.43,0,0,1,.32-.14.44.44,0,0,1,.33.14.47.47,0,0,1,.14.33v1.16a.46.46,0,0,1-.47.46Zm0-3.48a.46.46,0,0,1-.32-.13.47.47,0,0,1-.14-.33v-1.16a.45.45,0,0,1,.14-.33.43.43,0,0,1,.32-.14.44.44,0,0,1,.33.14.45.45,0,0,1,.14.33v1.16a.46.46,0,0,1-.47.46Z" transform="translate(-145.25 -129.39)"/><path class="cls-3" d="M191.07,235.51a.51.51,0,0,1-.33-.13.47.47,0,0,1-.14-.33v-1.16a.45.45,0,0,1,.14-.33.46.46,0,0,1,.66,0,.44.44,0,0,1,.13.33v1.16a.46.46,0,0,1-.13.33A.51.51,0,0,1,191.07,235.51Zm0-3.48a.51.51,0,0,1-.33-.13.47.47,0,0,1-.14-.33v-1.16a.45.45,0,0,1,.14-.33.46.46,0,0,1,.66,0,.44.44,0,0,1,.13.33v1.16a.46.46,0,0,1-.13.33A.51.51,0,0,1,191.07,232Zm0-3.48a.47.47,0,0,1-.33-.14.43.43,0,0,1-.14-.32v-1.16a.44.44,0,0,1,.14-.33.46.46,0,0,1,.66,0,.43.43,0,0,1,.13.33v1.16a.42.42,0,0,1-.13.32A.47.47,0,0,1,191.07,228.55Zm0-3.48a.47.47,0,0,1-.33-.14.43.43,0,0,1-.14-.32v-1.17a.43.43,0,0,1,.14-.32.46.46,0,0,1,.66,0,.42.42,0,0,1,.13.32v1.17a.42.42,0,0,1-.13.32A.47.47,0,0,1,191.07,225.07Zm0-3.48a.47.47,0,0,1-.33-.14.44.44,0,0,1-.14-.33V220a.43.43,0,0,1,.14-.32.46.46,0,0,1,.66,0,.42.42,0,0,1,.13.32v1.16a.43.43,0,0,1-.13.33A.47.47,0,0,1,191.07,221.59Zm0-3.48a.47.47,0,0,1-.33-.14.45.45,0,0,1-.14-.33v-1.16a.47.47,0,0,1,.14-.33.48.48,0,0,1,.66,0,.46.46,0,0,1,.13.33v1.16a.44.44,0,0,1-.13.33.47.47,0,0,1-.33.14Zm0-3.48a.47.47,0,0,1-.33-.14.45.45,0,0,1-.14-.33V213a.47.47,0,0,1,.14-.33.48.48,0,0,1,.66,0,.46.46,0,0,1,.13.33v1.16a.44.44,0,0,1-.13.33.47.47,0,0,1-.33.14Zm0-3.48a.48.48,0,0,1-.47-.47v-1.16a.47.47,0,0,1,.14-.33.48.48,0,0,1,.66,0,.46.46,0,0,1,.13.33v1.16a.46.46,0,0,1-.13.33.47.47,0,0,1-.33.14Zm0-3.49a.46.46,0,0,1-.33-.13.47.47,0,0,1-.14-.33v-1.09a.47.47,0,0,1,.14-.33.46.46,0,0,1,.79.33v1.09a.44.44,0,0,1-.46.46Z" transform="translate(-145.25 -129.39)"/><path class="cls-4" d="M215.6,189.09a6.38,6.38,0,0,0,2.92,5c1.6.93,2.91.19,2.91-1.66a6.59,6.59,0,0,0-.85-2.86,6.45,6.45,0,0,0-2.06-2.16C216.9,186.5,215.6,187.25,215.6,189.09Z" transform="translate(-145.25 -129.39)"/><path class="cls-3" d="M219.82,195.07a3.11,3.11,0,0,1-1.59-.48,6.87,6.87,0,0,1-2.28-2.36,7,7,0,0,1-.93-3.14c0-1.58.88-2.63,2.18-2.63a3.15,3.15,0,0,1,1.61.47,7,7,0,0,1,3.2,5.5,2.94,2.94,0,0,1-.58,1.88,2,2,0,0,1-.72.57,2.09,2.09,0,0,1-.89.19Zm-2.62-7.45c-.92,0-1,1-1,1.47a5.81,5.81,0,0,0,.79,2.56,5.69,5.69,0,0,0,1.84,1.94c.72.42,1.37.43,1.72,0a1.91,1.91,0,0,0,.32-1.16,5.77,5.77,0,0,0-.79-2.55,5.89,5.89,0,0,0-1.83-1.95A2.07,2.07,0,0,0,217.2,187.62Z" transform="translate(-145.25 -129.39)"/><path class="cls-16" d="M268.62,242.37a1.13,1.13,0,0,1-.51-.12,1.23,1.23,0,0,1-.41-.34l-5-6.54a9.74,9.74,0,0,0-7-3.83L239,230.19a12.23,12.23,0,0,1-4.89-1.47,12.06,12.06,0,0,1-3.85-3.36l-7.09-9.46a9.87,9.87,0,0,0-11.91-3.06,12.07,12.07,0,0,1-10.47-.19l-.66-.33a9.86,9.86,0,0,0-8-.36l-10.78,4.23a1.17,1.17,0,0,1-.45.09,1,1,0,0,1-.46-.08,1.16,1.16,0,0,1-.39-.26,1.08,1.08,0,0,1-.25-.39,1,1,0,0,1-.08-.46,1.14,1.14,0,0,1,.1-.45,1.29,1.29,0,0,1,.28-.38,1.23,1.23,0,0,1,.4-.23l10.78-4.23a12.17,12.17,0,0,1,9.84.44l.67.33a9.82,9.82,0,0,0,4.19,1,9.66,9.66,0,0,0,4.24-.88A12.22,12.22,0,0,1,225,214.51L232,224a9.79,9.79,0,0,0,7.07,3.9l16.78,1.3a12.35,12.35,0,0,1,4.85,1.45,12.14,12.14,0,0,1,3.83,3.3l5,6.54a1.2,1.2,0,0,1-.93,1.9Z" transform="translate(-145.25 -129.39)"/><path class="cls-15" d="M268.82,266.74a1,1,0,0,1-.46-.11l-11.64-5.08a48.7,48.7,0,0,1-17.07-12.37l-3.75-4.24a5.11,5.11,0,0,0-6.68-.85,7.42,7.42,0,0,1-11.47-4.89l-2.73-16a5,5,0,0,0-.84-2,5.13,5.13,0,0,0-1.61-1.5,5.23,5.23,0,0,0-2.1-.67,5.09,5.09,0,0,0-2.19.27l-26.56,9.49a1.12,1.12,0,0,1-.88-.06,1.18,1.18,0,0,1-.59-.67,1.19,1.19,0,0,1,.07-.89,1.16,1.16,0,0,1,.67-.58l26.51-9.47a7.44,7.44,0,0,1,9.81,5.72l2.73,16a5.11,5.11,0,0,0,5.49,4.19,5.16,5.16,0,0,0,2.37-.84,7.46,7.46,0,0,1,9.72,1.24l3.75,4.25a46.73,46.73,0,0,0,16.21,11.78l11.64,5.08a1.08,1.08,0,0,1,.37.26,1.19,1.19,0,0,1,.25.38,1.14,1.14,0,0,1,0,.89,1.07,1.07,0,0,1-.4.49,1.17,1.17,0,0,1-.6.21Z" transform="translate(-145.25 -129.39)"/></g></svg>