<svg id="Camada_1" data-name="Camada 1" xmlns="http://www.w3.org/2000/svg" viewBox="0 0 213.2 203.19"><defs><style>.cls-1{fill:#37474f;}.cls-2{fill:#263238;}.cls-3{fill:#455a64;}.cls-4{fill:#fafafa;}.cls-5{fill:#5d4fe3;}.cls-12,.cls-14,.cls-15,.cls-16,.cls-19,.cls-22,.cls-6{fill:#fff;}.cls-20,.cls-6{opacity:0.3;}.cls-11,.cls-12,.cls-13,.cls-14,.cls-15,.cls-16,.cls-19,.cls-20,.cls-24,.cls-6,.cls-7,.cls-8{isolation:isolate;}.cls-7{opacity:0.15;}.cls-8{opacity:0.2;}.cls-9{fill:#f28f8f;}.cls-10{fill:#e0e0e0;}.cls-11{opacity:0.1;}.cls-12{opacity:0.35;}.cls-13{opacity:0.05;}.cls-14{opacity:0.95;}.cls-15{opacity:0.8;}.cls-16,.cls-23{opacity:0.7;}.cls-17{fill:#ffa8a7;}.cls-18{fill:#b16668;}.cls-19,.cls-21{opacity:0.4;}.cls-24{opacity:0.25;}</style></defs><g id="freepik--Device--inject-2"><g id="freepik--device--inject-2-2" data-name="freepik--device--inject-2"><g id="freepik--Mobile--inject-2"><path class="cls-1" d="M144.13,296.18l59,34.05a6.35,6.35,0,0,0,6.15.12l118.78-68.57a6,6,0,0,0,0-10.82L269.28,217a7.48,7.48,0,0,0-6.77,0L144.13,285.38a6,6,0,0,0,0,10.8Z" transform="translate(-140.74 -138.84)"/><path class="cls-2" d="M203.13,330.23l-59-34.05a6,6,0,0,1,0-10.8l62.21-35.92v81.62A6.22,6.22,0,0,1,203.13,330.23Z" transform="translate(-140.74 -138.84)"/><path class="cls-3" d="M204.53,324.16a6.63,6.63,0,0,0,6,0l117.57-67.87c2.52-1.48,2.52-3.85,0-5.31L269.29,217a7.5,7.5,0,0,0-6.78,0L144.14,285.38c-1.87,1.08-1.87,2.84,0,3.91Z" transform="translate(-140.74 -138.84)"/><path class="cls-1" d="M210.24,317.33a7.1,7.1,0,0,0,6.44,0l101.16-58.41c1.78-1,1.78-2.69,0-3.72l-55.3-31.92a7.08,7.08,0,0,0-6.43,0l-101.17,58.4c-1.77,1-1.77,2.7,0,3.72Z" transform="translate(-140.74 -138.84)"/><path class="cls-2" d="M259.52,222.52a6.38,6.38,0,0,1,3,.76l55.3,31.92c1.78,1,1.78,2.69,0,3.72l-11,6.31L259.52,235Z" transform="translate(-140.74 -138.84)"/><path class="cls-4" d="M256.07,225.69a7.14,7.14,0,0,1,6.43,0l55.31,31.93a3.18,3.18,0,0,1,.84.67,3.28,3.28,0,0,1-.8.63L216.68,317.33a7.1,7.1,0,0,1-6.44,0l-55.3-31.93a3,3,0,0,1-.84-.67,3.28,3.28,0,0,1,.8-.63Z" transform="translate(-140.74 -138.84)"/><path class="cls-2" d="M297.63,240.27l-9.8-5.66c-.59-.34-.62-.87-.07-1.18a2.25,2.25,0,0,1,2.05,0l9.79,5.65c.58.34.61.86.06,1.18A2.24,2.24,0,0,1,297.63,240.27Z" transform="translate(-140.74 -138.84)"/><path class="cls-2" d="M280.8,230.57a.61.61,0,0,1,0-1.15,2.2,2.2,0,0,1,2,0,.61.61,0,0,1,0,1.15A2.2,2.2,0,0,1,280.8,230.57Z" transform="translate(-140.74 -138.84)"/><path class="cls-2" d="M276.83,228.26a.61.61,0,0,1,0-1.15,2.2,2.2,0,0,1,2,0,.61.61,0,0,1,0,1.15A2.2,2.2,0,0,1,276.83,228.26Z" transform="translate(-140.74 -138.84)"/><path class="cls-2" d="M308.61,246.62a.61.61,0,0,1-.38-.76.62.62,0,0,1,.38-.38,2.16,2.16,0,0,1,2,0,.61.61,0,0,1,.38.76.62.62,0,0,1-.38.38A2.22,2.22,0,0,1,308.61,246.62Z" transform="translate(-140.74 -138.84)"/><path class="cls-2" d="M304.64,244.33a.61.61,0,0,1,0-1.15,2.2,2.2,0,0,1,2,0,.61.61,0,0,1,0,1.15A2.2,2.2,0,0,1,304.64,244.33Z" transform="translate(-140.74 -138.84)"/></g><g id="freepik--mail-notification--inject-2"><path class="cls-5" d="M207.77,301v.2a1.2,1.2,0,0,0,.53.93l11.51,6.64a1.21,1.21,0,0,0,1.08,0l19.06-11a1.17,1.17,0,0,0,.53-.93v-.21a1.13,1.13,0,0,0-.53-.93l-11.51-6.65a1.19,1.19,0,0,0-1.07,0l-19.07,11A1.22,1.22,0,0,0,207.77,301Z" transform="translate(-140.74 -138.84)"/><path class="cls-5" d="M207.77,301v.2a1.2,1.2,0,0,0,.53.93l11.51,6.64a1.21,1.21,0,0,0,1.08,0l19.06-11a1.17,1.17,0,0,0,.53-.93v-.21a1.13,1.13,0,0,0-.53-.93l-11.51-6.65a1.19,1.19,0,0,0-1.07,0l-19.07,11A1.22,1.22,0,0,0,207.77,301Z" transform="translate(-140.74 -138.84)"/><path class="cls-6" d="M240,295.73l-11.51-6.65a1.19,1.19,0,0,0-1.07,0l-7,4.05v15.78h0a1.09,1.09,0,0,0,.53-.13l19.06-11a1.17,1.17,0,0,0,.53-.93v-.21A1.13,1.13,0,0,0,240,295.73Z" transform="translate(-140.74 -138.84)"/><path class="cls-7" d="M240,295.73l-11.51-6.65a1.19,1.19,0,0,0-1.07,0l-7,4.05v15.78h0a1.09,1.09,0,0,0,.53-.13l19.06-11a1.17,1.17,0,0,0,.53-.93v-.21A1.13,1.13,0,0,0,240,295.73Z" transform="translate(-140.74 -138.84)"/><path class="cls-6" d="M220.35,293.13l-12,6.95a1.22,1.22,0,0,0-.53.94v.2a1.2,1.2,0,0,0,.53.93l11.51,6.64a1,1,0,0,0,.54.13h0Z" transform="translate(-140.74 -138.84)"/><path class="cls-8" d="M220.35,293.13l-12,6.95a1.22,1.22,0,0,0-.53.94v.2a1.2,1.2,0,0,0,.53.93l11.51,6.64a1,1,0,0,0,.54.13h0Z" transform="translate(-140.74 -138.84)"/><path class="cls-5" d="M218,306.29l-9.67-5.56a.33.33,0,0,1-.19-.43.34.34,0,0,1,.19-.2l19.06-11a1.21,1.21,0,0,1,1.08,0L240,295.73a.33.33,0,0,1,.2.42.36.36,0,0,1-.2.2l-3.16,1.82-1.11.64-14.79,8.54a1.19,1.19,0,0,1-1.07,0l-.94-.54Z" transform="translate(-140.74 -138.84)"/><path class="cls-6" d="M218,306.29l-9.67-5.56a.33.33,0,0,1-.19-.43.34.34,0,0,1,.19-.2l19.06-11a1.21,1.21,0,0,1,1.08,0L240,295.73a.33.33,0,0,1,.2.42.36.36,0,0,1-.2.2l-3.16,1.82-1.11.64-14.79,8.54a1.19,1.19,0,0,1-1.07,0l-.94-.54Z" transform="translate(-140.74 -138.84)"/><path class="cls-7" d="M226.74,297,240,295.73l-13.08.74,1.57-7.4a1.18,1.18,0,0,0-.59-.12l-2.46,10-17.3,1.43a.39.39,0,0,0,.22.34l14-.81-1.92,7.58,2.46-7.62h0l2.39-.14a1.2,1.2,0,0,0,.78-.33h0a1.31,1.31,0,0,0,.4-.69Z" transform="translate(-140.74 -138.84)"/><path class="cls-6" d="M212.21,300l13.17-1.09.5-1.88.26-1.05,1.74-7.05a1,1,0,0,0-.49.12l-9.53,5.5-9.56,5.5a.42.42,0,0,0-.21.29l2.64-.22Z" transform="translate(-140.74 -138.84)"/><path class="cls-9" d="M225.72,287.51a4.79,4.79,0,0,1,4.36,0,1.33,1.33,0,0,1,0,2.51,4.79,4.79,0,0,1-4.36,0A1.33,1.33,0,0,1,225.72,287.51Z" transform="translate(-140.74 -138.84)"/><path class="cls-4" d="M226.38,289.18a.12.12,0,0,1-.09,0,.07.07,0,0,1,0-.06l.18-.79v-.08l.07-.07.44-.25a.17.17,0,0,1,.1,0l.09,0,2.34,1.34a.07.07,0,0,1,0,.08l0,0-.49.27h-.2l-1.58-.91-.1.44s0,0-.05,0a.21.21,0,0,1-.11,0Z" transform="translate(-140.74 -138.84)"/></g><g id="freepik--Notification--inject-2"><path class="cls-5" d="M247.84,292.62l-13-7.48a.32.32,0,0,1,0-.61l47-27.12a1.25,1.25,0,0,1,1.07,0l12.95,7.48a.33.33,0,0,1,0,.62l-47,27.11A1.19,1.19,0,0,1,247.84,292.62Z" transform="translate(-140.74 -138.84)"/><path class="cls-4" d="M245.37,284.17a.2.2,0,0,1-.13,0h-.1l-2.69-.31,1.59.92a.07.07,0,0,1,0,.09l0,0-.32.18h-.2l-2.5-1.44s-.05,0-.05-.06a.06.06,0,0,1,.05-.06l.27-.16a.28.28,0,0,1,.13,0h.11l2.69.3-1.6-.92a.06.06,0,0,1,0-.08s0,0,0,0l.32-.18.1,0a.22.22,0,0,1,.11,0l2.49,1.45a.05.05,0,0,1,.06.06s0,.05-.06.05Z" transform="translate(-140.74 -138.84)"/><path class="cls-4" d="M245.2,283.1a1.27,1.27,0,0,1-.34-.27.49.49,0,0,1-.14-.3.5.5,0,0,1,.08-.31.91.91,0,0,1,.31-.27,1.76,1.76,0,0,1,.47-.18,2.94,2.94,0,0,1,.51,0,2.87,2.87,0,0,1,.5.07,1.85,1.85,0,0,1,.44.18l.17.1a.07.07,0,0,1,0,.09l0,0-1.29.75a.68.68,0,0,0,.2.07h.21l.21-.05.19-.08a1,1,0,0,0,.18-.13.24.24,0,0,0,.06-.11l0-.07.06,0,.31-.18a.19.19,0,0,1,.1,0,.2.2,0,0,1,.11,0,.15.15,0,0,1,.08.11.31.31,0,0,1,0,.19.77.77,0,0,1-.14.25,1.31,1.31,0,0,1-.32.25,2.07,2.07,0,0,1-.47.18,1.8,1.8,0,0,1-.52.05,2.64,2.64,0,0,1-.49-.08A2.25,2.25,0,0,1,245.2,283.1Zm.37-.88a.65.65,0,0,0-.16.13.29.29,0,0,0,0,.13.21.21,0,0,0,0,.11.24.24,0,0,0,.08.09l.87-.49-.14-.05a.63.63,0,0,0-.19,0l-.21,0A1.17,1.17,0,0,0,245.57,282.22Z" transform="translate(-140.74 -138.84)"/><path class="cls-4" d="M249.62,280.78l-.75-.85a.05.05,0,0,1,0-.05.07.07,0,0,1,0-.06l.29-.17.11,0a.23.23,0,0,1,.11,0h0l1.2,1.36,0,.06a.09.09,0,0,1-.05.07l-.29.16a.2.2,0,0,1-.11,0h-.1l-1.41-.38.66.81,0,.06a.07.07,0,0,1,0,.06l-.29.17a.2.2,0,0,1-.11,0h-.1l-2.37-.69h0a.05.05,0,0,1-.05-.06s0-.06.05-.06l.29-.17.11,0h.1l1.45.43-.73-.85a0,0,0,0,1,0,0s0-.05,0-.06l.29-.17h.2Z" transform="translate(-140.74 -138.84)"/><path class="cls-4" d="M251.37,279.53a1.3,1.3,0,0,1-.34-.28.49.49,0,0,1-.14-.3.46.46,0,0,1,.07-.3,1,1,0,0,1,.31-.28,2.13,2.13,0,0,1,.5-.18,2.63,2.63,0,0,1,.49-.05,2,2,0,0,1,.49.08,1.44,1.44,0,0,1,.45.17l.17.1a.07.07,0,0,1,0,.06.06.06,0,0,1,0,.07l-1.29.74a.44.44,0,0,0,.19.07h.21l.22,0a.82.82,0,0,0,.19-.09.52.52,0,0,0,.17-.13.3.3,0,0,0,.07-.11.14.14,0,0,1,0-.06.18.18,0,0,1,.07-.05l.31-.18a.23.23,0,0,1,.2,0,.2.2,0,0,1,.08.12.31.31,0,0,1,0,.19.72.72,0,0,1-.14.24,1.11,1.11,0,0,1-.32.25,1.35,1.35,0,0,1-.47.18,1.63,1.63,0,0,1-.49.05,1.82,1.82,0,0,1-.52-.08A2.15,2.15,0,0,1,251.37,279.53Zm.37-.88a.61.61,0,0,0-.16.12.2.2,0,0,0,0,.13.14.14,0,0,0,0,.12l.08.08.88-.49-.16-.05-.18,0-.21,0a.64.64,0,0,0-.24.1Z" transform="translate(-140.74 -138.84)"/><path class="cls-4" d="M253.38,277.44a.32.32,0,0,1,.06-.23.48.48,0,0,1,.21-.19,1.45,1.45,0,0,1,.49-.18,2.09,2.09,0,0,1,.5,0,.38.38,0,0,1,0-.15.3.3,0,0,1,.05-.15.76.76,0,0,1,.11-.14l.15-.11a1.49,1.49,0,0,1,.44-.17,1.55,1.55,0,0,1,.43,0,1.43,1.43,0,0,1,.42.09,2.64,2.64,0,0,1,.38.18l1.05.6a.07.07,0,0,1,0,.09l0,0-.3.17a.19.19,0,0,1-.1,0,.2.2,0,0,1-.11,0l-1-.59a1,1,0,0,0-.47-.15.72.72,0,0,0-.38.1.3.3,0,0,0-.17.21c0,.08.07.17.24.27l1,.6a.06.06,0,0,1,.05.06s0,.06-.05.06l-.3.18-.1,0-.11,0-1-.6a1,1,0,0,0-.47-.15.72.72,0,0,0-.38.1.28.28,0,0,0-.17.22c0,.08.08.18.26.28l1,.58a.1.1,0,0,1,0,.07.08.08,0,0,1,0,.06l-.3.16a.18.18,0,0,1-.2,0l-1.81-1a.06.06,0,0,1-.06-.06.06.06,0,0,1,.06-.05l.3-.18.1,0,.1,0Z" transform="translate(-140.74 -138.84)"/><path class="cls-4" d="M256.74,275.86a.4.4,0,0,1-.1-.15.31.31,0,0,1,0-.19.46.46,0,0,1,.11-.22.86.86,0,0,1,.3-.23,1.5,1.5,0,0,1,.41-.18,1.94,1.94,0,0,1,.42-.07,1.27,1.27,0,0,1,.43.05,2.05,2.05,0,0,1,.41.16l1.14.66a.08.08,0,0,1,0,.06.07.07,0,0,1,0,.06l-.29.17a.15.15,0,0,1-.11,0,.12.12,0,0,1-.1,0l-.13-.08a.35.35,0,0,1,0,.25.8.8,0,0,1-.31.27,1.26,1.26,0,0,1-.34.15,1.41,1.41,0,0,1-.35.05,1.22,1.22,0,0,1-.33,0,1.48,1.48,0,0,1-.29-.12c-.18-.1-.25-.22-.23-.35a.78.78,0,0,1,.3-.41l.53-.43a.55.55,0,0,0-.33-.07,1.17,1.17,0,0,0-.33.11.32.32,0,0,0-.12.11.17.17,0,0,0,0,.1v.06l-.06,0-.36.22h-.09A.11.11,0,0,1,256.74,275.86Zm1.74.25a.58.58,0,0,0,.19-.16.28.28,0,0,0,.08-.15.23.23,0,0,0,0-.14.25.25,0,0,0-.12-.11l0,0-.43.36a.34.34,0,0,0-.15.18.11.11,0,0,0,.07.12.34.34,0,0,0,.2,0,.73.73,0,0,0,.24-.07Z" transform="translate(-140.74 -138.84)"/><path class="cls-4" d="M258.14,273.61a.23.23,0,0,1,.2,0l.3.18a.08.08,0,0,1,.05,0s0,.05-.05.07l-.33.19a.17.17,0,0,1-.1,0,.23.23,0,0,1-.11,0l-.3-.18a.06.06,0,0,1,0-.08,0,0,0,0,1,0,0Zm2.72,1.48s.05,0,.05.07,0,0-.05,0l-.29.17a.23.23,0,0,1-.11,0,.19.19,0,0,1-.1,0l-1.8-1a.05.05,0,0,1,0-.06s0,0,0-.06l.29-.17.1,0a.2.2,0,0,1,.11,0Z" transform="translate(-140.74 -138.84)"/><path class="cls-4" d="M261.9,274.51a.06.06,0,0,1,0,.08,0,0,0,0,1,0,0l-.29.18-.11,0-.11,0-2.53-1.48a.08.08,0,0,1,0-.07.07.07,0,0,1,0-.06l.29-.16h.21Z" transform="translate(-140.74 -138.84)"/><path class="cls-4" d="M246.55,286.25l38.34-22.13a1.74,1.74,0,0,1,1.54-.1c.38.22.31.62-.16.89l-38.34,22.14a1.73,1.73,0,0,1-1.55.09C246,286.92,246.08,286.53,246.55,286.25Z" transform="translate(-140.74 -138.84)"/><path class="cls-4" d="M249.24,287.81l38.34-22.13a1.71,1.71,0,0,1,1.54-.1c.39.22.31.61-.16.89L250.62,288.6a1.71,1.71,0,0,1-1.54.1C248.7,288.48,248.77,288.08,249.24,287.81Z" transform="translate(-140.74 -138.84)"/></g></g></g><g id="freepik--Character--inject-2"><g id="freepik--character-envelope--inject-2"><polygon id="freepik--shadow--inject-2" class="cls-10" points="51.58 163.33 31.56 151.77 121.26 99.98 141.69 111.31 51.58 163.33"/><g id="freepik--Back--inject-2"><path class="cls-5" d="M186.9,230.1l85.31-49.26,3.42,2a3.56,3.56,0,0,1,1.6,2.78v62.93a3.56,3.56,0,0,1-1.6,2.78l-82.1,47.4a3.56,3.56,0,0,1-3.21,0l-1.81-1a3.6,3.6,0,0,1-1.61-2.78Z" transform="translate(-140.74 -138.84)"/><path class="cls-8" d="M186.9,230.1l85.31-49.26,3.42,2a3.56,3.56,0,0,1,1.6,2.78v62.93a3.56,3.56,0,0,1-1.6,2.78l-82.1,47.4a3.56,3.56,0,0,1-3.21,0l-1.81-1a3.6,3.6,0,0,1-1.61-2.78Z" transform="translate(-140.74 -138.84)"/><path class="cls-5" d="M271.74,175.31l.35-.18-1.32-.78h0l-.35-.17-37.55-13.91a2.6,2.6,0,0,0-2.88.92l-42,61.33a7.38,7.38,0,0,0-1.09,3.5v4.08l1.31.75,84-50v-4.07A2.75,2.75,0,0,0,271.74,175.31Z" transform="translate(-140.74 -138.84)"/><path class="cls-11" d="M231.72,161.49a2.35,2.35,0,0,0-.43.46l-42,61.33a6.25,6.25,0,0,0-.78,1.75l-1.3-.75a6.08,6.08,0,0,1,.34-.93,0,0,0,0,1,0,0,3.14,3.14,0,0,1,.18-.37l0-.06a3.6,3.6,0,0,1,.22-.37l42-61.3a1.71,1.71,0,0,1,.21-.26,2.09,2.09,0,0,1,.22-.2Z" transform="translate(-140.74 -138.84)"/><path class="cls-12" d="M272.08,175.12l-.36-.18L234.17,161a2.57,2.57,0,0,0-2.47.46l-1.28-.76a2.59,2.59,0,0,1,2.47-.46l37.53,13.91a2.91,2.91,0,0,1,.35.18Z" transform="translate(-140.74 -138.84)"/><path class="cls-5" d="M187.77,222.89a3.6,3.6,0,0,1,.22-.37A3.6,3.6,0,0,0,187.77,222.89Z" transform="translate(-140.74 -138.84)"/><path class="cls-5" d="M230.2,160.94l.22-.21Z" transform="translate(-140.74 -138.84)"/><path class="cls-5" d="M187.21,224.28a7.36,7.36,0,0,1,.34-.93A7.36,7.36,0,0,0,187.21,224.28Z" transform="translate(-140.74 -138.84)"/><path class="cls-5" d="M187.56,223.33c.05-.13.11-.25.17-.37C187.7,223.07,187.61,223.19,187.56,223.33Z" transform="translate(-140.74 -138.84)"/><path class="cls-8" d="M187.55,223.33v0Z" transform="translate(-140.74 -138.84)"/><polygon class="cls-8" points="46.46 85.44 46.46 85.44 46.46 85.44 46.46 85.44"/><polygon class="cls-8" points="89.68 21.89 89.68 21.89 89.68 21.89 89.68 21.89"/><path class="cls-8" d="M187.73,223l0-.06Z" transform="translate(-140.74 -138.84)"/><path class="cls-8" d="M230,161.19a1.64,1.64,0,0,1,.21-.25A1.64,1.64,0,0,0,230,161.19Z" transform="translate(-140.74 -138.84)"/><path class="cls-5" d="M231.29,162l-42,61.33a7.25,7.25,0,0,0-1.1,3.5v4.07L273.5,181.6v-4.07a3,3,0,0,0-1.8-2.59L234.17,161A2.57,2.57,0,0,0,231.29,162Z" transform="translate(-140.74 -138.84)"/><path class="cls-13" d="M273.52,177.53a2.85,2.85,0,0,0-.46-1.44L188.51,225h0a6.58,6.58,0,0,0-.32,1.75v4.07L273.5,181.6Z" transform="translate(-140.74 -138.84)"/></g><g id="freepik--Paper--inject-2"><path class="cls-5" d="M269.87,160.23a1,1,0,0,0-.4-.89l-2.6-1.48a1,1,0,0,0-1,.1l-70,40.42a3.06,3.06,0,0,0-1.38,2.4v83.81a1,1,0,0,0,.4.89l2.6,1.48a1,1,0,0,0,1-.09l70-40.4a3.06,3.06,0,0,0,1.39-2.43Z" transform="translate(-140.74 -138.84)"/><path class="cls-14" d="M269.87,160.23a1,1,0,0,0-.4-.89l-2.6-1.48a1,1,0,0,0-1,.1l-70,40.42a3.06,3.06,0,0,0-1.38,2.4v83.81a1,1,0,0,0,.4.89l2.6,1.48a1,1,0,0,0,1-.09l70-40.4a3.06,3.06,0,0,0,1.39-2.43Z" transform="translate(-140.74 -138.84)"/><path class="cls-5" d="M198.51,286.84l70-40.4a3,3,0,0,0,1.36-2.4V160.23c0-.88-.62-1.23-1.38-.79l-70,40.42a3.06,3.06,0,0,0-1.38,2.4v83.8C197.13,286.92,197.75,287.28,198.51,286.84Z" transform="translate(-140.74 -138.84)"/><path class="cls-15" d="M198.51,286.84l70-40.4a3,3,0,0,0,1.36-2.4V160.23c0-.88-.62-1.23-1.38-.79l-70,40.42a3.06,3.06,0,0,0-1.38,2.4v83.8C197.13,286.92,197.75,287.28,198.51,286.84Z" transform="translate(-140.74 -138.84)"/><path class="cls-5" d="M197.13,286a1,1,0,0,0,.32.84l-2.51-1.45a1,1,0,0,1-.41-.89v-83.8a2.84,2.84,0,0,1,.41-1.36l2.6,1.48a2.74,2.74,0,0,0-.41,1.37Z" transform="translate(-140.74 -138.84)"/><path class="cls-16" d="M197.13,286a1,1,0,0,0,.32.84l-2.51-1.45a1,1,0,0,1-.41-.89v-83.8a2.84,2.84,0,0,1,.41-1.36l2.6,1.48a2.74,2.74,0,0,0-.41,1.37Z" transform="translate(-140.74 -138.84)"/><path class="cls-13" d="M197.13,286a1,1,0,0,0,.32.84l-2.51-1.45a1,1,0,0,1-.41-.89v-83.8a2.84,2.84,0,0,1,.41-1.36l2.6,1.48a2.74,2.74,0,0,0-.41,1.37Z" transform="translate(-140.74 -138.84)"/></g><g id="freepik--character--inject-2-2" data-name="freepik--character--inject-2"><path class="cls-1" d="M222.66,222.7c-.3,7.8.22,24.51.22,24.51s8.27,2.49,13.88,1.56,17.63-9.44,17.63-9.44l-2-18.08Z" transform="translate(-140.74 -138.84)"/><path class="cls-2" d="M241.85,246.92l1.34-12.74a17,17,0,0,0,7-7.49c-4.79,6.27-9.79,5.26-9.79,5.26v15.64C240.86,247.39,241.35,247.16,241.85,246.92Z" transform="translate(-140.74 -138.84)"/><path class="cls-3" d="M255.69,199.22c1.34-6.79,1.95-15.81-3.94-17.46a24.13,24.13,0,0,0-5.45-.13l-6.37.31c-3.54.45-8.51,1.16-9.81,1.48-3.42.85-4.44,6.41-6,18.8-1,7.75-1.78,13.81-1.78,21.35,6.25,5.6,25.8,3.39,30.24-.25C252.77,214.76,253.26,211.59,255.69,199.22Z" transform="translate(-140.74 -138.84)"/><path class="cls-1" d="M238.84,179.63c-.06,1.24,1.36,3.33,3.55,4.8s4.06,2.06,4.29,2.68a3.53,3.53,0,0,0-2.74,2.46c-.73,1.7-.73,1.75-3.24,0s-4.78-5.77-4.77-7.11,2-4,3-3.72Z" transform="translate(-140.74 -138.84)"/><path class="cls-1" d="M246.68,187.11a8.71,8.71,0,0,0,1.53-3.71l.32-3.18a1.67,1.67,0,0,1,.88.57,12.37,12.37,0,0,1,1.56,4.72,11.76,11.76,0,0,1-.92,4.52c-.53.89-.88-.67-1.22-1.27A2.61,2.61,0,0,0,246.68,187.11Z" transform="translate(-140.74 -138.84)"/><path class="cls-1" d="M245.69,188.88a60,60,0,0,1-.4,8.56,9.31,9.31,0,0,0,3.33-.09s-.85,1.05-4,.57A88.77,88.77,0,0,0,245.69,188.88Z" transform="translate(-140.74 -138.84)"/><path class="cls-2" d="M258.91,163.08a8.87,8.87,0,0,0-17.69-.67l-4-2.87a3.16,3.16,0,0,0-2.6,1c-1.1,1.16-.42,4.73,1,8.22a72.06,72.06,0,0,0,2,7.4,2.9,2.9,0,0,0,1.69,1.32l-.14-3.88,16.11-1.15-1.6-1.14A8.86,8.86,0,0,0,258.91,163.08Z" transform="translate(-140.74 -138.84)"/><path class="cls-17" d="M239,169c-.5.31-1-.76-1.9-1.32s-2.56-1.29-3.72.66c-1.26,2.11,1,5,2.62,5.62a2.36,2.36,0,0,0,3.21-1l-.5,9.86c3.24,5.89,12.78,5.53,9.53.6l.39-3.8a17.7,17.7,0,0,0,3.79.14c2.05-.35,3.33-2,3.94-4.24.95-3.6,1.29-6.51.34-13.55-1.05-7.71-10.05-7.66-14.86-4.54S239,169,239,169Z" transform="translate(-140.74 -138.84)"/><path class="cls-2" d="M258.61,154.74a3.39,3.39,0,0,0-2.17-.25,2.65,2.65,0,0,0-1.58-2.65,3.06,3.06,0,0,0-3.33.45,1.58,1.58,0,0,0-1.3-1.76,4.23,4.23,0,0,0-2.37.4c-1.13.43-2.24.91-3.39,1.29-2,.68-4.18,1.06-6,2.16a3.73,3.73,0,0,0-1.14,1,3.09,3.09,0,0,0-.49,2,4.08,4.08,0,0,0,.09.69,1.66,1.66,0,0,0-.49-.38,1.72,1.72,0,0,0-2.3.73.2.2,0,0,1,0,.08l3,1.58c-.07.62-.15,1.23-.21,1.85a16.13,16.13,0,0,0-.11,5.14,1.17,1.17,0,0,0,.19.54,9.66,9.66,0,0,1,1.59,1.54c.24.29.52.75.9.86a.91.91,0,0,0,1.06-.49,1.74,1.74,0,0,0,0-.72l-.29-3a1.63,1.63,0,0,1,0-.79,2.27,2.27,0,0,1,.73-.78,3.47,3.47,0,0,0,1.2-2.41,3.53,3.53,0,0,1,.08-.86c.06-.21.23-.54.49-.54.47,0,3,.55,3.66.64,3.34.46,6.93.54,9.86-1.1,1.15-.63,3.08-2,3.28-3.38A1.88,1.88,0,0,0,258.61,154.74Z" transform="translate(-140.74 -138.84)"/><path class="cls-9" d="M248.6,179.6a35.67,35.67,0,0,1-6.24-1.7,5.32,5.32,0,0,1-2.26-2.17,7.16,7.16,0,0,0,1.31,2.58c1.19,1.48,7.07,2.51,7.07,2.51Z" transform="translate(-140.74 -138.84)"/><path class="cls-2" d="M248.41,168.12a.87.87,0,1,1-.88-.89.89.89,0,0,1,.88.88Z" transform="translate(-140.74 -138.84)"/><path class="cls-2" d="M246.72,164.91l-2,1a1.19,1.19,0,0,1,.55-1.55,1.1,1.1,0,0,1,1.47.52Z" transform="translate(-140.74 -138.84)"/><path class="cls-18" d="M246.75,173.54l3.66,1.32a1.9,1.9,0,0,1-2.39,1.26l-.07,0A2,2,0,0,1,246.75,173.54Z" transform="translate(-140.74 -138.84)"/><path class="cls-9" d="M249.06,176.15a1.9,1.9,0,0,0-2.14-1.63l-.24,0A2,2,0,0,0,248,176.1,1.83,1.83,0,0,0,249.06,176.15Z" transform="translate(-140.74 -138.84)"/><path class="cls-2" d="M256.34,165.58l-2-1a1.08,1.08,0,0,1,1.44-.49l0,0A1.12,1.12,0,0,1,256.34,165.58Z" transform="translate(-140.74 -138.84)"/><path class="cls-2" d="M255.34,168a.88.88,0,0,1-.85.91h0a.89.89,0,0,1-.88-.89.87.87,0,0,1,1.73-.13V168Z" transform="translate(-140.74 -138.84)"/><polygon class="cls-9" points="110.19 28.62 110.36 34.21 113.66 33.44 110.19 28.62"/></g><g id="freepik--Front--inject-2"><path class="cls-5" d="M275.07,249.36l-.09.13-35.55-11.27a6.11,6.11,0,0,0-7.68,2.37l-38,56.48-1.4.82h0a1.14,1.14,0,0,1-1.09.11l39.09-58.22a6.14,6.14,0,0,1,7.68-2.37Z" transform="translate(-140.74 -138.84)"/><path class="cls-19" d="M228.25,246.13l.09-.08-34.6,51-1.41.82h0a1.17,1.17,0,0,1-1.09.12l35.65-52.7Z" transform="translate(-140.74 -138.84)"/><path class="cls-19" d="M275.07,249.37l-.09.13-35.55-11.28a6.13,6.13,0,0,0-7.69,2.37l-1.4-.82a6.13,6.13,0,0,1,7.67-2.36Z" transform="translate(-140.74 -138.84)"/><path class="cls-5" d="M277.2,185.19h0c-.08-.46-.32-.58-.63-.37a1.68,1.68,0,0,0-.41.43l-.18.24L240.9,238.83l-5.24,7.3a3,3,0,0,1-2.89,1.08l-4.52-1.08-34.5-12.7a1.7,1.7,0,0,0-.71,0l-.26.08,1.3-.75,33.09,12.13,4.36,1.56a3,3,0,0,0,2.89-1.09l5.24-7.29,35.25-53.58a1.41,1.41,0,0,1,.4-.37l-3.06-1.76,1.29-.73,2.11,1.22A3.67,3.67,0,0,1,277.2,185.19Z" transform="translate(-140.74 -138.84)"/><path class="cls-19" d="M240.89,238.83l-5.24,7.3a3,3,0,0,1-2.88,1.08l-4.52-1.08.09-.08.21-.34,3,.7a3,3,0,0,0,2.89-1.08l5.19-7.21Z" transform="translate(-140.74 -138.84)"/><path class="cls-11" d="M275.63,182.81l-2.11-1.21-1.28.73,3.05,1.76h0a1.41,1.41,0,0,0-.4.37L239.63,238l0,.07h0l1.31.71L276,185.49l.18-.25a1.49,1.49,0,0,1,.41-.42c.31-.22.55-.1.63.37h0A3.67,3.67,0,0,0,275.63,182.81Z" transform="translate(-140.74 -138.84)"/><path class="cls-5" d="M194.43,234.45l-7.53-4.35v64.78a3.6,3.6,0,0,0,1.61,2.78l1.81,1a3.56,3.56,0,0,0,3.21,0l.9-.52Z" transform="translate(-140.74 -138.84)"/><path class="cls-7" d="M194.43,234.45l-7.53-4.35v64.78a3.6,3.6,0,0,0,1.61,2.78l1.81,1a3.56,3.56,0,0,0,3.21,0l.9-.52Z" transform="translate(-140.74 -138.84)"/><path class="cls-5" d="M277.23,185.6v62.93a3.33,3.33,0,0,1-.49,1.62,3.66,3.66,0,0,1-.94,1.06l-.07,0-.09.07L193.53,298.7h0a1.12,1.12,0,0,1-1.09.13,1,1,0,0,1-.5-.77V234.85a1.4,1.4,0,0,1,1.81-1.42l34.5,12.7,4.52,1.08a3,3,0,0,0,2.89-1.08l5.24-7.3L276,185.49l.18-.24C276.75,184.42,277.23,184.58,277.23,185.6Z" transform="translate(-140.74 -138.84)"/><path class="cls-5" d="M275.63,251.31l.1-.07.06,0a3.4,3.4,0,0,0,.95-1,3.44,3.44,0,0,0,.49-1.59l-36.34-9.73,24.33,18.48Z" transform="translate(-140.74 -138.84)"/><path class="cls-8" d="M275.63,251.31l.1-.07.06,0a3.4,3.4,0,0,0,.95-1,3.44,3.44,0,0,0,.49-1.59l-36.34-9.73,24.33,18.48Z" transform="translate(-140.74 -138.84)"/><path class="cls-5" d="M191.92,297.77a1.09,1.09,0,0,0,.5,1.05,1.15,1.15,0,0,0,1.09-.12h0l28.27-16.32,6.45-36.25-36.3,50.6Z" transform="translate(-140.74 -138.84)"/><path class="cls-7" d="M231.73,240.59l-39.3,58.24a1.09,1.09,0,0,1-.5-1.05v-1l38.4-56.94h0Z" transform="translate(-140.74 -138.84)"/><path class="cls-5" d="M276.74,250.15a3.4,3.4,0,0,1-.95,1l-.06,0-82.2,47.46h0a1.12,1.12,0,0,1-1.09.13l39.3-58.24a6.17,6.17,0,0,1,7.72-2.39Z" transform="translate(-140.74 -138.84)"/><path class="cls-7" d="M187.21,224.28l1.3.75a6.21,6.21,0,0,0-.32,1.75v4.07l-1.3-.75V226A6.08,6.08,0,0,1,187.21,224.28Z" transform="translate(-140.74 -138.84)"/><polygon class="cls-5" points="53.33 93.89 52.03 94.64 50.7 93.88 47.47 92.01 48.72 91.27 53.33 93.89"/><path class="cls-11" d="M194.11,232.76l-4.66-2.65-1.26.74,3.24,1.87,1.32.76h0l.25-.08a1.66,1.66,0,0,1,.7,0l2.62,1,30.13,11.1.5-.7Z" transform="translate(-140.74 -138.84)"/></g><g id="freepik--Arm--inject-2"><path class="cls-17" d="M230.09,183.4c-4.18.3-7.05,1.3-9.74,7.78-1.75,4.18-8.58,19.22-9.24,21.72-.78,2.91-2.53,25.11-2.53,25.11l4,1.48s-1.37,4.78-2.53,7.5c-1.33,3.15,5.17,2.49,7.26-.37s3.51-6.69,2.37-8a18.66,18.66,0,0,0-3.16-2.93l4.36-19.8,9.17-19.48S234.66,186.85,230.09,183.4Z" transform="translate(-140.74 -138.84)"/><path class="cls-9" d="M216.53,235.7a8.55,8.55,0,0,0-4.06-1.16,7.83,7.83,0,0,1,4.24,0Z" transform="translate(-140.74 -138.84)"/><path class="cls-1" d="M231.05,183.23c-2.35,0-6.73-.13-9.57,5s-6.85,14.89-6.85,14.89,1.66,4.1,10.6,5l6.83-14.58S233.74,186.82,231.05,183.23Z" transform="translate(-140.74 -138.84)"/></g><g id="freepik--arm--inject-2-2" data-name="freepik--arm--inject-2"><path class="cls-17" d="M261.35,186.59c3.53,2.78,9.26,7.16,12,8.91,2.1-2.55,6-7.7,6.9-8.83a29.39,29.39,0,0,1,5-3.76l1.43,5.71s-7.16,13.2-9.75,15.64-4.71,1.51-10.05-.93c-5-2.31-10.52-5.18-10.52-5.18,1.09-9.6.35-14.79-4.23-16.41C255.23,182.1,258.39,184.26,261.35,186.59Z" transform="translate(-140.74 -138.84)"/><path class="cls-1" d="M270.57,193.57c-1.85.49-5.66,5.91-5,9.36l-9.71-4.8c1.17-6.62,1.43-14.79-4.17-16.37a8.08,8.08,0,0,0-1.63-.21h0a9,9,0,0,1,7.52,2C260.54,185.75,270.57,193.57,270.57,193.57Z" transform="translate(-140.74 -138.84)"/><path class="cls-9" d="M273.4,195.5c-1.39,1.22-1.84,3.42-2.11,4.29a7.64,7.64,0,0,1,1.3-4.82Z" transform="translate(-140.74 -138.84)"/><path class="cls-1" d="M286.92,176.5l3.33-2s.38,18,.4,18.55a1.91,1.91,0,0,0,.7,1.15l-3.34,2a2,2,0,0,1-.7-1.15C287.3,194.45,286.92,176.5,286.92,176.5Z" transform="translate(-140.74 -138.84)"/><path class="cls-17" d="M290.41,182s1,.23,1.32,1.71.55,4.32-.3,5.25a2.66,2.66,0,0,1-2.79,1c-1.44-.63-1-3.56.15-4.24,1.86-1.08,1.63-2.28,1.63-2.28Z" transform="translate(-140.74 -138.84)"/><path class="cls-3" d="M282.84,176.55l1.48,1.78.26,12.66-1.48,2.47,4.93,2.72a1.79,1.79,0,0,1-.7-1.15L287,178.81Z" transform="translate(-140.74 -138.84)"/><polygon class="cls-5" points="142.32 54.63 142.34 55.41 147.29 58.13 147.27 57.35 142.32 54.63"/><polygon class="cls-5" points="147.29 58.13 150.62 56.11 150.6 55.33 147.27 57.35 147.29 58.13"/><polygon class="cls-11" points="147.29 58.13 150.62 56.11 150.6 55.33 147.27 57.35 147.29 58.13"/><path class="cls-5" d="M283.79,167.76h0a2.18,2.18,0,0,0-2.09.85l0,0a7,7,0,0,0-1.42,6.15v0a2.2,2.2,0,0,0,1.55,1.7h0l2.88.69,1.76-8.81Z" transform="translate(-140.74 -138.84)"/><path class="cls-16" d="M283.79,167.76h0a2.18,2.18,0,0,0-2.09.85l0,0a7,7,0,0,0-1.42,6.15v0a2.2,2.2,0,0,0,1.55,1.7h0l2.88.69,1.76-8.81Z" transform="translate(-140.74 -138.84)"/><path class="cls-13" d="M281.81,176.5h0l2.88.69.58-2.92L280,173.06a5.53,5.53,0,0,0,.21,1.71v0C280.57,175.82,281.14,176.4,281.81,176.5Z" transform="translate(-140.74 -138.84)"/><path class="cls-5" d="M289.63,168h0a2.65,2.65,0,0,0-2.35.84l-.25.25c-.08.09-.18.2-.27.32a5.9,5.9,0,0,0-.43.59,8.56,8.56,0,0,0-.64,1.24A9.57,9.57,0,0,0,285,175a6.81,6.81,0,0,0,.27,1.79,2.77,2.77,0,0,0,1.8,2.09l-2.73-.63h0a3.17,3.17,0,0,1-2.17-2.18,7,7,0,0,1-.27-1.71,9.41,9.41,0,0,1,.72-3.85,7.92,7.92,0,0,1,.63-1.23,5,5,0,0,1,.43-.6,2.79,2.79,0,0,1,.28-.32,1.88,1.88,0,0,1,.25-.24,3.07,3.07,0,0,1,2.65-.76H287Z" transform="translate(-140.74 -138.84)"/><path class="cls-11" d="M284.32,178.26h0a3.17,3.17,0,0,1-2.17-2.18,7,7,0,0,1-.27-1.71L285,175a6.74,6.74,0,0,0,.27,1.79,2.81,2.81,0,0,0,1.8,2.1Z" transform="translate(-140.74 -138.84)"/><path class="cls-5" d="M291.49,170.12a8.78,8.78,0,0,1-1.79,7.71,2.8,2.8,0,0,1-2.61,1.08h0a2.81,2.81,0,0,1-1.8-2.1A8.75,8.75,0,0,1,287,169.1a2.81,2.81,0,0,1,2.6-1.08A2.76,2.76,0,0,1,291.49,170.12Z" transform="translate(-140.74 -138.84)"/><path class="cls-8" d="M291.49,170.12a8.78,8.78,0,0,1-1.79,7.71,2.8,2.8,0,0,1-2.61,1.08h0a2.81,2.81,0,0,1-1.8-2.1A8.75,8.75,0,0,1,287,169.1a2.81,2.81,0,0,1,2.6-1.08A2.76,2.76,0,0,1,291.49,170.12Z" transform="translate(-140.74 -138.84)"/><path class="cls-5" d="M302.91,166s-3.23,3.13-4.77,9.77a26.37,26.37,0,0,0-.58,3.63,18.28,18.28,0,0,0,.56,7.24,22.38,22.38,0,0,0-7.32-6.41,36.41,36.41,0,0,0-3.64-1.54h0a2.57,2.57,0,0,1-1.67-1.94,6.9,6.9,0,0,1-.25-2.35,8.25,8.25,0,0,1,.23-1.58,7.74,7.74,0,0,1,1.75-3.53,2.51,2.51,0,0,1,2.35-1h0a37.16,37.16,0,0,0,3.94.22A22.62,22.62,0,0,0,302.91,166Z" transform="translate(-140.74 -138.84)"/><path class="cls-16" d="M302.91,166s-3.23,3.13-4.77,9.77a26.37,26.37,0,0,0-.58,3.63,18.28,18.28,0,0,0,.56,7.24,22.38,22.38,0,0,0-7.32-6.41,36.41,36.41,0,0,0-3.64-1.54h0a2.57,2.57,0,0,1-1.67-1.94,6.9,6.9,0,0,1-.25-2.35,8.25,8.25,0,0,1,.23-1.58,7.74,7.74,0,0,1,1.75-3.53,2.51,2.51,0,0,1,2.35-1h0a37.16,37.16,0,0,0,3.94.22A22.62,22.62,0,0,0,302.91,166Z" transform="translate(-140.74 -138.84)"/><path class="cls-13" d="M297.56,179.35a18.28,18.28,0,0,0,.56,7.24,22.38,22.38,0,0,0-7.32-6.41,36.41,36.41,0,0,0-3.64-1.54h0a2.57,2.57,0,0,1-1.67-1.94,6.9,6.9,0,0,1-.25-2.35C288.58,174.93,294.07,176.18,297.56,179.35Z" transform="translate(-140.74 -138.84)"/><path class="cls-5" d="M311.76,169.21a18.71,18.71,0,0,1,.32,8.45h0a19.62,19.62,0,0,1-4.59,9.9c-4.1,4.39-8.84,3.29-10.6-2.47a16.08,16.08,0,0,1-.64-4.25,22.52,22.52,0,0,1,2.63-10.91,14.22,14.22,0,0,1,.79-1.31l.36-.49h0c.17-.25.34-.47.52-.69s.39-.46.59-.67C305.27,162.37,310,163.46,311.76,169.21Z" transform="translate(-140.74 -138.84)"/><path class="cls-11" d="M312.08,177.66a19.62,19.62,0,0,1-4.59,9.9c-4.1,4.39-8.84,3.29-10.6-2.47a16.08,16.08,0,0,1-.64-4.25h0c.56.64,2.09,1.33,2.41.42a14.52,14.52,0,0,0,.57,3.77,6.37,6.37,0,0,0,2.24,3.53,3.07,3.07,0,0,0,2.77.39,7.22,7.22,0,0,0,3-2.06,18.12,18.12,0,0,0,4.1-8.49S311.74,178.58,312.08,177.66Z" transform="translate(-140.74 -138.84)"/><path class="cls-5" d="M311.24,169.72a17.77,17.77,0,0,1,.11,8.69,18.25,18.25,0,0,1-4.09,8.49,7.25,7.25,0,0,1-3,2.06,3,3,0,0,1-2.76-.39,6.22,6.22,0,0,1-2.24-3.53,14.53,14.53,0,0,1-.58-3.77v-1.53A20.91,20.91,0,0,1,299,177c0-.19.07-.38.1-.56s.14-.62.22-.92a21.24,21.24,0,0,1,1-3v0a18.64,18.64,0,0,1,.91-1.85c.24-.42.49-.83.75-1.21l.34-.49c.14-.19.28-.37.43-.54s.29-.34.44-.49a7.07,7.07,0,0,1,3-2.06C308.42,165.16,310.3,166.61,311.24,169.72Z" transform="translate(-140.74 -138.84)"/><path class="cls-20" d="M311.24,169.72a17.77,17.77,0,0,1,.11,8.69,18.25,18.25,0,0,1-4.09,8.49,7.25,7.25,0,0,1-3,2.06,3,3,0,0,1-2.76-.39,6.22,6.22,0,0,1-2.24-3.53,14.53,14.53,0,0,1-.58-3.77v-1.53A20.91,20.91,0,0,1,299,177c0-.19.07-.38.1-.56s.14-.62.22-.92a21.24,21.24,0,0,1,1-3v0a18.64,18.64,0,0,1,.91-1.85c.24-.42.49-.83.75-1.21l.34-.49c.14-.19.28-.37.43-.54s.29-.34.44-.49a7.07,7.07,0,0,1,3-2.06C308.42,165.16,310.3,166.61,311.24,169.72Z" transform="translate(-140.74 -138.84)"/><path class="cls-5" d="M304,173.47l-1.36,6.86c-1-.06-2.65-.14-4-.08v-.49A21.12,21.12,0,0,1,299,177c0-.18.07-.37.1-.55s.14-.62.22-.92a21.79,21.79,0,0,1,1-3.05v0c.07-.14.13-.29.19-.42A21.9,21.9,0,0,0,304,173.47Z" transform="translate(-140.74 -138.84)"/><g class="cls-21"><path class="cls-22" d="M304,173.47l-1.36,6.86c-1-.06-2.65-.14-4-.08v-.49A21.12,21.12,0,0,1,299,177c0-.18.07-.37.1-.55s.14-.62.22-.92a21.79,21.79,0,0,1,1-3.05v0c.07-.14.13-.29.19-.42A21.9,21.9,0,0,0,304,173.47Z" transform="translate(-140.74 -138.84)"/></g><path class="cls-5" d="M302.92,180.23c-.72.22-1.33-.22-1.62-1.19v0a5.51,5.51,0,0,1,1.13-4.86h0a2.09,2.09,0,0,1,.9-.62c.71-.22,1.32.23,1.61,1.2v0a5.52,5.52,0,0,1-1.12,4.86h0a2.4,2.4,0,0,1-.9.61Z" transform="translate(-140.74 -138.84)"/><g class="cls-23"><path class="cls-22" d="M302.92,180.23c-.72.22-1.33-.22-1.62-1.19v0a5.51,5.51,0,0,1,1.13-4.86h0a2.09,2.09,0,0,1,.9-.62c.71-.22,1.32.23,1.61,1.2v0a5.52,5.52,0,0,1-1.12,4.86h0a2.4,2.4,0,0,1-.9.61Z" transform="translate(-140.74 -138.84)"/></g><path class="cls-10" d="M301.25,162.57a.73.73,0,0,1-.92-.48h0l-2.1-6.87a.75.75,0,0,1,1.42-.44l2.1,6.87a.75.75,0,0,1-.48.93Z" transform="translate(-140.74 -138.84)"/><path class="cls-10" d="M295.51,166.15a.73.73,0,0,1-.72-.17l-5.25-4.93a.74.74,0,0,1,.94-1.15l.07.07,5.25,4.93a.73.73,0,0,1,0,1h0A.79.79,0,0,1,295.51,166.15Z" transform="translate(-140.74 -138.84)"/><path class="cls-10" d="M299.11,201.26a.86.86,0,0,1-.39,0,.74.74,0,0,1-.56-.89l1.63-7a.74.74,0,0,1,1.46.28s0,0,0,.06l-1.63,7A.74.74,0,0,1,299.11,201.26Z" transform="translate(-140.74 -138.84)"/><path class="cls-10" d="M312.14,198.3a.75.75,0,0,1-.92-.5l-2.1-6.87a.75.75,0,0,1,1.39-.54l0,.11,2.1,6.87A.76.76,0,0,1,312.14,198.3Z" transform="translate(-140.74 -138.84)"/><path class="cls-10" d="M319.88,188.91a.75.75,0,0,1-.73-.16l-5.25-4.93a.75.75,0,0,1,0-1.06.75.75,0,0,1,1,0l5.26,4.9a.74.74,0,0,1,0,1.05h0A.62.62,0,0,1,319.88,188.91Z" transform="translate(-140.74 -138.84)"/><path class="cls-10" d="M324.81,179.66a.86.86,0,0,1-.39,0l-7-1.63a.74.74,0,0,1,.33-1.45h0l7,1.62a.74.74,0,0,1,.05,1.43Z" transform="translate(-140.74 -138.84)"/><path class="cls-10" d="M324.45,169.17l-6.87,2.1a.75.75,0,0,1-.93-.49h0a.74.74,0,0,1,.49-.92l6.9-2.1a.75.75,0,0,1,.44,1.42Z" transform="translate(-140.74 -138.84)"/><path class="cls-10" d="M314,165.52a.74.74,0,0,1-.93-.49.73.73,0,0,1,.16-.72l4.91-5.25a.74.74,0,0,1,1.09,1l-4.91,5.25A.64.64,0,0,1,314,165.52Z" transform="translate(-140.74 -138.84)"/><path class="cls-10" d="M308,162.34a.62.62,0,0,1-.38,0,.73.73,0,0,1-.56-.88h0l1.62-7a.75.75,0,0,1,1.47.28s0,0,0,.06l-1.62,7A.75.75,0,0,1,308,162.34Z" transform="translate(-140.74 -138.84)"/><path class="cls-17" d="M280.32,186.67c1.41-1.8,1.48-2.93,2.57-3.81s2.22-.94,3.87-.46c1.23.35,2.69.17,3.19.63.14.1-.08.9-.66,1.18a6.87,6.87,0,0,1-2.67.27c-1.9,0-.34,1.87-2.17,3.76C283.68,189.6,280.32,186.67,280.32,186.67Z" transform="translate(-140.74 -138.84)"/></g></g></g><g id="freepik--paper-planes--inject-2"><g id="freepik--paper-plane--inject-2"><polygon class="cls-5" points="183.11 76.35 200.55 65.18 208.23 67.65 183.11 76.35"/><polygon class="cls-5" points="183.11 76.35 198.19 63.78 194.83 59.91 183.11 76.35"/><polygon class="cls-5" points="198.19 63.78 198.19 66.7 183.11 76.35 198.19 63.78"/><polygon class="cls-24" points="198.19 63.78 198.19 66.7 183.11 76.35 198.19 63.78"/><path class="cls-10" d="M342.48,200.93a.49.49,0,0,1-.32-.86h0c.3-.26.61-.53.9-.8a.48.48,0,0,1,.69.06.5.5,0,0,1,0,.65c-.31.29-.61.57-.93.84A.5.5,0,0,1,342.48,200.93Z" transform="translate(-140.74 -138.84)"/><path class="cls-10" d="M345.09,198.35a.47.47,0,0,1-.32-.12.49.49,0,0,1,0-.7c.5-.59,1-1.22,1.48-1.86a.49.49,0,0,1,.8.58c-.5.67-1,1.32-1.55,1.93A.53.53,0,0,1,345.09,198.35Zm2.89-3.9a.61.61,0,0,1-.26-.08.49.49,0,0,1-.15-.68h0c.41-.66.82-1.36,1.19-2.07a.49.49,0,0,1,.87.45c-.39.74-.8,1.46-1.23,2.14a.49.49,0,0,1-.42.24Zm2.27-4.3a.43.43,0,0,1-.19,0,.5.5,0,0,1-.26-.65h0c.32-.73.63-1.48.9-2.23a.49.49,0,0,1,.64-.27.48.48,0,0,1,.28.61c-.28.77-.59,1.54-.92,2.29a.5.5,0,0,1-.45.29Zm1.67-4.57h-.14a.48.48,0,0,1-.33-.61h0c.22-.76.42-1.54.6-2.32a.5.5,0,1,1,1,.22h0c-.18.79-.39,1.6-.61,2.38a.49.49,0,0,1-.5.33Zm1.07-4.74h-.08a.49.49,0,0,1-.41-.56h0c.12-.78.23-1.58.3-2.38a.5.5,0,0,1,1,.1h0c-.08.81-.19,1.64-.32,2.46A.49.49,0,0,1,353,180.84Zm.46-4.84h0a.5.5,0,0,1-.5-.49v-2.4a.5.5,0,0,1,.5-.5.49.49,0,0,1,.49.5v2.46a.5.5,0,0,1-.49.44Zm-.17-4.86a.5.5,0,0,1-.5-.44c-.08-.8-.19-1.6-.33-2.38a.5.5,0,0,1,1-.16c.14.79.25,1.62.34,2.46a.49.49,0,0,1-.44.54h0Zm-.85-4.79a.48.48,0,0,1-.49-.37c-.2-.78-.42-1.55-.68-2.29a.51.51,0,0,1,.27-.65.49.49,0,0,1,.64.27l0,.06c.26.77.49,1.57.7,2.37a.51.51,0,0,1-.36.6h-.11Zm-1.57-4.6a.5.5,0,0,1-.45-.3,21.35,21.35,0,0,0-1-2.15.5.5,0,0,1,.87-.49h0c.39.72.75,1.48,1.08,2.23a.49.49,0,0,1-.26.64A.48.48,0,0,1,350.86,161.75Zm-2.3-4.28a.49.49,0,0,1-.41-.22c-.43-.67-.9-1.32-1.39-1.95a.49.49,0,0,1,.07-.69h0a.49.49,0,0,1,.69.08c.49.63,1,1.31,1.48,2a.5.5,0,0,1-.14.68.45.45,0,0,1-.27.08Zm-3-3.79a.51.51,0,0,1-.36-.15c-.54-.57-1.12-1.13-1.72-1.67a.49.49,0,0,1,0-.7.5.5,0,0,1,.7,0c.61.56,1.21,1.14,1.77,1.73a.5.5,0,0,1-.36.83Zm-3.61-3.27a.47.47,0,0,1-.3-.1c-.62-.49-1.27-1-1.93-1.43a.49.49,0,0,1,.48-.86l.08,0c.68.5,1.35,1,2,1.48a.49.49,0,0,1,.08.69.46.46,0,0,1-.36.17Zm-4-2.77a.48.48,0,0,1-.26-.07c-.67-.41-1.37-.81-2.08-1.2a.5.5,0,0,1-.16-.68.48.48,0,0,1,.62-.18c.73.39,1.45.8,2.14,1.22a.5.5,0,0,1,.16.68A.48.48,0,0,1,337.93,147.64Zm-4.28-2.31a.41.41,0,0,1-.21-.05c-.72-.34-1.48-.67-2.2-1a.51.51,0,0,1-.27-.65.5.5,0,0,1,.65-.26h0c.75.31,1.51.65,2.24,1a.49.49,0,0,1-.21.94Zm-49.79-1.22a.49.49,0,0,1-.16-1c.77-.28,1.55-.54,2.32-.79a.49.49,0,0,1,.36.92l-.06,0c-.76.24-1.53.49-2.29.78a.35.35,0,0,1-.14,0Zm45.31-.64a.45.45,0,0,1-.16,0c-.74-.27-1.51-.53-2.28-.78a.49.49,0,1,1,.21-1l.08,0c.79.26,1.57.52,2.33.8a.49.49,0,0,1,.32.61A.5.5,0,0,1,329.17,143.47Zm-40.65-.83a.5.5,0,1,1-.14-1c.77-.22,1.57-.43,2.36-.64a.51.51,0,0,1,.59.39.49.49,0,0,1-.35.57c-.78.2-1.57.41-2.33.63l-.13,0Zm36-.64h-.13c-.77-.21-1.55-.41-2.34-.59a.5.5,0,0,1-.39-.6.51.51,0,0,1,.6-.39c.81.19,1.61.39,2.38.6a.49.49,0,0,1,.43.56.49.49,0,0,1-.55.43Zm-31.31-.57a.49.49,0,1,1-.1-1h0c.79-.18,1.6-.33,2.39-.5a.51.51,0,0,1,.58.41.5.5,0,0,1-.4.58c-.79.14-1.58.3-2.37.49Zm26.57-.53h-.09c-.78-.15-1.58-.28-2.39-.39a.5.5,0,0,1-.41-.56h0a.5.5,0,0,1,.56-.41c.82.12,1.63.25,2.42.4a.5.5,0,0,1,.45.54.51.51,0,0,1-.54.45ZM298,140.57a.5.5,0,0,1-.53-.46.49.49,0,0,1,.46-.53c.81-.12,1.62-.22,2.43-.31a.5.5,0,0,1,.11,1c-.8.08-1.6.19-2.4.31Zm17-.37h-.05c-.79-.08-1.6-.15-2.41-.21a.49.49,0,0,1-.46-.52h0a.49.49,0,0,1,.53-.46h0c.83.06,1.64.13,2.44.21a.5.5,0,0,1,.44.55h0a.49.49,0,0,1-.49.43ZM302.85,140a.49.49,0,0,1-.05-1h0c.82-.06,1.63-.11,2.46-.15a.5.5,0,0,1,.49.5.49.49,0,0,1-.49.49c-.79,0-1.61.08-2.41.14Zm7.29-.16h0c-.71,0-1.42,0-2.11,0h-.31a.5.5,0,0,1,0-1H308c.71,0,1.43,0,2.14,0a.5.5,0,0,1,.49.5.49.49,0,0,1-.49.49Z" transform="translate(-140.74 -138.84)"/><path class="cls-10" d="M280.43,145.45a.5.5,0,0,1-.49-.5.49.49,0,0,1,.3-.45l1.15-.49a.49.49,0,0,1,.64.27h0a.5.5,0,0,1-.28.64h0l-1.14.46A.55.55,0,0,1,280.43,145.45Z" transform="translate(-140.74 -138.84)"/></g><g id="freepik--paper-plane--inject-2-2" data-name="freepik--paper-plane--inject-2"><polygon class="cls-5" points="29.92 51.54 52.59 40.43 36.25 55.98 29.92 51.54"/><polygon class="cls-5" points="52.59 40.43 27.59 48.65 21.28 44.22 52.59 40.43"/><polygon class="cls-5" points="27.59 48.65 28.59 55 29.92 51.54 52.59 40.43 27.59 48.65"/><polygon class="cls-24" points="27.59 48.65 28.59 55 29.92 51.54 52.59 40.43 27.59 48.65"/><polygon class="cls-5" points="28.59 55 32.03 53.02 29.92 51.54 28.59 55"/><polygon class="cls-24" points="29.92 51.54 32.03 53.02 31.48 53.34 29.92 51.54"/><path class="cls-10" d="M172.37,256.92a.47.47,0,0,1-.17,0c-.8-.29-1.58-.58-2.32-.88a.49.49,0,1,1,.36-.91c.73.28,1.48.57,2.3.86a.5.5,0,0,1-.17,1Zm-4.58-1.82a.65.65,0,0,1-.2,0q-1.16-.51-2.25-1.05a.49.49,0,0,1-.23-.66.5.5,0,0,1,.66-.22c.72.35,1.48.69,2.22,1a.48.48,0,0,1,.24.65.5.5,0,0,1-.44.29Zm-4.44-2.17a.46.46,0,0,1-.23-.06c-.74-.4-1.48-.82-2.16-1.25a.5.5,0,0,1-.06-.7.48.48,0,0,1,.55-.14c.68.42,1.39.83,2.11,1.22a.49.49,0,0,1,.2.67.48.48,0,0,1-.43.26Zm-4.19-2.59a.47.47,0,0,1-.28-.09c-.69-.49-1.36-1-2-1.48a.5.5,0,0,1-.08-.71.51.51,0,0,1,.72-.08c.62.49,1.27,1,2,1.45a.5.5,0,0,1,.12.69.49.49,0,0,1-.4.21Zm-3.85-3.07a.5.5,0,0,1-.33-.12c-.62-.57-1.22-1.16-1.78-1.76a.49.49,0,0,1,.72-.67c.54.58,1.13,1.15,1.73,1.7a.49.49,0,0,1,0,.69A.44.44,0,0,1,155.31,247.27Zm-3.37-3.57a.47.47,0,0,1-.38-.19,23.58,23.58,0,0,1-1.48-2,.49.49,0,1,1,.81-.55h0c.45.66.94,1.32,1.44,2a.49.49,0,0,1-.07.69.53.53,0,0,1-.3.09Zm-2.76-4.08a.48.48,0,0,1-.43-.25c-.4-.72-.79-1.48-1.14-2.23a.5.5,0,0,1,.24-.65.49.49,0,0,1,.66.24,24.09,24.09,0,0,0,1.1,2.15.51.51,0,0,1-.18.68h0a.43.43,0,0,1-.22.06Zm-2-4.46a.47.47,0,0,1-.46-.32c-.29-.77-.55-1.57-.78-2.37a.49.49,0,0,1,.3-.63.5.5,0,0,1,.63.31.43.43,0,0,1,0,0c.23.78.5,1.55.76,2.3a.49.49,0,0,1-.29.63A.51.51,0,0,1,147.14,235.16Zm-1.38-4.72a.5.5,0,0,1-.49-.39c-.17-.8-.33-1.62-.46-2.47a.49.49,0,0,1,.41-.56.5.5,0,0,1,.57.41h0c.12.81.27,1.62.44,2.39a.49.49,0,0,1-.37.59l-.1,0Zm-.77-4.87a.5.5,0,0,1-.49-.44c-.08-.8-.15-1.63-.2-2.47a.49.49,0,1,1,1,0h0c0,.83.11,1.65.19,2.43a.49.49,0,0,1-.44.54Zm-.25-4.93h0a.5.5,0,0,1-.5-.49c0-.83.07-1.67.15-2.5a.51.51,0,0,1,.54-.45h0a.49.49,0,0,1,.43.55h0c-.08.8-.12,1.61-.14,2.42a.49.49,0,0,1-.49.47Zm.49-4.9h-.09a.49.49,0,0,1-.39-.57c.15-.82.33-1.64.54-2.47a.5.5,0,0,1,.61-.34h0a.49.49,0,0,1,.35.6c-.21.78-.39,1.58-.54,2.37A.49.49,0,0,1,145.23,215.74ZM146.5,211a.45.45,0,0,1-.16,0,.49.49,0,0,1-.3-.63h0c.28-.78.59-1.56.93-2.33a.5.5,0,0,1,.63-.29.5.5,0,0,1,.29.64l0,.06c-.32.73-.63,1.47-.89,2.25A.5.5,0,0,1,146.5,211Zm2-4.5a.5.5,0,0,1-.49-.5.62.62,0,0,1,.07-.23,23,23,0,0,1,1.28-2.15.48.48,0,0,1,.69-.09.49.49,0,0,1,.13.63c-.44.67-.86,1.37-1.24,2.08a.49.49,0,0,1-.44.23Zm2.72-4.15a.49.49,0,0,1-.49-.5.47.47,0,0,1,.1-.3,24.27,24.27,0,0,1,1.61-1.91.49.49,0,0,1,.7,0,.5.5,0,0,1,0,.7h0c-.54.59-1.07,1.22-1.56,1.85A.47.47,0,0,1,151.22,202.36Zm3.32-3.64a.49.49,0,0,1-.49-.5.47.47,0,0,1,.15-.35c.61-.58,1.25-1.12,1.9-1.64a.5.5,0,0,1,.69.08.49.49,0,0,1-.08.7h0c-.63.49-1.25,1-1.84,1.58a.46.46,0,0,1-.36.13Zm3.86-3.05a.5.5,0,0,1-.28-.93c.69-.46,1.41-.89,2.14-1.3a.5.5,0,0,1,.49.87c-.7.39-1.4.81-2.07,1.25a.46.46,0,0,1-.3.11Zm4.28-2.41a.49.49,0,0,1-.49-.49.48.48,0,0,1,.29-.45c.75-.34,1.53-.66,2.32-.94a.49.49,0,0,1,.62.31.51.51,0,0,1-.29.62c-.76.27-1.51.58-2.25.91A.45.45,0,0,1,162.68,193.26Z" transform="translate(-140.74 -138.84)"/></g></g><g id="freepik--Icon--inject-2"><g id="freepik--At--inject-2"><path class="cls-5" d="M286.29,324.57a.48.48,0,0,0-.26-.43,1.61,1.61,0,0,0-1.08-.33,2.71,2.71,0,0,0-1.15.28l-2,1.05a3.68,3.68,0,0,0,.36-.9,3.05,3.05,0,0,0,.08-.74v-2.93a3.36,3.36,0,0,0-.29-1.36,5.33,5.33,0,0,0-1.77-2c-.61-.46-1.33-1-2.18-1.53s-1.63-1-2.32-1.41a28.36,28.36,0,0,0-5.84-2.33,24.42,24.42,0,0,0-6.75-.86,31.08,31.08,0,0,0-7.67,1.09,39.9,39.9,0,0,0-8.58,3.45,20.47,20.47,0,0,0-5.82,4.25,9.22,9.22,0,0,0-2.39,4.34,7.17,7.17,0,0,0-.12,1.31v3a6.5,6.5,0,0,0,.7,2.87,10.53,10.53,0,0,0,3.06,3.6c.29.23.71.53,1.26.91s1.14.77,1.77,1.18,1.23.8,1.83,1.17,1.07.66,1.45.88a24.84,24.84,0,0,0,5.86,2.16,29.13,29.13,0,0,0,6.9.75,32.54,32.54,0,0,0,7.48-.94A36.86,36.86,0,0,0,281.52,335a17.79,17.79,0,0,0,2.87-2.75,7.78,7.78,0,0,0,1.37-2.43,14.76,14.76,0,0,0,.52-2.16v-.09C286.29,327.41,286.29,324.6,286.29,324.57Zm-7.4,3.54a7.67,7.67,0,0,1-1.13,1.28,15.32,15.32,0,0,1-1.92,1.48,32.22,32.22,0,0,1-3,1.76,23.29,23.29,0,0,1-10.41,2.79,21.44,21.44,0,0,1-4.93-.43,18.65,18.65,0,0,1-4.4-1.52,14.66,14.66,0,0,1-1.44-.81l-1.7-1.09c-.57-.38-1.12-.74-1.63-1.1a10,10,0,0,1-1.17-.89,7.69,7.69,0,0,1-2.13-2.76c-.05-.11-.09-.22-.13-.33a7.08,7.08,0,0,1,1.68-2.56,16.28,16.28,0,0,1,4-2.84,34.24,34.24,0,0,1,5.82-2.47,24.83,24.83,0,0,1,2.95-.71l-.49.28a.91.91,0,0,0-.55.64.64.64,0,0,0,.35.64l.33.22a10.44,10.44,0,0,0-2.62,0,9.27,9.27,0,0,0-3.16,1.13,6.48,6.48,0,0,0-2.39,1.92,3.19,3.19,0,0,0-.66,1.9v3a1.31,1.31,0,0,0,0,.28,4.52,4.52,0,0,0,1,2.29,10.65,10.65,0,0,0,2.6,2.27,14.93,14.93,0,0,0,3.59,1.75,15.69,15.69,0,0,0,3.84.78,14.76,14.76,0,0,0,3.81-.2,12.16,12.16,0,0,0,3.5-1.23,12,12,0,0,0,2.12-1.34,4.78,4.78,0,0,0,1.07-1.13,2.07,2.07,0,0,0,.35-1,4.31,4.31,0,0,0,0-.88,13.06,13.06,0,0,0,3-.21,13.56,13.56,0,0,0,3.95-1.48l.22-.13A1.48,1.48,0,0,1,278.89,328.11Zm-17.59-2.9a8.55,8.55,0,0,1,3.64,1.41,8.27,8.27,0,0,1,1.1.85,4.15,4.15,0,0,1-.57.35,5.71,5.71,0,0,1-3.39.62,8.44,8.44,0,0,1-3.65-1.39,7.36,7.36,0,0,1-1.12-.88,3,3,0,0,1,.52-.32,5.7,5.7,0,0,1,3.49-.64ZM275,322.29a4.9,4.9,0,0,1-1.77.39,3.45,3.45,0,0,1-2-.53l-6.67-4.37a17,17,0,0,1,2,.34,20.19,20.19,0,0,1,4.68,1.76,22.52,22.52,0,0,1,2.18,1.27c.6.38,1.14.77,1.64,1.14Z" transform="translate(-140.74 -138.84)"/><path class="cls-8" d="M286.29,324.57a.48.48,0,0,0-.26-.43,1.61,1.61,0,0,0-1.08-.33,2.71,2.71,0,0,0-1.15.28l-2,1.05a3.68,3.68,0,0,0,.36-.9,3.05,3.05,0,0,0,.08-.74v-2.93a3.36,3.36,0,0,0-.29-1.36,5.33,5.33,0,0,0-1.77-2c-.61-.46-1.33-1-2.18-1.53s-1.63-1-2.32-1.41a28.36,28.36,0,0,0-5.84-2.33,24.42,24.42,0,0,0-6.75-.86,31.08,31.08,0,0,0-7.67,1.09,39.9,39.9,0,0,0-8.58,3.45,20.47,20.47,0,0,0-5.82,4.25,9.22,9.22,0,0,0-2.39,4.34,7.17,7.17,0,0,0-.12,1.31v3a6.5,6.5,0,0,0,.7,2.87,10.53,10.53,0,0,0,3.06,3.6c.29.23.71.53,1.26.91s1.14.77,1.77,1.18,1.23.8,1.83,1.17,1.07.66,1.45.88a24.84,24.84,0,0,0,5.86,2.16,29.13,29.13,0,0,0,6.9.75,32.54,32.54,0,0,0,7.48-.94A36.86,36.86,0,0,0,281.52,335a17.79,17.79,0,0,0,2.87-2.75,7.78,7.78,0,0,0,1.37-2.43,14.76,14.76,0,0,0,.52-2.16v-.09C286.29,327.41,286.29,324.6,286.29,324.57Zm-7.4,3.54a7.67,7.67,0,0,1-1.13,1.28,15.32,15.32,0,0,1-1.92,1.48,32.22,32.22,0,0,1-3,1.76,23.29,23.29,0,0,1-10.41,2.79,21.44,21.44,0,0,1-4.93-.43,18.65,18.65,0,0,1-4.4-1.52,14.66,14.66,0,0,1-1.44-.81l-1.7-1.09c-.57-.38-1.12-.74-1.63-1.1a10,10,0,0,1-1.17-.89,7.69,7.69,0,0,1-2.13-2.76c-.05-.11-.09-.22-.13-.33a7.08,7.08,0,0,1,1.68-2.56,16.28,16.28,0,0,1,4-2.84,34.24,34.24,0,0,1,5.82-2.47,24.83,24.83,0,0,1,2.95-.71l-.49.28a.91.91,0,0,0-.55.64.64.64,0,0,0,.35.64l.33.22a10.44,10.44,0,0,0-2.62,0,9.27,9.27,0,0,0-3.16,1.13,6.48,6.48,0,0,0-2.39,1.92,3.19,3.19,0,0,0-.66,1.9v3a1.31,1.31,0,0,0,0,.28,4.52,4.52,0,0,0,1,2.29,10.65,10.65,0,0,0,2.6,2.27,14.93,14.93,0,0,0,3.59,1.75,15.69,15.69,0,0,0,3.84.78,14.76,14.76,0,0,0,3.81-.2,12.16,12.16,0,0,0,3.5-1.23,12,12,0,0,0,2.12-1.34,4.78,4.78,0,0,0,1.07-1.13,2.07,2.07,0,0,0,.35-1,4.31,4.31,0,0,0,0-.88,13.06,13.06,0,0,0,3-.21,13.56,13.56,0,0,0,3.95-1.48l.22-.13A1.48,1.48,0,0,1,278.89,328.11Zm-17.59-2.9a8.55,8.55,0,0,1,3.64,1.41,8.27,8.27,0,0,1,1.1.85,4.15,4.15,0,0,1-.57.35,5.71,5.71,0,0,1-3.39.62,8.44,8.44,0,0,1-3.65-1.39,7.36,7.36,0,0,1-1.12-.88,3,3,0,0,1,.52-.32,5.7,5.7,0,0,1,3.49-.64ZM275,322.29a4.9,4.9,0,0,1-1.77.39,3.45,3.45,0,0,1-2-.53l-6.67-4.37a17,17,0,0,1,2,.34,20.19,20.19,0,0,1,4.68,1.76,22.52,22.52,0,0,1,2.18,1.27c.6.38,1.14.77,1.64,1.14Z" transform="translate(-140.74 -138.84)"/><path class="cls-11" d="M244.93,326.51a7.11,7.11,0,0,1,1.69-2.56,15.83,15.83,0,0,1,4-2.84,33.8,33.8,0,0,1,5.81-2.47,25,25,0,0,1,3-.71l1.79-.95a2.37,2.37,0,0,1,1.14-.25,2,2,0,0,1,1.06.27l1.18.78a17,17,0,0,1,2,.34,20.19,20.19,0,0,1,4.68,1.76,22.52,22.52,0,0,1,2.18,1.27c.59.38,1.12.76,1.63,1.14l.29-.13a1.8,1.8,0,0,0,1-1.14c.09-.44-.22-.94-.95-1.47s-1.27-.94-2-1.41a22.61,22.61,0,0,0-2.18-1.28,20.7,20.7,0,0,0-4.69-1.75,17.5,17.5,0,0,0-4.89-.45,21.36,21.36,0,0,0-5.25,1,33.76,33.76,0,0,0-5.81,2.46,15.83,15.83,0,0,0-4,2.84,6.69,6.69,0,0,0-1.81,3,4.57,4.57,0,0,0,.25,3,7.32,7.32,0,0,0,.85,1.42,7.32,7.32,0,0,1-.85-1.42C245,326.73,245,326.62,244.93,326.51Z" transform="translate(-140.74 -138.84)"/><path class="cls-11" d="M265,323.6a8.62,8.62,0,0,0-3.64-1.42,5.78,5.78,0,0,0-3.46.64c-1,.55-1.47,1.19-1.37,1.93a2.62,2.62,0,0,0,.86,1.43h0a5.48,5.48,0,0,1,4-1,8.69,8.69,0,0,1,3.64,1.41,9.2,9.2,0,0,1,1.1.85l-.26.17c.87-.53,1.26-1.11,1.16-1.75S266.19,324.39,265,323.6Z" transform="translate(-140.74 -138.84)"/><path class="cls-11" d="M261.23,332.05a15.8,15.8,0,0,1-7.43-2.54,10.08,10.08,0,0,1-2.6-2.27,4.54,4.54,0,0,1-1-2.29,3.23,3.23,0,0,1,0-.44V328a4.51,4.51,0,0,0,1,2.28,10.31,10.31,0,0,0,2.6,2.28,15.67,15.67,0,0,0,7.43,2.53Z" transform="translate(-140.74 -138.84)"/><path class="cls-11" d="M272.1,326.28v3a13.11,13.11,0,0,0,3-.22v-3A13.1,13.1,0,0,1,272.1,326.28Z" transform="translate(-140.74 -138.84)"/><path class="cls-11" d="M254.49,338.26a24.41,24.41,0,0,1-5.86-2.16c-.38-.21-.86-.49-1.45-.87s-1.21-.76-1.83-1.17l-1.77-1.18c-.55-.38-1-.69-1.26-.91a10.66,10.66,0,0,1-3.06-3.61,6.4,6.4,0,0,1-.69-2.88v3a6.28,6.28,0,0,0,.7,2.88,10.69,10.69,0,0,0,3,3.6q.44.33,1.26.9c.56.38,1.14.78,1.77,1.19l1.83,1.17c.6.37,1.08.66,1.45.87a24.73,24.73,0,0,0,5.86,2.16,29.14,29.14,0,0,0,6.9.76v-3A29.13,29.13,0,0,1,254.49,338.26Z" transform="translate(-140.74 -138.84)"/><path class="cls-5" d="M280.22,317.21a5.3,5.3,0,0,1,1.76,2,3.16,3.16,0,0,1,.22,2,4.2,4.2,0,0,1-1.06,1.85,8,8,0,0,1-2.07,1.53,13.56,13.56,0,0,1-3.95,1.48,13.1,13.1,0,0,1-3,.21v.88a2.11,2.11,0,0,1-.35,1,4.78,4.78,0,0,1-1.07,1.13,12.68,12.68,0,0,1-2.12,1.35,12.45,12.45,0,0,1-3.5,1.22,14.34,14.34,0,0,1-3.81.21,15.8,15.8,0,0,1-7.43-2.54,10.47,10.47,0,0,1-2.6-2.27,4.54,4.54,0,0,1-1-2.29,3.17,3.17,0,0,1,.65-2.18,6.77,6.77,0,0,1,2.39-1.92,9.65,9.65,0,0,1,3.16-1.13,10.52,10.52,0,0,1,2.63,0l-.34-.21a.65.65,0,0,1-.34-.65.9.9,0,0,1,.54-.64l2.31-1.22a2.24,2.24,0,0,1,1.14-.25,1.86,1.86,0,0,1,1.05.27l7.86,5.14a3.46,3.46,0,0,0,2.05.54,4.76,4.76,0,0,0,2-.53,1.75,1.75,0,0,0,1-1.13c.1-.44-.22-.94-.95-1.48s-1.27-.94-2-1.41a22.52,22.52,0,0,0-2.18-1.27,20.1,20.1,0,0,0-4.69-1.76,17,17,0,0,0-4.88-.44,21,21,0,0,0-5.26,1,34.14,34.14,0,0,0-5.81,2.47,15.76,15.76,0,0,0-4,2.84,6.69,6.69,0,0,0-1.8,2.95,4.44,4.44,0,0,0,.25,3,7.77,7.77,0,0,0,2.13,2.76,12.31,12.31,0,0,0,1.16.89c.5.36,1.06.72,1.64,1.1l1.7,1.09a14.66,14.66,0,0,0,1.44.81,18,18,0,0,0,4.4,1.51,20.9,20.9,0,0,0,4.93.44A23.38,23.38,0,0,0,273,332.71a32.22,32.22,0,0,0,3-1.76,15.32,15.32,0,0,0,1.92-1.48,7.44,7.44,0,0,0,1.77-2.38,5.58,5.58,0,0,1,.35-.69,1.83,1.83,0,0,1,.65-.49l3.17-1.82a2.71,2.71,0,0,1,1.15-.28,1.61,1.61,0,0,1,1.08.33.48.48,0,0,1,.25.52,14.76,14.76,0,0,1-.52,2.16,7.89,7.89,0,0,1-1.37,2.43,17.31,17.31,0,0,1-2.87,2.74,33.87,33.87,0,0,1-20.15,7,29.15,29.15,0,0,1-6.9-.77,24,24,0,0,1-5.86-2.16c-.38-.2-.86-.49-1.45-.86s-1.21-.77-1.83-1.18-1.22-.8-1.77-1.18-1-.68-1.26-.91a10.53,10.53,0,0,1-3.06-3.6,6.35,6.35,0,0,1-.58-4.13,9.22,9.22,0,0,1,2.39-4.34,20.76,20.76,0,0,1,5.82-4.25,39.9,39.9,0,0,1,8.58-3.45,31.34,31.34,0,0,1,7.65-1.1,24,24,0,0,1,6.74.84,28.5,28.5,0,0,1,5.83,2.33c.7.38,1.47.86,2.32,1.41S279.61,316.75,280.22,317.21Zm-21.77,9.84a8.45,8.45,0,0,0,3.64,1.39,5.69,5.69,0,0,0,3.39-.62c1.09-.57,1.58-1.22,1.48-1.94s-.77-1.48-2-2.28a8.62,8.62,0,0,0-3.64-1.42,5.78,5.78,0,0,0-3.46.64c-1,.55-1.47,1.19-1.37,1.93S257.24,326.26,258.45,327.05Z" transform="translate(-140.74 -138.84)"/></g></g><g id="freepik--Envelope--inject-2"><g id="freepik--Mail--inject-2"><path class="cls-5" d="M257.13,316.73v.32a1.81,1.81,0,0,0,.82,1.43l17.69,10.22a1.84,1.84,0,0,0,1.65,0l29.28-16.91a1.85,1.85,0,0,0,.83-1.43V310a1.85,1.85,0,0,0-.83-1.43l-17.68-10.21a1.84,1.84,0,0,0-1.65,0L258,315.29A1.82,1.82,0,0,0,257.13,316.73Z" transform="translate(-140.74 -138.84)"/><path class="cls-5" d="M257.13,316.73v.32a1.81,1.81,0,0,0,.82,1.43l17.69,10.22a1.84,1.84,0,0,0,1.65,0l29.28-16.91a1.85,1.85,0,0,0,.83-1.43V310a1.85,1.85,0,0,0-.83-1.43l-17.68-10.21a1.84,1.84,0,0,0-1.65,0L258,315.29A1.82,1.82,0,0,0,257.13,316.73Z" transform="translate(-140.74 -138.84)"/><path class="cls-8" d="M276.46,304.61,258,315.29a1.81,1.81,0,0,0-.82,1.43v.33a1.81,1.81,0,0,0,.82,1.43l17.69,10.22a1.77,1.77,0,0,0,.82.2h0Z" transform="translate(-140.74 -138.84)"/><path class="cls-7" d="M276.46,304.61,258,315.29a1.81,1.81,0,0,0-.82,1.43v.33a1.81,1.81,0,0,0,.82,1.43l17.69,10.22a1.77,1.77,0,0,0,.82.2h0Z" transform="translate(-140.74 -138.84)"/><path class="cls-8" d="M306.57,308.59l-17.68-10.21a1.78,1.78,0,0,0-1.65,0l-10.78,6.22v24.28h0a1.62,1.62,0,0,0,.83-.2l29.28-16.9a1.85,1.85,0,0,0,.83-1.43V310A1.85,1.85,0,0,0,306.57,308.59Z" transform="translate(-140.74 -138.84)"/><path class="cls-5" d="M272.8,324.82,258,316.25a.5.5,0,0,1-.32-.63.51.51,0,0,1,.32-.32l29.29-16.91a1.78,1.78,0,0,1,1.65,0l17.68,10.2a.5.5,0,0,1,0,1l-4.86,2.81-1.7,1-22.72,13.13a1.78,1.78,0,0,1-1.65,0l-1.45-.83Z" transform="translate(-140.74 -138.84)"/><path class="cls-7" d="M286.29,310.58l20.28-2-20.11,1.14,2.42-11.35a1.71,1.71,0,0,0-.89-.19l-3.8,15.34-26.58,2.21a.55.55,0,0,0,.34.51L279.4,315l-3,11.65,3.78-11.7h0l3.67-.21a2.05,2.05,0,0,0,1.21-.51h0a1.94,1.94,0,0,0,.61-1.06Z" transform="translate(-140.74 -138.84)"/><path class="cls-6" d="M264,315.21l20.23-1.67.73-2.9.4-1.61L288,298.2a1.64,1.64,0,0,0-.75.19l-14.64,8.45L258,315.29a.63.63,0,0,0-.34.45l4.07-.34Z" transform="translate(-140.74 -138.84)"/></g></g></svg>